<svg xmlns="http://www.w3.org/2000/svg" xmlns:xlink="http://www.w3.org/1999/xlink" viewBox="0 0 132.04 171.88"><defs><filter id="a279bd77-a168-4fe9-ab56-97dfb0d4c45d" x="37.45" y="-7976.41" width="71.94" height="32766" filterUnits="userSpaceOnUse" color-interpolation-filters="sRGB"><feFlood flood-color="#fff" result="bg"/><feBlend in="SourceGraphic" in2="bg"/></filter><mask id="bcc17852-26e3-458a-ac06-c1f4bc7711f9" x="37.45" y="-7976.41" width="71.94" height="32766" maskUnits="userSpaceOnUse"><g filter="url(#a279bd77-a168-4fe9-ab56-97dfb0d4c45d)"/></mask><linearGradient id="b8699884-bed1-41f1-8122-9a1c8addecad" x1="76.55" y1="7.7" x2="73.83" y2="23.15" gradientUnits="userSpaceOnUse"><stop offset="0" stop-color="#fff"/><stop offset="0.3" stop-color="#fff"/><stop offset="0.41" stop-color="#dedede"/><stop offset="0.64" stop-color="#8b8b8b"/><stop offset="0.98" stop-color="#080808"/><stop offset="1"/></linearGradient><filter id="fc714f97-4f6a-416f-a893-2887b74da83a" x="90.59" y="-7976.41" width="36.35" height="32766" filterUnits="userSpaceOnUse" color-interpolation-filters="sRGB"><feFlood flood-color="#fff" result="bg"/><feBlend in="SourceGraphic" in2="bg"/></filter><mask id="afc2e11d-4da6-41fb-8c82-d4bd7044bfe1" x="90.59" y="-7976.41" width="36.35" height="32766" maskUnits="userSpaceOnUse"><g filter="url(#fc714f97-4f6a-416f-a893-2887b74da83a)"/></mask><linearGradient id="fa05b304-7cf1-49dc-a2af-6440e4bd0fa0" x1="-261.38" y1="-1744.74" x2="-265.69" y2="-1720.27" gradientTransform="matrix(0.14, 0.79, -0.99, 0.09, -1564.03, 428.9)" gradientUnits="userSpaceOnUse"><stop offset="0" stop-color="#fff"/><stop offset="0.08" stop-color="#cacaca"/><stop offset="0.17" stop-color="#9b9b9b"/><stop offset="0.26" stop-color="#717171"/><stop offset="0.35" stop-color="#4e4e4e"/><stop offset="0.45" stop-color="#323232"/><stop offset="0.56" stop-color="#1c1c1c"/><stop offset="0.68" stop-color="#0c0c0c"/><stop offset="0.81" stop-color="#030303"/><stop offset="1"/></linearGradient><radialGradient id="a0ac16e4-72d1-4c75-9e97-e0baa8ee7a4e" cx="66.02" cy="66.02" r="66.02" gradientTransform="translate(115.1 -13.4) rotate(76.72)" gradientUnits="userSpaceOnUse"><stop offset="0" stop-color="#ce23e8"/><stop offset="0.15" stop-color="#a91dbe"/><stop offset="0.46" stop-color="#61106d"/><stop offset="0.71" stop-color="#2d0832"/><stop offset="0.9" stop-color="#0c020e"/><stop offset="1"/></radialGradient><radialGradient id="aef06e8c-106a-4d9c-a449-6dcbb895917c" cx="65.57" cy="66.07" r="51.12" gradientUnits="userSpaceOnUse"><stop offset="0" stop-color="#ad156e"/><stop offset="1" stop-color="#45216b"/></radialGradient><radialGradient id="bd741e88-88ba-497a-a72e-49174579ee02" cx="66.64" cy="73.28" r="67.3" gradientUnits="userSpaceOnUse"><stop offset="0" stop-color="#ddbdff"/><stop offset="1" stop-color="#8842bd"/></radialGradient><radialGradient id="f7f619df-79bb-4232-96d8-857b8394bed7" cx="66.64" cy="73.28" r="67.3" xlink:href="#bd741e88-88ba-497a-a72e-49174579ee02"/><radialGradient id="fd8f4985-db53-462e-9bef-14205875c43d" cx="66.64" cy="73.28" r="67.3" xlink:href="#bd741e88-88ba-497a-a72e-49174579ee02"/><radialGradient id="b15a5839-48d2-4e61-b5ee-9015fc78eeb5" cx="66.64" cy="73.28" r="67.3" xlink:href="#bd741e88-88ba-497a-a72e-49174579ee02"/><radialGradient id="be9e962d-9eee-4f9e-bf2a-ca5357a6de9a" cx="66.64" cy="73.28" r="67.3" xlink:href="#bd741e88-88ba-497a-a72e-49174579ee02"/><radialGradient id="b73d9211-d74e-471e-9997-5cceb562fbbd" cx="66.64" cy="73.28" r="67.31" xlink:href="#bd741e88-88ba-497a-a72e-49174579ee02"/><radialGradient id="b9ce935b-0b38-44e3-93d8-c251ed705964" cx="-527.05" cy="70.88" r="39.01" gradientTransform="matrix(-0.97, -0.23, -0.23, 0.97, -431.56, -119.19)" gradientUnits="userSpaceOnUse"><stop offset="0.27" stop-color="#60003f"/><stop offset="0.42" stop-color="#520035"/><stop offset="0.71" stop-color="#2c001d"/><stop offset="1"/></radialGradient><radialGradient id="b0d76a74-02a2-4379-aee1-0b1839fed0b2" cx="-527.05" cy="70.88" r="20.24" gradientTransform="matrix(-1, 0, 0, 1, -461.94, 0)" gradientUnits="userSpaceOnUse"><stop offset="0.13" stop-color="#fa2121"/><stop offset="0.71" stop-color="#4f0a0a"/><stop offset="1"/></radialGradient><linearGradient id="f54d1f1f-eb75-4e3f-8c8e-2a694dd2d027" x1="67.01" y1="23.78" x2="64.92" y2="112.95" gradientUnits="userSpaceOnUse"><stop offset="0" stop-color="#5e2a1a"/><stop offset="0.29" stop-color="#d9d9d9"/><stop offset="1" stop-color="#5e2a1a"/></linearGradient><clipPath id="a8dd77d6-de37-4f03-8c16-7061895d0c82"><ellipse cx="67.02" cy="143.96" rx="24.37" ry="38.42" transform="translate(-81.01 201.44) rotate(-86.26)" fill="none"/></clipPath><radialGradient id="f8b1f9ae-22c6-4f1f-8220-fcc2cf451b13" cx="-25.45" cy="10.67" r="5.25" gradientTransform="translate(81.29 126.58) scale(1.11 1.53)" gradientUnits="userSpaceOnUse"><stop offset="0" stop-color="#0284fd"/><stop offset="0.11" stop-color="#026acb"/><stop offset="0.24" stop-color="#014e96"/><stop offset="0.37" stop-color="#013668"/><stop offset="0.5" stop-color="#012343"/><stop offset="0.63" stop-color="#001425"/><stop offset="0.75" stop-color="#000911"/><stop offset="0.88" stop-color="#000204"/><stop offset="1"/></radialGradient><radialGradient id="a1fd6032-eabf-4ead-af98-826f28a6b1db" cx="963.08" cy="-74.54" r="2.17" gradientTransform="translate(-398.06 315.17) scale(0.47 2.31)" gradientUnits="userSpaceOnUse"><stop offset="0.04" stop-color="#5890fd"/><stop offset="0.15" stop-color="#4774cb"/><stop offset="0.27" stop-color="#345596"/><stop offset="0.4" stop-color="#243b68"/><stop offset="0.52" stop-color="#172643"/><stop offset="0.64" stop-color="#0d1525"/><stop offset="0.76" stop-color="#060911"/><stop offset="0.88" stop-color="#010204"/><stop offset="1"/></radialGradient><radialGradient id="ae902cac-cc11-42ee-9d7a-4ebcf56e5c41" cx="428.1" cy="-757.61" r="2.17" gradientTransform="translate(-1121.2 3.76) rotate(90) scale(0.32 1.55)" xlink:href="#a1fd6032-eabf-4ead-af98-826f28a6b1db"/><radialGradient id="a79abc41-4595-4811-ba87-fd2177b2f114" cx="-1.96" cy="10.89" r="6.06" xlink:href="#f8b1f9ae-22c6-4f1f-8220-fcc2cf451b13"/><radialGradient id="faa2c5ec-23ce-41f1-95cc-3b713879510e" cx="1018.63" cy="-74.4" r="2.51" xlink:href="#a1fd6032-eabf-4ead-af98-826f28a6b1db"/><radialGradient id="e95619d3-02ee-41de-9e17-998a79444870" cx="429.1" cy="-774.4" r="2.51" gradientTransform="translate(-1121.2 3.76) rotate(90) scale(0.32 1.55)" xlink:href="#a1fd6032-eabf-4ead-af98-826f28a6b1db"/><radialGradient id="aea3b8bc-de09-4302-9fea-bd06e1b52cc4" cx="-14.36" cy="6.02" r="9.02" xlink:href="#f8b1f9ae-22c6-4f1f-8220-fcc2cf451b13"/><radialGradient id="b502240b-8a91-4452-a0e0-e0015add9f81" cx="989.14" cy="-77.65" r="3.73" xlink:href="#a1fd6032-eabf-4ead-af98-826f28a6b1db"/><radialGradient id="aaaa93fb-63f3-4bb4-b8af-444b22f7d681" cx="405.89" cy="-765.49" r="3.73" gradientTransform="translate(-1121.2 3.76) rotate(90) scale(0.32 1.55)" xlink:href="#a1fd6032-eabf-4ead-af98-826f28a6b1db"/><radialGradient id="a0ebd407-fb2a-42ac-82c9-7a0ac3fe7b5d" cx="-1426.75" cy="-248.83" r="5.25" gradientTransform="translate(-810.13 1902.57) rotate(90) scale(1.23 3.52)" xlink:href="#f8b1f9ae-22c6-4f1f-8220-fcc2cf451b13"/><filter id="a73ccb60-dced-467d-8de9-f98500f8e476" x="3.69" y="6.16" width="124.15" height="124.12" filterUnits="userSpaceOnUse" color-interpolation-filters="sRGB"><feFlood flood-color="#fff" result="bg"/><feBlend in="SourceGraphic" in2="bg"/></filter><mask id="b47e32dc-52a5-4881-994f-64eed11c772b" x="3.69" y="6.16" width="124.15" height="124.12" maskUnits="userSpaceOnUse"><g filter="url(#a73ccb60-dced-467d-8de9-f98500f8e476)"><image width="125" height="125" transform="translate(3.57 5.41)" xlink:href="%E8%B5%84%E6%BA%90%20342.png"/></g></mask><mask id="e93443e3-56f7-42b8-b027-6a30b9f33489" x="1.58" y="4.03" width="128.38" height="128.38" maskUnits="userSpaceOnUse"><image width="129" height="129" transform="translate(1.57 3.41)" xlink:href="%E8%B5%84%E6%BA%90%20344.png"/></mask><filter id="e9881609-b458-436f-a300-f1c258cab15a" x="37.45" y="6.58" width="71.94" height="28.17" filterUnits="userSpaceOnUse" color-interpolation-filters="sRGB"><feFlood flood-color="#fff" result="bg"/><feBlend in="SourceGraphic" in2="bg"/></filter><mask id="b4af2527-d8b6-4106-bd94-c779c65771ef" x="37.45" y="6.58" width="71.94" height="28.17" maskUnits="userSpaceOnUse"><g mask="url(#bcc17852-26e3-458a-ac06-c1f4bc7711f9)" filter="url(#e9881609-b458-436f-a300-f1c258cab15a)"><path d="M109.29,32.27c-1.42,7.59-15.82-4.32-35.64-8S36.2,25.87,37.52,18.81,56,4,75.83,7.4C97,11,110.72,24.68,109.29,32.27Z" fill="url(#b8699884-bed1-41f1-8122-9a1c8addecad)" style="mix-blend-mode:multiply"/></g></mask><linearGradient id="fedb0909-2d95-4689-8587-402357c4ce11" x1="76.55" y1="7.7" x2="73.83" y2="23.15" gradientUnits="userSpaceOnUse"><stop offset="0" stop-color="#fff"/><stop offset="0.01" stop-color="#ebebec"/><stop offset="0.06" stop-color="#b4b6b7"/><stop offset="0.1" stop-color="#848889"/><stop offset="0.14" stop-color="#5e6364"/><stop offset="0.18" stop-color="#404647"/><stop offset="0.22" stop-color="#2a3133"/><stop offset="0.26" stop-color="#1d2426"/><stop offset="0.3" stop-color="#192022"/><stop offset="0.97" stop-color="#010202"/><stop offset="1"/></linearGradient><filter id="aafade26-94f5-498d-946c-ef1aea637d42" x="90.59" y="23.79" width="36.35" height="91.22" filterUnits="userSpaceOnUse" color-interpolation-filters="sRGB"><feFlood flood-color="#fff" result="bg"/><feBlend in="SourceGraphic" in2="bg"/></filter><mask id="bae33073-1012-4f46-9b4f-61195dc361a3" x="90.59" y="23.79" width="36.35" height="91.22" maskUnits="userSpaceOnUse"><g mask="url(#afc2e11d-4da6-41fb-8c82-d4bd7044bfe1)" filter="url(#aafade26-94f5-498d-946c-ef1aea637d42)"><path d="M95.24,115C83,114.27,98.55,94.7,100,69.52s-10.77-46.38.59-45.71,27.2,20.88,26.28,46.09C125.92,96.69,107.46,115.71,95.24,115Z" fill="url(#fa05b304-7cf1-49dc-a2af-6440e4bd0fa0)" style="mix-blend-mode:multiply"/></g></mask><linearGradient id="eeb40c72-3912-4d90-b8a8-e5e2ce2b3ef3" x1="1781.14" y1="-897.68" x2="1767.19" y2="-818.55" gradientTransform="matrix(0.39, 0.32, -0.4, 0.43, -933.77, -158.52)" gradientUnits="userSpaceOnUse"><stop offset="0.1" stop-color="#adb2b9"/><stop offset="0.16" stop-color="#989ca2"/><stop offset="0.31" stop-color="#6a6d71"/><stop offset="0.46" stop-color="#444648"/><stop offset="0.61" stop-color="#262729"/><stop offset="0.75" stop-color="#111212"/><stop offset="0.88" stop-color="#040405"/><stop offset="1"/></linearGradient><linearGradient id="aca64646-c0e6-4bd6-a3df-ce9ab21adab3" x1="-2746.69" y1="-944.5" x2="-2755.31" y2="-895.61" gradientTransform="matrix(-0.66, -0.44, 0.7, -0.82, -1146.81, -1881.25)" gradientUnits="userSpaceOnUse"><stop offset="0" stop-color="#adb2b9"/><stop offset="0.07" stop-color="#91959b"/><stop offset="0.17" stop-color="#6a6d72"/><stop offset="0.27" stop-color="#494c4f"/><stop offset="0.39" stop-color="#2f3032"/><stop offset="0.51" stop-color="#1a1b1c"/><stop offset="0.64" stop-color="#0b0c0c"/><stop offset="0.79" stop-color="#030303"/><stop offset="1"/></linearGradient><radialGradient id="a3ae43de-5f8c-48b8-83e2-d3ebb7c8a84a" cx="-1354.84" cy="1247.1" r="36.67" gradientTransform="matrix(-0.47, -0.88, 0.39, -0.21, -1019.45, -901.46)" gradientUnits="userSpaceOnUse"><stop offset="0" stop-color="#fcfdff"/><stop offset="0.01" stop-color="#f3f4f6"/><stop offset="0.03" stop-color="#c6c6c8"/><stop offset="0.06" stop-color="#9b9c9d"/><stop offset="0.1" stop-color="#767677"/><stop offset="0.13" stop-color="#565657"/><stop offset="0.17" stop-color="#3b3b3b"/><stop offset="0.22" stop-color="#252525"/><stop offset="0.27" stop-color="#141414"/><stop offset="0.34" stop-color="#090909"/><stop offset="0.43" stop-color="#020202"/><stop offset="0.69"/></radialGradient><radialGradient id="fb3b2904-671c-45db-a6f3-30b6864164d3" cx="-1502.21" cy="522.73" r="42.28" gradientTransform="matrix(-0.7, -0.72, 0.32, -0.31, -1117.51, -883.01)" gradientUnits="userSpaceOnUse"><stop offset="0" stop-color="#adb2b9"/><stop offset="0.02" stop-color="#91959b"/><stop offset="0.06" stop-color="#6f7377"/><stop offset="0.1" stop-color="#515357"/><stop offset="0.14" stop-color="#38393b"/><stop offset="0.19" stop-color="#232425"/><stop offset="0.25" stop-color="#131414"/><stop offset="0.32" stop-color="#080809"/><stop offset="0.41" stop-color="#020202"/><stop offset="0.69"/></radialGradient><radialGradient id="e4435871-569a-447a-b340-4776dd500f10" cx="-761.83" cy="1139.45" r="7.12" gradientTransform="matrix(-1.77, -2.32, 0.35, -0.27, -1639.36, -1426.31)" gradientUnits="userSpaceOnUse"><stop offset="0" stop-color="#adb2b9"/><stop offset="0.02" stop-color="#91959b"/><stop offset="0.04" stop-color="#6f7377"/><stop offset="0.07" stop-color="#515357"/><stop offset="0.11" stop-color="#38393b"/><stop offset="0.14" stop-color="#232425"/><stop offset="0.18" stop-color="#131414"/><stop offset="0.24" stop-color="#080809"/><stop offset="0.31" stop-color="#020202"/><stop offset="0.52"/></radialGradient><radialGradient id="b1cfae9d-8b03-4805-98d1-872fc0f98868" cx="-805.76" cy="310.83" r="10.06" gradientTransform="matrix(-2.14, -1.77, 0.28, -0.34, -1779.48, -1203.93)" gradientUnits="userSpaceOnUse"><stop offset="0" stop-color="#91989f"/><stop offset="0.05" stop-color="#787d83"/><stop offset="0.13" stop-color="#53575b"/><stop offset="0.22" stop-color="#35383a"/><stop offset="0.31" stop-color="#1e1f21"/><stop offset="0.4" stop-color="#0d0e0e"/><stop offset="0.49" stop-color="#030304"/><stop offset="0.6"/></radialGradient><radialGradient id="a8acc64e-d7ee-403e-b1df-d5369f1205d0" cx="150.14" cy="1838.67" r="23.32" gradientTransform="matrix(0.79, -0.76, 0.36, 0.38, -749.24, -550.72)" gradientUnits="userSpaceOnUse"><stop offset="0" stop-color="#d5d7de"/><stop offset="0.01" stop-color="#bec0c6"/><stop offset="0.03" stop-color="#96989d"/><stop offset="0.06" stop-color="#727377"/><stop offset="0.09" stop-color="#535457"/><stop offset="0.12" stop-color="#393a3b"/><stop offset="0.15" stop-color="#242425"/><stop offset="0.19" stop-color="#141414"/><stop offset="0.24" stop-color="#080809"/><stop offset="0.31" stop-color="#020202"/><stop offset="0.5"/></radialGradient><radialGradient id="b76fd367-7eaa-4e44-86de-57365fcf23ce" cx="849.01" cy="440.22" r="23.32" gradientTransform="matrix(1.09, 0.06, -0.03, 0.52, -855.85, -160.97)" xlink:href="#a8acc64e-d7ee-403e-b1df-d5369f1205d0"/><radialGradient id="aceeea55-4bc0-4389-85f8-13ff7e67b569" cx="429.24" cy="1560.66" r="3.45" gradientTransform="matrix(0.94, -0.55, 0.27, 0.45, -775.83, -441.2)" gradientUnits="userSpaceOnUse"><stop offset="0" stop-color="#d5d7de"/><stop offset="0.02" stop-color="#bec0c6"/><stop offset="0.05" stop-color="#96989d"/><stop offset="0.08" stop-color="#727377"/><stop offset="0.12" stop-color="#535457"/><stop offset="0.16" stop-color="#393a3b"/><stop offset="0.21" stop-color="#242425"/><stop offset="0.26" stop-color="#141414"/><stop offset="0.33" stop-color="#080809"/><stop offset="0.42" stop-color="#020202"/><stop offset="0.69"/></radialGradient><linearGradient id="a7327353-c02d-4330-a230-6027ef4cb4e7" x1="56.55" y1="110.85" x2="-2.99" y2="152.54" gradientTransform="translate(42.71 -74.29) rotate(-3.92)" gradientUnits="userSpaceOnUse"><stop offset="0" stop-color="#adb2b9"/><stop offset="0.02" stop-color="#979ca2"/><stop offset="0.05" stop-color="#74777c"/><stop offset="0.09" stop-color="#55575a"/><stop offset="0.13" stop-color="#3a3c3e"/><stop offset="0.18" stop-color="#252627"/><stop offset="0.23" stop-color="#141516"/><stop offset="0.3" stop-color="#090909"/><stop offset="0.39" stop-color="#020202"/><stop offset="0.6"/></linearGradient><linearGradient id="add9d83a-f51a-4db3-be78-b103407cc1bb" x1="21.66" y1="111.97" x2="108.8" y2="24.83" gradientUnits="userSpaceOnUse"><stop offset="0" stop-color="#868d93"/><stop offset="0.01" stop-color="#838a90"/><stop offset="0.17" stop-color="#5b6064"/><stop offset="0.34" stop-color="#3a3d40"/><stop offset="0.5" stop-color="#212224"/><stop offset="0.67" stop-color="#0f0f10"/><stop offset="0.83" stop-color="#040404"/><stop offset="1"/></linearGradient></defs><title>资源 34</title><g style="isolation:isolate"><g id="bdc35a10-eed4-4b7a-944e-44a7c41a28b5" data-name="图层 2"><g id="a43270ff-b292-459b-8ee0-39ba18ad481a" data-name="图层 3"><g opacity="0.9"><circle cx="66.02" cy="66.02" r="66.02" transform="translate(-13.4 115.1) rotate(-76.72)" fill="url(#a0ac16e4-72d1-4c75-9e97-e0baa8ee7a4e)" style="mix-blend-mode:screen"/><circle cx="65.57" cy="66.07" r="53.25" fill="#e4c5ff"/><circle cx="65.57" cy="66.07" r="51.12" fill="url(#aef06e8c-106a-4d9c-a449-6dcbb895917c)"/><path d="M28.34,45.74a25.43,25.43,0,0,1,4.27-12.21C39.23,23.91,52.79,19.7,67.2,22.34a30,30,0,0,1,8.34-.81c8.94.39,20.28,5,25.23,15a24.63,24.63,0,0,1,2.44,9.77,26.71,26.71,0,0,1,7.52,11.39c4.27,12.95-3.64,24.39-4.68,25.84-.31-.1-2.92-.83-4.67.61-1.94,1.59-2.25,5.36.2,8.34a30.79,30.79,0,0,1-3.87,6.1c-10.64,13.1-28.91,13.12-32.75,13A47.07,47.07,0,0,1,45,106.57a14,14,0,0,1-7.32-1.83c-6.15-3.57-7-10.71-7.12-11.6a25.81,25.81,0,0,1-7.13-7.32c-6.08-9.52-3.66-20-3.05-22.38.13,3.69,2.49,5.89,4.07,5.69,1.31-.16,2.59-2,2.85-4.47a18.76,18.76,0,0,0,4.07-3c6-6,7.8-16.28,4.88-18.31C35.21,42.56,33.06,42.59,28.34,45.74Z" fill="#a470b8" opacity="0.55" style="mix-blend-mode:multiply"/><path d="M110.77,42.16,109.5,43a.63.63,0,0,0-.25.33l-1.36,4.44s0,0,0,.06l-1.7,9a.47.47,0,0,1-.11.25l-3.23,4.2a.54.54,0,0,0-.07.13L102,63.16l-.79,1.78-1.34,3a.56.56,0,0,1-.35.32l-6,2.11a.65.65,0,0,1-.31,0l-5.47-1a.62.62,0,0,0-.33,0l-3,1.21a.6.6,0,0,0-.38.56v3.86a.62.62,0,0,1-.13.37l-3.78,4.85a.51.51,0,0,0-.09.16L77.7,86.62a.61.61,0,0,1-.27.32l-5.16,2.79a.48.48,0,0,1-.2.07l-7.1,1-.44.06a.58.58,0,0,1-.49-.15l-1-.91-1.09-1-.07-.05-2.74-1.89a.59.59,0,0,0-.39-.1l-5.3.47a.5.5,0,0,1-.34-.07l-2.76-1.52-.07,0L45.4,83.73a.61.61,0,0,1-.38-.56V79.51l1.13,2.17a.57.57,0,0,0,.26.25l3.24,1.62.11,0,3.75,1a.62.62,0,0,0,.48-.08l2.2-1.44a.62.62,0,0,1,.48-.08l6.46,1.64a.75.75,0,0,1,.18.08l2.52,1.68a.61.61,0,0,0,.33.1h5.23a.64.64,0,0,0,.33-.1l4.41-3a.67.67,0,0,0,.19-.22l1.34-2.49a.08.08,0,0,0,0,0l3.88-6a.75.75,0,0,0,.09-.29l.37-5.8a.64.64,0,0,1,.34-.51l3-1.42a.66.66,0,0,1,.2-.06l5.29-.51,7-.87a.59.59,0,0,0,.44-.29l1.44-2.42a.41.41,0,0,1,.1-.13l2.58-2.49a.51.51,0,0,0,.15-.23l2.06-5.87a.69.69,0,0,0,0-.2V48a.55.55,0,0,1,.07-.28l2.08-4a.57.57,0,0,0,.06-.36l-.54-4.19a.6.6,0,0,1,.17-.51l1.4-1.36A52,52,0,0,1,110.77,42.16Z" fill="url(#bd741e88-88ba-497a-a72e-49174579ee02)"/><path d="M115.88,75.16c-.21,1.18-.46,2.35-.75,3.49l-2-1.59a.66.66,0,0,1-.21-.23l-3-5.21-.06-.09-2.65-3.4a.82.82,0,0,1-.17-.5V63.26a.82.82,0,0,0-.17-.5l-.63-.82a.83.83,0,0,0-1.36.06l-1.24,2a.79.79,0,0,1-.45.35l-1.89.59h0a.82.82,0,0,1-1-.79.81.81,0,0,1,.21-.54.84.84,0,0,1,.5-.28l1.12-.17.91-.13a.84.84,0,0,0,.52-.3l2.38-3a.84.84,0,0,1,1.09-.18L110.66,62a.84.84,0,0,1,.38.7v6.54a.88.88,0,0,0,.11.42L114,74.51a.86.86,0,0,0,.56.39Z" fill="url(#f7f619df-79bb-4232-96d8-857b8394bed7)"/><path d="M111.43,88.68a50.72,50.72,0,0,1-4.23,7.06l-2.82-.66a1.14,1.14,0,0,0-.86.15l-9.18,6-.18.1L86.3,104.6a.65.65,0,0,0-.16.09l-5.07,3.19a1.16,1.16,0,0,1-.75.16L67,106.1a1.14,1.14,0,0,1-.44-.18l-4.58-3-5-3.25a1.1,1.1,0,0,1-.48-1.16l.62-2.85a1.09,1.09,0,0,1,.68-.79l3-1.16a1.13,1.13,0,0,0,.6-.54L63,89.8l.09-.18a1.1,1.1,0,0,1,1-.62,1.08,1.08,0,0,1,.71.26A1.1,1.1,0,0,1,65,90.71L65,90.8l-2,3a1.09,1.09,0,0,0-.18.61v4.75a1,1,0,0,0,.16.57l2.27,3.78a1.11,1.11,0,0,0,.94.54h2.43a1.1,1.1,0,0,0,.84-.39l1.22-1.41a1.08,1.08,0,0,1,1-.37l3.24.39a1.15,1.15,0,0,1,.6.28l1.36,1.22a1.12,1.12,0,0,0,.74.28H81.9a1.45,1.45,0,0,0,.29,0l6.35-1.71a1.07,1.07,0,0,0,.54-.34l9.27-10.72a1.17,1.17,0,0,1,.7-.37l3.58-.43a1.39,1.39,0,0,0,.33-.1l5.32-2.48a1.14,1.14,0,0,1,.85,0Z" fill="url(#fd8f4985-db53-462e-9bef-14205875c43d)"/><path d="M64.14,51.22V56.1a1.16,1.16,0,0,1-.9,1.13l-3.64.84a1.18,1.18,0,0,1-.67,0l-2.34-.89a1.23,1.23,0,0,0-.57-.06l-2.87.4a1.14,1.14,0,0,0-.79.48l-2.45,3.46a1.13,1.13,0,0,0-.21.67v4a7.6,7.6,0,0,1-1.58-1.56A7.46,7.46,0,0,1,47.26,63l.62-2.24a1.06,1.06,0,0,0,0-.31v-3a1.16,1.16,0,0,1,.67-1.05l4.49-2.1a1.12,1.12,0,0,1,1,0l3.33,1.54a1.12,1.12,0,0,0,.72.08l1.21-.25a1.16,1.16,0,0,0,.92-1.06l.19-2.72a1.16,1.16,0,0,0-.64-1.12l-1.14-.57a1.15,1.15,0,0,1-.64-1l-.14-2.79a1.15,1.15,0,0,0-.54-.92L53.69,43.2A1.13,1.13,0,0,0,53,43l-2.66.22a1.14,1.14,0,0,1-1-.42L47.1,40.14a1.21,1.21,0,0,1-.26-.71L46.75,36a1.06,1.06,0,0,0,0-.31l-.79-2.52a1.18,1.18,0,0,1,.2-1.07l.79-1a1.16,1.16,0,0,0,.25-.74l-.08-3.6a1.16,1.16,0,0,0-.59-1L43.8,24.25a1.16,1.16,0,0,0-1-.05L39.9,25.43a1.13,1.13,0,0,1-.77.06l-3.4-.93a50.88,50.88,0,0,1,18.4-8.33l-.71,4.24a1.14,1.14,0,0,1-.3.6l-2.5,2.67a1.18,1.18,0,0,0-.28.53L48.48,32a1.14,1.14,0,0,0,.1.81L52.3,40a1.24,1.24,0,0,0,.41.44l6.95,4.42a1.19,1.19,0,0,1,.45.54L61,47.54a1.09,1.09,0,0,0,.27.4l2.52,2.44A1.15,1.15,0,0,1,64.14,51.22Z" fill="url(#b15a5839-48d2-4e61-b5ee-9015fc78eeb5)"/><path d="M97.44,26.09l-2.13,4.27a.68.68,0,0,1-.61.37h-4a.67.67,0,0,0-.48.2l-5.32,5.32a.6.6,0,0,1-.3.17l-4.23,1.13a.62.62,0,0,0-.3.18L77.47,40.3a.67.67,0,0,0-.2.48V50.84a.67.67,0,0,1-.27.54l-1.91,1.43a.69.69,0,0,0-.26.54V55a.66.66,0,0,0,.44.63l3.61,1.33a1,1,0,0,0,.24,0h1.73a.67.67,0,0,1,.66.52l1.2,5.25a.67.67,0,0,1,0,.44L81,66.71a.69.69,0,0,1-.27.29l-1.86,1.1a.33.33,0,0,1-.44-.47l.93-1.31a.69.69,0,0,0,.1-.56l-2-7.7a.66.66,0,0,0-.38-.45l-4.18-1.83a.68.68,0,0,1-.4-.62V52.5a.66.66,0,0,1,.36-.59l2.45-1.29a.66.66,0,0,0,.36-.64l-.26-4.09a.73.73,0,0,0-.14-.37l-1.78-2.29a.67.67,0,0,1-.11-.64L75,38.07a.67.67,0,0,1,.43-.42l8-2.54a.65.65,0,0,0,.3-.18l4.09-4.44.12-.11,3.75-2.49a.7.7,0,0,0,.3-.58l-.09-5A54.51,54.51,0,0,1,97.44,26.09Z" fill="url(#be9e962d-9eee-4f9e-bf2a-ca5357a6de9a)"/><path d="M49,76.13a1.2,1.2,0,0,0,0,.75l.76,2.05a1.26,1.26,0,0,1-1.18,1.7,1.23,1.23,0,0,1-1.05-.57l-2.16-3.28a1.25,1.25,0,0,0-1-.58H38.27a1.27,1.27,0,0,0-.68.21l-.1.06A16.1,16.1,0,0,0,32.16,78c-1.34.66-6.64,3.27-8,9.08a13.31,13.31,0,0,0,1.37,9.16,15.24,15.24,0,0,0,6.71,6.56l.73,2.62a51.21,51.21,0,0,1-18.1-45.79l1.35,1c-2.53,4.49-1.42,16.83,5,20.31a8.73,8.73,0,0,0,3.89,1,67.19,67.19,0,0,1,5.11-4.58c1-.82,2-1.59,3-2.28l3.85-.42a2,2,0,0,0,.35-.09L44,71.84a1.17,1.17,0,0,0,.27-.15l2.37-1.78a1.28,1.28,0,0,1,1.21-.17l1.49.57a1.25,1.25,0,0,1,.77,1.49Z" fill="url(#b73d9211-d74e-471e-9997-5cceb562fbbd)"/><path d="M67.35,83.22l1-.31a.72.72,0,0,0,.26-.14l3.82-3.19a.61.61,0,0,0,.15-.17l3.7-5.77a.71.71,0,0,0,.11-.51l-1-7.46a.76.76,0,0,0-.29-.49l-6.37-4.94a.76.76,0,0,0-.46-.16H63.83a.74.74,0,0,0-.51.2L55.12,68a.75.75,0,0,0-.23.55v5.23a.75.75,0,0,0,.44.68L60,76.52l.16.1,2.56,2a.78.78,0,0,0,.49.16l4-.18a.75.75,0,0,0,.54-.27l4.15-5a.74.74,0,0,0,.16-.61l-.88-5a.75.75,0,0,0-.55-.6l-4-1a.73.73,0,0,0-.69.17l-3.83,3.6a.73.73,0,0,0-.13.93l1.14,1.86a.8.8,0,0,0,.48.34l2.39.52a.76.76,0,0,0,.82-.38l.58-1.11a.75.75,0,0,0-.17-.91l-.83-.72a.75.75,0,0,1,0-1.13l0,0a.74.74,0,0,1,1,.05l1.22,1.25a.75.75,0,0,1,.16.79l-1.21,3.12a.76.76,0,0,1-.88.45l-5.85-1.44a.76.76,0,0,1-.56-.68L60,68.61a.74.74,0,0,1,.33-.67l5-3.38a.77.77,0,0,1,.66-.09l6.07,2.07a.75.75,0,0,1,.5.63l.68,6.32a.78.78,0,0,1-.18.57l-5.37,6.31a.74.74,0,0,1-.56.26H59.75a.74.74,0,0,1-.68-.45l-1.31-3a.74.74,0,0,0-.42-.41L53.71,75.4a.75.75,0,0,1-.49-.64l-.54-7.28a.76.76,0,0,1,.26-.63l8-6.74.06-.06,1.38-1.46a.73.73,0,0,1,.54-.24h5.55a.77.77,0,0,1,.42.13L76.79,64a.74.74,0,0,1,.32.52l1.24,9.38a.73.73,0,0,1-.1.48l-3.63,6.12a.87.87,0,0,1-.27.27l-4.79,2.73,0,0-1.52,1a.72.72,0,0,1-.62.11h0A.75.75,0,0,1,67.35,83.22Z" fill="url(#be9e962d-9eee-4f9e-bf2a-ca5357a6de9a)"/><path d="M45.63,44.31c-.9-2.16-3.56-4-5.09-3.25-2.8,1.27-2.31,11.15,0,11.8C42.41,53.38,47.34,48.44,45.63,44.31Z" fill="#a470b8" opacity="0.55" style="mix-blend-mode:multiply"/><path d="M41,38.49c-.13-1.25-2.73-2.76-4.27-1.68s-1.2,3.58-.16,4.28C37.94,42,41.16,40,41,38.49Z" fill="#a470b8" opacity="0.55" style="mix-blend-mode:multiply"/><path d="M97.47,56a5.17,5.17,0,0,1,.3,5c-1.92,4.11-9.51,5.3-11.75,2.45-1.43-1.84-.67-5.34,1.22-7.33C90,53.26,95.49,53.31,97.47,56Z" fill="#a470b8" opacity="0.55" style="mix-blend-mode:multiply"/><path d="M94.72,51.92c-.39,1.53-4.71,2.18-5.49.91-.59-.94.37-3.64,2.44-3.81C93.53,48.87,95,50.86,94.72,51.92Z" fill="#a470b8" opacity="0.55" style="mix-blend-mode:multiply"/><path d="M89.38,87c.93,3.34-2.08,6.79-4.12,6.72-3-.11-6-8-4-9.92C82.81,82.36,88.31,83.16,89.38,87Z" fill="#a470b8" opacity="0.55" style="mix-blend-mode:multiply"/><path d="M89.84,81.22c.14.51-.75,1.26-1.53,1.52-1.84.62-3.84-1.2-3.66-1.83C84.89,80.05,89.54,80.16,89.84,81.22Z" fill="#a470b8" opacity="0.55" style="mix-blend-mode:multiply"/><path d="M72,91.44c1.76-.24,3.7,2.53,3.06,4s-4.09,1.78-5,.3S70.37,91.66,72,91.44Z" fill="#a470b8" opacity="0.55" style="mix-blend-mode:multiply"/><path d="M41.92,84.27c.77,1.13-.16,4.33-2.59,4.73s-4.28-2.19-4-3.51C35.79,83.65,40.89,82.72,41.92,84.27Z" fill="#a470b8" opacity="0.55" style="mix-blend-mode:multiply"/><path d="M47.11,87.47a2.44,2.44,0,0,0-2.74-2.29c-1.22.42-1.6,3.09-.61,3.82S47,88.82,47.11,87.47Z" fill="#a470b8" opacity="0.55" style="mix-blend-mode:multiply"/><path d="M112.27,50.85c-.94,5.22-5.06,24.52-22.13,36.32-20,13.81-49.59,11.69-72.32-6.41C24.44,98.86,40,112,58.4,114.63c22.18,3.2,44.54-9.38,53-29.14C117.88,70.16,113.83,55.63,112.27,50.85Z" fill="#a470b8" opacity="0.55" style="mix-blend-mode:multiply"/><path d="M49.05,25.57c-.67-1.49,1.71-3.93,2.84-4.88,4.06-3.4,9.75-2.56,14.65-1.83a38.25,38.25,0,0,1,7.33,1.83L78.75,16a38.36,38.36,0,0,1,22.78,12.61c-.63,3.85-2.22,5.19-3,5.7-4.16,2.59-12.69-1.09-20.34-10.38-2.19.31-5.43.74-9.36,1.23C52,27.22,49.58,26.77,49.05,25.57Z" fill="#e4c5ff"/><path d="M98.38,46.73c1.41-1.16.85-4.72-.91-6.71-3.34-3.77-10.56-1.45-11,.61C85.93,43.26,95.77,48.88,98.38,46.73Z" fill="#e4c5ff"/><circle cx="65.1" cy="70.88" r="39.01" transform="translate(-14.54 16.85) rotate(-13.28)" fill="url(#b9ce935b-0b38-44e3-93d8-c251ed705964)" style="mix-blend-mode:screen"/><circle cx="65.1" cy="70.88" r="20.24" fill="url(#b0d76a74-02a2-4379-aee1-0b1839fed0b2)" style="mix-blend-mode:screen"/><path d="M66,124a57.94,57.94,0,0,1-41-98.92A57.94,57.94,0,1,1,107,107,57.53,57.53,0,0,1,66,124ZM66,9.69A56.33,56.33,0,1,0,122.35,66,56.39,56.39,0,0,0,66,9.69Z" fill="url(#f54d1f1f-eb75-4e3f-8c8e-2a694dd2d027)"/></g><g style="mix-blend-mode:screen"><g clip-path="url(#a8dd77d6-de37-4f03-8c16-7061895d0c82)"><rect x="23.26" y="116.04" width="87.51" height="55.84"/><ellipse cx="67.55" cy="143.96" rx="22.09" ry="37.18" transform="translate(-80.47 202.09) rotate(-86.31)"/><ellipse cx="67.55" cy="143.96" rx="21.98" ry="36.99" transform="translate(-80.47 202.09) rotate(-86.31)"/><ellipse cx="67.55" cy="143.96" rx="21.87" ry="36.8" transform="translate(-80.47 202.09) rotate(-86.31)"/><ellipse cx="67.55" cy="143.96" rx="21.75" ry="36.61" transform="translate(-80.47 202.09) rotate(-86.31)"/><ellipse cx="67.55" cy="143.96" rx="21.64" ry="36.42" transform="translate(-80.47 202.09) rotate(-86.31)"/><ellipse cx="67.55" cy="143.96" rx="21.53" ry="36.23" transform="translate(-80.47 202.09) rotate(-86.31)"/><ellipse cx="67.55" cy="143.96" rx="21.41" ry="36.04" transform="translate(-80.47 202.09) rotate(-86.31)"/><ellipse cx="67.55" cy="143.96" rx="21.3" ry="35.85" transform="translate(-80.47 202.09) rotate(-86.31)"/><ellipse cx="67.55" cy="143.96" rx="21.19" ry="35.66" transform="matrix(0.06, -1, 1, 0.06, -80.47, 202.09)"/><ellipse cx="67.55" cy="143.96" rx="21.08" ry="35.47" transform="matrix(0.06, -1, 1, 0.06, -80.47, 202.09)" fill="#000001"/><ellipse cx="67.55" cy="143.96" rx="20.96" ry="35.29" transform="translate(-80.47 202.09) rotate(-86.31)" fill="#000001"/><ellipse cx="67.55" cy="143.96" rx="20.85" ry="35.1" transform="matrix(0.06, -1, 1, 0.06, -80.47, 202.09)" fill="#000001"/><ellipse cx="67.55" cy="143.96" rx="20.74" ry="34.91" transform="translate(-80.47 202.09) rotate(-86.31)" fill="#010001"/><ellipse cx="67.55" cy="143.96" rx="20.63" ry="34.72" transform="translate(-80.47 202.09) rotate(-86.31)" fill="#010001"/><ellipse cx="67.55" cy="143.96" rx="20.51" ry="34.53" transform="translate(-80.47 202.09) rotate(-86.31)" fill="#010001"/><ellipse cx="67.55" cy="143.96" rx="20.4" ry="34.34" transform="translate(-80.47 202.09) rotate(-86.31)" fill="#010001"/><ellipse cx="67.55" cy="143.96" rx="20.29" ry="34.15" transform="translate(-80.47 202.09) rotate(-86.31)" fill="#010002"/><ellipse cx="67.55" cy="143.96" rx="20.17" ry="33.96" transform="translate(-80.47 202.09) rotate(-86.31)" fill="#010002"/><ellipse cx="67.55" cy="143.96" rx="20.06" ry="33.77" transform="translate(-80.47 202.09) rotate(-86.31)" fill="#010002"/><ellipse cx="67.55" cy="143.96" rx="19.95" ry="33.58" transform="translate(-80.47 202.09) rotate(-86.31)" fill="#010102"/><ellipse cx="67.55" cy="143.96" rx="19.84" ry="33.39" transform="translate(-80.47 202.09) rotate(-86.31)" fill="#020102"/><ellipse cx="67.55" cy="143.96" rx="19.72" ry="33.2" transform="translate(-80.47 202.09) rotate(-86.31)" fill="#020103"/><ellipse cx="67.55" cy="143.96" rx="19.61" ry="33.01" transform="translate(-80.47 202.09) rotate(-86.31)" fill="#020103"/><ellipse cx="67.55" cy="143.96" rx="19.5" ry="32.82" transform="translate(-80.47 202.09) rotate(-86.31)" fill="#020103"/><ellipse cx="67.55" cy="143.96" rx="19.39" ry="32.63" transform="translate(-80.47 202.09) rotate(-86.31)" fill="#020103"/><ellipse cx="67.55" cy="143.96" rx="19.27" ry="32.44" transform="translate(-80.47 202.09) rotate(-86.31)" fill="#020104"/><ellipse cx="67.55" cy="143.96" rx="19.16" ry="32.25" transform="translate(-80.47 202.09) rotate(-86.31)" fill="#030104"/><ellipse cx="67.55" cy="143.96" rx="19.05" ry="32.06" transform="translate(-80.47 202.09) rotate(-86.31)" fill="#030104"/><ellipse cx="67.55" cy="143.96" rx="18.94" ry="31.87" transform="translate(-80.47 202.09) rotate(-86.31)" fill="#030105"/><ellipse cx="67.55" cy="143.96" rx="18.82" ry="31.68" transform="translate(-80.47 202.09) rotate(-86.31)" fill="#030105"/><ellipse cx="67.55" cy="143.96" rx="18.71" ry="31.49" transform="translate(-80.47 202.09) rotate(-86.31)" fill="#030105"/><ellipse cx="67.55" cy="143.96" rx="18.6" ry="31.3" transform="translate(-80.47 202.09) rotate(-86.31)" fill="#050106"/><ellipse cx="67.55" cy="143.96" rx="18.48" ry="31.11" transform="translate(-80.47 202.09) rotate(-86.31)" fill="#050106"/><ellipse cx="67.55" cy="143.96" rx="18.37" ry="30.92" transform="translate(-80.47 202.09) rotate(-86.31)" fill="#050106"/><ellipse cx="67.55" cy="143.96" rx="18.26" ry="30.73" transform="translate(-80.47 202.09) rotate(-86.31)" fill="#040207"/><ellipse cx="67.55" cy="143.96" rx="18.15" ry="30.54" transform="translate(-80.47 202.09) rotate(-86.31)" fill="#060207"/><ellipse cx="67.55" cy="143.96" rx="18.03" ry="30.35" transform="translate(-80.47 202.09) rotate(-86.31)" fill="#060209"/><ellipse cx="67.55" cy="143.96" rx="17.92" ry="30.16" transform="translate(-80.47 202.1) rotate(-86.31)" fill="#060209"/><ellipse cx="67.55" cy="143.96" rx="17.81" ry="29.97" transform="translate(-80.47 202.09) rotate(-86.31)" fill="#060209"/><ellipse cx="67.55" cy="143.96" rx="17.7" ry="29.78" transform="translate(-80.47 202.09) rotate(-86.31)" fill="#07020a"/><ellipse cx="67.55" cy="143.96" rx="17.58" ry="29.59" transform="matrix(0.06, -1, 1, 0.06, -80.47, 202.09)" fill="#07020a"/><ellipse cx="67.55" cy="143.96" rx="17.47" ry="29.4" transform="translate(-80.47 202.09) rotate(-86.31)" fill="#07020b"/><ellipse cx="67.55" cy="143.96" rx="17.36" ry="29.21" transform="translate(-80.47 202.09) rotate(-86.31)" fill="#07020b"/><ellipse cx="67.55" cy="143.96" rx="17.24" ry="29.02" transform="translate(-80.47 202.09) rotate(-86.31)" fill="#08020c"/><ellipse cx="67.55" cy="143.96" rx="17.13" ry="28.84" transform="translate(-80.47 202.09) rotate(-86.31)" fill="#08030c"/><ellipse cx="67.55" cy="143.96" rx="17.02" ry="28.65" transform="translate(-80.47 202.09) rotate(-86.31)" fill="#08030d"/><ellipse cx="67.55" cy="143.96" rx="16.91" ry="28.46" transform="translate(-80.47 202.09) rotate(-86.31)" fill="#09030d"/><ellipse cx="67.55" cy="143.96" rx="16.79" ry="28.27" transform="matrix(0.06, -1, 1, 0.06, -80.47, 202.09)" fill="#09030e"/><ellipse cx="67.55" cy="143.96" rx="16.68" ry="28.08" transform="translate(-80.47 202.09) rotate(-86.31)" fill="#09030e"/><ellipse cx="67.55" cy="143.96" rx="16.57" ry="27.89" transform="translate(-80.47 202.09) rotate(-86.31)" fill="#0a030f"/><ellipse cx="67.55" cy="143.96" rx="16.46" ry="27.7" transform="translate(-80.47 202.09) rotate(-86.31)" fill="#0a030f"/><ellipse cx="67.55" cy="143.96" rx="16.34" ry="27.51" transform="translate(-80.47 202.09) rotate(-86.31)" fill="#0a0310"/><ellipse cx="67.55" cy="143.96" rx="16.23" ry="27.32" transform="translate(-80.47 202.09) rotate(-86.31)" fill="#0b0410"/><ellipse cx="67.55" cy="143.96" rx="16.12" ry="27.13" transform="translate(-80.47 202.09) rotate(-86.31)" fill="#0b0411"/><path d="M94.43,145.7c-.57,8.82-13.07,15.19-27.91,14.23s-26.42-8.88-25.86-17.7S53.73,127,68.58,128,95,136.87,94.43,145.7Z" fill="#0b0411"/><ellipse cx="67.55" cy="143.96" rx="15.89" ry="26.75" transform="translate(-80.47 202.09) rotate(-86.31)" fill="#0c0412"/><ellipse cx="67.55" cy="143.96" rx="15.78" ry="26.56" transform="translate(-80.47 202.09) rotate(-86.31)" fill="#0c0413"/><ellipse cx="67.55" cy="143.96" rx="15.67" ry="26.37" transform="translate(-80.47 202.09) rotate(-86.31)" fill="#0e0413"/><ellipse cx="67.55" cy="143.96" rx="15.55" ry="26.18" transform="translate(-80.47 202.09) rotate(-86.31)" fill="#0e0414"/><ellipse cx="67.55" cy="143.96" rx="15.44" ry="25.99" transform="translate(-80.47 202.09) rotate(-86.31)" fill="#0d0515"/><ellipse cx="67.55" cy="143.96" rx="15.33" ry="25.8" transform="matrix(0.06, -1, 1, 0.06, -80.47, 202.09)" fill="#0f0515"/><ellipse cx="67.55" cy="143.96" rx="15.22" ry="25.61" transform="translate(-80.47 202.1) rotate(-86.31)" fill="#0f0516"/><ellipse cx="67.55" cy="143.96" rx="15.1" ry="25.42" transform="translate(-80.47 202.09) rotate(-86.31)" fill="#100516"/><ellipse cx="67.55" cy="143.96" rx="14.99" ry="25.23" transform="translate(-80.47 202.09) rotate(-86.31)" fill="#100517"/><ellipse cx="67.55" cy="143.96" rx="14.88" ry="25.04" transform="translate(-80.47 202.09) rotate(-86.31)" fill="#100518"/><ellipse cx="67.55" cy="143.96" rx="14.76" ry="24.85" transform="translate(-80.47 202.09) rotate(-86.31)" fill="#110619"/><ellipse cx="67.55" cy="143.96" rx="14.65" ry="24.66" transform="translate(-80.47 202.09) rotate(-86.31)" fill="#110619"/><ellipse cx="67.55" cy="143.96" rx="14.54" ry="24.47" transform="translate(-80.47 202.09) rotate(-86.31)" fill="#12061a"/><ellipse cx="67.55" cy="143.96" rx="14.43" ry="24.28" transform="translate(-80.47 202.09) rotate(-86.31)" fill="#12061b"/><ellipse cx="67.55" cy="143.96" rx="14.31" ry="24.09" transform="translate(-80.47 202.09) rotate(-86.31)" fill="#13051b"/><ellipse cx="67.55" cy="143.96" rx="14.2" ry="23.9" transform="translate(-80.47 202.09) rotate(-86.31)" fill="#13051c"/><ellipse cx="67.55" cy="143.96" rx="14.09" ry="23.71" transform="translate(-80.47 202.09) rotate(-86.31)" fill="#14061d"/><ellipse cx="67.55" cy="143.96" rx="13.98" ry="23.52" transform="translate(-80.47 202.09) rotate(-86.31)" fill="#14061e"/><ellipse cx="67.55" cy="143.96" rx="13.86" ry="23.33" transform="translate(-80.47 202.09) rotate(-86.31)" fill="#15061e"/><ellipse cx="67.55" cy="143.96" rx="13.75" ry="23.14" transform="translate(-80.47 202.09) rotate(-86.31)" fill="#15061f"/><ellipse cx="67.55" cy="143.96" rx="13.64" ry="22.95" transform="matrix(0.06, -1, 1, 0.06, -80.47, 202.09)" fill="#160620"/><ellipse cx="67.55" cy="143.96" rx="13.53" ry="22.76" transform="translate(-80.47 202.09) rotate(-86.31)" fill="#160621"/><ellipse cx="67.55" cy="143.96" rx="13.41" ry="22.57" transform="translate(-80.47 202.09) rotate(-86.31)" fill="#170722"/><ellipse cx="67.55" cy="143.96" rx="13.3" ry="22.39" transform="translate(-80.47 202.09) rotate(-86.31)" fill="#170722"/><ellipse cx="67.55" cy="143.96" rx="13.19" ry="22.2" transform="translate(-80.47 202.09) rotate(-86.31)" fill="#180723"/><ellipse cx="67.55" cy="143.96" rx="13.07" ry="22.01" transform="matrix(0.06, -1, 1, 0.06, -80.47, 202.09)" fill="#180725"/><ellipse cx="67.55" cy="143.96" rx="12.96" ry="21.82" transform="translate(-80.47 202.09) rotate(-86.31)" fill="#190726"/><ellipse cx="67.55" cy="143.96" rx="12.85" ry="21.63" transform="translate(-80.47 202.09) rotate(-86.31)" fill="#190827"/><ellipse cx="67.55" cy="143.96" rx="12.74" ry="21.44" transform="matrix(0.06, -1, 1, 0.06, -80.47, 202.09)" fill="#1a0828"/><ellipse cx="67.55" cy="143.96" rx="12.62" ry="21.25" transform="translate(-80.47 202.09) rotate(-86.31)" fill="#1a0829"/><ellipse cx="67.55" cy="143.96" rx="12.51" ry="21.06" transform="translate(-80.47 202.09) rotate(-86.31)" fill="#1c0829"/><ellipse cx="67.55" cy="143.96" rx="12.4" ry="20.87" transform="translate(-80.47 202.09) rotate(-86.31)" fill="#1d082a"/><ellipse cx="67.55" cy="143.96" rx="12.29" ry="20.68" transform="translate(-80.47 202.09) rotate(-86.31)" fill="#1d092b"/><path d="M88,145.28c-.43,6.71-9.94,11.56-21.23,10.83s-20.09-6.76-19.66-13.47S57,131.08,68.33,131.81,88.43,138.57,88,145.28Z" fill="#1e092c"/><ellipse cx="67.55" cy="143.96" rx="12.06" ry="20.3" transform="translate(-80.47 202.09) rotate(-86.31)" fill="#1e092d"/><path d="M87.61,145.26c-.42,6.58-9.75,11.34-20.83,10.62s-19.73-6.63-19.3-13.21S57.23,131.32,68.32,132,88,138.67,87.61,145.26Z" fill="#1f092e"/><path d="M87.42,145.24c-.42,6.53-9.66,11.24-20.64,10.53s-19.53-6.57-19.11-13.09,9.66-11.24,20.64-10.53S87.85,138.72,87.42,145.24Z" fill="#1f0a2f"/><path d="M87.24,145.23c-.42,6.46-9.57,11.13-20.45,10.43s-19.35-6.51-18.93-13,9.57-11.13,20.44-10.43S87.65,138.77,87.24,145.23Z" fill="#200a30"/><ellipse cx="67.55" cy="143.96" rx="11.61" ry="19.54" transform="translate(-80.47 202.09) rotate(-86.31)" fill="#210a31"/><path d="M86.86,145.21c-.41,6.33-9.39,10.91-20,10.22s-19-6.38-18.57-12.72,9.38-10.91,20.05-10.22S87.27,138.87,86.86,145.21Z" fill="#210a32"/><ellipse cx="67.55" cy="143.96" rx="11.38" ry="19.16" transform="matrix(0.06, -1, 1, 0.06, -80.47, 202.09)" fill="#220a33"/><path d="M86.48,145.18c-.4,6.21-9.2,10.7-19.66,10S48.21,149,48.62,142.74s9.2-10.7,19.65-10S86.88,139,86.48,145.18Z" fill="#230b34"/><path d="M86.29,145.17c-.4,6.15-9.11,10.59-19.46,9.93s-18.42-6.2-18-12.35,9.11-10.59,19.47-9.92S86.69,139,86.29,145.17Z" fill="#230b35"/><ellipse cx="67.55" cy="143.96" rx="11.05" ry="18.59" transform="translate(-80.47 202.09) rotate(-86.31)" fill="#240b36"/><ellipse cx="67.55" cy="143.96" rx="10.93" ry="18.4" transform="translate(-80.47 202.09) rotate(-86.31)" fill="#250a37"/><path d="M85.72,145.13c-.38,6-8.83,10.28-18.87,9.63s-17.86-6-17.48-12,8.84-10.28,18.87-9.63S86.11,139.17,85.72,145.13Z" fill="#250c38"/><ellipse cx="67.55" cy="143.96" rx="10.71" ry="18.02" transform="matrix(0.06, -1, 1, 0.06, -80.47, 202.09)" fill="#260b39"/><ellipse cx="67.55" cy="143.96" rx="10.59" ry="17.83" transform="translate(-80.47 202.09) rotate(-86.31)" fill="#270b3a"/><path d="M85.15,145.1c-.37,5.77-8.55,10-18.28,9.32s-17.3-5.82-16.93-11.6,8.56-9.95,18.28-9.32S85.53,139.32,85.15,145.1Z" fill="#270b3b"/><ellipse cx="67.55" cy="143.96" rx="10.37" ry="17.45" transform="translate(-80.47 202.09) rotate(-86.31)" fill="#280c3c"/><ellipse cx="67.55" cy="143.96" rx="10.26" ry="17.26" transform="translate(-80.47 202.09) rotate(-86.31)" fill="#2a0c3d"/><ellipse cx="67.55" cy="143.96" rx="10.14" ry="17.07" transform="translate(-80.47 202.09) rotate(-86.31)" fill="#2a0c3e"/><ellipse cx="67.55" cy="143.96" rx="10.03" ry="16.88" transform="translate(-80.47 202.09) rotate(-86.31)" fill="#2b0c41"/><path d="M84.21,145c-.36,5.46-8.1,9.41-17.3,8.82s-16.38-5.51-16-11,8.09-9.42,17.3-8.83S84.56,139.57,84.21,145Z" fill="#2c0d42"/><path d="M84,145c-.35,5.41-8,9.31-17.1,8.73S50.73,148.3,51.08,142.9s8-9.31,17.1-8.73S84.37,139.62,84,145Z" fill="#2c0d43"/><path d="M83.83,145c-.35,5.34-7.92,9.2-16.91,8.62s-16-5.38-15.65-10.72,7.91-9.2,16.9-8.62S84.17,139.67,83.83,145Z" fill="#2d0d44"/><ellipse cx="67.55" cy="143.96" rx="9.58" ry="16.12" transform="translate(-80.47 202.09) rotate(-86.31)" fill="#2e0e45"/><ellipse cx="67.55" cy="143.96" rx="9.47" ry="15.94" transform="translate(-80.47 202.09) rotate(-86.31)" fill="#2f0e46"/><ellipse cx="67.55" cy="143.96" rx="9.35" ry="15.75" transform="translate(-80.47 202.09) rotate(-86.31)" fill="#2f0e47"/><ellipse cx="67.55" cy="143.96" rx="9.24" ry="15.56" transform="translate(-80.47 202.09) rotate(-86.31)" fill="#300e49"/><path d="M82.88,145c-.32,5-7.45,8.67-15.92,8.12S51.89,148,52.21,143s7.46-8.67,15.92-8.12S83.21,139.92,82.88,145Z" fill="#310f4a"/><ellipse cx="67.55" cy="143.96" rx="9.02" ry="15.18" transform="matrix(0.06, -1, 1, 0.06, -80.47, 202.09)" fill="#320f4b"/><ellipse cx="67.55" cy="143.96" rx="8.9" ry="14.99" transform="translate(-80.47 202.09) rotate(-86.31)" fill="#320f4c"/><path d="M82.31,144.91c-.31,4.85-7.17,8.35-15.33,7.82s-14.51-4.88-14.2-9.72,7.18-8.35,15.33-7.82S82.63,140.07,82.31,144.91Z" fill="#330f4d"/><ellipse cx="67.55" cy="143.96" rx="8.68" ry="14.61" transform="translate(-80.47 202.09) rotate(-86.31)" fill="#34104f"/><ellipse cx="67.55" cy="143.96" rx="8.57" ry="14.42" transform="translate(-80.47 202.1) rotate(-86.31)" fill="#361050"/><path d="M81.75,144.88c-.31,4.66-6.91,8-14.75,7.52s-14-4.7-13.65-9.36,6.9-8,14.74-7.52S82.05,140.22,81.75,144.88Z" fill="#361051"/><ellipse cx="67.55" cy="143.96" rx="8.34" ry="14.04" transform="translate(-80.47 202.09) rotate(-86.31)" fill="#371152"/><path d="M81.37,144.85c-.3,4.54-6.72,7.81-14.35,7.32s-13.59-4.57-13.29-9.1,6.71-7.81,14.35-7.32S81.66,140.32,81.37,144.85Z" fill="#381154"/><path d="M81.18,144.84c-.29,4.47-6.63,7.7-14.16,7.22s-13.39-4.51-13.1-9,6.62-7.7,14.15-7.22S81.47,140.37,81.18,144.84Z" fill="#391055"/><ellipse cx="67.55" cy="143.96" rx="8" ry="13.47" transform="translate(-80.47 202.09) rotate(-86.31)" fill="#3a1156"/><path d="M80.8,144.82c-.28,4.34-6.44,7.49-13.76,7s-13-4.38-12.75-8.72,6.45-7.5,13.76-7S81.08,140.47,80.8,144.82Z" fill="#3a1157"/><ellipse cx="67.55" cy="143.96" rx="7.78" ry="13.09" transform="translate(-80.47 202.09) rotate(-86.31)" fill="#3b1159"/><path d="M80.42,144.79c-.27,4.23-6.26,7.28-13.37,6.82s-12.65-4.26-12.38-8.48,6.26-7.28,13.37-6.82S80.69,140.57,80.42,144.79Z" fill="#3c115a"/><ellipse cx="67.55" cy="143.96" rx="7.55" ry="12.71" transform="translate(-80.47 202.09) rotate(-86.31)" fill="#3d125b"/><path d="M80,144.77c-.26,4.1-6.07,7.06-13,6.61s-12.28-4.13-12-8.23,6.08-7.06,13-6.61S80.31,140.67,80,144.77Z" fill="#3e125e"/><ellipse cx="67.55" cy="143.96" rx="7.33" ry="12.33" transform="translate(-80.47 202.09) rotate(-86.31)" fill="#3f125f"/><path d="M79.66,144.74c-.25,4-5.89,6.85-12.58,6.42s-11.91-4-11.65-8,5.89-6.85,12.58-6.42S79.92,140.77,79.66,144.74Z" fill="#3f1360"/><ellipse cx="67.55" cy="143.96" rx="7.1" ry="11.95" transform="translate(-80.47 202.1) rotate(-86.31)" fill="#401362"/><ellipse cx="67.55" cy="143.96" rx="6.99" ry="11.76" transform="translate(-80.47 202.09) rotate(-86.31)" fill="#411363"/><path d="M79.09,144.71c-.24,3.78-5.61,6.52-12,6.11S55.75,147,56,143.22s5.61-6.53,12-6.12S79.34,140.92,79.09,144.71Z" fill="#421464"/><path d="M78.91,144.69c-.25,3.73-5.53,6.42-11.8,6S56,147,56.19,143.23s5.52-6.42,11.79-6S79.15,141,78.91,144.69Z" fill="#441466"/><path d="M78.72,144.68c-.24,3.67-5.43,6.31-11.6,5.92s-11-3.7-10.74-7.36,5.43-6.31,11.6-5.92S79,141,78.72,144.68Z" fill="#451467"/><ellipse cx="67.55" cy="143.96" rx="6.54" ry="11" transform="translate(-80.47 202.09) rotate(-86.31)" fill="#461569"/><path d="M78.34,144.66c-.23,3.54-5.25,6.1-11.21,5.71s-10.6-3.57-10.37-7.11,5.24-6.1,11.2-5.71S78.57,141.12,78.34,144.66Z" fill="#47156a"/><path d="M78.15,144.64c-.23,3.48-5.15,6-11,5.62s-10.42-3.51-10.19-7,5.15-6,11-5.62S78.37,141.17,78.15,144.64Z" fill="#47156b"/><path d="M78,144.63c-.22,3.42-5.06,5.89-10.81,5.52s-10.24-3.45-10-6.86S62.2,137.4,68,137.77,78.18,141.22,78,144.63Z" fill="#48166d"/><path d="M77.77,144.62c-.22,3.35-5,5.78-10.62,5.41s-10-3.38-9.83-6.73,5-5.78,10.62-5.41S78,141.27,77.77,144.62Z" fill="#49166e"/><ellipse cx="67.55" cy="143.96" rx="5.97" ry="10.05" transform="translate(-80.47 202.09) rotate(-86.31)" fill="#4a1570"/><path d="M77.39,144.6c-.21,3.23-4.78,5.56-10.22,5.21s-9.68-3.25-9.47-6.49,4.79-5.56,10.22-5.21S77.6,141.37,77.39,144.6Z" fill="#4b1671"/><path d="M77.2,144.58c-.2,3.17-4.69,5.46-10,5.12s-9.49-3.19-9.29-6.36,4.69-5.46,10-5.12S77.41,141.42,77.2,144.58Z" fill="#4c1673"/><path d="M77,144.57c-.2,3.11-4.6,5.35-9.83,5s-9.3-3.12-9.1-6.23,4.6-5.35,9.83-5S77.21,141.47,77,144.57Z" fill="#4d1674"/><ellipse cx="67.55" cy="143.96" rx="5.52" ry="9.3" transform="translate(-80.46 202.1) rotate(-86.31)" fill="#4e1776"/><path d="M76.63,144.55c-.19,3-4.41,5.13-9.43,4.81s-8.93-3-8.74-6,4.42-5.13,9.44-4.81S76.83,141.57,76.63,144.55Z" fill="#4f1777"/><path d="M76.44,144.53c-.18,2.92-4.32,5-9.23,4.72s-8.75-2.94-8.56-5.86,4.32-5,9.24-4.72S76.63,141.62,76.44,144.53Z" fill="#51177a"/><path d="M76.26,144.52c-.19,2.86-4.24,4.92-9.05,4.61s-8.56-2.87-8.37-5.73,4.23-4.92,9-4.61S76.44,141.66,76.26,144.52Z" fill="#52187b"/><path d="M76.07,144.51c-.18,2.8-4.15,4.82-8.85,4.51s-8.37-2.81-8.19-5.61,4.14-4.81,8.84-4.51S76.25,141.71,76.07,144.51Z" fill="#53187d"/><path d="M75.88,144.5c-.18,2.73-4,4.71-8.65,4.41s-8.19-2.75-8-5.49,4.05-4.71,8.65-4.41S76.05,141.76,75.88,144.5Z" fill="#54187e"/><path d="M75.69,144.49c-.18,2.67-4,4.6-8.46,4.31s-8-2.69-7.82-5.37,4-4.6,8.45-4.31S75.86,141.81,75.69,144.49Z" fill="#551980"/><path d="M75.5,144.47c-.17,2.61-3.87,4.5-8.26,4.21s-7.81-2.62-7.64-5.23,3.86-4.5,8.25-4.21S75.67,141.86,75.5,144.47Z" fill="#561980"/><path d="M75.31,144.46c-.17,2.55-3.77,4.39-8.06,4.11s-7.63-2.56-7.46-5.11,3.77-4.39,8.05-4.11S75.47,141.91,75.31,144.46Z" fill="#571a82"/><path d="M75.12,144.45c-.16,2.48-3.68,4.28-7.86,4s-7.45-2.5-7.29-5,3.68-4.28,7.87-4S75.28,142,75.12,144.45Z" fill="#581a83"/><path d="M74.93,144.44c-.16,2.42-3.59,4.17-7.67,3.91s-7.25-2.44-7.1-4.87,3.59-4.17,7.67-3.91S75.09,142,74.93,144.44Z" fill="#591985"/><path d="M74.74,144.42c-.15,2.37-3.5,4.07-7.47,3.81s-7.07-2.37-6.92-4.73,3.5-4.07,7.47-3.81S74.89,142.06,74.74,144.42Z" fill="#5a1a87"/><path d="M74.55,144.41c-.15,2.3-3.4,4-7.27,3.71s-6.89-2.31-6.74-4.61,3.41-4,7.28-3.71S74.7,142.11,74.55,144.41Z" fill="#5b1a88"/><path d="M74.36,144.4c-.14,2.24-3.31,3.85-7.07,3.61s-6.7-2.25-6.56-4.49,3.31-3.85,7.08-3.61S74.51,142.16,74.36,144.4Z" fill="#5c1a8a"/><path d="M74.17,144.39c-.14,2.17-3.22,3.74-6.88,3.51s-6.51-2.19-6.37-4.37,3.22-3.74,6.88-3.51S74.31,142.21,74.17,144.39Z" fill="#5e1b8b"/><path d="M74,144.38c-.13,2.11-3.13,3.63-6.68,3.4s-6.33-2.12-6.19-4.24,3.13-3.63,6.68-3.4S74.12,142.26,74,144.38Z" fill="#5f1b8d"/><path d="M73.79,144.36c-.13,2-3,3.53-6.48,3.31s-6.14-2.06-6-4.11,3-3.53,6.49-3.31S73.93,142.31,73.79,144.36Z" fill="#601c8f"/><path d="M73.6,144.35c-.12,2-2.94,3.43-6.29,3.21s-6-2-5.82-4,2.94-3.42,6.29-3.21S73.73,142.36,73.6,144.35Z" fill="#611c90"/><path d="M73.42,144.34c-.13,1.92-2.86,3.32-6.1,3.11s-5.77-1.94-5.64-3.87,2.85-3.32,6.09-3.11S73.54,142.41,73.42,144.34Z" fill="#621c92"/><path d="M73.23,144.33c-.12,1.86-2.76,3.21-5.9,3s-5.58-1.87-5.46-3.74,2.76-3.21,5.89-3S73.35,142.46,73.23,144.33Z" fill="#631d95"/><path d="M73,144.31c-.12,1.81-2.67,3.11-5.7,2.91s-5.4-1.81-5.28-3.61,2.67-3.11,5.7-2.91S73.15,142.51,73,144.31Z" fill="#641d96"/><path d="M72.85,144.3c-.11,1.74-2.58,3-5.51,2.81s-5.21-1.75-5.09-3.49,2.57-3,5.5-2.81S73,142.56,72.85,144.3Z" fill="#651e98"/><path d="M72.66,144.29c-.11,1.68-2.49,2.89-5.31,2.71s-5-1.69-4.91-3.37,2.48-2.89,5.3-2.71S72.77,142.61,72.66,144.29Z" fill="#661e9a"/><path d="M72.47,144.28c-.11,1.61-2.39,2.78-5.11,2.6s-4.84-1.62-4.74-3.24,2.4-2.78,5.12-2.6S72.57,142.66,72.47,144.28Z" fill="#671e9b"/><path d="M72.28,144.27c-.1,1.55-2.3,2.67-4.91,2.5s-4.66-1.56-4.56-3.12,2.3-2.67,4.92-2.5S72.38,142.71,72.28,144.27Z" fill="#681f9d"/><path d="M72.09,144.25c-.1,1.49-2.21,2.57-4.72,2.41s-4.46-1.5-4.37-3,2.21-2.57,4.72-2.41S72.19,142.76,72.09,144.25Z" fill="#691f9f"/><path d="M71.9,144.24c-.09,1.43-2.12,2.46-4.52,2.31s-4.28-1.44-4.19-2.87,2.12-2.46,4.52-2.31S72,142.81,71.9,144.24Z" fill="#6a20a1"/><path d="M71.71,144.23c-.09,1.37-2,2.35-4.32,2.2s-4.1-1.37-4-2.74,2-2.35,4.33-2.2S71.8,142.86,71.71,144.23Z" fill="#6d1fa2"/><path d="M71.52,144.22c-.08,1.3-1.93,2.24-4.13,2.1s-3.9-1.31-3.82-2.62,1.93-2.24,4.13-2.1S71.61,142.91,71.52,144.22Z" fill="#6e1fa4"/><path d="M71.33,144.2c-.08,1.25-1.84,2.14-3.93,2s-3.72-1.25-3.64-2.49,1.84-2.14,3.93-2S71.41,143,71.33,144.2Z" fill="#6f20a6"/><path d="M71.14,144.19c-.07,1.18-1.74,2-3.73,1.91s-3.54-1.19-3.46-2.37,1.75-2,3.73-1.91S71.22,143,71.14,144.19Z" fill="#7020a8"/><path d="M71,144.18c-.07,1.12-1.65,1.93-3.53,1.8s-3.35-1.12-3.28-2.24,1.66-1.93,3.54-1.8S71,143.06,71,144.18Z" fill="#7121a9"/><path d="M70.77,144.17c-.07,1.05-1.57,1.82-3.35,1.7s-3.16-1.06-3.09-2.12,1.56-1.82,3.34-1.7S70.83,143.11,70.77,144.17Z" fill="#7221ab"/><path d="M70.58,144.16c-.07,1-1.48,1.71-3.15,1.6s-3-1-2.91-2,1.47-1.71,3.14-1.6S70.64,143.16,70.58,144.16Z" fill="#7321ad"/><path d="M70.39,144.14c-.06.94-1.38,1.61-3,1.51s-2.79-.94-2.73-1.87,1.38-1.61,3-1.51S70.45,143.21,70.39,144.14Z" fill="#7422b0"/><path d="M70.2,144.13c-.06.87-1.29,1.5-2.75,1.4s-2.61-.87-2.55-1.74,1.28-1.5,2.75-1.4S70.25,143.26,70.2,144.13Z" fill="#7622b2"/><path d="M70,144.12c-.05.81-1.2,1.39-2.56,1.3s-2.42-.81-2.36-1.62,1.19-1.39,2.55-1.3S70.06,143.31,70,144.12Z" fill="#7723b3"/><path d="M69.82,144.11c0,.74-1.11,1.28-2.36,1.2s-2.23-.75-2.18-1.5,1.1-1.28,2.35-1.2S69.87,143.36,69.82,144.11Z" fill="#7923b5"/><path d="M69.63,144.09c0,.69-1,1.18-2.16,1.11s-2-.69-2-1.37,1-1.18,2.17-1.11S69.67,143.41,69.63,144.09Z" fill="#7a24b7"/><path d="M69.44,144.08c0,.62-.92,1.07-2,1s-1.86-.63-1.82-1.25.92-1.07,2-1S69.48,143.46,69.44,144.08Z" fill="#7b23b9"/><path d="M69.25,144.07c0,.56-.83,1-1.77.9s-1.67-.56-1.64-1.12.83-1,1.77-.9S69.29,143.51,69.25,144.07Z" fill="#7c23bb"/><path d="M69.06,144.06c0,.5-.73.85-1.57.8s-1.49-.5-1.46-1,.74-.85,1.57-.8S69.09,143.56,69.06,144.06Z" fill="#7e24bd"/><path d="M68.87,144.05c0,.43-.64.74-1.37.7s-1.31-.44-1.28-.88.65-.74,1.38-.7S68.9,143.61,68.87,144.05Z" fill="#7f24bf"/><path d="M68.68,144c0,.38-.55.65-1.18.61s-1.11-.38-1.09-.75.55-.65,1.18-.6S68.71,143.66,68.68,144Z" fill="#8025c0"/><path d="M68.49,144c0,.31-.46.54-1,.5s-.93-.31-.91-.62.46-.54,1-.5S68.51,143.71,68.49,144Z" fill="#8025c2"/><path d="M68.3,144c0,.25-.36.43-.78.4s-.75-.25-.73-.5.37-.43.79-.4S68.32,143.76,68.3,144Z" fill="#8126c4"/><path d="M68.11,144c0,.18-.27.32-.59.3s-.55-.19-.54-.38.27-.32.59-.3S68.13,143.81,68.11,144Z" fill="#8326c6"/><path d="M67.93,144c0,.13-.19.22-.4.21s-.37-.13-.36-.25.18-.22.39-.2S67.93,143.86,67.93,144Z" fill="#8527c8"/><path d="M67.74,144c0,.06-.1.11-.2.1s-.19-.06-.18-.12.09-.11.19-.1S67.74,143.91,67.74,144Z" fill="#8627ca"/></g></g><ellipse cx="53.08" cy="142.88" rx="5.82" ry="8.02" fill="url(#f8b1f9ae-22c6-4f1f-8220-fcc2cf451b13)" style="mix-blend-mode:screen"/><path d="M54,142.72c0,2.78-.46,5-1,5s-1-2.25-1-5,.45-5,1-5S54,140,54,142.72Z" fill-rule="evenodd" fill="url(#a1fd6032-eabf-4ead-af98-826f28a6b1db)" style="mix-blend-mode:screen"/><path d="M53,143.43c-1.86,0-3.36-.32-3.36-.71s1.5-.7,3.36-.7,3.37.31,3.37.7S54.81,143.43,53,143.43Z" fill-rule="evenodd" fill="url(#ae902cac-cc11-42ee-9d7a-4ebcf56e5c41)" style="mix-blend-mode:screen"/><polygon points="52.92 140.69 52.6 142.51 51.29 142.85 52.65 143.16 53.01 144.75 53.31 143.12 54.61 142.76 53.28 142.48 52.92 140.69" fill="#fff"/><path d="M85.83,143.22c0,5.12-3,9.26-6.72,9.26s-6.71-4.14-6.71-9.26,3-9.26,6.71-9.26S85.83,138.11,85.83,143.22Z" fill-rule="evenodd" fill="url(#a79abc41-4595-4811-ba87-fd2177b2f114)" style="mix-blend-mode:screen"/><path d="M80.14,143.05c0,3.2-.53,5.8-1.18,5.8s-1.17-2.6-1.17-5.8.53-5.8,1.17-5.8S80.14,139.85,80.14,143.05Z" fill-rule="evenodd" fill="url(#faa2c5ec-23ce-41f1-95cc-3b713879510e)" style="mix-blend-mode:screen"/><ellipse cx="78.96" cy="143.05" rx="3.88" ry="0.81" fill="url(#e95619d3-02ee-41de-9e17-998a79444870)" style="mix-blend-mode:screen"/><polygon points="78.93 140.7 78.56 142.8 77.05 143.19 78.61 143.55 79.03 145.39 79.37 143.51 80.88 143.09 79.34 142.77 78.93 140.7" fill="#fff"/><path d="M75.38,135.78c0,7.61-4.48,13.78-10,13.78s-10-6.17-10-13.78S59.85,122,65.38,122,75.38,128.16,75.38,135.78Z" fill-rule="evenodd" fill="url(#aea3b8bc-de09-4302-9fea-bd06e1b52cc4)" style="mix-blend-mode:screen"/><path d="M66.9,135.51c0,4.77-.78,8.64-1.74,8.64s-1.75-3.87-1.75-8.64.78-8.63,1.75-8.63S66.9,130.75,66.9,135.51Z" fill-rule="evenodd" fill="url(#b502240b-8a91-4452-a0e0-e0015add9f81)" style="mix-blend-mode:screen"/><path d="M65.16,136.72c-3.2,0-5.79-.54-5.79-1.21s2.59-1.21,5.79-1.21,5.78.54,5.78,1.21S68.35,136.72,65.16,136.72Z" fill-rule="evenodd" fill="url(#aaaa93fb-63f3-4bb4-b8af-444b22f7d681)" style="mix-blend-mode:screen"/><polygon points="65.11 132.02 64.56 135.14 62.31 135.73 64.63 136.27 65.25 139 65.77 136.2 68.01 135.58 65.72 135.1 65.11 132.02" fill="#fff"/><ellipse cx="65.89" cy="145.39" rx="18.49" ry="6.47" fill="url(#a0ebd407-fb2a-42ac-82c9-7a0ac3fe7b5d)" style="mix-blend-mode:screen"/><image width="95" height="75" transform="translate(19.57 32.41)" opacity="0.75" xlink:href="%E8%B5%84%E6%BA%90%20341.png" style="mix-blend-mode:screen"/><text transform="translate(35.8 80.28)" font-size="38.25" fill="#95fffe" font-family="P22MuschampPro, P22 Muschamp Pro">B<tspan x="14" y="0" letter-spacing="-0.01em">A</tspan><tspan x="29.19" y="0">CK</tspan></text><g opacity="0.53"><g opacity="0.3"><g mask="url(#b47e32dc-52a5-4881-994f-64eed11c772b)"><image width="125" height="125" transform="translate(3.57 5.41)" opacity="0.4" xlink:href="%E8%B5%84%E6%BA%90%20343.png"/></g><g mask="url(#e93443e3-56f7-42b8-b027-6a30b9f33489)"><image width="129" height="129" transform="translate(1.57 3.41)" xlink:href="%E8%B5%84%E6%BA%90%20345.png"/></g></g><g mask="url(#b4af2527-d8b6-4106-bd94-c779c65771ef)"><path d="M109.29,32.27c-1.42,7.59-15.82-4.32-35.64-8S36.2,25.87,37.52,18.81,56,4,75.83,7.4C97,11,110.72,24.68,109.29,32.27Z" fill="url(#fedb0909-2d95-4689-8587-402357c4ce11)" style="mix-blend-mode:color-dodge"/></g><g mask="url(#bae33073-1012-4f46-9b4f-61195dc361a3)"><path d="M95.24,115C83,114.27,98.55,94.7,100,69.52s-10.77-46.38.59-45.71,27.2,20.88,26.28,46.09C125.92,96.69,107.46,115.71,95.24,115Z" fill="url(#fa05b304-7cf1-49dc-a2af-6440e4bd0fa0)" style="mix-blend-mode:color-dodge"/></g><path d="M120.49,83.87C79,113.26,22,38.59,62.8,9.73c8.86-6.27,33.55-1,49.9,19.12C130.08,50.25,130,77.11,120.49,83.87Z" fill="url(#eeb40c72-3912-4d90-b8a8-e5e2ce2b3ef3)" style="mix-blend-mode:screen"/><path d="M13.46,45c11.15-10,43.64-9.93,62.6,11.2s16.4,56,6,65.31S41.75,128.64,22.29,108C1.61,86,2.3,55.05,13.46,45Z" fill="url(#aca64646-c0e6-4bd6-a3df-ce9ab21adab3)" style="mix-blend-mode:screen"/><path d="M90.66,16.05c5.43-2.87,15.07,4.73,21.54,17s7.3,24.5,1.87,27.37S99,55.66,92.53,43.42,85.22,18.92,90.66,16.05Z" fill="url(#a3ae43de-5f8c-48b8-83e2-d3ebb7c8a84a)" style="mix-blend-mode:color-dodge"/><path d="M77.56,9.24c5.07-4.95,18.22.3,29.37,11.72S123,45.66,118,50.61s-18.22-.3-29.37-11.72S72.49,14.19,77.56,9.24Z" fill="url(#fb3b2904-671c-45db-a6f3-30b6864164d3)" style="mix-blend-mode:color-dodge"/><path d="M101.37,20.5c.95-.72,5.57,3.74,10.32,10s7.84,11.86,6.89,12.59-5.57-3.74-10.32-10S100.42,21.23,101.37,20.5Z" fill="url(#e4435871-569a-447a-b340-4776dd500f10)" style="mix-blend-mode:color-dodge"/><path d="M14.25,100.24c1.08-1.3,8.52,3.08,16.64,9.79s13.81,13.2,12.74,14.5-8.52-3.08-16.63-9.79S13.18,101.54,14.25,100.24Z" opacity="0.5" fill="url(#b1cfae9d-8b03-4805-98d1-872fc0f98868)" style="mix-blend-mode:color-dodge"/><path d="M50.06,21.2c3.2,3.34.15,11.45-6.81,18.11s-15.2,9.36-18.4,6-.15-11.45,6.81-18.12S46.86,17.86,50.06,21.2Z" fill="url(#a8acc64e-d7ee-403e-b1df-d5369f1205d0)" style="mix-blend-mode:color-dodge"/><path d="M76.53,122.43c-.26,4.62-8.27,7.93-17.89,7.4s-17.22-4.72-17-9.34,8.27-7.93,17.89-7.39S76.78,117.81,76.53,122.43Z" fill="url(#b76fd367-7eaa-4e44-86de-57365fcf23ce)" style="mix-blend-mode:color-dodge"/><path d="M46.47,27.05c.35.59-.37,1.65-1.6,2.37s-2.51.83-2.86.24.37-1.66,1.61-2.38S46.13,26.45,46.47,27.05Z" fill="url(#aceeea55-4bc0-4389-85f8-13ff7e67b569)" style="mix-blend-mode:color-dodge"/><path d="M97.54,43.41c8.32,12.7,11.27,27,9.25,39.52A41.3,41.3,0,0,0,61.51,18.39C75,20.7,88.44,29.51,97.54,43.41Z" fill="url(#a7327353-c02d-4330-a230-6027ef4cb4e7)" style="mix-blend-mode:screen"/><path d="M112.74,29.17a61.61,61.61,0,1,0,13.84,45.09A61.38,61.38,0,0,0,112.74,29.17ZM109.44,78c-9.68,41.75-65.54,40.76-84.25,11.77C6.34,60.52,26,14.88,67.94,19.16,93.48,21.77,117.12,44.86,109.44,78Z" opacity="0.5" fill="url(#add9d83a-f51a-4db3-be78-b103407cc1bb)" style="mix-blend-mode:screen"/></g></g></g></g></svg>