<svg xmlns="http://www.w3.org/2000/svg" xmlns:xlink="http://www.w3.org/1999/xlink" viewBox="0 0 155.9 155.9"><defs><radialGradient id="b553c595-daf6-4a50-9405-6b05a54b4923" cx="-3465.36" cy="176.39" r="127.62" gradientTransform="translate(-3388.89 298.87) rotate(180)" gradientUnits="userSpaceOnUse"><stop offset="0"/><stop offset="0.18" stop-color="#030303"/><stop offset="0.32" stop-color="#0d0d0d"/><stop offset="0.45" stop-color="#1e1e1e"/><stop offset="0.58" stop-color="#373737"/><stop offset="0.7" stop-color="#565656"/><stop offset="0.82" stop-color="#7c7c7c"/><stop offset="0.93" stop-color="#a8a8a8"/><stop offset="1" stop-color="#c7c7c7"/></radialGradient><radialGradient id="ba4c8b8d-e1ac-4aba-b35c-ca17505dca50" cx="-3468.2" cy="245.95" r="130.07" gradientTransform="translate(-3388.89 298.87) rotate(180)" gradientUnits="userSpaceOnUse"><stop offset="0"/><stop offset="0.38" stop-color="#020202"/><stop offset="0.55" stop-color="#0a0a0a"/><stop offset="0.68" stop-color="#161616"/><stop offset="0.79" stop-color="#282828"/><stop offset="0.88" stop-color="#404040"/><stop offset="0.97" stop-color="#5d5d5d"/><stop offset="1" stop-color="#696969"/></radialGradient><radialGradient id="bc241a62-f468-4a62-bd9a-ee6f6ecd17ca" cx="-337.37" cy="242.08" r="89.47" gradientTransform="translate(521.53 -99.9) scale(1.31 0.92)" gradientUnits="userSpaceOnUse"><stop offset="0"/><stop offset="0.67" stop-color="#595959"/><stop offset="1" stop-color="gray"/></radialGradient><radialGradient id="e20eee91-b801-4e38-bb25-2c923637c675" cx="-3526.63" cy="325.4" r="107.76" gradientTransform="translate(-3331.5 212.86) rotate(180) scale(0.97 0.57)" gradientUnits="userSpaceOnUse"><stop offset="0" stop-color="#474747"/><stop offset="0.52" stop-color="#757575"/><stop offset="1" stop-color="#9c9c9c"/></radialGradient></defs><title>资源 29</title><g style="isolation:isolate"><g id="a9352a0a-61be-436d-b1b1-e0823d6fbe80" data-name="图层 2"><g id="f6359fb0-c2f7-48e0-8242-f3fdd8a683d9" data-name="图层 1"><path d="M0,78a78,78,0,1,1,78,78A78,78,0,0,1,0,78Z" fill="url(#b553c595-daf6-4a50-9405-6b05a54b4923)" style="mix-blend-mode:screen"/><path d="M0,78a78,78,0,1,1,78,78A78,78,0,0,1,0,78Z" fill="url(#ba4c8b8d-e1ac-4aba-b35c-ca17505dca50)" style="mix-blend-mode:screen"/><path d="M144.31,114.09c-.45.4-.87.46-1.38,1,1.24-4.94,4.43-9.59,5-14.72-.23.12-.38.35-.62.48.1-3.86,1.84-8.35,2.26-12.18a79.81,79.81,0,0,0,.82-13.28c-1.52.09-1.29,7.44-1.86,10-1.52-3.64,2.55-19.32-.16-21.75-1.39,6.64.54,15.52-1.32,22.36-2-4.1.14-18.18-.17-24.17s-1.07-22.82-5.6-27.07c.12,3.77,1.17,8,1.11,11.52-2-2.53-1.77-7.7-4.56-9.5-1.25,4,1.47,7.12,3.06,10.87a32.56,32.56,0,0,1,2.77,12.54,8.77,8.77,0,0,1-1.58-2.56c-.31,3.5,1.08,7.69,1.23,11.27a142,142,0,0,1-.07,15.85c-.84,12.31-5.35,24.35-14.39,33.75a10.4,10.4,0,0,1,1.6-2.39c6.26,6.5-10.18,15.11-13.29,19.39,3.74,0,7.53-3.47,10.16-5.85.28,3.82-5.76,7.19-8.2,9.8,4.91-.15,11-6.73,14.24-10.24C137.62,125,142.3,119.71,144.31,114.09Z" fill="#1a1a1a" style="mix-blend-mode:screen"/><path d="M124,23.05c-3.77-3.76-7.71-7.38-12-9a13.72,13.72,0,0,1,2.91,2.55c-3.09-1.29-5.67-3.87-8.76-5.09A50.21,50.21,0,0,0,93.81,8.59c9.14,3.27,19.73,5.8,26.36,14.09.57.71,1.26,2.34,2,2.93A13.56,13.56,0,0,0,124.53,27a17.59,17.59,0,0,1,5.1,5.51c1.18,1.81,6.32,13.7,8.59,10.73,1.95-2.34-4.11-11.73-6.15-13.32-.7,1.64.73,3.59,1.74,5.42C130,33.92,127.05,26,124,23.05Z" fill="#333" style="mix-blend-mode:screen"/><path d="M87.57,9.32c2.27.69,15,3.4,10-.84-2.23-1.74-16.63-2.24-12-4.27C81.47,2.61,69,4.85,64,5.64c-6.13.93-13.72,1.26-18.71,5,1.37,2,7.17-.43,9.76-.37-1.13,2.09-6.74,3-4.23,5,1.74,1.42,9,0,11.43-.47C66.84,14,71.22,12.59,74,10.21c1.55-1.34,1.66-2.76,4.32-3.14C81.45,6.58,84.89,8.48,87.57,9.32Z" fill="#333" style="mix-blend-mode:screen"/><path d="M21.46,36.26a82,82,0,0,1,6.89-8.33c1.79-1.85,6.23-3.88,7.59-5.93,4.24-6.46-5.7-1-7.43,0,1.81-4.57,8.19-6.57,12.62-7.67C46.83,13,49,15.1,44,19.45,40,23,35.58,26,32,30.18,28.5,34,20.61,43.25,17.51,44.4c.15-2.68,2.7-4.16,3.2-6.78a7.55,7.55,0,0,0-3.43,1.11c-.24-2.19,2.08-5.36,3.9-6.16,2.39-1.06,1.75,0,1.63,2.27C22.36,35.31,21.9,35.78,21.46,36.26Z" fill="#333" style="mix-blend-mode:screen"/><path d="M17,41.72c-1.76,3.24-4,5.79-5.18,9.1A72.35,72.35,0,0,0,7.78,75.17c.09,4.74,1.59,8.92,3.25,2.32,2.14-8.33,2.27-17,6-25.67,2.32-5.53,8.3-13.07,7.79-19C21.23,32.46,18.7,38.61,17,41.72Z" fill="#1a1a1a" style="mix-blend-mode:screen"/><path d="M6,76.76A83.32,83.32,0,0,0,6.68,66c-.12-3.4-.39-6.77-.51-10.16C5.84,47.55,3.83,57.13,3.45,61,2.74,67,3.3,73.81,3,79.84c-.16,4.78-1.25,13,.59,17.33,0,.18,1.76-7,1.92-7.93C6.11,85.3,5.58,80.85,6,76.76Z" fill="#1a1a1a" style="mix-blend-mode:screen"/><path d="M10.24,110.86a7.1,7.1,0,0,0-.94-2.53c.58,4.14,4.65,9.31,7.34,12.35,3,3.5,4.41,6.71,6.62,10.5-.52-2-1.69-4.8-.82-6.3,4.24,2.71,7.91,8.12,12.25,11-2.79-4.69-7.4-9.32-11.56-14a40.58,40.58,0,0,1-8.48-14.09C12.88,103.17,11,102.15,8.51,99,5.3,94.93,5.76,90.75,4.85,85.49-.7,86.5,8.72,106.63,10.24,110.86Z" fill="#1a1a1a" style="mix-blend-mode:screen"/><path d="M9.76,47.29c-.54,4.15-2.48,6.78-2.27,11.35,2.2.46,3.39-6.55,4.42-9.63,1.38-4,3.35-7.95,7-9.24-1.58,7.48,3.57.47,5.6-2.48,1.31-2.31,10-10.53,10.15-12.23-.07-5.68-11,6.59-12,6.84-3.23,0,3.54-8.72,4.09-10.2-5.24-.35-12.23,12.35-14.55,16.92A51.16,51.16,0,0,0,6.71,52.45Q8.06,49.89,9.76,47.29Z" fill="#333" style="mix-blend-mode:screen"/><path d="M64.67,146.61c-4.08-1.47-9.88-6.89-15.06-6.74,1.72,2.79,4.78,3.54,7.65,4.94-3.32,3.72-10.81-4.29-15.66-4.37-1.93.19,5,4.87,5.31,4.9,3.26,1.57,6.72,2.24,10.12,3.21,8.36,2.27,15,3.65,22.92,1.16C76.2,147.66,69.29,148.39,64.67,146.61Z" fill="#1a1a1a" style="mix-blend-mode:screen"/><path d="M81.84,153a102.83,102.83,0,0,0,17.24-2.39c2.78-.59,7.7-1.33,8.59-3.78,1.13-3.25-6.74.39-9.49,1.25a29.57,29.57,0,0,1-11.33,1.84c-.2-.85.89-1.79,1.75-2.47-3.25-.21-6.39.64-9.6.77a74,74,0,0,1-8-.51c-4-.25-7.82,0-11.81-.5-1.56-.17-7.34-1.76-8.5-.82-3.12,2.64,10.06,3.11,11.66,3.28s14,1.48,7.36,2.47c1.62.89,7.36.69,9.93.54,1.77-.12,3.72-.63,5.67-.74,2.77-.15,5.44.17,8.21-.23C89.55,152.15,85.66,152.57,81.84,153Z" fill="#1a1a1a" style="mix-blend-mode:screen"/><path d="M129.7,131.67c-6.38.89-12.46,8.23-19,9.38,2.32-6.15-11.7,2.38-14.84,3.34-3.24,1.29-15.69,4.2-14.4,6.36.39.77,12.3.13,24.42-3.69C118,143.52,130.19,136.79,129.7,131.67Z" fill="#1a1a1a" style="mix-blend-mode:screen"/><path d="M126.43,19.72c-3.66-4.24-9.61-8.66-15.35-9.69-6.28-1.16-5.2,2-.58,4.49,4.93,2.62,9.9,3.47,13,8-2.25-.78-13.38-6.72-15.21-3.82-1.33,2.08,13.58,8.13,15.28,9.5,5.55,3.73,9.42,9,13.32,14.29,2.63,3.59,5.76,9.35,9.07,9.11-1.42-3.39-3.81-6.32-4.59-10.29,1.41.18,2.83.53,4.11.75,1,.16-2.74-4.51-2.86-4.57-1.51-1.53-2.54-2.05-4.15-4C134.71,28.81,130.34,24.17,126.43,19.72Z" fill="#333" style="mix-blend-mode:screen"/><path d="M80.8,3.73c-4.42,1.77.2,2,3.57,2.2s6.76.17,9.54,1.43C92.12,8.8,83.55,8,86.66,11.1c1.35,1.37,5.85,1.3,7.68,1.44a47.67,47.67,0,0,1,11.49,2c3.74,1.13,8.4,5.89,12.13,6.33,5.3.5-1.18-6.12-3.33-8C107.37,5.93,89.39.23,80.8,3.73Z" fill="#333" style="mix-blend-mode:screen"/><path d="M40.18,25.89c7.28-1.42,16.93-7.76,24-10.31,6.38-2.36,8.1-4.35,0-4.52-7-.13-17.56,1.65-23.79,5.4,2.2-.42,4.26-1.55,6.43-2.16C37.4,19.61,25.43,16.22,21,28.4c3.08-.07,6.22-2.57,9.51-3.19-.42,1.92-2.22,3.66-3.42,5.56,4.58-.39,8.85-6.08,14-6.07Z" fill="#333" style="mix-blend-mode:screen"/><path d="M141.4,61.08c.65,7.38,6,17.64,7.75,24.93,1.69,6.59,3.49,8.51,4.49.52.87-7,.19-17.64-2.89-24.23.19,2.23,1.1,4.4,1.48,6.63-4.29-10,.32-21.52-11.34-27.17-.24,3.06,1.92,6.45,2.19,9.79-1.87-.62-3.41-2.59-5.18-4-.08,4.59,5.13,9.43,4.59,14.57Z" fill="#333" style="mix-blend-mode:screen"/><g style="mix-blend-mode:screen"><path d="M123,126.33c-8.1-2.21-25.32,7.59-45,6.64-19.72.95-36.93-8.85-45-6.64-3.58,1.25-4.43,8,3.06,15.17,7.07,7.08,22.49,14.67,42,14.39,19.48.28,34.89-7.31,42-14.39C127.4,134.28,126.55,127.58,123,126.33Z" fill="url(#bc241a62-f468-4a62-bd9a-ee6f6ecd17ca)"/></g><g style="mix-blend-mode:screen"><path d="M37.9,25.53c7.2,1.64,22.51-5.64,40.05-4.94,17.54-.7,32.85,6.58,40.05,4.94,3.19-.93,3.94-5.91-2.72-11.28C109,9,95.28,3.35,78,3.56,60.62,3.35,46.91,9,40.61,14.25,34,19.62,34.71,24.6,37.9,25.53Z" fill="url(#e20eee91-b801-4e38-bb25-2c923637c675)"/></g><image width="113" height="50" transform="translate(21.97 10.9)" opacity="0.74" xlink:href="%E8%B5%84%E6%BA%90%20291.png" style="mix-blend-mode:screen"/><text transform="translate(34.48 41.94)" font-size="21.25" fill="#00dcf9" font-family="P22MuschampPro, P22 Muschamp Pro"><tspan letter-spacing="-0.09em">T</tspan><tspan x="6.31" y="0">emp</tspan><tspan x="35.6" y="0" letter-spacing="-0.01em">e</tspan><tspan x="44.04" y="0">r</tspan><tspan x="51.24" y="0" letter-spacing="-0.03em">a</tspan><tspan x="57.77" y="0">tu</tspan><tspan x="72.43" y="0" letter-spacing="-0.01em">r</tspan><tspan x="79.42" y="0">e</tspan></text><rect x="118.35" y="111.8" width="3.66" height="0.5" transform="translate(240.35 224.11) rotate(180)" fill="#f7f7f7"/><rect x="118.35" y="110.39" width="2.52" height="0.5" transform="translate(239.22 221.29) rotate(180)" fill="#f7f7f7"/><rect x="118.35" y="108.99" width="5.04" height="0.5" transform="translate(241.74 218.48) rotate(180)" fill="#e6e6e6"/><rect x="118.35" y="107.58" width="2.52" height="0.5" transform="translate(239.22 215.66) rotate(180)" fill="#f7f7f7"/><rect x="118.35" y="106.17" width="3.66" height="0.5" transform="translate(240.35 212.84) rotate(180)" fill="#f7f7f7"/><rect x="118.35" y="104.76" width="2.52" height="0.5" transform="translate(239.22 210.03) rotate(180)" fill="#f7f7f7"/><rect x="118.35" y="103.36" width="5.04" height="0.5" transform="translate(241.74 207.21) rotate(180)" fill="#e6e6e6"/><rect x="118.35" y="101.95" width="2.52" height="0.5" transform="translate(239.22 204.4) rotate(180)" fill="#f7f7f7"/><rect x="118.35" y="100.54" width="3.66" height="0.5" transform="translate(240.35 201.58) rotate(180)" fill="#f7f7f7"/><rect x="118.35" y="99.13" width="2.52" height="0.5" transform="translate(239.22 198.77) rotate(180)" fill="#f7f7f7"/><rect x="118.35" y="97.72" width="5.04" height="0.5" transform="translate(241.74 195.95) rotate(180)" fill="#e6e6e6"/><rect x="118.35" y="96.32" width="2.52" height="0.5" transform="translate(239.22 193.14) rotate(180)" fill="#f7f7f7"/><rect x="118.35" y="94.91" width="3.66" height="0.5" transform="translate(240.35 190.32) rotate(180)" fill="#f7f7f7"/><rect x="118.35" y="93.5" width="2.52" height="0.5" transform="translate(239.22 187.5) rotate(180)" fill="#f7f7f7"/><rect x="118.35" y="92.09" width="5.04" height="0.5" transform="translate(241.74 184.69) rotate(180)" fill="#e6e6e6"/><rect x="118.35" y="90.69" width="2.52" height="0.5" transform="translate(239.22 181.87) rotate(180)" fill="#f7f7f7"/><rect x="118.35" y="89.28" width="3.66" height="0.5" transform="translate(240.35 179.06) rotate(180)" fill="#f7f7f7"/><rect x="118.35" y="87.87" width="2.52" height="0.5" transform="translate(239.22 176.24) rotate(180)" fill="#f7f7f7"/><rect x="118.35" y="86.46" width="5.04" height="0.5" transform="translate(241.74 173.43) rotate(180)" fill="#e6e6e6"/><rect x="118.35" y="85.05" width="2.52" height="0.5" transform="translate(239.22 170.61) rotate(180)" fill="#f7f7f7"/><rect x="118.35" y="83.65" width="3.66" height="0.5" transform="translate(240.35 167.8) rotate(180)" fill="#f7f7f7"/><rect x="118.35" y="82.24" width="2.52" height="0.5" transform="translate(239.22 164.98) rotate(180)" fill="#f7f7f7"/><rect x="118.35" y="80.83" width="5.04" height="0.5" transform="translate(241.74 162.16) rotate(180)" fill="#e6e6e6"/><rect x="118.35" y="79.42" width="2.52" height="0.5" transform="translate(239.22 159.35) rotate(180)" fill="#f7f7f7"/><rect x="118.35" y="78.02" width="3.66" height="0.5" transform="translate(240.35 156.53) rotate(180)" fill="#f7f7f7"/><rect x="118.35" y="76.61" width="2.52" height="0.5" transform="translate(239.22 153.72) rotate(180)" fill="#f7f7f7"/><rect x="118.35" y="75.2" width="5.04" height="0.5" transform="translate(241.74 150.9) rotate(180)" fill="#e6e6e6"/><rect x="118.35" y="73.79" width="2.52" height="0.5" transform="translate(239.22 148.09) rotate(180)" fill="#f7f7f7"/><rect x="118.35" y="72.38" width="3.66" height="0.5" transform="translate(240.35 145.27) rotate(180)" fill="#f7f7f7"/><rect x="118.35" y="70.98" width="2.52" height="0.5" transform="translate(239.22 142.46) rotate(180)" fill="#f7f7f7"/><rect x="118.35" y="69.57" width="5.04" height="0.5" transform="translate(241.74 139.64) rotate(180)" fill="#e6e6e6"/><rect x="118.35" y="68.16" width="2.52" height="0.5" transform="translate(239.22 136.82) rotate(180)" fill="#f7f7f7"/><rect x="118.35" y="66.75" width="3.66" height="0.5" transform="translate(240.35 134.01) rotate(180)" fill="#f7f7f7"/><rect x="118.35" y="65.35" width="2.52" height="0.5" transform="translate(239.22 131.19) rotate(180)" fill="#f7f7f7"/><rect x="118.35" y="63.94" width="5.04" height="0.5" transform="translate(241.74 128.38) rotate(180)" fill="#e6e6e6"/><rect x="118.35" y="62.53" width="2.52" height="0.5" transform="translate(239.22 125.56) rotate(180)" fill="#f7f7f7"/><rect x="118.35" y="61.12" width="3.66" height="0.5" transform="translate(240.35 122.75) rotate(180)" fill="#f7f7f7"/><rect x="118.35" y="59.71" width="2.52" height="0.5" transform="translate(239.22 119.93) rotate(180)" fill="#f7f7f7"/><rect x="118.35" y="58.31" width="5.04" height="0.5" transform="translate(241.74 117.12) rotate(180)" fill="#e6e6e6"/><path d="M119.74,113.71h1.13v-.5h-1.72Z" fill="#f7f7f7"/><path d="M120.63,114.62c.14.16.28.33.41.5h2.35v-.5Z" fill="#f7f7f7"/><path d="M126.25,91.39c0,.63-.24,1-.66,1s-.61-.35-.61-1,.27-1,.65-1S126.25,90.79,126.25,91.39Zm-1,0c0,.48.15.76.38.76s.38-.3.38-.78-.12-.76-.38-.76S125.23,90.91,125.23,91.42Z" fill="#f2f2f2"/><path d="M124.71,85h0l-.33.18,0-.19.41-.22H125v1.87h-.25Z" fill="#f7f7f7"/><path d="M126.89,85.72c0,.64-.24,1-.65,1s-.62-.34-.62-1,.27-1,.65-1S126.89,85.13,126.89,85.72Zm-1,0c0,.49.15.77.38.77s.38-.31.38-.78-.11-.77-.38-.77S125.87,85.24,125.87,85.75Z" fill="#f7f7f7"/><path d="M124.25,81v-.16l.2-.19c.48-.46.69-.7.7-1a.34.34,0,0,0-.38-.37.61.61,0,0,0-.39.16l-.09-.18a.84.84,0,0,1,.54-.19.53.53,0,0,1,.57.55c0,.34-.25.62-.65,1l-.15.14h.84V81Z" fill="#f7f7f7"/><path d="M127,80.06c0,.64-.23,1-.65,1s-.61-.34-.62-1,.27-1,.65-1S127,79.47,127,80.06Zm-1,0c0,.49.15.76.38.76s.38-.3.38-.78-.12-.76-.38-.76S126,79.58,126,80.09Z" fill="#f7f7f7"/><path d="M124.31,75.07a1,1,0,0,0,.42.11c.32,0,.43-.2.42-.36s-.24-.37-.48-.37h-.14v-.19h.14c.18,0,.42-.1.42-.32s-.1-.28-.33-.28a.69.69,0,0,0-.38.12l-.06-.19a.87.87,0,0,1,.49-.14c.37,0,.53.22.53.45a.46.46,0,0,1-.34.44h0a.49.49,0,0,1,.41.49c0,.3-.23.56-.68.56a1,1,0,0,1-.49-.13Z" fill="#f7f7f7"/><path d="M127,74.4c0,.64-.24,1-.65,1s-.62-.35-.62-1,.27-1,.65-1S127,73.8,127,74.4Zm-1,0c0,.49.15.76.38.76s.38-.3.38-.78-.11-.76-.38-.76S126,73.92,126,74.43Z" fill="#f7f7f7"/><path d="M125.08,69.69v-.51h-.87V69l.83-1.2h.28V69h.26v.2h-.26v.51Zm0-.71v-.92h0l-.16.28-.46.64h.62Z" fill="#f7f7f7"/><path d="M127,68.74c0,.63-.24,1-.66,1s-.61-.35-.62-1,.28-1,.66-1S127,68.14,127,68.74Zm-1,0c0,.48.15.76.38.76s.38-.3.38-.78-.12-.77-.38-.77S126,68.26,126,68.77Z" fill="#f7f7f7"/><path d="M125.37,62.37h-.71l-.08.48h.16a.77.77,0,0,1,.4.1.53.53,0,0,1,.27.48.65.65,0,0,1-.7.64,1,1,0,0,1-.47-.11l.07-.2a.8.8,0,0,0,.4.11.41.41,0,0,0,.44-.41c0-.24-.16-.41-.54-.41l-.26,0,.12-.9h.9Z" fill="#f7f7f7"/><path d="M127,63.07c0,.64-.24,1-.65,1s-.62-.34-.62-1,.27-1,.65-1S127,62.48,127,63.07Zm-1,0c0,.49.15.77.38.77s.38-.31.38-.78-.11-.77-.38-.77S126,62.59,126,63.1Z" fill="#f7f7f7"/><path d="M125.33,56.67h-.19a.78.78,0,0,0-.65.67h0a.57.57,0,0,1,1,.39.63.63,0,0,1-.62.66c-.4,0-.67-.31-.67-.8a1.18,1.18,0,0,1,.32-.84,1,1,0,0,1,.6-.28h.18Zm-.07,1.08a.38.38,0,0,0-.38-.43.42.42,0,0,0-.37.24.24.24,0,0,0,0,.11c0,.31.15.53.42.53S125.26,58,125.26,57.75Z" fill="#f7f7f7"/><path d="M127,57.41c0,.64-.24,1-.65,1s-.62-.34-.62-1,.27-1,.65-1S127,56.81,127,57.41Zm-1,0c0,.49.15.76.38.76s.38-.3.38-.78-.11-.76-.38-.76S126,56.93,126,57.44Z" fill="#f7f7f7"/><path d="M124.5,97.13v.19h-.72v-.19Z" fill="#f7f7f7"/><path d="M125.26,96.37h0l-.33.18-.05-.2.41-.22h.22V98h-.25Z" fill="#f7f7f7"/><path d="M127.44,97.05c0,.64-.24,1-.65,1s-.62-.34-.62-1,.27-1,.65-1S127.44,96.45,127.44,97.05Zm-1,0c0,.49.15.76.38.76s.38-.3.38-.78-.12-.76-.38-.76S126.42,96.57,126.42,97.08Z" fill="#f7f7f7"/><path d="M124.5,102.8V103h-.72v-.18Z" fill="#f7f7f7"/><path d="M124.71,103.67v-.16l.2-.19c.48-.45.7-.7.7-1a.34.34,0,0,0-.37-.37.67.67,0,0,0-.4.16l-.08-.18a.87.87,0,0,1,.53-.19.53.53,0,0,1,.57.55c0,.35-.25.62-.64,1l-.15.13h.84v.21Z" fill="#f7f7f7"/><path d="M127.44,102.71c0,.64-.24,1-.65,1s-.62-.34-.62-1,.27-1,.65-1S127.44,102.12,127.44,102.71Zm-1,0c0,.49.15.77.38.77s.38-.31.38-.79-.12-.76-.38-.76S126.42,102.23,126.42,102.74Z" fill="#f7f7f7"/><path d="M124.5,108.46v.19h-.72v-.19Z" fill="#f7f7f7"/><path d="M124.77,109a.84.84,0,0,0,.42.12c.32,0,.43-.21.42-.36s-.24-.38-.48-.38H125v-.19h.14c.18,0,.42-.09.42-.32s-.1-.28-.33-.28a.69.69,0,0,0-.38.13l-.06-.19a.87.87,0,0,1,.49-.14c.37,0,.53.22.53.44a.47.47,0,0,1-.34.45h0a.49.49,0,0,1,.41.48c0,.3-.23.56-.68.56a1,1,0,0,1-.49-.12Z" fill="#f7f7f7"/><path d="M127.44,108.38c0,.63-.24,1-.65,1s-.62-.34-.62-1,.27-1,.65-1S127.44,107.78,127.44,108.38Zm-1,0c0,.49.15.77.38.77s.38-.3.38-.78-.12-.77-.38-.77S126.42,107.89,126.42,108.4Z" fill="#f7f7f7"/><path d="M124.5,113.78V114h-.72v-.18Z" fill="#f7f7f7"/><path d="M125.5,114.65v-.51h-.87V114l.83-1.19h.28v1.16H126v.2h-.26v.51Zm0-.71v-.63c0-.09,0-.19,0-.29h0l-.16.28-.46.63h.62Z" fill="#f7f7f7"/><path d="M127.44,113.69c0,.64-.24,1-.65,1s-.62-.34-.62-1,.27-1,.65-1S127.44,113.1,127.44,113.69Zm-1,0c0,.49.15.77.38.77s.38-.31.38-.79-.12-.76-.38-.76S126.42,113.21,126.42,113.72Z" fill="#f7f7f7"/><path d="M121.23,52.92a2.22,2.22,0,0,1-1.13.26c-1.2,0-2.1-1-2.1-2.77s.9-2.88,2.22-2.88a1.88,1.88,0,0,1,1,.25l-.14.57a1.63,1.63,0,0,0-.86-.22c-1,0-1.66.82-1.66,2.25s.6,2.21,1.64,2.21a1.82,1.82,0,0,0,.9-.23Z" fill="#f7f7f7"/><path d="M117.5,49.34c0,.92-.34,1.44-1,1.44s-.89-.5-.9-1.4.4-1.42.95-1.42S117.5,48.47,117.5,49.34Zm-1.48,0c0,.71.22,1.11.55,1.11s.56-.44.56-1.14-.17-1.11-.55-1.11S116,48.64,116,49.38Z" fill="#f7f7f7"/><path d="M110.93,133.56A11.33,11.33,0,0,1,99.8,122.62a11.39,11.39,0,0,1,5.1-9.82V59.27a6.2,6.2,0,0,1,12.4,0v53.52a11.31,11.31,0,0,1-6.2,20.77Z" fill="#e6e6e6"/><ellipse cx="111.01" cy="122.28" rx="6.42" ry="6.22" fill="#e24949"/><rect x="108.27" y="77.9" width="6.16" height="50.51" rx="1.83" fill="#e24949"/></g></g></g></svg>