<svg xmlns="http://www.w3.org/2000/svg" xmlns:xlink="http://www.w3.org/1999/xlink" viewBox="0 0 173.3 173.3"><defs><radialGradient id="b4d01606-5b60-40a2-aa16-6d81cdd93362" cx="-4044.69" cy="934.61" r="86.65" gradientTransform="matrix(-1, 0, 0, 1, -3958.04, -847.96)" gradientUnits="userSpaceOnUse"><stop offset="0" stop-color="#f7c6d0"/><stop offset="0.31" stop-color="#f5c4d1"/><stop offset="0.46" stop-color="#edbfd2"/><stop offset="0.58" stop-color="#e0b5d6"/><stop offset="0.67" stop-color="#cda7da"/><stop offset="0.76" stop-color="#b596e0"/><stop offset="0.84" stop-color="#9880e7"/><stop offset="0.92" stop-color="#7466f0"/><stop offset="0.98" stop-color="#4c49fa"/><stop offset="1" stop-color="#4241fc"/></radialGradient><radialGradient id="e7757b8f-601e-4d9a-80b4-407dbcfe3fbb" cx="-3982.79" cy="974.07" r="4.17" gradientTransform="matrix(-1, 0, 0, 1, -3958.04, -847.96)" gradientUnits="userSpaceOnUse"><stop offset="0" stop-color="#8d80ef"/><stop offset="0.18" stop-color="#9282ef"/><stop offset="0.39" stop-color="#a08aee"/><stop offset="0.62" stop-color="#b796ed"/><stop offset="0.85" stop-color="#d7a6ec"/><stop offset="1" stop-color="#efb3eb"/></radialGradient><radialGradient id="bf0945e6-c4ec-474d-9bce-4a02baa70671" cx="-999.04" cy="5009.15" r="3.39" gradientTransform="matrix(0.73, 0.69, 0.69, -0.73, -2640.39, 4353.3)" xlink:href="#e7757b8f-601e-4d9a-80b4-407dbcfe3fbb"/><radialGradient id="ed2405c4-9136-424b-b5e9-179c31da2f97" cx="-4109.68" cy="915.31" r="1.93" xlink:href="#e7757b8f-601e-4d9a-80b4-407dbcfe3fbb"/><radialGradient id="ec38a769-a4b5-4440-8251-db78e94c30e9" cx="-4007.58" cy="993.45" r="1.95" xlink:href="#e7757b8f-601e-4d9a-80b4-407dbcfe3fbb"/><radialGradient id="e35046eb-ad70-41a3-8b53-487a3ff8804d" cx="-4075.85" cy="873.51" r="4.28" xlink:href="#e7757b8f-601e-4d9a-80b4-407dbcfe3fbb"/><radialGradient id="f7973186-83fb-4417-97ba-3f7f89489a8d" cx="-4031.01" cy="866.84" r="5.86" xlink:href="#e7757b8f-601e-4d9a-80b4-407dbcfe3fbb"/><radialGradient id="f46f289d-53d4-4260-a213-233a0115707c" cx="-4026.9" cy="1001.81" r="5.4" xlink:href="#e7757b8f-601e-4d9a-80b4-407dbcfe3fbb"/><radialGradient id="f5c218d2-cc96-4ea4-902a-291de4128f9c" cx="-4114.38" cy="925.52" r="7.33" xlink:href="#e7757b8f-601e-4d9a-80b4-407dbcfe3fbb"/><radialGradient id="a3cad534-1f24-41a7-9299-8f0fc3faccc0" cx="-3982.79" cy="948.51" r="8.33" xlink:href="#e7757b8f-601e-4d9a-80b4-407dbcfe3fbb"/><radialGradient id="b1221658-5ca3-422d-a59f-039222e90387" cx="-4088.97" cy="982.55" r="5.02" xlink:href="#e7757b8f-601e-4d9a-80b4-407dbcfe3fbb"/><radialGradient id="b137845d-5ee9-4666-927f-0179b3f1a205" cx="-4078.21" cy="888.34" r="4.51" xlink:href="#e7757b8f-601e-4d9a-80b4-407dbcfe3fbb"/><radialGradient id="b1bfd776-07d6-4afc-966e-b4eaa63a6f6c" cx="-3984.47" cy="892.71" r="4.16" xlink:href="#e7757b8f-601e-4d9a-80b4-407dbcfe3fbb"/><radialGradient id="be0ed6ab-f6b0-4373-a619-e960af5f865b" cx="-4103.75" cy="967.45" r="8.33" xlink:href="#e7757b8f-601e-4d9a-80b4-407dbcfe3fbb"/><radialGradient id="ad4458b3-b0fe-4a49-bad3-0954fae609b5" cx="1816.97" cy="-208.76" r="3.39" gradientTransform="matrix(0.69, -0.73, -0.73, -0.69, -1320.81, 1195.27)" xlink:href="#e7757b8f-601e-4d9a-80b4-407dbcfe3fbb"/><radialGradient id="af5eb19d-0aee-485b-918f-fa17c966f330" cx="2735.68" cy="6202.7" r="6.54" gradientTransform="matrix(0.96, 0.28, 0.28, -0.96, -4335.67, 5264.89)" xlink:href="#e7757b8f-601e-4d9a-80b4-407dbcfe3fbb"/><radialGradient id="eb686202-9747-4f02-a9db-30d9ea6f6db6" cx="-4064.2" cy="990.94" r="6.81" xlink:href="#e7757b8f-601e-4d9a-80b4-407dbcfe3fbb"/><radialGradient id="baefa2fe-48bd-4a0e-bfdc-0ad6768bd5c7" cx="-4073.57" cy="864.69" r="4.28" xlink:href="#e7757b8f-601e-4d9a-80b4-407dbcfe3fbb"/><radialGradient id="b3680803-a87d-4799-addf-5aca232418f1" cx="-2362.55" cy="6654.31" r="5.86" gradientTransform="matrix(0.04, 1, 1, -0.04, -6466.27, 2638.46)" xlink:href="#e7757b8f-601e-4d9a-80b4-407dbcfe3fbb"/><radialGradient id="beeb85b3-2b15-4e3e-b9b1-bbcf879fdbae" cx="-4061.4" cy="1001.7" r="3.69" xlink:href="#e7757b8f-601e-4d9a-80b4-407dbcfe3fbb"/><radialGradient id="b9309aac-488b-4f86-bf4e-3f3fda32faef" cx="-4114.38" cy="942.86" r="7.33" xlink:href="#e7757b8f-601e-4d9a-80b4-407dbcfe3fbb"/><radialGradient id="b4e53241-315b-4d63-896e-78f622ca79cc" cx="-3978.08" cy="956.11" r="7.83" xlink:href="#e7757b8f-601e-4d9a-80b4-407dbcfe3fbb"/><radialGradient id="ad23b8b3-87ce-4a4a-82b4-fa1dbaa8e4eb" cx="-4087.12" cy="971.11" r="5.42" xlink:href="#e7757b8f-601e-4d9a-80b4-407dbcfe3fbb"/><radialGradient id="a8f44953-da5d-4351-93cd-14e1306b7536" cx="-4096.77" cy="887.12" r="7.83" xlink:href="#e7757b8f-601e-4d9a-80b4-407dbcfe3fbb"/><radialGradient id="ad5d9660-0725-4b0e-9270-b837c648445e" cx="-3990.41" cy="984.79" r="6.13" xlink:href="#e7757b8f-601e-4d9a-80b4-407dbcfe3fbb"/><radialGradient id="f088680c-19c0-4e01-b45a-8ac850b41ad5" cx="-4027.55" cy="910.96" r="40.62" gradientTransform="matrix(-1, 0, 0, 1, -3958.04, -847.96)" gradientUnits="userSpaceOnUse"><stop offset="0" stop-color="#fff"/><stop offset="0.86" stop-color="#fff"/><stop offset="1" stop-color="#fff"/></radialGradient><radialGradient id="e37e6df8-6352-4110-b742-e27e5db058ef" cx="-4018.53" cy="962.1" r="18.85" gradientTransform="matrix(-0.97, -0.24, -0.24, 0.97, -3617.07, -1769.96)" xlink:href="#f088680c-19c0-4e01-b45a-8ac850b41ad5"/><radialGradient id="b48367c4-7040-4495-9b1b-35478903602b" cx="-4029.71" cy="987.96" r="22.9" gradientTransform="matrix(-0.98, -0.2, -0.2, 0.98, -3683.45, -1624.58)" xlink:href="#f088680c-19c0-4e01-b45a-8ac850b41ad5"/><radialGradient id="a7d6035b-4a43-46da-90a7-503612d85b07" cx="-4078.21" cy="946.24" r="22.4" xlink:href="#f088680c-19c0-4e01-b45a-8ac850b41ad5"/><linearGradient id="a0307cda-b224-4991-9de7-2a9b5e3265db" x1="-4043.05" y1="956" x2="-4048.73" y2="988.19" gradientTransform="matrix(-1, 0, 0, 1, -3958.04, -847.96)" gradientUnits="userSpaceOnUse"><stop offset="0" stop-color="#244bbc"/><stop offset="1" stop-color="#81b6ff"/></linearGradient><radialGradient id="a9c48851-b557-4390-b34b-349c9596b001" cx="-4044.69" cy="934.61" r="82.37" gradientTransform="matrix(-1, 0, 0, 1, -3958.04, -847.96)" gradientUnits="userSpaceOnUse"><stop offset="0" stop-color="#8d80ef"/><stop offset="0.19" stop-color="#887cea"/><stop offset="0.4" stop-color="#7b71dc"/><stop offset="0.63" stop-color="#645ec5"/><stop offset="0.86" stop-color="#4443a5"/><stop offset="1" stop-color="#2e318f"/></radialGradient><linearGradient id="be1f6d95-383f-4543-921f-13d86dc2178a" x1="-4088.72" y1="1013.01" x2="-4003.85" y2="861.88" gradientTransform="matrix(-1, 0, 0, 1, -3958.04, -847.96)" gradientUnits="userSpaceOnUse"><stop offset="0" stop-color="#d34c47"/><stop offset="0.22" stop-color="#cf5b6b"/><stop offset="0.71" stop-color="#c782c7"/><stop offset="1" stop-color="#c19aff"/></linearGradient><linearGradient id="f5c4783e-ed3b-4f2b-9430-5d527f6eca28" x1="-4103.15" y1="993.54" x2="-4045.81" y2="935.77" gradientTransform="matrix(-1, 0, 0, 1, -3958.04, -847.96)" gradientUnits="userSpaceOnUse"><stop offset="0" stop-color="#eeb3bb"/><stop offset="1" stop-color="#8d80ef"/></linearGradient><linearGradient id="e19f1c75-5058-45cf-b872-dd1589e3c600" x1="-4127.06" y1="946.24" x2="-3985.42" y2="946.24" gradientTransform="matrix(-1, 0, 0, 1, -3958.04, -847.96)" gradientUnits="userSpaceOnUse"><stop offset="0" stop-color="#fff6a2"/><stop offset="0.42" stop-color="#fffac6"/><stop offset="1" stop-color="#fff"/></linearGradient><linearGradient id="bfffa821-f949-4b3d-a461-6f81f4e5fa72" x1="-4012.83" y1="867.38" x2="-4044.4" y2="947.74" gradientTransform="matrix(-1, 0, 0, 1, -3959.9, -828.84)" gradientUnits="userSpaceOnUse"><stop offset="0" stop-color="#efb3eb"/><stop offset="1"/></linearGradient><radialGradient id="ad33822f-9f67-4ddb-bb23-e2261d262eb2" cx="-4008.49" cy="896.46" r="33.48" gradientTransform="matrix(-1, 0, 0, 1, -3958.04, -847.96)" gradientUnits="userSpaceOnUse"><stop offset="0" stop-color="#fff"/><stop offset="0.42" stop-color="#8d8d8d"/><stop offset="0.82" stop-color="#282828"/><stop offset="1"/></radialGradient><radialGradient id="b9877042-244a-415f-a6a8-b91499090b4e" cx="-4011.31" cy="879.74" r="7.31" gradientTransform="matrix(-1, 0, 0, 1, -3958.04, -847.96)" gradientUnits="userSpaceOnUse"><stop offset="0" stop-color="#fff"/><stop offset="1" stop-color="#e0ffff"/></radialGradient><radialGradient id="b2833f0a-aa66-4125-aab6-6f0249bf03ea" cx="-3998.4" cy="895.57" r="11.22" xlink:href="#b9877042-244a-415f-a6a8-b91499090b4e"/><radialGradient id="a84f2ab4-b2fe-47b2-98db-9de4c59472bd" cx="-4044" cy="936.8" r="82.37" gradientTransform="matrix(-1, 0, 0, 1, -3958.04, -847.96)" gradientUnits="userSpaceOnUse"><stop offset="0"/><stop offset="0.38" stop-color="#020001"/><stop offset="0.52" stop-color="#090205"/><stop offset="0.61" stop-color="#14040b"/><stop offset="0.69" stop-color="#250714"/><stop offset="0.76" stop-color="#3b0b1f"/><stop offset="0.82" stop-color="#570f2d"/><stop offset="0.87" stop-color="#77153e"/><stop offset="0.92" stop-color="#9d1c52"/><stop offset="0.97" stop-color="#c62368"/><stop offset="1" stop-color="#eb2a7b"/></radialGradient></defs><title>资源 41</title><g style="isolation:isolate"><g id="e87423bf-40f2-43c4-a768-ba5812ca007d" data-name="图层 2"><g id="a2ec5540-103d-40be-8abf-c6e2e6068326" data-name="图层 1"><circle cx="86.65" cy="86.65" r="86.65" fill="url(#b4d01606-5b60-40a2-aa16-6d81cdd93362)"/><g style="mix-blend-mode:screen"><polygon points="25.63 124.88 24.85 121.81 23.99 124.88 20.71 124.88 23.34 126.63 22.25 129.41 24.6 127.85 27.38 130.41 26.52 126.63 28.77 124.95 25.63 124.88" opacity="0.3" fill="url(#e7757b8f-601e-4d9a-80b4-407dbcfe3fbb)" style="mix-blend-mode:screen"/><polygon points="67.17 23.13 65.92 25.39 68.14 24.05 70.08 25.88 69.51 23.38 71.71 22.34 69.44 21.95 69.22 18.88 67.62 21.6 65.35 21.34 67.17 23.13" opacity="0.3" fill="url(#bf0945e6-c4ec-474d-9bce-4a02baa70671)" style="mix-blend-mode:screen"/><polygon points="152.51 66.5 151.99 65.53 151.54 66.5 149.61 66.5 151.16 67.53 150.51 69.17 151.9 68.25 153.1 68.65 152.72 67.35 153.67 66.52 152.51 66.5" opacity="0.3" fill="url(#ed2405c4-9136-424b-b5e9-179c31da2f97)" style="mix-blend-mode:screen"/><polygon points="50.23 144.47 49.97 143.44 49.13 144.47 47.69 144.47 48.68 145.66 47.94 147.54 49.54 146.49 51.22 147.35 50.84 145.66 51.38 144.5 50.23 144.47" opacity="0.3" fill="url(#ec38a769-a4b5-4440-8251-db78e94c30e9)" style="mix-blend-mode:screen"/><polygon points="118.72 24.29 117.92 21.14 117.04 24.29 113.67 24.29 116.37 26.09 115.25 28.94 117.66 27.34 120.52 29.96 119.64 26.09 121.94 24.36 118.72 24.29" opacity="0.3" fill="url(#e35046eb-ad70-41a3-8b53-487a3ff8804d)" style="mix-blend-mode:screen"/><polygon points="74.65 17.14 73.48 12.56 71.68 17.07 67.93 16.97 69.8 19.64 67.62 25.2 72.32 22.08 76.64 25.1 76.17 19.64 78.31 17.5 74.65 17.14" opacity="0.3" fill="url(#f7973186-83fb-4417-97ba-3f7f89489a8d)" style="mix-blend-mode:screen"/><polygon points="70.49 151.47 69.67 148.29 68.29 152 63.62 152.78 67.47 155.34 65.86 159.41 69.31 157.13 72.94 158.96 71.84 154.25 74.08 151.61 70.49 151.47" opacity="0.3" fill="url(#f46f289d-53d4-4260-a213-233a0115707c)" style="mix-blend-mode:screen"/><polygon points="157.1 76.09 155.53 69.96 153.82 76.09 149.28 75.18 152.52 79.59 150.33 85.16 155.32 80.78 159.86 83.87 158.89 79.6 163.38 76.23 157.1 76.09" opacity="0.3" fill="url(#f5c218d2-cc96-4ea4-902a-291de4128f9c)" style="mix-blend-mode:screen"/><polygon points="26.52 98.09 24.95 91.95 23.24 98.09 16.68 98.09 21.94 101.59 19.75 107.16 24.46 104.03 30.02 109.14 28.31 101.59 32.8 98.23 26.52 98.09" opacity="0.3" fill="url(#a3cad534-1f24-41a7-9299-8f0fc3faccc0)" style="mix-blend-mode:screen"/><polygon points="132.8 132.94 132.07 129.66 131.15 132.96 125.81 132.96 130.08 135.81 129.55 139.51 132.22 136.9 135.53 138.64 134.2 135 136.05 132.29 132.8 132.94" opacity="0.3" fill="url(#b1221658-5ca3-422d-a59f-039222e90387)" style="mix-blend-mode:screen"/><polygon points="121.19 39.53 120.29 36 119.3 39.53 115.53 39.53 118.55 41.55 117.29 44.75 120 42.95 123.26 44.49 122.22 41.55 124.8 39.61 121.19 39.53" opacity="0.3" fill="url(#b137845d-5ee9-4666-927f-0179b3f1a205)" style="mix-blend-mode:screen"/><polygon points="27.11 42.87 25.66 40.47 24.99 42.84 22.39 42.84 24.36 45.8 23.05 48.8 26.1 46.09 29.73 49.03 28.13 45.26 30.45 42.94 27.11 42.87" opacity="0.3" fill="url(#b1bfd776-07d6-4afc-966e-b4eaa63a6f6c)" style="mix-blend-mode:screen"/></g><polygon points="147.49 117.03 145.92 110.9 144.21 117.03 137.65 117.03 142.91 120.53 140.72 126.1 145.42 122.97 150.99 128.08 149.27 120.53 153.77 117.17 147.49 117.03" opacity="0.3" fill="url(#be0ed6ab-f6b0-4373-a619-e960af5f865b)" style="mix-blend-mode:screen"/><polygon points="78.4 18.47 80.65 19.72 79.32 17.5 81.15 15.56 78.64 16.14 77.61 13.93 77.22 16.2 74.15 16.42 76.86 18.02 76.6 20.29 78.4 18.47" opacity="0.3" fill="url(#ad4458b3-b0fe-4a49-bad3-0954fae609b5)" style="mix-blend-mode:screen"/><polygon points="16.1 71.94 16.91 75.57 19.25 72.85 25.56 74.68 21.49 69.85 25.14 65.11 19.75 66.81 16.23 64.35 16.23 68.95 12.36 70.76 16.1 71.94" opacity="0.3" fill="url(#af5eb19d-0aee-485b-918f-fa17c966f330)" style="mix-blend-mode:screen"/><polygon points="107.29 141.11 105.93 135.78 104.01 141.11 99.77 141.11 102.7 144.61 100.52 150.18 105.22 147.05 110.21 149.61 109.07 144.62 112.55 141.23 107.29 141.11" opacity="0.3" fill="url(#eb686202-9747-4f02-a9db-30d9ea6f6db6)" style="mix-blend-mode:screen"/><polygon points="116.44 15.47 115.64 12.32 114.76 15.47 111.39 15.47 114.09 17.27 112.96 20.12 115.38 18.52 118.23 21.14 117.36 17.27 119.66 15.54 116.44 15.47" opacity="0.3" fill="url(#baefa2fe-48bd-4a0e-bfdc-0ad6768bd5c7)" style="mix-blend-mode:screen"/><polygon points="86.4 10.02 81.88 11.37 86.46 12.98 86.5 16.74 89.1 14.76 94.75 16.72 91.44 12.14 94.28 7.71 88.85 8.39 86.62 6.34 86.4 10.02" opacity="0.3" fill="url(#b3680803-a87d-4799-addf-5aca232418f1)" style="mix-blend-mode:screen"/><polygon points="104.47 152.12 103.92 149.94 102.97 152.48 99.78 153.01 102.41 154.76 101.31 157.54 103.67 155.98 106.15 157.23 105.39 154.02 106.93 152.21 104.47 152.12" opacity="0.3" fill="url(#beeb85b3-2b15-4e3e-b9b1-bbcf879fdbae)" style="mix-blend-mode:screen"/><polygon points="157.1 93.43 155.53 87.3 153.82 93.43 149.28 92.52 152.52 96.94 150.33 102.5 155.32 98.12 159.86 101.22 158.89 96.94 163.38 93.58 157.1 93.43" opacity="0.3" fill="url(#b9309aac-488b-4f86-bf4e-3f3fda32faef)" style="mix-blend-mode:screen"/><polygon points="21.82 106.68 20.25 100.55 18.54 106.68 11.98 106.68 17.23 110.19 15.04 115.75 19.75 112.62 23.87 115.23 23.6 110.19 28.1 106.82 21.82 106.68" opacity="0.3" fill="url(#b4e53241-315b-4d63-896e-78f622ca79cc)" style="mix-blend-mode:screen"/><polygon points="129.78 121.12 128.87 117.1 127.74 121.15 124.39 121.81 126.44 124.65 125.78 129.2 129.06 126 133.13 128.14 131.49 123.66 133.77 120.33 129.78 121.12" opacity="0.3" fill="url(#ad23b8b3-87ce-4a4a-82b4-fa1dbaa8e4eb)" style="mix-blend-mode:screen"/><polygon points="140.51 37.7 138.94 31.56 137.23 37.7 130.67 37.7 135.92 41.2 133.73 46.76 138.44 43.64 144.11 46.32 142.29 41.2 146.78 37.84 140.51 37.7" opacity="0.3" fill="url(#a8f44953-da5d-4351-93cd-14e1306b7536)" style="mix-blend-mode:screen"/><polygon points="33.38 134.05 31.24 130.52 30.24 134.02 26.42 134.02 29.32 138.38 27.39 142.8 31.88 138.8 37.23 143.14 34.88 137.59 38.3 134.16 33.38 134.05" opacity="0.3" fill="url(#ad5d9660-0725-4b0e-9270-b837c648445e)" style="mix-blend-mode:screen"/><circle cx="69.5" cy="63" r="40.62" opacity="0.1" fill="url(#f088680c-19c0-4e01-b45a-8ac850b41ad5)" style="mix-blend-mode:screen"/><circle cx="60.49" cy="114.14" r="18.85" transform="translate(-25.25 17.52) rotate(-13.66)" opacity="0.3" fill="url(#e37e6df8-6352-4110-b742-e27e5db058ef)" style="mix-blend-mode:overlay"/><circle cx="71.67" cy="140" r="22.9" transform="translate(-26.25 16.92) rotate(-11.39)" opacity="0.1" fill="url(#b48367c4-7040-4495-9b1b-35478903602b)" style="mix-blend-mode:screen"/><circle cx="120.16" cy="98.28" r="22.4" opacity="0.1" fill="url(#a7d6035b-4a43-46da-90a7-503612d85b07)" style="mix-blend-mode:screen"/><path d="M17,117.6c0,30.76,31.19,55.7,69.68,55.7s69.68-24.94,69.68-55.7S128,55,89.49,55,17,86.84,17,117.6Z" opacity="0.8" fill="url(#a0307cda-b224-4991-9de7-2a9b5e3265db)" style="mix-blend-mode:overlay"/><path d="M4.28,86.65A82.43,82.43,0,1,0,41.19,18,83.31,83.31,0,0,0,26.31,30.63L26,31c-.23.24-.45.49-.67.74A82.06,82.06,0,0,0,4.28,86.65Z" opacity="0.3" fill="url(#a9c48851-b557-4390-b34b-349c9596b001)" style="mix-blend-mode:screen"/><path d="M0,86.65A86.65,86.65,0,1,0,86.65,0,86.64,86.64,0,0,0,0,86.65Zm4.28,0a82.06,82.06,0,0,1,21-54.92c.22-.25.44-.5.67-.74l.33-.36A83.31,83.31,0,0,1,41.19,18,82.34,82.34,0,1,1,4.28,86.65Z" fill="url(#be1f6d95-383f-4543-921f-13d86dc2178a)"/><path d="M12,130.64A86.66,86.66,0,1,0,150.25,27.8,86.66,86.66,0,0,1,12,130.64Z" opacity="0.8" fill="url(#f5c4783e-ed3b-4f2b-9430-5d527f6eca28)" style="mix-blend-mode:lighten"/><path d="M27.38,143.8A82.28,82.28,0,1,0,143.71,27.46,82.28,82.28,0,0,1,27.38,143.8Z" opacity="0.5" fill="url(#e19f1c75-5058-45cf-b872-dd1589e3c600)" style="mix-blend-mode:screen"/><path d="M39.23,19.34C65,2.29,105.45-2.8,132.11,24.25c26.13,26.51-.84,47.07-37.44,44.82C63.88,67.18,50.51,81,40.58,93.58s-31.1,14-33.42-9.26C5.05,63.12,18.54,33.06,39.23,19.34Z" opacity="0.8" fill="url(#bfffa821-f949-4b3d-a461-6f81f4e5fa72)" style="mix-blend-mode:screen"/><circle cx="50.45" cy="48.5" r="33.48" opacity="0.5" fill="url(#ad33822f-9f67-4ddb-bb23-e2261d262eb2)" style="mix-blend-mode:screen"/><path d="M53.37,24.39s5.27,3.42,7.12,7.25c0,0-2.8,5-6.59,7.52,0,0-5.6-3.45-7.86-7.39C46,31.77,50.07,26.43,53.37,24.39Z" fill="url(#b9877042-244a-415f-a6a8-b91499090b4e)"/><path d="M51.18,43.08A27.06,27.06,0,0,0,42.24,36,68.37,68.37,0,0,0,29.52,54.28s3.73,3.45,10.86,4.94A71.11,71.11,0,0,0,51.18,43.08Z" fill="url(#b2833f0a-aa66-4125-aab6-6f0249bf03ea)"/><ellipse cx="86.16" cy="103.32" rx="79.83" ry="13.42" fill="#b7d6ff"/><path d="M85.82,116.74c-43.52,0-78.94-5.81-80.14-13,1.2,33.58,36.62,60.52,80.14,60.52s79-26.94,80.14-60.52C164.77,110.93,129.34,116.74,85.82,116.74Z" fill="#6c95c1"/><path d="M5.65,60.65a2.43,2.43,0,0,0,0,.38c0-.21,0-.42,0-.62C5.66,60.49,5.65,60.57,5.65,60.65Z" fill="#6c95c1"/><path d="M166,60.41c0,.2,0,.41,0,.62a2.45,2.45,0,0,0,0-.38A1.94,1.94,0,0,0,166,60.41Z" fill="#6c95c1"/><path d="M41.05,81.61c-.18-5.49-4.69-13.07-12.4-13.25-7.94-.2-13,7.61-13,13.25,0,2.86,1.22,5,3.26,8.41a40.88,40.88,0,0,0,9.46,10.83A33.71,33.71,0,0,0,37.58,91C39.55,87.75,41.17,85.09,41.05,81.61Zm-12.75,4a4.84,4.84,0,1,1,4.83-4.83A4.84,4.84,0,0,1,28.3,85.64Z" fill="#d65241"/><path d="M39.45,82.79c-.19-5.48-4.7-13.06-12.41-13.24-7.94-.2-13,7.61-13,13.24,0,2.87,1.21,5,3.25,8.42A41.06,41.06,0,0,0,26.73,102,33.71,33.71,0,0,0,36,92.15C37.94,88.94,39.57,86.28,39.45,82.79Zm-12.76,4A4.84,4.84,0,1,1,31.53,82,4.83,4.83,0,0,1,26.69,86.83Z" fill="#f3715b"/><path d="M3.59,90.12a82.42,82.42,0,1,0,36.9-68.66h0s51.44-17.78,69.19-2C119.2,27.87,107.21,34.75,98,44.7s0,13.75,22.2,22.57c18.05,7.18,23.35,43.61,2,63.58s-89.29,10-95.57-7.13,43,3,39.37-8.56C60.85,98.9,26.33,88.35,21.76,71.8c-5-18.12-1.87-31,2.85-36.6A82.1,82.1,0,0,0,3.59,90.12Z" opacity="0.8" fill="url(#a84f2ab4-b2fe-47b2-98db-9de4c59472bd)" style="mix-blend-mode:screen"/></g></g></g></svg>