<svg xmlns="http://www.w3.org/2000/svg" xmlns:xlink="http://www.w3.org/1999/xlink" viewBox="0 0 542.7 514.27"><defs><filter id="fe6d149b-baf6-4e98-bd01-f12e023f8886" x="202.22" y="-8328.57" width="120.47" height="32766" filterUnits="userSpaceOnUse" color-interpolation-filters="sRGB"><feFlood flood-color="#fff" result="bg"/><feBlend in="SourceGraphic" in2="bg"/></filter><mask id="b4cb123e-9dcf-416e-8340-0d94213e8a79" x="202.22" y="-8328.57" width="120.47" height="32766" maskUnits="userSpaceOnUse"><g filter="url(#fe6d149b-baf6-4e98-bd01-f12e023f8886)"/></mask><radialGradient id="f77dfa33-232f-414e-9a62-c97074b71c62" cx="262.46" cy="492.8" r="45.22" gradientUnits="userSpaceOnUse"><stop offset="0" stop-color="#fff"/><stop offset="0.3" stop-color="#fcfcfc"/><stop offset="0.52" stop-color="#f3f3f3"/><stop offset="0.71" stop-color="#e3e3e3"/><stop offset="0.89" stop-color="#cdcdcd"/><stop offset="1" stop-color="#bababa"/></radialGradient><radialGradient id="aa3aadca-4ad3-4d8b-9506-e85d6c378e85" cx="262.46" cy="492.8" r="45.22" gradientUnits="userSpaceOnUse"><stop offset="0" stop-color="#4b0e31"/><stop offset="0.32" stop-color="#470d2f"/><stop offset="0.61" stop-color="#3c092a"/><stop offset="0.89" stop-color="#2a0322"/><stop offset="1" stop-color="#20001d"/></radialGradient><radialGradient id="ebfc2f24-8a04-4fe9-9d32-cdab796c7590" cx="261.64" cy="484.62" r="30.11" gradientUnits="userSpaceOnUse"><stop offset="0" stop-color="#ff0"/><stop offset="1" stop-color="#490000"/></radialGradient><radialGradient id="a74b5887-2e13-42d2-b9ca-de4ce0ef1b6e" cx="262.86" cy="476.16" r="52.79" gradientUnits="userSpaceOnUse"><stop offset="0" stop-color="#ff0"/><stop offset="1" stop-color="#bc5600"/></radialGradient><radialGradient id="ba19be85-097d-4036-8fac-aad9beb02ffe" cx="262.83" cy="34371.21" r="44.44" gradientTransform="translate(0 -6435.04) scale(1 0.2)" gradientUnits="userSpaceOnUse"><stop offset="0" stop-color="#787291"/><stop offset="1" stop-color="#694a7a"/></radialGradient><linearGradient id="ab825fd6-e52a-40c1-be8d-593917b40791" x1="263.42" y1="489.94" x2="263.42" y2="507.31" xlink:href="#ebfc2f24-8a04-4fe9-9d32-cdab796c7590"/><linearGradient id="f8fc2198-f4ce-4ad7-bc92-1fd08bda3caa" x1="280.29" y1="488.1" x2="280.29" y2="511.42" xlink:href="#ebfc2f24-8a04-4fe9-9d32-cdab796c7590"/><linearGradient id="adbdbec0-70e1-4e2a-9a16-c949923f48b6" x1="246.48" y1="488.17" x2="246.48" y2="511.48" xlink:href="#ebfc2f24-8a04-4fe9-9d32-cdab796c7590"/><linearGradient id="aaa3306f-a523-40b8-9175-0e3932e11a65" x1="288.51" y1="487.8" x2="288.51" y2="510.97" xlink:href="#ebfc2f24-8a04-4fe9-9d32-cdab796c7590"/><linearGradient id="ac2582b0-a278-4423-873e-3ebf9e3086bd" x1="361.43" y1="795.48" x2="361.43" y2="803.82" gradientTransform="matrix(0.96, -0.27, 0.27, 0.96, -270.99, -168.31)" xlink:href="#ebfc2f24-8a04-4fe9-9d32-cdab796c7590"/><linearGradient id="adf79fac-af16-4bb3-b0bc-23e88d89b8e7" x1="-1775.21" y1="191.77" x2="-1775.21" y2="200.1" gradientTransform="matrix(-0.96, -0.27, -0.27, 0.96, -1422.41, -168.31)" xlink:href="#ebfc2f24-8a04-4fe9-9d32-cdab796c7590"/><linearGradient id="b48c908b-0a4e-4d36-9085-eb2c1738e20c" x1="277.98" y1="497.63" x2="277.98" y2="505.96" xlink:href="#ebfc2f24-8a04-4fe9-9d32-cdab796c7590"/><linearGradient id="b417cb47-5a6f-4950-bca4-d69eb08e5093" x1="238.59" y1="487.44" x2="238.59" y2="511.05" xlink:href="#ebfc2f24-8a04-4fe9-9d32-cdab796c7590"/><linearGradient id="bde374bb-0c04-4361-b93c-635305e4ced6" x1="248.88" y1="498.18" x2="248.88" y2="505.93" xlink:href="#ebfc2f24-8a04-4fe9-9d32-cdab796c7590"/><radialGradient id="a4d0a798-2cfc-4a33-a34d-56e175516d41" cx="262.46" cy="507.06" r="42.74" xlink:href="#ebfc2f24-8a04-4fe9-9d32-cdab796c7590"/><filter id="a6b521f4-4b05-43b9-b05b-c27e138c750a" x="202.22" y="471.34" width="120.47" height="42.94" filterUnits="userSpaceOnUse" color-interpolation-filters="sRGB"><feFlood flood-color="#fff" result="bg"/><feBlend in="SourceGraphic" in2="bg"/></filter><mask id="a63d079e-c09a-42ee-80ca-43cc60ced2f3" x="202.22" y="471.34" width="120.47" height="42.94" maskUnits="userSpaceOnUse"><g mask="url(#b4cb123e-9dcf-416e-8340-0d94213e8a79)" filter="url(#a6b521f4-4b05-43b9-b05b-c27e138c750a)"><path d="M322.64,505.84a2.11,2.11,0,0,1-.8,1.17c-13.11,9.76-107,9.69-118.94-.23a1.86,1.86,0,0,1-.67-1.2,1.93,1.93,0,0,1,.87-1.83c.84-.52,1.67-1.06,2.47-1.63a65,65,0,0,0,15.78-15.53,2.55,2.55,0,0,0,0-3.09,2.22,2.22,0,0,0-.56-.54l-.37-.28c-.39-.28-.81-.57-1.24-.91-1.15-.83-2.35-1.74-3.39-2.59a19.09,19.09,0,0,1-2.24-2.06c-.28-.33-.41-.59-.3-.7,0-.46.44-.87,1.28-1.28,10.71-5.06,85.63-5.08,96.65,0,.88.41,1.36.84,1.36,1.32.09.11,0,.33-.26.65a17.43,17.43,0,0,1-2.3,2.07c-1.44,1.17-3.26,2.48-4.71,3.52l-.55.37a2.7,2.7,0,0,0-.56.56,2.5,2.5,0,0,0-.55,1.31,2.57,2.57,0,0,0,.4,1.67,59.51,59.51,0,0,0,15.83,15.68c.63.46,1.29.9,2,1.35A2.09,2.09,0,0,1,322.64,505.84Z" fill="url(#f77dfa33-232f-414e-9a62-c97074b71c62)" style="mix-blend-mode:multiply"/></g></mask><radialGradient id="bc2de3d7-3966-47cf-a390-14136bdb4d94" cx="262.46" cy="492.8" r="45.22" gradientUnits="userSpaceOnUse"><stop offset="0" stop-color="#ff90c4"/><stop offset="0.23" stop-color="#fc8ec2"/><stop offset="0.4" stop-color="#f389bb"/><stop offset="0.55" stop-color="#e380ae"/><stop offset="0.68" stop-color="#cc739d"/><stop offset="0.81" stop-color="#af6387"/><stop offset="0.93" stop-color="#8c4f6c"/><stop offset="1" stop-color="#75425a"/></radialGradient><radialGradient id="f0461caa-ff0a-4e24-a3ca-9fda872cbbfc" cx="163.95" cy="470.57" r="8.52" gradientTransform="matrix(0.82, -0.58, 0.58, 0.82, -205.53, 153.65)" gradientUnits="userSpaceOnUse"><stop offset="0" stop-color="#0284fd"/><stop offset="0.11" stop-color="#026acb"/><stop offset="0.24" stop-color="#014e96"/><stop offset="0.37" stop-color="#013668"/><stop offset="0.5" stop-color="#012343"/><stop offset="0.63" stop-color="#001425"/><stop offset="0.75" stop-color="#000911"/><stop offset="0.88" stop-color="#000204"/><stop offset="1"/></radialGradient><radialGradient id="a8c05619-22ba-4fbf-a570-5e54f76ed735" cx="163.95" cy="470.57" r="3.52" gradientTransform="matrix(0.82, -0.58, 0.58, 0.82, -205.53, 153.65)" gradientUnits="userSpaceOnUse"><stop offset="0.59" stop-color="#5890fd"/><stop offset="0.63" stop-color="#4774cb"/><stop offset="0.68" stop-color="#345596"/><stop offset="0.74" stop-color="#243b68"/><stop offset="0.79" stop-color="#172643"/><stop offset="0.85" stop-color="#0d1525"/><stop offset="0.9" stop-color="#060911"/><stop offset="0.95" stop-color="#010204"/><stop offset="1"/></radialGradient><radialGradient id="b6ef4072-5911-4862-a075-e3555b8f6333" cx="163.95" cy="470.57" r="1.87" gradientTransform="matrix(0.82, -0.58, 0.58, 0.82, -205.53, 153.65)" gradientUnits="userSpaceOnUse"><stop offset="0.84" stop-color="#fff"/><stop offset="0.86" stop-color="#cbcbcb"/><stop offset="0.88" stop-color="#969696"/><stop offset="0.9" stop-color="#686868"/><stop offset="0.92" stop-color="#434343"/><stop offset="0.94" stop-color="#252525"/><stop offset="0.96" stop-color="#111"/><stop offset="0.98" stop-color="#040404"/><stop offset="1"/></radialGradient><radialGradient id="f0ff7477-d4a5-4d94-ae73-fceab8d8dff3" cx="124.12" cy="448.64" r="6.9" gradientTransform="translate(31.15 -0.87)" xlink:href="#f0461caa-ff0a-4e24-a3ca-9fda872cbbfc"/><radialGradient id="fd61c6be-d2bb-478f-9af7-2ad497897c25" cx="124.12" cy="448.64" r="2.85" xlink:href="#a8c05619-22ba-4fbf-a570-5e54f76ed735"/><radialGradient id="aa0a9e57-1837-4bb9-9b50-9615c6a507a3" cx="124.12" cy="448.64" r="1.51" xlink:href="#b6ef4072-5911-4862-a075-e3555b8f6333"/><radialGradient id="e6878cfe-ee45-4e1b-b688-b879511c7389" cx="129.16" cy="356.69" r="6.9" xlink:href="#f0461caa-ff0a-4e24-a3ca-9fda872cbbfc"/><radialGradient id="adcce327-21e3-4e70-b31e-518e4781a0ee" cx="129.16" cy="356.69" r="2.85" xlink:href="#a8c05619-22ba-4fbf-a570-5e54f76ed735"/><radialGradient id="a2cdfd99-bb68-4dd8-9e13-48b86908d7db" cx="129.16" cy="356.69" r="1.51" xlink:href="#b6ef4072-5911-4862-a075-e3555b8f6333"/><radialGradient id="a2121324-8bd5-4dde-bf19-dacca7509638" cx="124.36" cy="320.1" r="6.9" xlink:href="#f0461caa-ff0a-4e24-a3ca-9fda872cbbfc"/><radialGradient id="bdc373d8-3f74-4bd8-9948-6d3abeb5884f" cx="124.36" cy="320.1" r="2.85" xlink:href="#a8c05619-22ba-4fbf-a570-5e54f76ed735"/><radialGradient id="b929ebd1-73b0-4f69-9aff-946006f76c45" cx="124.36" cy="320.1" r="1.51" xlink:href="#b6ef4072-5911-4862-a075-e3555b8f6333"/><radialGradient id="b370c8d7-8242-4d42-9c42-a9a72dd1bde1" cx="93.08" cy="419.13" r="9.99" xlink:href="#f0461caa-ff0a-4e24-a3ca-9fda872cbbfc"/><radialGradient id="eb2e6d50-2dba-4fbd-893c-ee60796bbb38" cx="93.08" cy="419.13" r="4.13" xlink:href="#a8c05619-22ba-4fbf-a570-5e54f76ed735"/><radialGradient id="bec11973-a6aa-40af-9859-f5b28dfd1680" cx="93.08" cy="419.13" r="2.19" xlink:href="#b6ef4072-5911-4862-a075-e3555b8f6333"/><radialGradient id="f7636b2f-88f0-4583-bd99-e13dfe0bad16" cx="90.53" cy="460.94" r="5.08" xlink:href="#f0461caa-ff0a-4e24-a3ca-9fda872cbbfc"/><radialGradient id="f399d600-a372-4b03-8be5-26be479f86cd" cx="90.53" cy="460.94" r="2.1" xlink:href="#a8c05619-22ba-4fbf-a570-5e54f76ed735"/><radialGradient id="f26fb753-414b-465b-a4e8-11122d68b6e2" cx="90.53" cy="460.94" r="1.11" xlink:href="#b6ef4072-5911-4862-a075-e3555b8f6333"/><radialGradient id="fd8312bb-2838-4135-bcee-f35ed9b2c403" cx="234.49" cy="472.77" r="8.52" xlink:href="#f0461caa-ff0a-4e24-a3ca-9fda872cbbfc"/><radialGradient id="b1586c02-c8ba-4bd2-a7d0-8ff62332be99" cx="234.49" cy="472.77" r="3.52" xlink:href="#a8c05619-22ba-4fbf-a570-5e54f76ed735"/><radialGradient id="a7caf66d-80fd-4bd0-9cdd-b145a1a63f00" cx="234.49" cy="472.77" r="1.87" xlink:href="#b6ef4072-5911-4862-a075-e3555b8f6333"/><radialGradient id="ebdd8c2e-a159-45a9-b2ee-1a0c2e8d71ef" cx="177.47" cy="411.39" r="8.52" xlink:href="#f0461caa-ff0a-4e24-a3ca-9fda872cbbfc"/><radialGradient id="bb8b0bf5-acad-4983-afff-0971c666ee38" cx="177.47" cy="411.39" r="3.52" xlink:href="#a8c05619-22ba-4fbf-a570-5e54f76ed735"/><radialGradient id="b58fe9e2-5805-4f5f-ac74-dc20d4bca89f" cx="177.47" cy="411.39" r="1.87" xlink:href="#b6ef4072-5911-4862-a075-e3555b8f6333"/><radialGradient id="f04b7852-56c6-4e1a-a78b-626345e5179e" cx="177.47" cy="360.21" r="8.52" xlink:href="#f0461caa-ff0a-4e24-a3ca-9fda872cbbfc"/><radialGradient id="a750ac17-026f-428d-aa12-f291afadafe7" cx="177.47" cy="360.21" r="3.52" xlink:href="#a8c05619-22ba-4fbf-a570-5e54f76ed735"/><radialGradient id="aeb6993e-07b9-4bd7-9261-7dc980a3e5df" cx="177.47" cy="360.21" r="1.87" xlink:href="#b6ef4072-5911-4862-a075-e3555b8f6333"/><radialGradient id="e559f7f5-1753-4a9b-9c8c-717ab76e4796" cx="161.61" cy="317.96" r="8.52" xlink:href="#f0461caa-ff0a-4e24-a3ca-9fda872cbbfc"/><radialGradient id="a40ab25d-4984-49e5-913e-ec247d4adeac" cx="161.61" cy="317.96" r="3.52" xlink:href="#a8c05619-22ba-4fbf-a570-5e54f76ed735"/><radialGradient id="b48b63c7-522f-4a30-b7fc-c059fd2fcd01" cx="161.61" cy="317.96" r="1.87" xlink:href="#b6ef4072-5911-4862-a075-e3555b8f6333"/><radialGradient id="af6b7784-faef-44e0-9961-7522b8a8475a" cx="159.15" cy="400.83" r="8.52" xlink:href="#f0461caa-ff0a-4e24-a3ca-9fda872cbbfc"/><radialGradient id="bdd1e146-0813-4494-90c2-5a5d759481e4" cx="159.15" cy="400.83" r="3.52" xlink:href="#a8c05619-22ba-4fbf-a570-5e54f76ed735"/><radialGradient id="f3c62df7-ae85-4ae4-a922-d8cfee4b13e2" cx="159.15" cy="400.83" r="1.87" xlink:href="#b6ef4072-5911-4862-a075-e3555b8f6333"/><radialGradient id="aa187186-df61-41ae-940d-e2cbf49e768d" cx="99.73" cy="355.52" r="8.52" xlink:href="#f0461caa-ff0a-4e24-a3ca-9fda872cbbfc"/><radialGradient id="a1ac7a66-b54d-482b-94e6-1d7516b0227d" cx="99.73" cy="355.52" r="3.52" xlink:href="#a8c05619-22ba-4fbf-a570-5e54f76ed735"/><radialGradient id="e94d3685-71ce-468a-b6a0-5895d0a538a1" cx="99.73" cy="355.52" r="1.87" xlink:href="#b6ef4072-5911-4862-a075-e3555b8f6333"/><radialGradient id="a1ad4108-ceb1-4bbd-92ed-5145d3cec156" cx="212.26" cy="342.43" r="8.52" xlink:href="#f0461caa-ff0a-4e24-a3ca-9fda872cbbfc"/><radialGradient id="e1887a92-a3a7-4982-9110-e03feb508f59" cx="212.26" cy="342.43" r="3.52" xlink:href="#a8c05619-22ba-4fbf-a570-5e54f76ed735"/><radialGradient id="be83a732-d069-419c-afc3-9d58b5a73baa" cx="212.26" cy="342.43" r="1.87" xlink:href="#b6ef4072-5911-4862-a075-e3555b8f6333"/><radialGradient id="b83019eb-3a77-484f-87f8-1cb2ba9ffac6" cx="151.56" cy="361.6" r="3.52" xlink:href="#f0461caa-ff0a-4e24-a3ca-9fda872cbbfc"/><radialGradient id="a31a6e05-b5b0-4d99-9978-227cf20f57bc" cx="151.56" cy="361.6" r="1.46" xlink:href="#a8c05619-22ba-4fbf-a570-5e54f76ed735"/><radialGradient id="fb44fbaf-b235-4e0c-83df-f220d11cc0a7" cx="151.56" cy="361.6" r="0.77" xlink:href="#b6ef4072-5911-4862-a075-e3555b8f6333"/><radialGradient id="fdb20859-968f-4d1d-af54-e21be49879da" cx="96.65" cy="388.26" r="3.52" xlink:href="#f0461caa-ff0a-4e24-a3ca-9fda872cbbfc"/><radialGradient id="ea8b915a-5061-4761-a371-12fde489b483" cx="96.65" cy="388.26" r="1.46" xlink:href="#a8c05619-22ba-4fbf-a570-5e54f76ed735"/><radialGradient id="fb98532a-d91b-4613-9bd5-b24d2bb8454a" cx="96.65" cy="388.26" r="0.77" xlink:href="#b6ef4072-5911-4862-a075-e3555b8f6333"/><radialGradient id="a1c341bf-8150-4749-a5df-a278a1299a35" cx="134.39" cy="480.5" r="8.95" xlink:href="#f0461caa-ff0a-4e24-a3ca-9fda872cbbfc"/><radialGradient id="b408e061-6b89-4dfe-afec-84de7c7ce2b8" cx="134.39" cy="480.5" r="3.7" xlink:href="#a8c05619-22ba-4fbf-a570-5e54f76ed735"/><radialGradient id="fa634c31-ae3f-4b9e-b81c-f139687cb1d3" cx="134.39" cy="480.5" r="1.96" xlink:href="#b6ef4072-5911-4862-a075-e3555b8f6333"/><radialGradient id="ad003648-4915-4784-9bfb-ab4eba0edcf5" cx="156.56" cy="496.09" r="6.27" xlink:href="#f0461caa-ff0a-4e24-a3ca-9fda872cbbfc"/><radialGradient id="a04452b3-9cea-4d21-93f8-823297630a76" cx="156.56" cy="496.09" r="2.59" xlink:href="#a8c05619-22ba-4fbf-a570-5e54f76ed735"/><radialGradient id="a229a9b3-7457-4165-a7af-cadc201d0393" cx="156.56" cy="496.09" r="1.37" xlink:href="#b6ef4072-5911-4862-a075-e3555b8f6333"/><radialGradient id="ac988054-ba09-4902-98c0-5089939b7017" cx="173.95" cy="497.17" r="3.53" xlink:href="#f0461caa-ff0a-4e24-a3ca-9fda872cbbfc"/><radialGradient id="bee42291-78ff-4924-945f-88932c7bf10a" cx="173.95" cy="497.17" r="1.46" xlink:href="#a8c05619-22ba-4fbf-a570-5e54f76ed735"/><radialGradient id="b5eb61f8-00d7-44ea-b5be-6c2e2cbd696b" cx="173.95" cy="497.17" r="0.77" xlink:href="#b6ef4072-5911-4862-a075-e3555b8f6333"/><radialGradient id="b689f58b-74a6-4d6c-9a4b-c4406f9ee405" cx="150.63" cy="438.92" r="13.61" gradientTransform="translate(20.64 -14.41)" xlink:href="#f0461caa-ff0a-4e24-a3ca-9fda872cbbfc"/><radialGradient id="a29f8b55-33d9-4a1e-b32e-59badfe80b2e" cx="150.63" cy="438.92" r="5.63" xlink:href="#a8c05619-22ba-4fbf-a570-5e54f76ed735"/><radialGradient id="a36a1418-c349-4db7-8ce7-704e60fdb20d" cx="150.63" cy="438.92" r="2.98" xlink:href="#b6ef4072-5911-4862-a075-e3555b8f6333"/><radialGradient id="e6a8edcc-d966-4ee1-98d5-d78d182a46b4" cx="85.42" cy="316.09" r="13.61" xlink:href="#f0461caa-ff0a-4e24-a3ca-9fda872cbbfc"/><radialGradient id="b12d3c66-1024-43a4-87bd-f36238abe775" cx="85.42" cy="316.09" r="5.63" xlink:href="#a8c05619-22ba-4fbf-a570-5e54f76ed735"/><radialGradient id="ebce2f2d-9f14-499e-8ab6-2a9c820c7ace" cx="85.42" cy="316.09" r="2.98" xlink:href="#b6ef4072-5911-4862-a075-e3555b8f6333"/><radialGradient id="ec86c3ee-232f-41e1-aa7c-19e0de1e668e" cx="132.43" cy="388.26" r="14.95" gradientTransform="matrix(0.99, -0.16, 0.16, 0.99, -65.66, 31.61)" xlink:href="#f0461caa-ff0a-4e24-a3ca-9fda872cbbfc"/><radialGradient id="f8265428-2bea-4319-826b-334c88b6d93e" cx="132.43" cy="388.26" r="6.18" xlink:href="#a8c05619-22ba-4fbf-a570-5e54f76ed735"/><radialGradient id="e0f00b62-3375-4f18-9af5-8820f573f1bf" cx="132.43" cy="388.26" r="3.27" xlink:href="#b6ef4072-5911-4862-a075-e3555b8f6333"/><radialGradient id="b8bffac4-74eb-49d6-a3f6-0a5bc3113f5f" cx="55.53" cy="436.61" r="14.95" xlink:href="#f0461caa-ff0a-4e24-a3ca-9fda872cbbfc"/><radialGradient id="fc52d7bb-3378-450c-8b97-e194b22895b3" cx="55.53" cy="436.61" r="6.18" xlink:href="#a8c05619-22ba-4fbf-a570-5e54f76ed735"/><radialGradient id="e7f103d7-9940-44ab-a1dd-3f9684f9866d" cx="55.53" cy="436.61" r="3.27" xlink:href="#b6ef4072-5911-4862-a075-e3555b8f6333"/><radialGradient id="b91020e8-4819-4bf1-8b8b-c7a84a73c47a" cx="52.25" cy="376.14" r="14.95" xlink:href="#f0461caa-ff0a-4e24-a3ca-9fda872cbbfc"/><radialGradient id="be5f815d-d3ee-42f4-8cac-7b3405a57146" cx="52.25" cy="376.14" r="6.18" xlink:href="#a8c05619-22ba-4fbf-a570-5e54f76ed735"/><radialGradient id="bf476c3f-6474-41ac-9024-89f98db8b137" cx="52.25" cy="376.14" r="3.27" xlink:href="#b6ef4072-5911-4862-a075-e3555b8f6333"/><radialGradient id="b9840a38-167d-482a-b053-9871105f26b0" cx="263.97" cy="275.84" r="199.06" gradientUnits="userSpaceOnUse"><stop offset="0.42"/><stop offset="0.64" stop-color="#020202"/><stop offset="0.72" stop-color="#090909"/><stop offset="0.77" stop-color="#141414"/><stop offset="0.82" stop-color="#252525"/><stop offset="0.85" stop-color="#3b3b3b"/><stop offset="0.89" stop-color="#575757"/><stop offset="0.92" stop-color="#777"/><stop offset="0.95" stop-color="#9d9d9d"/><stop offset="0.97" stop-color="#c8c8c8"/><stop offset="1" stop-color="#f6f6f6"/><stop offset="1" stop-color="#fff"/></radialGradient><linearGradient id="b11a1d7d-0c39-4773-a5ee-5fdd2f8fa0f3" x1="263.97" y1="416.46" x2="263.97" y2="-119.33" gradientUnits="userSpaceOnUse"><stop offset="0"/><stop offset="0.2" stop-color="#030303"/><stop offset="0.34" stop-color="#0c0c0c"/><stop offset="0.45" stop-color="#1b1b1b"/><stop offset="0.55" stop-color="#303030"/><stop offset="0.65" stop-color="#4c4c4c"/><stop offset="0.74" stop-color="#6e6e6e"/><stop offset="0.83" stop-color="#969696"/><stop offset="0.91" stop-color="#c5c5c5"/><stop offset="0.99" stop-color="#f9f9f9"/><stop offset="1" stop-color="#fff"/></linearGradient><linearGradient id="a7676e60-d83c-468d-8e0f-7dc9b008bfe6" x1="-1718.03" y1="-3974.99" x2="-1718.03" y2="-4415.67" gradientTransform="translate(-3793.73 1993.87) rotate(90)" gradientUnits="userSpaceOnUse"><stop offset="0.15"/><stop offset="0.3" stop-color="#030303"/><stop offset="0.41" stop-color="#0c0c0c"/><stop offset="0.51" stop-color="#1c1c1c"/><stop offset="0.61" stop-color="#333"/><stop offset="0.69" stop-color="#505050"/><stop offset="0.78" stop-color="#747474"/><stop offset="0.86" stop-color="#9e9e9e"/><stop offset="0.93" stop-color="#cecece"/><stop offset="1" stop-color="#fff"/></linearGradient><radialGradient id="a991bb3b-60b0-4ad9-ba44-89f1a89bd4d5" cx="126.94" cy="26.23" r="124.05" gradientTransform="translate(0 221.57) scale(1 1.24)" gradientUnits="userSpaceOnUse"><stop offset="0" stop-color="#fff"/><stop offset="0.01" stop-color="#f7f7f7"/><stop offset="0.04" stop-color="#c9c9c9"/><stop offset="0.09" stop-color="#9e9e9e"/><stop offset="0.13" stop-color="#787878"/><stop offset="0.18" stop-color="#575757"/><stop offset="0.23" stop-color="#3c3c3c"/><stop offset="0.3" stop-color="#262626"/><stop offset="0.37" stop-color="#151515"/><stop offset="0.46" stop-color="#090909"/><stop offset="0.58" stop-color="#020202"/><stop offset="0.91"/></radialGradient><radialGradient id="a2a89ce9-b704-419e-bd92-905c5f4ef19f" cx="172.7" cy="-3407.63" r="124.05" gradientTransform="translate(-3975.81 382.93) rotate(90) scale(0.43 1.24)" xlink:href="#a991bb3b-60b0-4ad9-ba44-89f1a89bd4d5"/><radialGradient id="ab9316ae-35db-42d3-8e23-983b6dcd8955" cx="296.39" cy="323.23" r="81.74" gradientTransform="matrix(0.99, -0.12, 0.15, 1.24, 117.78, -128.41)" gradientUnits="userSpaceOnUse"><stop offset="0" stop-color="#fff"/><stop offset="0.03" stop-color="#e3e3e3"/><stop offset="0.09" stop-color="#b4b4b4"/><stop offset="0.15" stop-color="#898989"/><stop offset="0.22" stop-color="#646464"/><stop offset="0.29" stop-color="#454545"/><stop offset="0.37" stop-color="#2c2c2c"/><stop offset="0.46" stop-color="#181818"/><stop offset="0.56" stop-color="#0a0a0a"/><stop offset="0.68" stop-color="#020202"/><stop offset="0.91"/></radialGradient><radialGradient id="af115d9e-a833-46ab-aac9-41fb081a554b" cx="-1470.57" cy="-3364.82" r="81.74" gradientTransform="matrix(0.12, 0.99, -1.24, 0.15, -3738.66, 2047.98)" gradientUnits="userSpaceOnUse"><stop offset="0" stop-color="#fff"/><stop offset="0.01" stop-color="#f6f6f6"/><stop offset="0.04" stop-color="#c8c8c8"/><stop offset="0.09" stop-color="#9d9d9d"/><stop offset="0.13" stop-color="#777"/><stop offset="0.18" stop-color="#575757"/><stop offset="0.23" stop-color="#3b3b3b"/><stop offset="0.29" stop-color="#252525"/><stop offset="0.36" stop-color="#141414"/><stop offset="0.45" stop-color="#090909"/><stop offset="0.57" stop-color="#020202"/><stop offset="0.91"/></radialGradient><radialGradient id="ed9afc5d-d01d-4eeb-8af6-1cd5a1c604d0" cx="64.91" cy="-253.38" r="64.91" gradientTransform="translate(0 734.52) scale(1 1.81)" xlink:href="#a991bb3b-60b0-4ad9-ba44-89f1a89bd4d5"/></defs><title>资源 33</title><g style="isolation:isolate"><g id="b11ea068-9957-407d-b0d8-4637a092a9e1" data-name="图层 2"><g id="f3ea494f-2461-447e-95eb-f7e661feb4b2" data-name="图层 1"><path d="M322.64,505.84a2.11,2.11,0,0,1-.8,1.17c-13.11,9.76-107,9.69-118.94-.23a1.86,1.86,0,0,1-.67-1.2,1.93,1.93,0,0,1,.87-1.83c.84-.52,1.67-1.06,2.47-1.63a65,65,0,0,0,15.78-15.53,2.55,2.55,0,0,0,0-3.09,2.22,2.22,0,0,0-.56-.54l-.37-.28c-.39-.28-.81-.57-1.24-.91-1.15-.83-2.35-1.74-3.39-2.59a19.09,19.09,0,0,1-2.24-2.06c-.28-.33-.41-.59-.3-.7,0-.46.44-.87,1.28-1.28,10.71-5.06,85.63-5.08,96.65,0,.88.41,1.36.84,1.36,1.32.09.11,0,.33-.26.65a17.43,17.43,0,0,1-2.3,2.07c-1.44,1.17-3.26,2.48-4.71,3.52l-.55.37a2.7,2.7,0,0,0-.56.56,2.5,2.5,0,0,0-.55,1.31,2.57,2.57,0,0,0,.4,1.67,59.51,59.51,0,0,0,15.83,15.68c.63.46,1.29.9,2,1.35A2.09,2.09,0,0,1,322.64,505.84Z" fill="url(#aa3aadca-4ad3-4d8b-9506-e85d6c378e85)"/><path d="M266.52,486.28c-17.47,0-34-1.6-47.37-4.51.43.34.85.63,1.24.91l.37.28a2.22,2.22,0,0,1,.56.54,237.38,237.38,0,0,0,45.2,4,251.23,251.23,0,0,0,37.06-2.56,2.5,2.5,0,0,1,.55-1.31A251.33,251.33,0,0,1,266.52,486.28Z" fill="url(#ebfc2f24-8a04-4fe9-9d32-cdab796c7590)"/><path d="M312.25,477.07A298.52,298.52,0,0,1,262.72,481a298.47,298.47,0,0,1-49.2-3.86c-.28-.33-.41-.59-.3-.7,0-.46.44-.87,1.28-1.28,10.71-5.06,85.63-5.08,96.65,0,.88.41,1.36.84,1.36,1.32C312.6,476.53,312.51,476.75,312.25,477.07Z" fill="url(#a74b5887-2e13-42d2-b9ca-de4ce0ef1b6e)"/><path d="M311.15,475.1c-13.43,2.88-30.21,4.56-48.41,4.56s-34.85-1.68-48.24-4.52C225.21,470.08,300.13,470.06,311.15,475.1Z" fill="url(#ba19be85-097d-4036-8fac-aad9beb02ffe)"/><path d="M253.62,507.31c-4.46-3.84-3.85-10.55.61-14.17a14.88,14.88,0,0,1,15.42-1.87c6.4,2.84,9.19,10.76,3.69,15.89,4.16-5.37,1.62-11.93-4.35-14.43a14.14,14.14,0,0,0-13.82,1.56,8.87,8.87,0,0,0-1.55,13Z" fill="url(#ab825fd6-e52a-40c1-be8d-593917b40791)"/><path d="M285.19,506.89c0,.13-.08.26-.13.39a14.16,14.16,0,0,1-2.27,4.12l-.51,0a16.7,16.7,0,0,0,1.87-4.08c.07-.22.13-.45.19-.68,2-7.79-3.08-14.83-9.62-18.56C282.25,490.8,287.82,498.87,285.19,506.89Z" fill="url(#f8fc2198-f4ce-4ad7-bc92-1fd08bda3caa)"/><path d="M252,488.17a25.08,25.08,0,0,0-5.89,4.85,14.89,14.89,0,0,0-3.35,14.38,16.24,16.24,0,0,0,1.86,4.08l-.54,0a13.86,13.86,0,0,1-2.25-4.1,14.32,14.32,0,0,1,3.63-14.92A18.42,18.42,0,0,1,252,488.17Z" fill="url(#adbdbec0-70e1-4e2a-9a16-c949923f48b6)"/><path d="M291.72,506.74c-.1.23-.21.47-.32.7a16.11,16.11,0,0,1-2.29,3.5l-.33,0a17.49,17.49,0,0,0,2.23-3.71c.07-.16.14-.32.19-.47,3-7.31-.93-14.57-7-19C290.75,491.75,294.83,499.41,291.72,506.74Z" fill="url(#aaa3306f-a523-40b8-9175-0e3932e11a65)"/><path d="M292.78,499a9.7,9.7,0,0,1,2.1,8.07,24.07,24.07,0,0,0-2.1-8.07Z" fill="url(#ac2582b0-a278-4423-873e-3ebf9e3086bd)"/><path d="M234.07,499a9.7,9.7,0,0,0-2.1,8.07,23.84,23.84,0,0,1,2.1-8.07Z" fill="url(#adf79fac-af16-4bb3-b0bc-23e88d89b8e7)"/><path d="M277.64,497.63a9.72,9.72,0,0,1-.17,8.33,24,24,0,0,0,.17-8.33Z" fill="url(#b48c908b-0a4e-4d36-9085-eb2c1738e20c)"/><path d="M237.57,492.85a14.12,14.12,0,0,0-1.9,14,17.33,17.33,0,0,0,2.42,4.18c-.12,0-.24,0-.36,0a16.37,16.37,0,0,1-2.57-4.19,14,14,0,0,1,2.05-14.24,21.36,21.36,0,0,1,5.9-5.15A24.12,24.12,0,0,0,237.57,492.85Z" fill="url(#b417cb47-5a6f-4950-bca4-d69eb08e5093)"/><path d="M249.21,505.93a9.28,9.28,0,0,1,.12-7.75,27.94,27.94,0,0,0-.12,7.75Z" fill="url(#bde374bb-0c04-4361-b93c-635305e4ced6)"/><path d="M321.77,503.6c-.67-.45-1.33-.89-2-1.35-1.24.31-2.56.61-4,.92A200.49,200.49,0,0,1,295,506.3l-.19,0c-.48.06-1,.09-1.46.15l-.54.06-1,.09c-.17,0-.34,0-.52,0l-4.95.39-1,.06-.23,0-.9.05c-6.82.43-14,.65-21.29.65-7,0-13.75-.2-20.25-.59-.32,0-.65,0-1,0a.52.52,0,0,0-.18,0l-1-.05c-1.67-.11-3.3-.24-4.93-.39a4.92,4.92,0,0,0-.52,0c-.33,0-.67-.05-1-.09a4.73,4.73,0,0,1-.54,0c-.52-.05-1-.09-1.52-.15h-.18A201.9,201.9,0,0,1,210,503.17c-1.61-.35-3.09-.68-4.46-1.05-.8.57-1.63,1.11-2.47,1.63a1.93,1.93,0,0,0-.87,1.83c2.12.57,4.43,1.15,6.93,1.69A216.36,216.36,0,0,0,236.27,511l.39,0c2.05.15,4.15.29,6.28.42l.57,0c6.26.37,12.77.54,19.42.54,7,0,13.88-.2,20.45-.59l.54,0c2.13-.13,4.24-.3,6.32-.47a1.9,1.9,0,0,0,.35,0,212.22,212.22,0,0,0,26.12-3.63c2.11-.47,4.08-.93,5.93-1.43A2.09,2.09,0,0,0,321.77,503.6Z" fill="url(#a4d0a798-2cfc-4a33-a34d-56e175516d41)"/><g mask="url(#a63d079e-c09a-42ee-80ca-43cc60ced2f3)"><path d="M322.64,505.84a2.11,2.11,0,0,1-.8,1.17c-13.11,9.76-107,9.69-118.94-.23a1.86,1.86,0,0,1-.67-1.2,1.93,1.93,0,0,1,.87-1.83c.84-.52,1.67-1.06,2.47-1.63a65,65,0,0,0,15.78-15.53,2.55,2.55,0,0,0,0-3.09,2.22,2.22,0,0,0-.56-.54l-.37-.28c-.39-.28-.81-.57-1.24-.91-1.15-.83-2.35-1.74-3.39-2.59a19.09,19.09,0,0,1-2.24-2.06c-.28-.33-.41-.59-.3-.7,0-.46.44-.87,1.28-1.28,10.71-5.06,85.63-5.08,96.65,0,.88.41,1.36.84,1.36,1.32.09.11,0,.33-.26.65a17.43,17.43,0,0,1-2.3,2.07c-1.44,1.17-3.26,2.48-4.71,3.52l-.55.37a2.7,2.7,0,0,0-.56.56,2.5,2.5,0,0,0-.55,1.31,2.57,2.57,0,0,0,.4,1.67,59.51,59.51,0,0,0,15.83,15.68c.63.46,1.29.9,2,1.35A2.09,2.09,0,0,1,322.64,505.84Z" opacity="0.6" fill="url(#bc2de3d7-3966-47cf-a390-14136bdb4d94)" style="mix-blend-mode:hard-light"/></g><path d="M207.4,437.69a8.52,8.52,0,1,1-11.88-2A8.51,8.51,0,0,1,207.4,437.69Z" fill-rule="evenodd" fill="url(#f0461caa-ff0a-4e24-a3ca-9fda872cbbfc)" style="mix-blend-mode:screen"/><path d="M203.33,440.58a3.53,3.53,0,1,1-4.92-.84A3.52,3.52,0,0,1,203.33,440.58Z" fill-rule="evenodd" fill="url(#a8c05619-22ba-4fbf-a570-5e54f76ed735)" style="mix-blend-mode:screen"/><path d="M202,441.54a1.86,1.86,0,1,1-2.6-.44A1.86,1.86,0,0,1,202,441.54Z" fill-rule="evenodd" fill="url(#b6ef4072-5911-4862-a075-e3555b8f6333)" style="mix-blend-mode:screen"/><circle cx="155.27" cy="447.78" r="6.9" transform="translate(-230.43 172.38) rotate(-35.35)" fill="url(#f0ff7477-d4a5-4d94-ae73-fceab8d8dff3)" style="mix-blend-mode:screen"/><path d="M157.6,446.13a2.85,2.85,0,1,1-4-.68A2.84,2.84,0,0,1,157.6,446.13Z" fill-rule="evenodd" fill="url(#fd61c6be-d2bb-478f-9af7-2ad497897c25)" style="mix-blend-mode:screen"/><path d="M156.51,446.9a1.51,1.51,0,1,1-2.11-.36A1.52,1.52,0,0,1,156.51,446.9Z" fill-rule="evenodd" fill="url(#aa0a9e57-1837-4bb9-9b50-9615c6a507a3)" style="mix-blend-mode:screen"/><path d="M111.81,365.87a6.9,6.9,0,1,1-9.62-1.63A6.9,6.9,0,0,1,111.81,365.87Z" fill-rule="evenodd" fill="url(#e6878cfe-ee45-4e1b-b688-b879511c7389)" style="mix-blend-mode:screen"/><path d="M108.51,368.21a2.85,2.85,0,1,1-4-.67A2.85,2.85,0,0,1,108.51,368.21Z" fill-rule="evenodd" fill="url(#adcce327-21e3-4e70-b31e-518e4781a0ee)" style="mix-blend-mode:screen"/><path d="M107.41,369a1.51,1.51,0,0,1-2.46,1.75,1.51,1.51,0,1,1,2.46-1.75Z" fill-rule="evenodd" fill="url(#a2cdfd99-bb68-4dd8-9e13-48b86908d7db)" style="mix-blend-mode:screen"/><path d="M86.73,338.81a6.9,6.9,0,1,1-9.62-1.64A6.89,6.89,0,0,1,86.73,338.81Z" fill-rule="evenodd" fill="url(#a2121324-8bd5-4dde-bf19-dacca7509638)" style="mix-blend-mode:screen"/><path d="M83.43,341.15a2.85,2.85,0,1,1-4-.68A2.86,2.86,0,0,1,83.43,341.15Z" fill-rule="evenodd" fill="url(#bdc373d8-3f74-4bd8-9948-6d3abeb5884f)" style="mix-blend-mode:screen"/><path d="M82.33,341.93A1.49,1.49,0,0,1,82,344a1.51,1.51,0,1,1,.36-2.1Z" fill-rule="evenodd" fill="url(#b929ebd1-73b0-4f69-9aff-946006f76c45)" style="mix-blend-mode:screen"/><circle cx="112.88" cy="441.67" r="9.99" fill="url(#b370c8d7-8242-4d42-9c42-a9a72dd1bde1)" style="mix-blend-mode:screen"/><circle cx="112.88" cy="441.67" r="4.13" fill="url(#eb2e6d50-2dba-4fbd-893c-ee60796bbb38)" style="mix-blend-mode:screen"/><path d="M114.66,440.4a2.19,2.19,0,1,1-3-.52A2.18,2.18,0,0,1,114.66,440.4Z" fill-rule="evenodd" fill="url(#bec11973-a6aa-40af-9859-f5b28dfd1680)" style="mix-blend-mode:screen"/><path d="M139.13,474.3a5.08,5.08,0,1,1-7.08-1.21A5.08,5.08,0,0,1,139.13,474.3Z" fill-rule="evenodd" fill="url(#f7636b2f-88f0-4583-bd99-e13dfe0bad16)" style="mix-blend-mode:screen"/><path d="M136.7,476a2.1,2.1,0,1,1-2.93-.49A2.11,2.11,0,0,1,136.7,476Z" fill-rule="evenodd" fill="url(#f399d600-a372-4b03-8be5-26be479f86cd)" style="mix-blend-mode:screen"/><path d="M135.9,476.6a1.12,1.12,0,1,1-1.56-.27A1.12,1.12,0,0,1,135.9,476.6Z" fill-rule="evenodd" fill="url(#f26fb753-414b-465b-a4e8-11122d68b6e2)" style="mix-blend-mode:screen"/><path d="M266.2,398.67a8.52,8.52,0,1,1-11.88-2A8.53,8.53,0,0,1,266.2,398.67Z" fill-rule="evenodd" fill="url(#fd8312bb-2838-4135-bcee-f35ed9b2c403)" style="mix-blend-mode:screen"/><path d="M262.13,401.56a3.53,3.53,0,1,1-4.92-.83A3.54,3.54,0,0,1,262.13,401.56Z" fill-rule="evenodd" fill="url(#b1586c02-c8ba-4bd2-a7d0-8ff62332be99)" style="mix-blend-mode:screen"/><path d="M260.78,402.52a1.87,1.87,0,1,1-3,2.16,1.87,1.87,0,0,1,3-2.16Z" fill-rule="evenodd" fill="url(#a7caf66d-80fd-4bd0-9cdd-b145a1a63f00)" style="mix-blend-mode:screen"/><path d="M184.19,381.59a8.53,8.53,0,1,1-11.89-2A8.53,8.53,0,0,1,184.19,381.59Z" fill-rule="evenodd" fill="url(#ebdd8c2e-a159-45a9-b2ee-1a0c2e8d71ef)" style="mix-blend-mode:screen"/><path d="M180.11,384.48a3.53,3.53,0,1,1-4.91-.83A3.53,3.53,0,0,1,180.11,384.48Z" fill-rule="evenodd" fill="url(#bb8b0bf5-acad-4983-afff-0971c666ee38)" style="mix-blend-mode:screen"/><path d="M178.76,385.44a1.87,1.87,0,1,1-2.61-.44A1.88,1.88,0,0,1,178.76,385.44Z" fill-rule="evenodd" fill="url(#b58fe9e2-5805-4f5f-ac74-dc20d4bca89f)" style="mix-blend-mode:screen"/><path d="M154.58,339.85a8.52,8.52,0,1,1-11.88-2A8.53,8.53,0,0,1,154.58,339.85Z" fill-rule="evenodd" fill="url(#f04b7852-56c6-4e1a-a78b-626345e5179e)" style="mix-blend-mode:screen"/><path d="M150.51,342.75a3.52,3.52,0,1,1-4.92-.84A3.53,3.53,0,0,1,150.51,342.75Z" fill-rule="evenodd" fill="url(#a750ac17-026f-428d-aa12-f291afadafe7)" style="mix-blend-mode:screen"/><circle cx="147.63" cy="344.78" r="1.87" fill="url(#aeb6993e-07b9-4bd7-9261-7dc980a3e5df)" style="mix-blend-mode:screen"/><path d="M117.2,314.56a8.53,8.53,0,1,1-11.89-2A8.53,8.53,0,0,1,117.2,314.56Z" fill-rule="evenodd" fill="url(#e559f7f5-1753-4a9b-9c8c-717ab76e4796)" style="mix-blend-mode:screen"/><path d="M113.12,317.45a3.53,3.53,0,1,1-4.91-.83A3.53,3.53,0,0,1,113.12,317.45Z" fill-rule="evenodd" fill="url(#a40ab25d-4984-49e5-913e-ec247d4adeac)" style="mix-blend-mode:screen"/><path d="M111.77,318.41a1.87,1.87,0,1,1-2.61-.44A1.88,1.88,0,0,1,111.77,318.41Z" fill-rule="evenodd" fill="url(#b48b63c7-522f-4a30-b7fc-c059fd2fcd01)" style="mix-blend-mode:screen"/><path d="M163.14,383.58a8.53,8.53,0,1,1-11.88-2A8.53,8.53,0,0,1,163.14,383.58Z" fill-rule="evenodd" fill="url(#af6b7784-faef-44e0-9961-7522b8a8475a)" style="mix-blend-mode:screen"/><path d="M159.06,386.47a3.53,3.53,0,1,1-4.91-.83A3.53,3.53,0,0,1,159.06,386.47Z" fill-rule="evenodd" fill="url(#bdd1e146-0813-4494-90c2-5a5d759481e4)" style="mix-blend-mode:screen"/><circle cx="156.19" cy="388.51" r="1.87" fill="url(#f3c62df7-ae85-4ae4-a922-d8cfee4b13e2)" style="mix-blend-mode:screen"/><path d="M88.46,381a8.53,8.53,0,1,1-11.88-2A8.52,8.52,0,0,1,88.46,381Z" fill-rule="evenodd" fill="url(#aa187186-df61-41ae-940d-e2cbf49e768d)" style="mix-blend-mode:screen"/><path d="M84.38,383.89a3.53,3.53,0,1,1-4.91-.83A3.53,3.53,0,0,1,84.38,383.89Z" fill-rule="evenodd" fill="url(#a1ac7a66-b54d-482b-94e6-1d7516b0227d)" style="mix-blend-mode:screen"/><path d="M83,384.85a1.87,1.87,0,1,1-2.6-.44A1.86,1.86,0,0,1,83,384.85Z" fill-rule="evenodd" fill="url(#e94d3685-71ce-468a-b6a0-5895d0a538a1)" style="mix-blend-mode:screen"/><path d="M172.67,305.23a8.53,8.53,0,1,1-11.89-2A8.52,8.52,0,0,1,172.67,305.23Z" fill-rule="evenodd" fill="url(#a1ad4108-ceb1-4bbd-92ed-5145d3cec156)" style="mix-blend-mode:screen"/><path d="M168.59,308.12a3.53,3.53,0,1,1-4.91-.84A3.52,3.52,0,0,1,168.59,308.12Z" fill-rule="evenodd" fill="url(#e1887a92-a3a7-4982-9110-e03feb508f59)" style="mix-blend-mode:screen"/><circle cx="165.72" cy="310.16" r="1.87" fill="url(#be83a732-d069-419c-afc3-9d58b5a73baa)" style="mix-blend-mode:screen"/><path d="M130.17,358.87a3.52,3.52,0,1,1-4.92-.84A3.53,3.53,0,0,1,130.17,358.87Z" fill-rule="evenodd" fill="url(#b83019eb-3a77-484f-87f8-1cb2ba9ffac6)" style="mix-blend-mode:screen"/><path d="M128.48,360.06a1.46,1.46,0,1,1-2-.34A1.45,1.45,0,0,1,128.48,360.06Z" fill-rule="evenodd" fill="url(#a31a6e05-b5b0-4d99-9978-227cf20f57bc)" style="mix-blend-mode:screen"/><path d="M127.92,360.46a.76.76,0,0,1-.18,1.07.77.77,0,0,1-1.08-.18.78.78,0,0,1,.19-1.08A.77.77,0,0,1,127.92,360.46Z" fill-rule="evenodd" fill="url(#fb44fbaf-b235-4e0c-83df-f220d11cc0a7)" style="mix-blend-mode:screen"/><path d="M100.81,412.38a3.53,3.53,0,1,1-4.92-.84A3.52,3.52,0,0,1,100.81,412.38Z" fill-rule="evenodd" fill="url(#fdb20859-968f-4d1d-af54-e21be49879da)" style="mix-blend-mode:screen"/><path d="M99.12,413.58a1.46,1.46,0,1,1-2-.35A1.45,1.45,0,0,1,99.12,413.58Z" fill-rule="evenodd" fill="url(#ea8b915a-5061-4761-a371-12fde489b483)" style="mix-blend-mode:screen"/><path d="M98.56,414a.77.77,0,0,1-.18,1.08.77.77,0,1,1-.9-1.26A.77.77,0,0,1,98.56,414Z" fill-rule="evenodd" fill="url(#fb98532a-d91b-4613-9bd5-b24d2bb8454a)" style="mix-blend-mode:screen"/><path d="M189.38,462.64a9,9,0,1,1-12.48-2.12A9,9,0,0,1,189.38,462.64Z" fill-rule="evenodd" fill="url(#a1c341bf-8150-4749-a5df-a278a1299a35)" style="mix-blend-mode:screen"/><path d="M185.1,465.68a3.7,3.7,0,1,1-5.16-.88A3.7,3.7,0,0,1,185.1,465.68Z" fill-rule="evenodd" fill="url(#b408e061-6b89-4dfe-afec-84de7c7ce2b8)" style="mix-blend-mode:screen"/><path d="M183.68,466.68a2,2,0,1,1-2.73-.46A2,2,0,0,1,183.68,466.68Z" fill-rule="evenodd" fill="url(#fa634c31-ae3f-4b9e-b81c-f139687cb1d3)" style="mix-blend-mode:screen"/><circle cx="209.18" cy="467.71" r="6.27" fill="url(#ad003648-4915-4784-9bfb-ab4eba0edcf5)" style="mix-blend-mode:screen"/><circle cx="209.18" cy="467.71" r="2.59" fill="url(#a04452b3-9cea-4d21-93f8-823297630a76)" style="mix-blend-mode:screen"/><path d="M210.3,466.91a1.37,1.37,0,1,1-2.24,1.59,1.37,1.37,0,0,1,2.24-1.59Z" fill-rule="evenodd" fill="url(#a229a9b3-7457-4165-a7af-cadc201d0393)" style="mix-blend-mode:screen"/><circle cx="223.99" cy="458.53" r="3.53" fill="url(#ac988054-ba09-4902-98c0-5089939b7017)" style="mix-blend-mode:screen"/><path d="M225.18,457.69a1.46,1.46,0,1,1-2-.35A1.45,1.45,0,0,1,225.18,457.69Z" fill-rule="evenodd" fill="url(#bee42291-78ff-4924-945f-88932c7bf10a)" style="mix-blend-mode:screen"/><path d="M224.62,458.08a.77.77,0,1,1-1.26.9.77.77,0,1,1,1.26-.9Z" fill-rule="evenodd" fill="url(#b5eb61f8-00d7-44ea-b5be-6c2e2cbd696b)" style="mix-blend-mode:screen"/><circle cx="171.27" cy="424.51" r="13.61" transform="translate(-214.03 177.35) rotate(-35.35)" fill="url(#b689f58b-74a6-4d6c-9a4b-c4406f9ee405)" style="mix-blend-mode:screen"/><path d="M175.86,421.25a5.63,5.63,0,1,1-7.85-1.33A5.63,5.63,0,0,1,175.86,421.25Z" fill-rule="evenodd" fill="url(#a29f8b55-33d9-4a1e-b32e-59badfe80b2e)" style="mix-blend-mode:screen"/><path d="M173.7,422.79a3,3,0,1,1-4.16-.71A3,3,0,0,1,173.7,422.79Z" fill-rule="evenodd" fill="url(#a36a1418-c349-4db7-8ce7-704e60fdb20d)" style="mix-blend-mode:screen"/><path d="M58.12,354.17a13.61,13.61,0,1,1-19-3.22A13.61,13.61,0,0,1,58.12,354.17Z" fill-rule="evenodd" fill="url(#e6a8edcc-d966-4ee1-98d5-d78d182a46b4)" style="mix-blend-mode:screen"/><path d="M51.61,358.79a5.63,5.63,0,1,1-7.84-1.33A5.63,5.63,0,0,1,51.61,358.79Z" fill-rule="evenodd" fill="url(#b12d3c66-1024-43a4-87bd-f36238abe775)" style="mix-blend-mode:screen"/><path d="M49.45,360.32a3,3,0,1,1-4.15-.7A3,3,0,0,1,49.45,360.32Z" fill-rule="evenodd" fill="url(#ebce2f2d-9f14-499e-8ab6-2a9c820c7ace)" style="mix-blend-mode:screen"/><circle cx="127.12" cy="393.72" r="14.95" transform="translate(-160.52 96.33) rotate(-26.15)" fill="url(#ec86c3ee-232f-41e1-aa7c-19e0de1e668e)" style="mix-blend-mode:screen"/><path d="M132.16,390.14a6.18,6.18,0,1,1-8.62-1.46A6.18,6.18,0,0,1,132.16,390.14Z" fill-rule="evenodd" fill="url(#f8265428-2bea-4319-826b-334c88b6d93e)" style="mix-blend-mode:screen"/><path d="M129.79,391.82a3.27,3.27,0,1,1-4.57-.77A3.28,3.28,0,0,1,129.79,391.82Z" fill-rule="evenodd" fill="url(#e0f00b62-3375-4f18-9af5-8820f573f1bf)" style="mix-blend-mode:screen"/><path d="M104.56,469a14.95,14.95,0,1,1-20.84-3.54A14.95,14.95,0,0,1,104.56,469Z" fill-rule="evenodd" fill="url(#b8bffac4-74eb-49d6-a3f6-0a5bc3113f5f)" style="mix-blend-mode:screen"/><path d="M97.41,474.07a6.18,6.18,0,1,1-8.62-1.46A6.18,6.18,0,0,1,97.41,474.07Z" fill-rule="evenodd" fill="url(#fc52d7bb-3378-450c-8b97-e194b22895b3)" style="mix-blend-mode:screen"/><path d="M95,475.75a3.27,3.27,0,1,1-4.57-.77A3.28,3.28,0,0,1,95,475.75Z" fill-rule="evenodd" fill="url(#e7f103d7-9940-44ab-a1dd-3f9684f9866d)" style="mix-blend-mode:screen"/><path d="M66.91,421.57A15,15,0,1,1,46.07,418,14.95,14.95,0,0,1,66.91,421.57Z" fill-rule="evenodd" fill="url(#b91020e8-4819-4bf1-8b8b-c7a84a73c47a)" style="mix-blend-mode:screen"/><path d="M59.76,426.65a6.18,6.18,0,1,1-8.62-1.47A6.18,6.18,0,0,1,59.76,426.65Z" fill-rule="evenodd" fill="url(#be5f815d-d3ee-42f4-8cac-7b3405a57146)" style="mix-blend-mode:screen"/><path d="M57.38,428.33a3.27,3.27,0,1,1-4.56-.78A3.27,3.27,0,0,1,57.38,428.33Z" fill-rule="evenodd" fill="url(#bf476c3f-6474-41ac-9024-89f98db8b137)" style="mix-blend-mode:screen"/><image width="448" height="448" transform="translate(71.7 82.57) scale(0.86)" xlink:href="../../../%E6%B0%94%E6%B3%A1/5.png"/><g opacity="0.53"><path d="M463,275.84c0,110-89.11,199.06-199,199.06-100.92,0-184.26-75.06-197.3-172.4a203.83,203.83,0,0,1-1.76-26.66c0-109.94,89.11-199,199.06-199A199,199,0,0,1,462.56,262.52C462.88,266.93,463,271.37,463,275.84Z" fill="url(#b9840a38-167d-482a-b053-9871105f26b0)" style="mix-blend-mode:screen"/><path d="M426.48,252.76a162.53,162.53,0,0,1-323.59,21.77,166.3,166.3,0,0,1-1.44-21.77A162.51,162.51,0,0,1,426.1,241.88C426.37,245.49,426.48,249.11,426.48,252.76Z" fill="url(#b11a1d7d-0c39-4773-a5ee-5fdd2f8fa0f3)" style="mix-blend-mode:screen"/><path d="M315.9,428.74c-73.83,0-133.67-68.45-133.67-152.9,0-77.51,50.41-141.53,115.76-151.54a119.21,119.21,0,0,1,17.91-1.36c73.82,0,133.66,68.46,133.66,152.9,0,81-55.05,147.3-124.72,152.55C321.88,428.63,318.9,428.74,315.9,428.74Z" fill="url(#a7676e60-d83c-468d-8e0f-7dc9b008bfe6)" style="mix-blend-mode:screen"/><ellipse cx="126.94" cy="254.21" rx="124.05" ry="154.34" fill="url(#a991bb3b-60b0-4ad9-ba44-89f1a89bd4d5)" style="mix-blend-mode:screen"/><ellipse cx="263.97" cy="457.23" rx="154.34" ry="53.37" fill="url(#a2a89ce9-b704-419e-bd92-905c5f4ef19f)" style="mix-blend-mode:screen"/><path d="M541.76,225.09c6.79,55.76-24,105.38-68.85,110.84s-86.64-35.32-93.43-91.07,24-105.38,68.85-110.84S535,169.34,541.76,225.09Z" fill="url(#ab9316ae-35db-42d3-8e23-983b6dcd8955)" style="mix-blend-mode:color-dodge"/><path d="M249.33,163.21C193.57,170,144,139.18,138.49,94.37S173.81,7.73,229.57.94,334.94,25,340.4,69.78,305.08,156.43,249.33,163.21Z" fill="url(#af115d9e-a833-46ab-aac9-41fb081a554b)" style="mix-blend-mode:color-dodge"/><ellipse cx="64.91" cy="275.84" rx="64.91" ry="117.5" fill="url(#ed9afc5d-d01d-4eeb-8af6-1cd5a1c604d0)" style="mix-blend-mode:screen"/></g></g></g></g></svg>