<svg xmlns="http://www.w3.org/2000/svg" xmlns:xlink="http://www.w3.org/1999/xlink" viewBox="0 0 64.52 64.52"><title>资源 28</title><g id="f88650f1-2fbe-4d5a-80c7-e0ae0f8f7cfa" data-name="图层 2"><g id="aedfc4e9-8885-42e3-b339-e1edd9dde661" data-name="图层 1"><path d="M43.68,27.89c-.16-4.87-4.18-11.62-11-11.79C25.57,15.93,21.09,22.87,21,27.89c0,2.55,1.08,4.46,2.9,7.49A36.5,36.5,0,0,0,32.36,45a30.22,30.22,0,0,0,8.23-8.8C42.34,33.37,43.79,31,43.68,27.89Zm-11.36,3.6a4.31,4.31,0,1,1,4.31-4.3A4.31,4.31,0,0,1,32.32,31.49Z" fill="#d65241"/><path d="M42.25,29c-.16-4.88-4.18-11.62-11-11.79C24.14,17,19.66,23.93,19.6,29c0,2.55,1.08,4.46,2.9,7.49a36.26,36.26,0,0,0,8.43,9.64,30,30,0,0,0,8.23-8.79C40.91,34.43,42.36,32.05,42.25,29Zm-11.36,3.6a4.31,4.31,0,1,1,4.31-4.31A4.31,4.31,0,0,1,30.89,32.55Z" fill="#f3715b"/><image width="448" height="448" transform="scale(0.14)" xlink:href="../../../%E6%B0%94%E6%B3%A1/6.png"/></g></g></svg>