<svg xmlns="http://www.w3.org/2000/svg" xmlns:xlink="http://www.w3.org/1999/xlink" viewBox="0 0 174.3 174.3"><defs><linearGradient id="b83aca98-3e07-4d6c-b613-ebc2a464a731" x1="1094.9" y1="879.72" x2="966.26" y2="992.59" gradientTransform="matrix(-1, 0, 0, 1, 1118.91, -847.96)" gradientUnits="userSpaceOnUse"><stop offset="0" stop-color="#f6ea32"/><stop offset="0.07" stop-color="#f5e036"/><stop offset="0.19" stop-color="#f4c73f"/><stop offset="0.34" stop-color="#f29d4f"/><stop offset="0.52" stop-color="#ee6365"/><stop offset="0.68" stop-color="#eb2a7b"/><stop offset="0.76" stop-color="#eb2c78"/><stop offset="0.83" stop-color="#eb326e"/><stop offset="0.89" stop-color="#ec3c5c"/><stop offset="0.95" stop-color="#ed4a45"/><stop offset="1" stop-color="#ee5a29"/></linearGradient><linearGradient id="ac1b65c7-b3b5-4b26-8895-e7d19dbdd647" x1="1033.41" y1="956.63" x2="1027.7" y2="988.99" gradientTransform="matrix(-1, 0, 0, 1, 1118.91, -847.96)" gradientUnits="userSpaceOnUse"><stop offset="0" stop-color="#808082"/><stop offset="1" stop-color="#ee5a29"/></linearGradient><linearGradient id="bb41a993-2229-4f62-ad50-b7b889abf107" x1="944.62" y1="935.11" x2="1118.91" y2="935.11" gradientTransform="matrix(-1, 0, 0, 1, 1118.91, -847.96)" gradientUnits="userSpaceOnUse"><stop offset="0" stop-color="#9b1f63"/><stop offset="0.28" stop-color="#b3435a"/><stop offset="0.91" stop-color="#ef9f44"/><stop offset="1" stop-color="#f8ad40"/></linearGradient><radialGradient id="f68d5c50-ba38-46f6-9eea-e416e4a2f228" cx="1020.15" cy="946.81" r="71.23" gradientTransform="matrix(-1, 0, 0, 1, 1118.91, -847.96)" gradientUnits="userSpaceOnUse"><stop offset="0" stop-color="#fff"/><stop offset="1" stop-color="#e0ffff"/></radialGradient><radialGradient id="b41112c4-c8f9-4d0c-a953-daf991548f1d" cx="1068.18" cy="896.74" r="33.67" gradientTransform="matrix(-0.97, -0.23, -0.23, 0.97, 1296.37, -578.56)" gradientUnits="userSpaceOnUse"><stop offset="0" stop-color="#fff"/><stop offset="0.42" stop-color="#8d8d8d"/><stop offset="0.82" stop-color="#282828"/><stop offset="1"/></radialGradient><radialGradient id="ac4d0c34-cbf4-41df-87cd-e27d0e9eea8a" cx="1065.34" cy="879.92" r="7.35" xlink:href="#f68d5c50-ba38-46f6-9eea-e416e4a2f228"/><radialGradient id="b7d457ce-7807-4ccd-a169-9e1ff166624d" cx="1078.33" cy="895.84" r="11.29" xlink:href="#f68d5c50-ba38-46f6-9eea-e416e4a2f228"/><linearGradient id="a2808792-e242-420e-abb1-f37a6aa1aaf0" x1="1012.49" y1="950.83" x2="968.58" y2="984.8" gradientTransform="matrix(-1, 0, 0, 1, 1118.91, -847.96)" gradientUnits="userSpaceOnUse"><stop offset="0" stop-color="#662d8e"/><stop offset="1" stop-color="#8d80ef"/></linearGradient><linearGradient id="b0153661-8be8-4937-ba3a-fe75628f0037" x1="1061.42" y1="867.49" x2="1035.27" y2="934.03" gradientTransform="matrix(-1, 0, 0, 1, 1118.91, -847.96)" gradientUnits="userSpaceOnUse"><stop offset="0" stop-color="#f8ad40"/><stop offset="1"/></linearGradient><radialGradient id="e106d0bb-4312-48f7-a4b7-bf91910d097a" cx="1033.65" cy="932.88" r="82.84" gradientTransform="matrix(-1, 0, 0, 1, 1118.91, -847.96)" gradientUnits="userSpaceOnUse"><stop offset="0.39"/><stop offset="0.46" stop-color="#110504"/><stop offset="0.58" stop-color="#3c100e"/><stop offset="0.76" stop-color="#82241e"/><stop offset="0.97" stop-color="#e13e33"/><stop offset="1" stop-color="#ec4136"/></radialGradient><radialGradient id="afdab78f-be2d-45dc-a1fc-51f67fa4856b" cx="1031.77" cy="935.11" r="82.84" gradientTransform="matrix(-1, 0, 0, 1, 1118.91, -847.96)" gradientUnits="userSpaceOnUse"><stop offset="0" stop-color="#3d8bff"/><stop offset="0.29" stop-color="#428dff"/><stop offset="0.63" stop-color="#5091ff"/><stop offset="0.98" stop-color="#6799ff"/><stop offset="1" stop-color="#689aff"/></radialGradient></defs><title>资源 42</title><g style="isolation:isolate"><g id="bd00e8c7-565b-4f7e-a68f-b001cff5ea6c" data-name="图层 2"><g id="afb27998-24f8-4c3d-8079-60407c4892e8" data-name="图层 1"><circle cx="87.15" cy="87.15" r="87.15" fill="url(#b83aca98-3e07-4d6c-b613-ebc2a464a731)"/><path d="M17.06,118.28c0,30.94,31.38,56,70.09,56s70.08-25.08,70.08-56-28.51-63-67.22-63S17.06,87.34,17.06,118.28Z" opacity="0.8" fill="url(#ac1b65c7-b3b5-4b26-8895-e7d19dbdd647)" style="mix-blend-mode:overlay"/><path d="M0,87.15A87.15,87.15,0,1,0,87.15,0,87.14,87.14,0,0,0,0,87.15Zm4.31,0A82.51,82.51,0,0,1,25.45,31.92c.23-.26.45-.51.68-.75l.34-.36A82.8,82.8,0,1,1,4.31,87.15Z" fill="url(#bb41a993-2229-4f62-ad50-b7b889abf107)"/><path d="M27.53,144.63a82.76,82.76,0,1,0,117-117,82.75,82.75,0,0,1-117,117Z" fill="url(#f68d5c50-ba38-46f6-9eea-e416e4a2f228)"/><circle cx="50.74" cy="48.77" r="33.67" transform="translate(-9.85 12.96) rotate(-13.28)" opacity="0.5" fill="url(#b41112c4-c8f9-4d0c-a953-daf991548f1d)" style="mix-blend-mode:screen"/><path d="M53.67,24.53S59,28,60.84,31.82c0,0-2.82,5-6.62,7.57,0,0-5.64-3.48-7.91-7.44C46.31,32,50.35,26.58,53.67,24.53Z" fill="url(#ac4d0c34-cbf4-41df-87cd-e27d0e9eea8a)"/><path d="M51.48,43.33a27.13,27.13,0,0,0-9-7.12A68.53,68.53,0,0,0,29.69,54.59s3.75,3.47,10.92,5A71.31,71.31,0,0,0,51.48,43.33Z" fill="url(#b7d457ce-7807-4ccd-a169-9e1ff166624d)"/><ellipse cx="86.88" cy="102.09" rx="85.88" ry="15.06" fill="#b7d6ff" opacity="0.85"/><path d="M87.18,116.91c-46.55,0-84.43-6.78-85.71-15.23,1.28,39.2,39.16,70.65,85.71,70.65s84.43-31.45,85.71-70.65C171.61,110.13,133.73,116.91,87.18,116.91Z" fill="#6c95c1" opacity="0.85"/><path d="M12,130.58A86.47,86.47,0,1,0,149.94,28,86.47,86.47,0,0,1,12,130.58Z" opacity="0.8" fill="url(#a2808792-e242-420e-abb1-f37a6aa1aaf0)" style="mix-blend-mode:lighten"/><path d="M39.62,19.28c25.95-17,66.71-22,93.39,5.38,26.16,26.79-1.07,47.34-37.87,44.9C64.19,67.51,50.67,81.33,40.63,94s-31.35,14-33.57-9.47C5,63.15,18.75,33,39.62,19.28Z" opacity="0.8" fill="url(#b0153661-8be8-4937-ba3a-fe75628f0037)" style="mix-blend-mode:screen"/><path d="M2.43,86.21A82.91,82.91,0,1,0,39.55,17.15h0S91.29-.73,109.14,15.11c9.57,8.49-2.49,15.41-11.73,25.42s0,13.83,22.32,22.7c18.16,7.22,23.49,43.86,2,64s-89.81,10-96.12-7.18,43.25,3,39.6-8.6C60,95,25.3,84.43,20.7,67.79c-5-18.23-1.88-31.15,2.87-36.81A82.51,82.51,0,0,0,2.43,86.21Z" opacity="0.8" fill="url(#e106d0bb-4312-48f7-a4b7-bf91910d097a)" style="mix-blend-mode:screen"/><path d="M4.31,87.15A83.08,83.08,0,1,0,26.47,30.81l-.34.36c-.23.24-.45.49-.68.75A82.51,82.51,0,0,0,4.31,87.15Z" opacity="0.3" fill="url(#afdab78f-be2d-45dc-a1fc-51f67fa4856b)" style="mix-blend-mode:screen"/><image width="135" height="88" transform="translate(22.77 31.15)" opacity="0.75" xlink:href="%E8%B5%84%E6%BA%90%20421.png" style="mix-blend-mode:screen"/><path d="M41.87,81.82c-.18-5.08-4.36-12.12-11.51-12.29-7.37-.18-12,7.06-12.1,12.29,0,2.66,1.13,4.64,3,7.8a38,38,0,0,0,8.78,10,31.09,31.09,0,0,0,8.59-9.17C40.47,87.52,42,85.05,41.87,81.82ZM30,85.57a4.49,4.49,0,1,1,4.49-4.49A4.49,4.49,0,0,1,30,85.57Z" fill="#d65241"/><path d="M40.38,82.93C40.2,77.84,36,70.81,28.87,70.63c-7.37-.17-12,7.06-12.1,12.3,0,2.65,1.13,4.64,3,7.8a38,38,0,0,0,8.77,10,31.35,31.35,0,0,0,8.59-9.17C39,88.63,40.49,86.15,40.38,82.93ZM28.54,86.67A4.49,4.49,0,1,1,33,82.19,4.49,4.49,0,0,1,28.54,86.67Z" fill="#f3715b"/></g></g></g></svg>