<svg xmlns="http://www.w3.org/2000/svg" xmlns:xlink="http://www.w3.org/1999/xlink" viewBox="0 0 133.43 133.43"><defs><style>.aa2a2493-834e-4e4b-a01a-acab738dbefa{opacity:0.8;}.ba571904-1bc9-4ed1-ab5b-309527a353ff{fill:#b2ede8;}.ae73977f-f854-4a50-884f-3b173be92873,.fa2829e7-a68a-462f-ae57-d30de8789749{fill:#9ad7d2;}.f1e0a384-29ad-46c0-b7ca-5354bc680367{fill:#66aaa2;}.e3c7b275-3197-42f7-835f-b96e5c818330{fill:#74c1b9;}.a69fe828-9fce-4e0b-b1ff-3ff0f98396c1{fill:#c0f9f3;}.fa2829e7-a68a-462f-ae57-d30de8789749{opacity:0.23;}.bcdc2b52-1022-4411-9e00-2ba44f935309{opacity:0.58;}.adfc7228-72b1-4f8b-862c-090c50066d46{fill:#fff;opacity:0.85;}</style></defs><title>资源 55</title><g id="aa014d31-bd79-43b2-a030-8130eb0009fd" data-name="图层 2"><g id="ac868549-8e05-485a-84db-ce1232058395" data-name="图层 1"><g class="aa2a2493-834e-4e4b-a01a-acab738dbefa"><path class="ba571904-1bc9-4ed1-ab5b-309527a353ff" d="M26.12,110.08,19.26,105a.83.83,0,0,1-.17-1.16h0a.82.82,0,0,1,1.16-.17l6.86,5.11a.82.82,0,0,1,.17,1.16h0A.82.82,0,0,1,26.12,110.08Z"/><path class="ba571904-1bc9-4ed1-ab5b-309527a353ff" d="M39.52,92.5l-7.24-5.4a.82.82,0,0,1-.17-1.16h0a.83.83,0,0,1,1.16-.17l7.24,5.4a.82.82,0,0,1,.17,1.16h0A.82.82,0,0,1,39.52,92.5Z"/><path class="ae73977f-f854-4a50-884f-3b173be92873" d="M27.59,109.7l-8.38-6.25a.83.83,0,0,1-.17-1.17h0a.84.84,0,0,1,1.16-.17l8.39,6.25a.85.85,0,0,1,.17,1.17h0A.84.84,0,0,1,27.59,109.7Z"/><path class="f1e0a384-29ad-46c0-b7ca-5354bc680367" d="M28.72,109.35l-9.53-7.1a.81.81,0,0,1-.16-1.14l9.62-12.92a1.41,1.41,0,0,1,.65-.48l2.67-1,8,6-.18,2.8a1.44,1.44,0,0,1-.3.82L29.9,109.18A.84.84,0,0,1,28.72,109.35Z"/><rect class="e3c7b275-3197-42f7-835f-b96e5c818330" x="24.01" y="91.94" width="10.69" height="13.55" transform="translate(-67.34 63.27) rotate(-53.31)"/><path class="ae73977f-f854-4a50-884f-3b173be92873" d="M39.2,96.11,28.91,88.45a.24.24,0,0,1-.05-.34.23.23,0,0,1,.33,0l10.29,7.66a.24.24,0,0,1,.05.34A.24.24,0,0,1,39.2,96.11Z"/></g><g class="aa2a2493-834e-4e4b-a01a-acab738dbefa"><path class="a69fe828-9fce-4e0b-b1ff-3ff0f98396c1" d="M103.19,108.69l.89-.76a1.74,1.74,0,0,0,.2-2.45,1.74,1.74,0,0,0,1.93-.22l.89-.76a1.73,1.73,0,0,0,.19-2.45l-5.62-6.59a1.73,1.73,0,0,0-2.45-.19l-.89.76a1.72,1.72,0,0,0-.52,1.87,1.74,1.74,0,0,0-2.45-.19l-.89.76a1.73,1.73,0,0,0-.44,2.06,1.76,1.76,0,0,0-2.11.11l-.89.76a1.75,1.75,0,0,0-.19,2.46,1.74,1.74,0,0,0-2.45-.2l-.89.76a1.74,1.74,0,0,0-.2,2.45l.14.16a2,2,0,0,0-2.74-.22l-4.12,3.51a2,2,0,0,0-.22,2.75l6.2,7.25a1.94,1.94,0,0,0,2.74.22L93.41,117a1.94,1.94,0,0,0,.22-2.74l.13.15a1.75,1.75,0,0,0,2.46.2l.89-.76a1.74,1.74,0,0,0,.19-2.45,1.74,1.74,0,0,0,2.45.19l.89-.76a1.75,1.75,0,0,0,.45-2.06A1.74,1.74,0,0,0,103.19,108.69Z"/><path class="ae73977f-f854-4a50-884f-3b173be92873" d="M104.13,95.55a.62.62,0,0,1-.11-.19l-1.41,1.2,3.75,4.39,1.4-1.2a.75.75,0,0,1-.17-.14Z"/><path class="e3c7b275-3197-42f7-835f-b96e5c818330" d="M108.63,98.84l-3.58-4.19a1.15,1.15,0,0,1-.24-.48.82.82,0,0,0-.59.2.83.83,0,0,0-.2,1,.62.62,0,0,0,.11.19l3.46,4.06a.75.75,0,0,0,.17.14.84.84,0,0,0,1,0,.81.81,0,0,0,.29-.55A1.18,1.18,0,0,1,108.63,98.84Z"/><path class="f1e0a384-29ad-46c0-b7ca-5354bc680367" d="M110.4,97.33l-3.58-4.19a1.16,1.16,0,0,0-2,1,1.15,1.15,0,0,0,.24.48l3.58,4.19a1.18,1.18,0,0,0,.43.31,1.16,1.16,0,0,0,1.34-1.82Z"/><path class="ae73977f-f854-4a50-884f-3b173be92873" d="M104.19,105.85a.27.27,0,0,1-.08-.07l-6.54-7.66a.33.33,0,0,1,.5-.42l6.53,7.66a.33.33,0,0,1,0,.46A.33.33,0,0,1,104.19,105.85Z"/><path class="ae73977f-f854-4a50-884f-3b173be92873" d="M100.75,108.78l-.07-.06-6.54-7.66a.32.32,0,1,1,.49-.42l6.54,7.66a.32.32,0,0,1,0,.45A.3.3,0,0,1,100.75,108.78Z"/><path class="ae73977f-f854-4a50-884f-3b173be92873" d="M97.21,111.8l-.07-.06-6.54-7.67a.31.31,0,0,1,0-.45.32.32,0,0,1,.45,0l6.54,7.67a.31.31,0,0,1,0,.45A.32.32,0,0,1,97.21,111.8Z"/><path class="ae73977f-f854-4a50-884f-3b173be92873" d="M93.68,114.82a.27.27,0,0,1-.08-.07l-6.54-7.66a.33.33,0,0,1,0-.45.32.32,0,0,1,.46,0l6.53,7.66a.33.33,0,0,1,0,.46A.33.33,0,0,1,93.68,114.82Z"/></g><g class="aa2a2493-834e-4e4b-a01a-acab738dbefa"><path class="a69fe828-9fce-4e0b-b1ff-3ff0f98396c1" d="M69.32,113.39l-6.74,7.26a1.25,1.25,0,0,1-1.7.13L45.31,108.49a1.26,1.26,0,0,1-.15-1.85L54,97.07a1.26,1.26,0,0,1,1.85,0l13.43,14.61A1.25,1.25,0,0,1,69.32,113.39Z"/><path class="ae73977f-f854-4a50-884f-3b173be92873" d="M56.12,97.14,45.39,108.72a1.38,1.38,0,0,1-2,.07h0a1.38,1.38,0,0,1-.07-2L54.1,95.26a1.38,1.38,0,0,1,1.95-.07h0A1.38,1.38,0,0,1,56.12,97.14Z"/><polygon class="e3c7b275-3197-42f7-835f-b96e5c818330" points="64.72 106.73 55.6 116.57 48.84 111.38 59.04 100.38 64.72 106.73"/><path class="ba571904-1bc9-4ed1-ab5b-309527a353ff" d="M59.13,106.52a3.06,3.06,0,1,1-4.32.17A3.07,3.07,0,0,1,59.13,106.52Z"/></g><g class="aa2a2493-834e-4e4b-a01a-acab738dbefa"><path class="a69fe828-9fce-4e0b-b1ff-3ff0f98396c1" d="M117.15,51.39l-.58,1a.43.43,0,0,1-.62.14l-3.42-2.43a.75.75,0,0,0-1.08.21L109,54.19a.69.69,0,0,0,.26,1l3.86,2.13a.3.3,0,0,1,.1.43L112.33,59a.44.44,0,0,1-.56.14L97.85,52a1.87,1.87,0,0,1-.71-2.69l5-7.64a1.75,1.75,0,0,1,2.54-.41l6.71,5.27,5.62,4.41A.37.37,0,0,1,117.15,51.39Z"/><path class="fa2829e7-a68a-462f-ae57-d30de8789749" d="M116.64,51.4l-.54,1a.4.4,0,0,1-.58.14l-3.16-2.25a.72.72,0,0,0-1,.22L109,54.16a.66.66,0,0,0,.22.93L112.81,57a.28.28,0,0,1,.08.41l-.84,1.19a.43.43,0,0,1-.53.14L98.67,52.25a1.75,1.75,0,0,1-.62-2.54l4.8-7.29a1.63,1.63,0,0,1,2.37-.42l11.35,9A.33.33,0,0,1,116.64,51.4Z"/></g><image class="bcdc2b52-1022-4411-9e00-2ba44f935309" width="134" height="134" transform="translate(-0.51 -0.57)" xlink:href="%E8%B5%84%E6%BA%90%20551.png"/><circle class="adfc7228-72b1-4f8b-862c-090c50066d46" cx="100.85" cy="17.97" r="2.24"/><circle class="adfc7228-72b1-4f8b-862c-090c50066d46" cx="108.62" cy="26.94" r="4.49"/></g></g></svg>