<svg xmlns="http://www.w3.org/2000/svg" xmlns:xlink="http://www.w3.org/1999/xlink" viewBox="0 0 134.04 134.04"><defs><radialGradient id="abf29c52-5f8f-47fe-87e6-6127abc247e4" cx="-4418.5" cy="407.71" r="109.72" gradientTransform="translate(-4352.75 513.01) rotate(180)" gradientUnits="userSpaceOnUse"><stop offset="0"/><stop offset="0.18" stop-color="#030303"/><stop offset="0.32" stop-color="#0d0d0d"/><stop offset="0.45" stop-color="#1e1e1e"/><stop offset="0.58" stop-color="#373737"/><stop offset="0.7" stop-color="#565656"/><stop offset="0.82" stop-color="#7c7c7c"/><stop offset="0.93" stop-color="#a8a8a8"/><stop offset="1" stop-color="#c7c7c7"/></radialGradient><radialGradient id="b9e01e4f-adde-4b21-87cd-96ba7bc98c94" cx="-4420.94" cy="467.51" r="111.83" gradientTransform="translate(-4352.75 513.01) rotate(180)" gradientUnits="userSpaceOnUse"><stop offset="0"/><stop offset="0.38" stop-color="#020202"/><stop offset="0.55" stop-color="#0a0a0a"/><stop offset="0.68" stop-color="#161616"/><stop offset="0.79" stop-color="#282828"/><stop offset="0.88" stop-color="#404040"/><stop offset="0.97" stop-color="#5d5d5d"/><stop offset="1" stop-color="#696969"/></radialGradient><radialGradient id="b85be199-aa5f-4d2b-a847-627e9722fb92" cx="-459.48" cy="214.24" r="76.93" gradientTransform="translate(670.01 -91.52) scale(1.31 0.92)" gradientUnits="userSpaceOnUse"><stop offset="0"/><stop offset="0.67" stop-color="#595959"/><stop offset="1" stop-color="gray"/></radialGradient><radialGradient id="afe74d09-deed-40a7-aad0-fe684d3fafe8" cx="-4496.33" cy="627.64" r="92.65" gradientTransform="translate(-4279.07 380.81) rotate(180) scale(0.97 0.57)" gradientUnits="userSpaceOnUse"><stop offset="0" stop-color="#474747"/><stop offset="0.52" stop-color="#757575"/><stop offset="1" stop-color="#9c9c9c"/></radialGradient></defs><title>资源 32</title><g style="isolation:isolate"><g id="a9dd2938-52a5-4caf-bc68-32cce1473212" data-name="图层 2"><g id="a23c5339-dce6-4eae-b22d-629dca702058" data-name="图层 1"><path d="M0,67a67,67,0,1,1,67,67A67,67,0,0,1,0,67Z" fill="url(#abf29c52-5f8f-47fe-87e6-6127abc247e4)" style="mix-blend-mode:screen"/><path d="M0,67a67,67,0,1,1,67,67A67,67,0,0,1,0,67Z" fill="url(#b9e01e4f-adde-4b21-87cd-96ba7bc98c94)" style="mix-blend-mode:screen"/><path d="M124.07,98.1a8.39,8.39,0,0,0-1.18.87c1.06-4.25,3.81-8.24,4.34-12.66-.19.1-.33.31-.53.42.08-3.33,1.58-7.19,1.94-10.47a69.21,69.21,0,0,0,.7-11.42c-1.3.07-1.1,6.39-1.59,8.64-1.32-3.13,2.19-16.61-.14-18.7-1.19,5.71.46,13.34-1.13,19.22-1.75-3.52.12-15.63-.16-20.78S125.4,33.6,121.51,30c.11,3.24,1,6.89,1,9.9-1.74-2.17-1.53-6.62-3.93-8.17-1.06,3.41,1.27,6.12,2.64,9.35a27.91,27.91,0,0,1,2.38,10.78,7.63,7.63,0,0,1-1.36-2.2c-.27,3,.93,6.61,1.06,9.69a123.94,123.94,0,0,1-.06,13.63c-.73,10.58-4.6,20.93-12.37,29a9.06,9.06,0,0,1,1.37-2c5.38,5.59-8.76,13-11.43,16.67,3.22,0,6.48-3,8.74-5,.24,3.28-5,6.18-7.05,8.42,4.22-.13,9.49-5.78,12.25-8.8C118.32,107.45,122.35,102.92,124.07,98.1Z" fill="#1a1a1a" style="mix-blend-mode:screen"/><path d="M106.57,19.82c-3.24-3.23-6.63-6.34-10.3-7.77a12.2,12.2,0,0,1,2.5,2.18c-2.66-1.1-4.88-3.32-7.53-4.37A43.56,43.56,0,0,0,80.66,7.38c7.85,2.82,17,5,22.66,12.12A23.41,23.41,0,0,0,105,22c.88.76,1.62.79,2.08,1.15a15.14,15.14,0,0,1,4.38,4.74c1,1.55,5.44,11.78,7.39,9.23,1.68-2-3.54-10.09-5.29-11.45-.6,1.4.62,3.08,1.5,4.65C111.76,29.16,109.24,22.38,106.57,19.82Z" fill="#333" style="mix-blend-mode:screen"/><path d="M75.29,8c1.95.58,12.92,2.92,8.56-.73C81.93,5.8,69.55,5.37,73.57,3.62,70,2.24,59.35,4.17,55.05,4.85,49.78,5.65,43.26,5.93,39,9.18c1.17,1.69,6.16-.37,8.39-.31-1,1.79-5.8,2.54-3.64,4.29,1.5,1.23,7.74,0,9.83-.4,3.92-.72,7.68-1.93,10.06-4C65,7.63,65.05,6.41,67.33,6.07,70,5.65,73,7.29,75.29,8Z" fill="#333" style="mix-blend-mode:screen"/><path d="M18.45,31.17A70.25,70.25,0,0,1,24.38,24c1.54-1.59,5.36-3.34,6.52-5.11,3.64-5.55-4.9-.88-6.38,0,1.55-3.93,7-5.66,10.85-6.6,4.89-1.17,6.77.67,2.47,4.4-3.45,3.05-7.25,5.65-10.31,9.23-3,3.31-9.81,11.24-12.48,12.23.14-2.31,2.33-3.59,2.76-5.83a6.38,6.38,0,0,0-2.95.95c-.21-1.88,1.78-4.61,3.35-5.3,2.05-.9,1.5,0,1.41,1.95C19.22,30.36,18.83,30.76,18.45,31.17Z" fill="#333" style="mix-blend-mode:screen"/><path d="M14.65,35.87c-1.52,2.78-3.42,5-4.46,7.82a62.29,62.29,0,0,0-3.5,20.94c.08,4.07,1.36,7.67,2.79,2,1.84-7.16,2-14.59,5.19-22.08,2-4.75,7.13-11.23,6.7-16.34C18.25,27.91,16.08,33.19,14.65,35.87Z" fill="#1a1a1a" style="mix-blend-mode:screen"/><path d="M5.12,66a72.67,72.67,0,0,0,.63-9.28C5.64,53.79,5.41,50.9,5.3,48,5,40.88,3.3,49.12,3,52.42c-.61,5.22-.12,11-.35,16.22-.14,4.11-1.08,11.16.51,14.9,0,.16,1.51-6,1.64-6.82C5.25,73.34,4.8,69.52,5.12,66Z" fill="#1a1a1a" style="mix-blend-mode:screen"/><path d="M8.81,95.32A6,6,0,0,0,8,93.14c.51,3.56,4,8,6.31,10.62,2.6,3,3.8,5.77,5.7,9-.45-1.69-1.46-4.12-.71-5.41,3.65,2.33,6.8,7,10.53,9.45-2.4-4-6.35-8-9.94-12a35.17,35.17,0,0,1-7.29-12.12c-1.51-4-3.09-4.86-5.27-7.54C4.56,81.62,5,78,4.17,73.5-.6,74.37,7.5,91.68,8.81,95.32Z" fill="#1a1a1a" style="mix-blend-mode:screen"/><path d="M8.39,40.66c-.46,3.57-2.13,5.83-1.95,9.76,1.89.39,2.91-5.63,3.8-8.28,1.19-3.46,2.88-6.83,6-8-1.35,6.44,3.07.4,4.82-2.13,1.13-2,8.63-9,8.72-10.52-.05-4.88-9.45,5.67-10.29,5.88-2.78,0,3-7.49,3.52-8.76-4.52-.31-10.52,10.61-12.52,14.55A44.21,44.21,0,0,0,5.76,45.1Q6.93,42.9,8.39,40.66Z" fill="#333" style="mix-blend-mode:screen"/><path d="M55.6,126.05c-3.5-1.26-8.49-5.92-12.94-5.79,1.47,2.4,4.11,3,6.57,4.25-2.85,3.19-9.3-3.69-13.46-3.76-1.66.16,4.28,4.18,4.56,4.21a52.6,52.6,0,0,0,8.7,2.76c7.19,1.95,12.85,3.14,19.71,1C65.51,127,59.58,127.58,55.6,126.05Z" fill="#1a1a1a" style="mix-blend-mode:screen"/><path d="M70.37,131.5a88.59,88.59,0,0,0,14.82-2.05c2.39-.51,6.62-1.14,7.38-3.25,1-2.8-5.79.34-8.16,1.08a25.64,25.64,0,0,1-9.74,1.57c-.17-.73.77-1.53,1.51-2.12-2.8-.18-5.5.55-8.25.67A65.89,65.89,0,0,1,61,127c-3.43-.22-6.73,0-10.16-.44-1.34-.14-6.3-1.51-7.3-.7-2.69,2.27,8.65,2.67,10,2.82s12,1.27,6.33,2.12c1.4.77,6.33.6,8.54.46,1.52-.09,3.19-.53,4.87-.63,2.39-.13,4.68.15,7.06-.19C77,130.81,73.65,131.17,70.37,131.5Z" fill="#1a1a1a" style="mix-blend-mode:screen"/><path d="M111.52,113.2c-5.49.77-10.72,7.08-16.32,8.07,2-5.29-10.06,2-12.75,2.88-2.79,1.1-13.5,3.6-12.39,5.46.34.66,10.58.11,21-3.17C101.41,123.39,111.94,117.61,111.52,113.2Z" fill="#1a1a1a" style="mix-blend-mode:screen"/><path d="M108.7,17c-3.14-3.64-8.26-7.44-13.2-8.33-5.39-1-4.46,1.76-.49,3.86,4.23,2.26,8.51,3,11.15,6.85-1.93-.68-11.5-5.78-13.07-3.29-1.15,1.8,11.68,7,13.14,8.17,4.76,3.21,8.1,7.73,11.44,12.28,2.27,3.1,5,8,7.81,7.84-1.22-2.92-3.28-5.43-4-8.84,1.22.15,2.43.45,3.54.64.83.13-2.36-3.88-2.47-3.93A38,38,0,0,1,119,28.73C115.82,24.77,112.07,20.78,108.7,17Z" fill="#333" style="mix-blend-mode:screen"/><path d="M69.47,3.21c-3.8,1.51.17,1.7,3.07,1.89s5.81.15,8.2,1.23c-1.54,1.24-8.9.52-6.23,3.21,1.15,1.18,5,1.12,6.6,1.24A40.88,40.88,0,0,1,91,12.52c3.22,1,7.22,5.06,10.43,5.44,4.56.43-1-5.26-2.86-6.86C92.31,5.1,76.85.2,69.47,3.21Z" fill="#333" style="mix-blend-mode:screen"/><path d="M34.55,22.26C40.81,21,49.1,15.58,55.17,13.4c5.49-2,7-3.74,0-3.89-6.06-.11-15.1,1.42-20.46,4.65,1.89-.37,3.66-1.34,5.53-1.87C32.16,16.86,21.86,14,18.07,24.42c2.65-.07,5.35-2.21,8.18-2.74-.36,1.65-1.91,3.15-2.94,4.78,3.93-.34,7.61-5.23,12.05-5.23Z" fill="#333" style="mix-blend-mode:screen"/><path d="M121.57,52.51c.56,6.35,5.13,15.17,6.67,21.44,1.45,5.67,3,7.31,3.86.45.74-6,.16-15.17-2.49-20.83.16,1.91.95,3.78,1.28,5.69-3.7-8.56.27-18.5-9.75-23.36-.21,2.64,1.64,5.55,1.87,8.42-1.6-.53-2.93-2.23-4.45-3.42-.07,4,4.41,8.11,4,12.53Z" fill="#333" style="mix-blend-mode:screen"/><g style="mix-blend-mode:screen"><path d="M105.73,108.62c-7-1.9-21.76,6.52-38.71,5.7-16.95.82-31.75-7.6-38.71-5.7-3.08,1.07-3.81,6.83,2.62,13C37,127.75,50.27,134.27,67,134c16.75.24,30-6.28,36.08-12.37C109.54,115.45,108.81,109.69,105.73,108.62Z" fill="url(#b85be199-aa5f-4d2b-a847-627e9722fb92)"/></g><g style="mix-blend-mode:screen"><path d="M32.58,22C38.77,23.36,51.94,17.1,67,17.71,82.1,17.1,95.26,23.36,101.45,22c2.74-.8,3.39-5.08-2.33-9.7C93.71,7.73,81.92,2.88,67,3.06c-14.9-.18-26.69,4.67-32.1,9.19C29.19,16.87,29.84,21.15,32.58,22Z" fill="url(#afe74d09-deed-40a7-aad0-fe684d3fafe8)"/></g><image width="91" height="50" transform="translate(24.04 6.97)" opacity="0.74" xlink:href="%E8%B5%84%E6%BA%90%20321.png" style="mix-blend-mode:screen"/><text transform="translate(37.38 37.78)" font-size="21.25" fill="#00dcf9" font-family="P22MuschampPro, P22 Muschamp Pro"><tspan letter-spacing="-0.04em">P</tspan><tspan x="7.01" y="0" letter-spacing="-0.01em">o</tspan><tspan x="15.88" y="0" letter-spacing="0em">llu</tspan><tspan x="32.5" y="0" letter-spacing="-0.01em">t</tspan><tspan x="38.32" y="0">a</tspan><tspan x="45.48" y="0" letter-spacing="-0.01em">n</tspan><tspan x="53.37" y="0" letter-spacing="-0.02em">t</tspan><tspan x="58.98" y="0" letter-spacing="0em">s</tspan></text><g opacity="0.8"><path d="M26.67,110.62l-6.86-5.11a.84.84,0,0,1-.17-1.17h0a.83.83,0,0,1,1.16-.17l6.87,5.12a.84.84,0,0,1,.17,1.16h0A.84.84,0,0,1,26.67,110.62Z" fill="#b2ede8"/><path d="M40.07,93l-7.24-5.4a.82.82,0,0,1-.17-1.16h0a.82.82,0,0,1,1.16-.17l7.24,5.39a.83.83,0,0,1,.17,1.17h0A.83.83,0,0,1,40.07,93Z" fill="#b2ede8"/><path d="M28.14,110.23,19.76,104a.83.83,0,0,1-.17-1.17h0a.83.83,0,0,1,1.16-.17l8.39,6.25a.83.83,0,0,1,.17,1.16h0A.83.83,0,0,1,28.14,110.23Z" fill="#9ad7d2"/><path d="M29.27,109.89l-9.53-7.1a.81.81,0,0,1-.16-1.14L29.2,88.73a1.5,1.5,0,0,1,.65-.49l2.67-1,8,6L40.35,96a1.56,1.56,0,0,1-.31.82l-9.58,12.87A.86.86,0,0,1,29.27,109.89Z" fill="#66aaa2"/><rect x="24.56" y="92.48" width="10.69" height="13.55" transform="translate(-67.55 63.93) rotate(-53.31)" fill="#74c1b9"/><path d="M39.75,96.65,29.46,89a.23.23,0,0,1-.05-.33.24.24,0,0,1,.33-.05L40,96.27a.24.24,0,1,1-.28.38Z" fill="#9ad7d2"/></g><g opacity="0.8"><path d="M103.74,109.22l.89-.76a1.73,1.73,0,0,0,.2-2.44,1.76,1.76,0,0,0,1.93-.22l.89-.76a1.73,1.73,0,0,0,.19-2.45L102.22,96a1.73,1.73,0,0,0-2.45-.19l-.89.75a1.75,1.75,0,0,0-.52,1.88,1.74,1.74,0,0,0-2.45-.19L95,99a1.73,1.73,0,0,0-.44,2.06,1.74,1.74,0,0,0-2.11.11l-.89.76a1.74,1.74,0,0,0-.19,2.45,1.74,1.74,0,0,0-2.45-.19l-.89.76a1.74,1.74,0,0,0-.2,2.45l.14.16a1.94,1.94,0,0,0-2.74-.22l-4.12,3.51a2,2,0,0,0-.21,2.74l6.19,7.26a2,2,0,0,0,2.74.22L94,117.57a2,2,0,0,0,.22-2.75l.13.16a1.74,1.74,0,0,0,2.46.19l.89-.75a1.75,1.75,0,0,0,.19-2.46,1.74,1.74,0,0,0,2.45.2l.89-.76a1.75,1.75,0,0,0,.45-2.06A1.73,1.73,0,0,0,103.74,109.22Z" fill="#c0f9f3"/><path d="M104.68,96.09a.78.78,0,0,1-.11-.2l-1.41,1.21,3.75,4.39,1.41-1.2a.86.86,0,0,1-.18-.14Z" fill="#9ad7d2"/><path d="M109.18,99.38l-3.58-4.2a1.11,1.11,0,0,1-.24-.47.82.82,0,0,0-.79,1.18.78.78,0,0,0,.11.2l3.46,4.06a.86.86,0,0,0,.18.14.83.83,0,0,0,1-.05.85.85,0,0,0,.29-.55A1.18,1.18,0,0,1,109.18,99.38Z" fill="#74c1b9"/><path d="M111,97.87l-3.58-4.19a1.16,1.16,0,0,0-2,1,1.11,1.11,0,0,0,.24.47l3.58,4.2a1.18,1.18,0,0,0,1.64.13A1.17,1.17,0,0,0,111,97.87Z" fill="#66aaa2"/><path d="M104.74,106.38a.21.21,0,0,1-.08-.06l-6.53-7.66a.32.32,0,1,1,.49-.42l6.54,7.66a.33.33,0,0,1,0,.46A.32.32,0,0,1,104.74,106.38Z" fill="#9ad7d2"/><path d="M101.3,109.32l-.07-.06-6.54-7.67a.32.32,0,0,1,0-.45.33.33,0,0,1,.46,0l6.54,7.67a.32.32,0,0,1-.42.48Z" fill="#9ad7d2"/><path d="M97.76,112.34a.46.46,0,0,1-.07-.07l-6.54-7.66a.32.32,0,0,1,0-.45.31.31,0,0,1,.45,0l6.54,7.66a.33.33,0,0,1,0,.46A.35.35,0,0,1,97.76,112.34Z" fill="#9ad7d2"/><path d="M94.23,115.35a.21.21,0,0,1-.08-.06l-6.53-7.66a.32.32,0,1,1,.49-.42l6.54,7.66a.33.33,0,0,1,0,.46A.32.32,0,0,1,94.23,115.35Z" fill="#9ad7d2"/></g><g opacity="0.8"><path d="M69.87,113.92l-6.73,7.27a1.27,1.27,0,0,1-1.71.13L45.86,109a1.26,1.26,0,0,1-.15-1.85l8.88-9.57a1.26,1.26,0,0,1,1.85,0l13.43,14.6A1.25,1.25,0,0,1,69.87,113.92Z" fill="#c0f9f3"/><path d="M56.68,97.68,45.94,109.26a1.38,1.38,0,0,1-1.95.07h0a1.38,1.38,0,0,1-.07-2L54.65,95.8a1.38,1.38,0,0,1,2-.07h0A1.39,1.39,0,0,1,56.68,97.68Z" fill="#9ad7d2"/><polygon points="65.28 107.27 56.15 117.11 49.39 111.92 59.59 100.92 65.28 107.27" fill="#74c1b9"/><path d="M59.68,107.06a3.06,3.06,0,1,1-4.32.16A3.05,3.05,0,0,1,59.68,107.06Z" fill="#b2ede8"/></g><g opacity="0.8"><path d="M117.7,51.93l-.58,1a.42.42,0,0,1-.61.14l-3.43-2.44a.77.77,0,0,0-1.08.21l-2.44,3.85a.7.7,0,0,0,.25,1l3.86,2.12a.3.3,0,0,1,.1.43l-.89,1.26a.44.44,0,0,1-.56.13L98.4,52.53a1.88,1.88,0,0,1-.71-2.7l5-7.63a1.75,1.75,0,0,1,2.54-.41L112,47.06l5.63,4.41A.38.38,0,0,1,117.7,51.93Z" fill="#c0f9f3"/><path d="M117.2,51.93l-.55,1a.4.4,0,0,1-.58.14l-3.16-2.25a.71.71,0,0,0-1,.21l-2.33,3.68a.67.67,0,0,0,.22.93l3.57,1.95a.27.27,0,0,1,.08.4l-.84,1.2a.42.42,0,0,1-.52.14L99.22,52.79a1.75,1.75,0,0,1-.62-2.54L103.4,43a1.64,1.64,0,0,1,2.37-.43l11.35,9A.34.34,0,0,1,117.2,51.93Z" fill="#9ad7d2" opacity="0.23"/></g></g></g></g></svg>