<svg xmlns="http://www.w3.org/2000/svg" xmlns:xlink="http://www.w3.org/1999/xlink" viewBox="0 0 142.47 142.47"><defs><radialGradient id="fccfa200-68eb-4b60-b42f-4c1a7ada58d6" cx="71.54" cy="70.47" r="70.72" gradientUnits="userSpaceOnUse"><stop offset="0"/><stop offset="0.77"/><stop offset="0.89"/><stop offset="0.91" stop-color="#0d0d0d"/><stop offset="0.94" stop-color="#2e2e2e"/><stop offset="0.98" stop-color="#646464"/><stop offset="1" stop-color="#7a7a7a"/></radialGradient><radialGradient id="ff4758d5-6a60-403a-b881-d6288e283942" cx="92.55" cy="51.88" r="88.73" gradientUnits="userSpaceOnUse"><stop offset="0"/><stop offset="0.27" stop-color="#020202"/><stop offset="0.42" stop-color="#0b0b0b"/><stop offset="0.55" stop-color="#181818"/><stop offset="0.65" stop-color="#2c2c2c"/><stop offset="0.75" stop-color="#464646"/><stop offset="0.84" stop-color="#656565"/><stop offset="0.92" stop-color="#898989"/><stop offset="1" stop-color="#b3b3b3"/><stop offset="1" stop-color="#b5b5b5"/></radialGradient><radialGradient id="ae86db84-cd7f-4d4d-8a88-06ee3b6e59bf" cx="96.6" cy="46.63" r="104.88" gradientUnits="userSpaceOnUse"><stop offset="0"/><stop offset="0.35" stop-color="#020202"/><stop offset="0.55" stop-color="#0a0a0a"/><stop offset="0.71" stop-color="#181818"/><stop offset="0.84" stop-color="#2c2c2c"/><stop offset="0.97" stop-color="#454545"/><stop offset="1" stop-color="#4d4d4d"/></radialGradient><linearGradient id="b4cf3e96-b270-4b81-90c5-08b5193aeb35" x1="112.19" y1="77.99" x2="-49.67" y2="88.1" gradientUnits="userSpaceOnUse"><stop offset="0" stop-color="gray"/><stop offset="0.67" stop-color="#1a1a1a"/></linearGradient><linearGradient id="f226889d-0163-4f20-bc27-d20aa4925b1e" x1="138.9" y1="24.49" x2="91.35" y2="65.97" xlink:href="#b4cf3e96-b270-4b81-90c5-08b5193aeb35"/><radialGradient id="a8642c57-76ae-4f65-822c-8cada290f0ec" cx="-522.32" cy="-3318.19" r="18.04" gradientTransform="translate(-661.14 1542) rotate(45) scale(0.99 0.46)" gradientUnits="userSpaceOnUse"><stop offset="0" stop-color="#fff"/><stop offset="0.11" stop-color="#ececec"/><stop offset="0.32" stop-color="#bbb"/><stop offset="0.62" stop-color="#6b6b6b"/><stop offset="1"/></radialGradient><radialGradient id="e4acd1bb-fd71-4563-8dda-092fe60affd1" cx="-523.96" cy="-3370.56" r="8.26" xlink:href="#a8642c57-76ae-4f65-822c-8cada290f0ec"/><radialGradient id="b3ab76fd-fadf-40f2-95b0-9a30ad02f215" cx="-2895.25" cy="2716.33" r="11.82" gradientTransform="matrix(-0.7, -0.7, 0.32, -0.32, -2782.7, -1115.54)" xlink:href="#a8642c57-76ae-4f65-822c-8cada290f0ec"/><radialGradient id="b1c5cb8d-efbe-4b84-8870-1ba9447128bb" cx="-2896.32" cy="2682.01" r="5.41" gradientTransform="matrix(-0.7, -0.7, 0.32, -0.32, -2782.7, -1115.54)" xlink:href="#a8642c57-76ae-4f65-822c-8cada290f0ec"/></defs><title>资源 31</title><g style="isolation:isolate"><g id="b0f03d3f-5e4c-48b9-8bb4-11de9ca75a50" data-name="图层 2"><g id="a2c29562-a5e5-4670-9d02-d248629c10ba" data-name="图层 1"><image width="74" height="50" transform="translate(38.5)" opacity="0.74" xlink:href="%E8%B5%84%E6%BA%90%20311.png" style="mix-blend-mode:screen"/><text transform="translate(51.45 30.5)" font-size="21.25" fill="#00dcf9" font-family="P22MuschampPro, P22 Muschamp Pro">S<tspan x="8.82" y="0" letter-spacing="-0.01em">a</tspan><tspan x="15.77" y="0" letter-spacing="0em">lin</tspan><tspan x="32.03" y="0" letter-spacing="-0.02em">it</tspan><tspan x="41.38" y="0" letter-spacing="0em">y</tspan></text><path d="M0,71.23a71.24,71.24,0,1,1,71.23,71.24A71.23,71.23,0,0,1,0,71.23Z" fill="url(#fccfa200-68eb-4b60-b42f-4c1a7ada58d6)" style="mix-blend-mode:screen"/><path d="M0,71.23a71.24,71.24,0,1,1,71.23,71.24A71.23,71.23,0,0,1,0,71.23Z" fill="url(#ff4758d5-6a60-403a-b881-d6288e283942)" style="mix-blend-mode:screen"/><path d="M142.47,71.23a71.28,71.28,0,0,1-91.23,68.39h0a71.25,71.25,0,1,1,91.23-68.39Z" fill="url(#ae86db84-cd7f-4d4d-8a88-06ee3b6e59bf)" style="mix-blend-mode:screen"/><path d="M51.24,139.62A71.25,71.25,0,0,1,16.06,26.17a36.79,36.79,0,0,0,30.32,13.9S21.94,60.61,21.53,86.46,29.58,126.51,51.24,139.62Z" fill="url(#b4cf3e96-b270-4b81-90c5-08b5193aeb35)" style="mix-blend-mode:screen"/><path d="M140.4,88.31c5.49-53.71-41-61.49-41-61.49,3.26-10.39-2.91-18.73-9.84-24.44a71.29,71.29,0,0,1,50.84,86A.43.43,0,0,1,140.4,88.31Z" fill="url(#f226889d-0163-4f20-bc27-d20aa4925b1e)" style="mix-blend-mode:screen"/><path d="M55.08,121.3c3.21-3.21.17-11.45-6.79-18.41s-15.2-10-18.41-6.79-.17,11.45,6.79,18.41S51.87,124.51,55.08,121.3Z" fill="url(#a8642c57-76ae-4f65-822c-8cada290f0ec)" style="mix-blend-mode:screen"/><path d="M64,96.46C65.43,95,64,91.22,60.86,88s-7-4.57-8.43-3.1-.08,5.24,3.11,8.42S62.49,97.93,64,96.46Z" fill="url(#e4acd1bb-fd71-4563-8dda-092fe60affd1)" style="mix-blend-mode:screen"/><path d="M106.65,22.18c-2.11,2.1-.11,7.5,4.45,12.06s10,6.55,12.07,4.44.1-7.5-4.46-12.06S108.75,20.08,106.65,22.18Z" fill="url(#b3ab76fd-fadf-40f2-95b0-9a30ad02f215)" style="mix-blend-mode:screen"/><path d="M100.84,38.46c-1,1,0,3.43,2,5.52s4.56,3,5.53,2,0-3.43-2-5.52S101.8,37.5,100.84,38.46Z" fill="url(#b1c5cb8d-efbe-4b84-8870-1ba9447128bb)" style="mix-blend-mode:screen"/><path d="M80.46,71c-3.4-3.53-6.62-6.86-8.38-10a.52.52,0,0,0-.47-.27.55.55,0,0,0-.47.27c-1.75,3.12-5,6.45-8.38,10-6.58,6.83-14,14.56-14,23.73a27.5,27.5,0,0,0,1.79,9.84,26.74,26.74,0,0,0,2.1,4.3,25.26,25.26,0,0,0,2.79,3.74,23.61,23.61,0,0,0,3.39,3.1,22.07,22.07,0,0,0,3.89,2.34,20.91,20.91,0,0,0,17.85,0,22.07,22.07,0,0,0,3.89-2.34,23.54,23.54,0,0,0,3.38-3.1,23.93,23.93,0,0,0,2.79-3.74,26.78,26.78,0,0,0,2.11-4.3,27.72,27.72,0,0,0,1.79-9.84C94.5,85.56,87,77.83,80.46,71Z" fill="#37bce8"/><path d="M62.76,71c3.41-3.53,6.63-6.86,8.38-10a.55.55,0,0,1,.47-.27c-1.09,1.55-2.73,3.85-4.72,6.62-6.63,9.17-7,9.32-8.36,11.59-2.24,3.85-5.62,9.68-4.94,16.9.6,6.29,4,10.66,6.79,14.28a40.74,40.74,0,0,0,11.23,9.91,20.49,20.49,0,0,1-3.91-.37,21,21,0,0,1-5-1.63,22.07,22.07,0,0,1-3.89-2.34,23.61,23.61,0,0,1-3.39-3.1,25.26,25.26,0,0,1-2.79-3.74,26.74,26.74,0,0,1-2.1-4.3,27.5,27.5,0,0,1-1.79-9.84C48.73,85.56,56.18,77.83,62.76,71Z" fill="#2780c4"/><path d="M80.87,113.6a1.54,1.54,0,0,1-.87-2.82c8.12-5.48,8-13.3,8-13.38a1.55,1.55,0,1,1,3.09-.08A17,17,0,0,1,90,103a20,20,0,0,1-2.78,5.17,22.18,22.18,0,0,1-5.49,5.2A1.54,1.54,0,0,1,80.87,113.6Z" fill="#fff"/></g></g></g></svg>