<svg xmlns="http://www.w3.org/2000/svg" xmlns:xlink="http://www.w3.org/1999/xlink" viewBox="0 0 144.14 144.14"><defs><style>.acf628f4-bade-4349-82b2-d3b20d9a0218{fill:#37bce8;}.ae883851-2e37-4988-8893-e5f3e834d772{fill:#2780c4;}.af9cf31f-f50b-456c-8e0e-dc1b49d9ff22,.bb28e761-aa94-42b0-bff7-37cd06874830{fill:#fff;}.fec73209-527e-4660-bd87-7100c4c3c176{opacity:0.58;}.bb28e761-aa94-42b0-bff7-37cd06874830{opacity:0.82;}.b4cee40a-2b1e-48fb-a501-473babdacdde,.e5005fdb-5f87-4cd7-9223-e61683c654cf{opacity:0.51;}.b4cee40a-2b1e-48fb-a501-473babdacdde{fill:url(#bcf9ea77-53b3-4ac5-bcd7-dce16b4f2b1f);}.e5005fdb-5f87-4cd7-9223-e61683c654cf{fill:url(#b2b88c0c-2191-4f45-a498-1eb49f0adefc);}</style><linearGradient id="bcf9ea77-53b3-4ac5-bcd7-dce16b4f2b1f" x1="29.58" y1="111.33" x2="15.1" y2="92.11" gradientUnits="userSpaceOnUse"><stop offset="0" stop-color="#fff"/><stop offset="1" stop-color="#fff" stop-opacity="0"/></linearGradient><linearGradient id="b2b88c0c-2191-4f45-a498-1eb49f0adefc" x1="-2592.14" y1="-2369.87" x2="-2606.63" y2="-2389.08" gradientTransform="matrix(-0.05, -1, -1, 0.05, -2480.25, -2348.43)" xlink:href="#bcf9ea77-53b3-4ac5-bcd7-dce16b4f2b1f"/></defs><title>资源 54</title><g id="f21b4a6a-ea9b-42a6-bcb6-dc99edeced34" data-name="图层 2"><g id="e194cae9-5ea1-4be2-987c-72022e148401" data-name="图层 1"><path class="acf628f4-bade-4349-82b2-d3b20d9a0218" d="M81,77.15c-3.4-3.53-6.62-6.87-8.37-10a.56.56,0,0,0-.47-.28.53.53,0,0,0-.47.28c-1.76,3.11-5,6.45-8.38,10-6.58,6.82-14,14.55-14,23.72A27.46,27.46,0,0,0,51,110.71a25.59,25.59,0,0,0,2.11,4.3,25.11,25.11,0,0,0,2.78,3.75,24.08,24.08,0,0,0,3.39,3.09,21.48,21.48,0,0,0,3.89,2.34,20.91,20.91,0,0,0,17.85,0,21.48,21.48,0,0,0,3.89-2.34,24.08,24.08,0,0,0,3.39-3.09A25.89,25.89,0,0,0,91.11,115a26.33,26.33,0,0,0,2.1-4.3A27.46,27.46,0,0,0,95,100.87C95,91.7,87.54,84,81,77.15Z"/><path class="ae883851-2e37-4988-8893-e5f3e834d772" d="M63.27,77.15c3.4-3.53,6.62-6.87,8.38-10a.53.53,0,0,1,.47-.28c-1.1,1.55-2.73,3.85-4.73,6.62-6.62,9.17-7,9.33-8.36,11.59C56.8,89,53.41,94.78,54.1,102c.59,6.28,4,10.65,6.79,14.27a40.13,40.13,0,0,0,11.23,9.91,20.93,20.93,0,0,1-8.93-2,21.48,21.48,0,0,1-3.89-2.34,24.08,24.08,0,0,1-3.39-3.09A25.11,25.11,0,0,1,53.13,115a25.59,25.59,0,0,1-2.11-4.3,27.46,27.46,0,0,1-1.79-9.84C49.23,91.7,56.69,84,63.27,77.15Z"/><path class="af9cf31f-f50b-456c-8e0e-dc1b49d9ff22" d="M81.37,119.74a1.52,1.52,0,0,1-1.28-.68,1.54,1.54,0,0,1,.41-2.14c8.12-5.48,8-13.3,8-13.38a1.54,1.54,0,1,1,3.08-.08,16.43,16.43,0,0,1-1.09,5.66,20,20,0,0,1-2.78,5.16,22.18,22.18,0,0,1-5.49,5.2A1.5,1.5,0,0,1,81.37,119.74Z"/><image class="fec73209-527e-4660-bd87-7100c4c3c176" width="145" height="145" transform="translate(0 -0.86)" xlink:href="%E8%B5%84%E6%BA%90%20541.png"/><circle class="bb28e761-aa94-42b0-bff7-37cd06874830" cx="28.36" cy="32.61" r="2.9"/><ellipse class="bb28e761-aa94-42b0-bff7-37cd06874830" cx="41.64" cy="19.33" rx="8.12" ry="3.02" transform="translate(-4.23 17.41) rotate(-22.51)"/><path class="b4cee40a-2b1e-48fb-a501-473babdacdde" d="M30.42,106.45l-6.61,6.13s-12-13.37-10-31.2A42.14,42.14,0,0,0,30.42,106.45Z"/><path class="e5005fdb-5f87-4cd7-9223-e61683c654cf" d="M32.34,109.45l-5.75,6.93s14,11.23,31.69,8.31A42.14,42.14,0,0,1,32.34,109.45Z"/></g></g></svg>