<svg xmlns="http://www.w3.org/2000/svg" xmlns:xlink="http://www.w3.org/1999/xlink" viewBox="0 0 168.48 168.48"><defs><radialGradient id="f3402d16-965d-4e23-9e02-aeee2d212a2e" cx="-2322.3" cy="-808.56" r="84.24" gradientTransform="matrix(-1, 0, 0, 1, -2252.13, 868.17)" gradientUnits="userSpaceOnUse"><stop offset="0" stop-color="#75ff91"/><stop offset="0.07" stop-color="#73df7a"/><stop offset="0.16" stop-color="#72c266"/><stop offset="0.26" stop-color="#71aa54"/><stop offset="0.37" stop-color="#709747"/><stop offset="0.5" stop-color="#6f8a3e"/><stop offset="0.66" stop-color="#6f8239"/><stop offset="1" stop-color="#6f8037"/></radialGradient><linearGradient id="e8a082a8-630a-4d4b-bae3-950fb6cc61f1" x1="-2331.78" y1="-770.14" x2="-2337.3" y2="-738.85" gradientTransform="matrix(-1, 0, 0, 1, -2252.13, 868.17)" gradientUnits="userSpaceOnUse"><stop offset="0" stop-color="#808082"/><stop offset="1" stop-color="#006838"/></linearGradient><radialGradient id="e3cf50b1-fbb1-4605-9874-67f7e449fd70" cx="-2334.37" cy="-783.93" r="80.08" gradientTransform="matrix(-1, 0, 0, 1, -2252.13, 868.17)" gradientUnits="userSpaceOnUse"><stop offset="0" stop-color="#294d3c"/><stop offset="0.3" stop-color="#24503c"/><stop offset="0.64" stop-color="#16593a"/><stop offset="1" stop-color="#006838"/></radialGradient><linearGradient id="befaac50-ee8b-4630-a890-8fe4bcab907e" x1="-2420.61" y1="-783.93" x2="-2252.14" y2="-783.93" gradientTransform="matrix(-1, 0, 0, 1, -2252.13, 868.17)" gradientUnits="userSpaceOnUse"><stop offset="0" stop-color="#009144"/><stop offset="0.29" stop-color="#249e43"/><stop offset="0.93" stop-color="#80bf3f"/><stop offset="1" stop-color="#8ac33f"/></linearGradient><linearGradient id="bdd79e33-f309-43a2-917d-288b44379750" x1="-2385.71" y1="-724.49" x2="-2337.02" y2="-783.14" gradientTransform="matrix(-1, 0, 0, 1, -2252.13, 868.17)" gradientUnits="userSpaceOnUse"><stop offset="0" stop-color="#5eb6ba"/><stop offset="1"/></linearGradient><radialGradient id="bc218744-21a3-46b3-8254-283d009fec62" cx="-2347.6" cy="-772.62" r="68.85" gradientTransform="matrix(-1, 0, 0, 1, -2252.13, 868.17)" gradientUnits="userSpaceOnUse"><stop offset="0" stop-color="#fff"/><stop offset="1" stop-color="#e0ffff"/></radialGradient><linearGradient id="ab3ed33c-92dd-4257-b1f9-5eb694ec9b13" x1="-2307.71" y1="-849.29" x2="-2339.18" y2="-769.19" gradientTransform="matrix(-1, 0, 0, 1, -2252.13, 868.17)" gradientUnits="userSpaceOnUse"><stop offset="0" stop-color="#8ac33f"/><stop offset="1"/></linearGradient><radialGradient id="f473afe4-b43b-4447-9121-796719331390" cx="-2301.18" cy="-821.02" r="32.55" gradientTransform="matrix(-1, 0, 0, 1, -2252.13, 868.17)" gradientUnits="userSpaceOnUse"><stop offset="0" stop-color="#fff"/><stop offset="0.42" stop-color="#8d8d8d"/><stop offset="0.82" stop-color="#282828"/><stop offset="1"/></radialGradient><radialGradient id="ab6bd045-5a9c-4235-9751-5183d87acd70" cx="-2303.92" cy="-837.27" r="7.1" xlink:href="#bc218744-21a3-46b3-8254-283d009fec62"/><radialGradient id="b1f0cfd2-64d8-4e4a-8a4a-93ad260807c5" cx="-2291.37" cy="-821.88" r="10.91" xlink:href="#bc218744-21a3-46b3-8254-283d009fec62"/><radialGradient id="a18bf4af-6bb4-4dcb-a84c-535f3995d246" cx="-2336.37" cy="-785.17" r="80.08" gradientTransform="matrix(-1, 0, 0, 1, -2252.13, 868.17)" gradientUnits="userSpaceOnUse"><stop offset="0"/><stop offset="0.38" stop-color="#020200"/><stop offset="0.52" stop-color="#080901"/><stop offset="0.62" stop-color="#141403"/><stop offset="0.7" stop-color="#242506"/><stop offset="0.77" stop-color="#393b09"/><stop offset="0.83" stop-color="#53570e"/><stop offset="0.88" stop-color="#737713"/><stop offset="0.93" stop-color="#979d19"/><stop offset="0.98" stop-color="#bfc61f"/><stop offset="1" stop-color="#d4dc23"/></radialGradient></defs><title>资源 40</title><g style="isolation:isolate"><g id="bf0b9b0a-d617-4d3a-90ce-bc05a6fbffd8" data-name="图层 2"><g id="a98c8e9d-eaaf-46fc-86a2-6ee350f0063b" data-name="图层 1"><circle cx="84.24" cy="84.24" r="84.24" fill="url(#f3402d16-965d-4e23-9e02-aeee2d212a2e)"/><path d="M13.49,107.32c0,29.91,30.33,54.15,67.75,54.15S149,137.23,149,107.32,121.42,46.44,84,46.44,13.49,77.42,13.49,107.32Z" opacity="0.8" fill="url(#e8a082a8-630a-4d4b-bae3-950fb6cc61f1)" style="mix-blend-mode:overlay"/><path d="M2.16,84.24A80.27,80.27,0,1,0,23.58,29.78l-.32.35c-.23.23-.44.48-.66.72A79.8,79.8,0,0,0,2.16,84.24Z" opacity="0.3" fill="url(#e3cf50b1-fbb1-4605-9874-67f7e449fd70)" style="mix-blend-mode:screen"/><path d="M0,84.24A84.24,84.24,0,1,0,84.24,0,84.23,84.23,0,0,0,0,84.24Zm4.16,0A79.8,79.8,0,0,1,24.6,30.85c.22-.24.44-.49.66-.72l.32-.35A81,81,0,0,1,40,17.49,80.06,80.06,0,1,1,4.16,84.24Z" fill="url(#befaac50-ee8b-4630-a890-8fe4bcab907e)"/><path d="M11.65,127A84.25,84.25,0,1,0,146.07,27,84.25,84.25,0,0,1,11.65,127Z" opacity="0.5" fill="url(#bdd79e33-f309-43a2-917d-288b44379750)" style="mix-blend-mode:screen"/><path d="M26.61,139.8A80,80,0,1,0,139.72,26.7,80,80,0,0,1,26.61,139.8Z" fill="url(#bc218744-21a3-46b3-8254-283d009fec62)"/><path d="M38.3,18.64c25.08-16.46,64.48-21.22,90.28,5.2,25.28,25.89-1,45.76-36.61,43.4-29.92-2-43,11.37-52.7,23.58S9,104.34,6.82,81.66C4.87,61.05,18.12,31.88,38.3,18.64Z" opacity="0.8" fill="url(#ab3ed33c-92dd-4257-b1f9-5eb694ec9b13)" style="mix-blend-mode:screen"/><circle cx="49.04" cy="47.15" r="32.55" opacity="0.5" fill="url(#f473afe4-b43b-4447-9121-796719331390)" style="mix-blend-mode:screen"/><path d="M51.88,23.71S57,27,58.81,30.76c0,0-2.72,4.86-6.4,7.31,0,0-5.45-3.36-7.65-7.18C44.76,30.89,48.67,25.69,51.88,23.71Z" fill="url(#ab6bd045-5a9c-4235-9751-5183d87acd70)"/><path d="M49.76,41.88A26.41,26.41,0,0,0,41.06,35,66.48,66.48,0,0,0,28.7,52.77a23.55,23.55,0,0,0,10.56,4.8A68.77,68.77,0,0,0,49.76,41.88Z" fill="url(#b1f0cfd2-64d8-4e4a-8a4a-93ad260807c5)"/><ellipse cx="84.44" cy="99.7" rx="77.41" ry="13.01" fill="#b7d6ff" opacity="0.89"/><path d="M84.11,112.71c-42.2,0-76.55-5.62-77.71-12.64,1.16,32.57,35.51,58.69,77.71,58.69s76.55-26.12,77.71-58.69C160.66,107.09,126.31,112.71,84.11,112.71Z" fill="#6c95c1"/><path d="M4.16,84.24A80.14,80.14,0,1,0,40,17.49h0s50-17.29,67.26-2c9.26,8.21,4.12,11.33,2.54,17.76s12.31,11.28,33.88,19.85c17.56,7,18.11,50.92-17.21,76.64-44.13,32.13-99.73,8.43-105.83-8.21s55.46-14.82,51.93-26c-5-15.81-46-6.07-50.79-29.12C18.11,48.53,20,36.33,24.6,30.85A79.8,79.8,0,0,0,4.16,84.24Z" opacity="0.8" fill="url(#a18bf4af-6bb4-4dcb-a84c-535f3995d246)" style="mix-blend-mode:screen"/><path d="M43.7,85c-.13-3.81-3.27-9.07-8.62-9.2-5.51-.13-9,5.28-9,9.2,0,2,.85,3.47,2.27,5.84a28.3,28.3,0,0,0,6.56,7.51,23.33,23.33,0,0,0,6.43-6.86C42.65,89.23,43.78,87.38,43.7,85Zm-8.86,2.8a3.36,3.36,0,1,1,3.36-3.36A3.36,3.36,0,0,1,34.84,87.77Z" fill="#d65241"/><path d="M42.58,85.79C42.45,82,39.32,76.73,34,76.6c-5.51-.14-9,5.28-9,9.19,0,2,.84,3.48,2.26,5.84a28.37,28.37,0,0,0,6.57,7.52,23.32,23.32,0,0,0,6.42-6.86C41.54,90.06,42.66,88.21,42.58,85.79ZM33.73,88.6a3.36,3.36,0,1,1,3.35-3.36A3.36,3.36,0,0,1,33.73,88.6Z" fill="#f3715b"/><image width="139" height="84" transform="translate(21.62 29.74)" opacity="0.75" xlink:href="%E8%B5%84%E6%BA%90%20401.png" style="mix-blend-mode:screen"/></g></g></g></svg>