<?xml version="1.0" encoding="UTF-8"?>
<svg id="Layer_2" data-name="Layer 2" xmlns="http://www.w3.org/2000/svg" viewBox="0 0 114.07 63.13">
  <defs>
    <style>
      .cls-1 {
        fill: #caf1ff;
      }

      .cls-2 {
        fill: #f3f4f6;
      }

      .cls-3 {
        fill: #ffd00b;
      }

      .cls-4 {
        fill: #ff7654;
      }

      .cls-5 {
        fill: none;
        stroke: #ff7654;
        stroke-miterlimit: 10;
        stroke-width: 2.5px;
      }

      .cls-6 {
        fill: #3d484c;
      }

      .cls-7 {
        fill: #1f1c23;
      }

      .cls-8 {
        fill: #494949;
      }

      .cls-9 {
        fill: #ff4622;
      }

      .cls-10 {
        fill: #353f44;
      }

      .cls-11 {
        fill: #eefbff;
      }

      .cls-12 {
        fill: #ff917b;
      }

      .cls-13 {
        fill: #7f7f7f;
      }

      .cls-14 {
        fill: #ff6162;
      }

      .cls-15 {
        fill: #4f5150;
      }
    </style>
  </defs>
  <g id="_图层_1" data-name="图层 1">
    <g id="_图层_4" data-name="图层 4">
      <g>
        <path class="cls-9" d="m114.07,48.54c0,.37-.04.74-.11,1.1-.52,2.62-2.82,4.5-5.49,4.5H5.6C2.38,54.14-.17,51.44,0,48.23l.14-2.49h113.3l.34,1.03c.19.57.29,1.17.29,1.77Z"/>
        <path class="cls-12" d="m72.02,2.38H25.14c1.04-1.48,2.74-2.38,4.58-2.38h37.71c1.82,0,3.52.88,4.57,2.36v.02Z"/>
        <path class="cls-12" d="m91.05,24.6H14.17l1.18-2.41h70.72c.69.8,1.59,1.38,2.6,1.69l2.37.72Z"/>
        <path class="cls-4" d="m86.08,22.19H15.35L24.7,3.13c.13-.26.28-.51.44-.75h46.87l13.72,19.38c.11.15.22.29.34.43Z"/>
        <path class="cls-4" d="m113.44,45.74H.15l.42-7.43v-.04s.04-.64.04-.64l.04-.68.1-1.69.07-1.25c.14-2.49,1.91-4.59,4.34-5.14l4.01-.92,1.2-.27c1.65-.38,3.04-1.47,3.78-2.99l.04-.07h76.88l7.74,2.35,6.57,2c1.74.53,3.11,1.86,3.68,3.59l.9,2.71.57,1.69.23.68.23.68v.02s2.48,7.41,2.48,7.41Z"/>
        <path class="cls-1" d="m51.41,10.7l7.52,11.49h-5.57c-1.08,0-1.95-.88-1.95-1.95v-9.54Z"/>
        <path class="cls-1" d="m57.57,3.8l12.04,18.39h-4.52L53.06,3.82c.1-.02.19-.02.29-.02h4.21Z"/>
        <path class="cls-1" d="m71.78,22.18h0L59.74,3.8h6.74c.83,0,1.57.52,1.84,1.31l5.09,14.48c.42,1.2-.4,2.46-1.64,2.59Z"/>
        <path class="cls-1" d="m24.84,14.13l5.28,8.06h-5.36c-1.35,0-2.29-1.33-1.84-2.6l1.92-5.46Z"/>
        <path class="cls-1" d="m28.92,4.04l11.89,18.15h-4.52l-9.29-14.18,1.02-2.9c.16-.46.49-.84.9-1.06Z"/>
        <path class="cls-1" d="m44.93,5.76v14.48c0,1.08-.88,1.95-1.95,1.95L30.93,3.8h12.04c1.08,0,1.95.88,1.95,1.95Z"/>
        <path class="cls-1" d="m78.73,20.99l-5.71-17.19,12.72,17.96.37.43h-5.71c-.76,0-1.43-.48-1.66-1.2Z"/>
        <path class="cls-9" d="m48.17,2.87v42.85c-.23,0-.46-.02-.68-.02V2.87h.68Z"/>
        <path class="cls-12" d="m48.85,2.81v42.93c-.23,0-.45-.01-.68-.02V2.81h.68Z"/>
        <g>
          <path class="cls-9" d="m78.16,24.63v21.08c-.23,0-.46,0-.68-.01v-21.07h.68Z"/>
          <path class="cls-12" d="m78.84,24.6v21.12c-.23,0-.45,0-.68-.01v-21.11h.68Z"/>
        </g>
        <g>
          <path class="cls-9" d="m18.41,24.63v21.08c-.23,0-.46,0-.68-.01v-21.07h.68Z"/>
          <path class="cls-12" d="m19.09,24.6v21.12c-.23,0-.45,0-.68-.01v-21.11h.68Z"/>
        </g>
        <polygon class="cls-9" points="110.96 38.31 .56 38.31 .6 37.62 110.74 37.62 110.96 38.31"/>
        <polygon class="cls-12" points="110.74 37.62 .6 37.62 .64 36.94 110.51 36.94 110.74 37.62"/>
        <g>
          <path class="cls-13" d="m76.51,18.09c0,.11,0,.23,0,.34-.1-2.1-1.1-3.76-2.31-3.76h-2.17v-.67h2.17c1.27,0,2.32,1.84,2.32,4.1Z"/>
          <path class="cls-15" d="m76.5,18.43c-.05.99-.29,1.89-.67,2.56-.42.74-1,1.2-1.64,1.2h-2.17v-7.53h2.17c1.21,0,2.21,1.66,2.31,3.76Z"/>
        </g>
        <polygon class="cls-11" points="36.28 22.19 30.12 22.19 24.84 14.13 26.99 8.01 36.28 22.19"/>
        <path class="cls-11" d="m42.97,22.19h-2.17L28.92,4.04c.28-.15.6-.24.94-.24h1.08l12.04,18.39Z"/>
        <path class="cls-11" d="m65.09,22.19h-6.17l-7.52-11.49v-4.94c0-.98.72-1.79,1.66-1.93l12.03,18.36Z"/>
        <path class="cls-11" d="m71.78,22.18c-.07,0-.14.01-.21.01h-1.96L57.57,3.8h2.17l12.03,18.38Z"/>
        <line class="cls-5" x1="71.78" y1="22.18" x2="71.78" y2="22.18"/>
        <g>
          <path class="cls-10" d="m59.17,27.9c0,.17-.03.34-.07.49-.14-.77-.82-1.36-1.63-1.36h-3.67c-.46,0-.87.19-1.17.49-.19.19-.33.42-.41.68-.02-.1-.03-.2-.03-.3,0-.46.19-.87.49-1.17.3-.3.72-.49,1.17-.49h3.67c.91,0,1.66.75,1.66,1.66Z"/>
          <path class="cls-6" d="m59.09,28.4h0c-.08.26-.23.49-.41.68-.3.3-.72.49-1.17.49h-3.67c-.81,0-1.49-.59-1.63-1.36h0c.08-.26.23-.49.41-.68.3-.3.72-.49,1.17-.49h3.67c.81,0,1.49.59,1.63,1.36Z"/>
        </g>
        <g>
          <path class="cls-10" d="m29.96,27.9c0,.17-.03.34-.07.49-.14-.77-.82-1.36-1.63-1.36h-3.67c-.46,0-.87.19-1.17.49-.19.19-.33.42-.41.68-.02-.1-.03-.2-.03-.3,0-.46.19-.87.49-1.17.3-.3.72-.49,1.17-.49h3.67c.91,0,1.66.75,1.66,1.66Z"/>
          <path class="cls-6" d="m29.88,28.4h0c-.08.26-.23.49-.41.68-.3.3-.72.49-1.17.49h-3.67c-.81,0-1.49-.59-1.63-1.36h0c.08-.26.23-.49.41-.68.3-.3.72-.49,1.17-.49h3.67c.81,0,1.49.59,1.63,1.36Z"/>
        </g>
        <path class="cls-3" d="m109.94,35.25h-6.11c-3.13,0-5.69-2.56-5.69-5.68,0-.94.23-1.83.64-2.61l6.57,2c1.74.53,3.11,1.86,3.68,3.59l.9,2.71Z"/>
        <path class="cls-3" d="m9.39,29.57c0,1.56-.64,2.98-1.67,4.01-1.03,1.03-2.45,1.67-4.01,1.67H.74l.07-1.25c.14-2.49,1.91-4.59,4.34-5.14l4.01-.92c.16.52.24,1.06.24,1.63Z"/>
        <path class="cls-14" d="m113.44,45.74h-2.98c-1.64-.41-2.86-1.9-2.86-3.66,0-1.04.42-1.98,1.11-2.67.59-.59,1.38-.99,2.26-1.08l2.47,7.41Z"/>
        <path class="cls-14" d="m6.4,42.03h0c0,1.84-1.32,3.37-3.06,3.71H.15l.42-7.43v-.04h2.07c2.08,0,3.77,1.7,3.77,3.77Z"/>
        <g>
          <path class="cls-4" d="m69.63,52.41c.03.55.09,1.1.18,1.63h27.32c.09-.54.16-1.08.18-1.64-.37-7.33-6.43-13.16-13.84-13.16-7.43,0-13.49,5.83-13.85,13.17Z"/>
          <path class="cls-12" d="m69.61,51.66c0,.25,0,.5.02.75.02-.45.07-.89.13-1.32,0-.03,0-.06.01-.09.01-.08.03-.16.04-.24.04-.22.08-.44.13-.65,0-.04.02-.07.02-.11.02-.08.03-.15.05-.22.01-.06.03-.11.04-.17.02-.08.04-.17.07-.25.02-.07.04-.14.06-.21.01-.05.03-.09.04-.14.01-.04.02-.08.04-.11.02-.06.04-.12.06-.18.01-.04.03-.08.04-.12.02-.06.04-.11.06-.17.03-.09.06-.18.1-.27.03-.08.06-.17.1-.25.08-.2.17-.4.26-.6.03-.06.05-.12.08-.17.02-.05.05-.1.07-.15,0-.02.02-.04.03-.06.04-.08.08-.15.11-.23,0-.02.02-.04.03-.06.03-.07.07-.13.11-.2.02-.04.04-.07.06-.11.2-.36.42-.71.65-1.05.06-.09.12-.18.19-.26.05-.08.11-.15.17-.23.02-.03.05-.06.07-.09.04-.05.07-.09.11-.14.03-.04.06-.07.09-.11.04-.06.09-.11.14-.17.01-.01.02-.03.03-.04.06-.07.12-.14.18-.21,0,0,.01-.02.02-.03.05-.06.1-.12.15-.17.35-.39.73-.77,1.13-1.12.05-.05.11-.1.17-.14.03-.02.05-.05.08-.07.05-.05.11-.09.16-.13.02-.02.04-.03.06-.05.05-.04.1-.08.15-.12.04-.03.08-.06.12-.09.05-.04.1-.08.16-.12.08-.06.15-.11.23-.17.14-.1.29-.2.44-.3.09-.06.19-.12.28-.18.07-.04.13-.08.2-.13.02-.01.05-.03.07-.04.06-.04.13-.08.2-.11.01,0,.03-.02.04-.02.07-.04.14-.08.21-.12.03-.02.05-.03.08-.04.07-.04.13-.07.2-.1,0,0,.02-.01.03-.01.07-.04.14-.07.21-.1.03-.02.07-.03.1-.05.06-.03.13-.06.19-.09.35-.16.72-.31,1.08-.45.07-.03.14-.05.21-.07.04-.01.07-.03.11-.04.06-.02.13-.04.19-.06.03,0,.06-.02.08-.03.06-.02.12-.04.18-.06.05-.01.1-.03.15-.04.05-.02.1-.03.16-.04.03,0,.06-.02.1-.03.08-.02.15-.04.23-.06.1-.02.19-.05.29-.07.29-.07.59-.12.89-.17.07-.01.14-.02.21-.03.05,0,.09-.01.14-.02.05,0,.09-.01.14-.02.06,0,.11-.01.17-.02.06,0,.12-.01.18-.02.07,0,.14-.01.2-.02.02,0,.04,0,.06,0,.09,0,.18-.01.27-.02.03,0,.06,0,.08,0,.11,0,.21,0,.32-.01.12,0,.23,0,.35,0s.23,0,.35,0c.11,0,.22,0,.32.01.03,0,.05,0,.08,0,.09,0,.18,0,.27.02.02,0,.03,0,.05,0,.08,0,.15.01.23.02.05,0,.1,0,.15.01.07,0,.13.01.2.02.04,0,.08,0,.12.01.05,0,.11.01.16.02.06,0,.12.01.17.02.41.06.81.14,1.2.24.05.01.1.02.15.04.08.02.15.04.23.06,0,0,0,0,0,0,.1.03.2.05.29.08.02,0,.04,0,.05.02.09.03.18.06.28.09,0,0,0,0,0,0,.1.03.19.06.28.1.02,0,.03,0,.05.02.07.03.15.05.22.08.42.15.82.33,1.21.52.08.04.15.07.22.11.01,0,.02.01.03.02.06.03.12.06.17.09.05.03.11.06.16.09.03.01.05.03.08.04.05.03.1.05.15.08.06.03.12.07.17.1.01,0,.03.02.04.03.08.04.15.09.22.14.07.04.14.09.21.13.06.04.11.07.17.11.19.13.39.26.57.4.05.04.1.08.15.11.04.03.08.06.13.1.07.06.14.12.22.17.04.03.08.07.12.1.04.04.09.07.13.11.04.03.07.06.11.1.03.03.07.06.1.09.05.04.09.08.14.13.29.26.56.54.82.82.04.04.08.08.11.13.04.04.08.09.12.13.02.02.04.05.06.07.05.06.1.12.15.18.02.02.03.04.05.06.04.05.08.1.12.14.04.05.09.11.13.17.05.06.09.12.14.18.04.05.08.11.12.16.03.04.06.08.09.12.11.16.23.32.33.49.06.09.12.18.17.27s.11.18.17.28c.05.08.1.17.14.25.04.07.08.15.12.22.04.08.08.15.12.23.04.08.08.16.12.25.04.08.08.15.11.23.03.06.05.12.08.18.08.17.15.34.21.51.06.15.12.3.17.44.03.08.05.15.08.23,0,.02.01.04.02.06.03.09.06.18.08.26.03.09.06.19.09.28.03.09.05.19.08.28.03.09.05.19.07.28,0,.01,0,.02,0,.04.02.08.04.17.06.26,0,0,0,0,0,0,.03.12.05.23.07.35.01.07.03.14.04.21,0,.02,0,.05.01.07.02.09.03.18.04.27,0,.02,0,.05.01.07,0,.03,0,.06.01.09.01.08.02.15.03.23.04.32.07.65.08.98.01-.24.02-.49.02-.73,0-.15,0-.3,0-.45,0-.04,0-.08,0-.12-.01-.33-.04-.66-.07-.98-.19-1.69-.68-3.29-1.42-4.74-.15-.3-.31-.59-.48-.87-2.43-4.02-6.84-6.7-11.87-6.7-7.13,0-13.01,5.38-13.78,12.31-.04.32-.06.65-.07.98,0,.04,0,.08,0,.12,0,.15,0,.3,0,.45Z"/>
          <g>
            <circle class="cls-7" cx="83.48" cy="52.4" r="10.72"/>
            <path class="cls-2" d="m83.48,44.3c-4.47,0-8.1,3.63-8.1,8.1,0,.21,0,.41.02.62h0c.32,4.19,3.81,7.48,8.08,7.48s7.76-3.29,8.08-7.47h0c.02-.21.02-.42.02-.62,0-4.47-3.63-8.1-8.1-8.1Z"/>
            <path class="cls-8" d="m83.48,45.03c-4.07,0-7.38,3.3-7.38,7.38,0,.19,0,.38.02.56h0c.29,3.81,3.47,6.81,7.35,6.81s7.06-3,7.35-6.81h0c.01-.19.02-.38.02-.57,0-4.07-3.3-7.38-7.38-7.38Z"/>
            <path class="cls-2" d="m83.48,49.98c-1.34,0-2.42,1.08-2.42,2.42,0,.06,0,.12,0,.18h0c.1,1.25,1.14,2.23,2.41,2.23s2.32-.98,2.41-2.23h0c0-.06,0-.12,0-.19,0-1.34-1.08-2.42-2.42-2.42Z"/>
            <polygon class="cls-2" points="83.82 52.4 83.13 52.4 82.67 44.76 84.28 44.76 83.82 52.4"/>
            <polygon class="cls-2" points="83.72 52.16 83.23 52.65 77.51 47.57 78.64 46.43 83.72 52.16"/>
            <polygon class="cls-2" points="83.48 52.06 83.48 52.75 75.84 53.21 75.84 51.6 83.48 52.06"/>
            <polygon class="cls-2" points="83.23 52.16 83.72 52.65 78.64 58.37 77.51 57.24 83.23 52.16"/>
            <polygon class="cls-2" points="83.13 52.4 83.82 52.4 84.28 60.04 82.67 60.04 83.13 52.4"/>
            <polygon class="cls-2" points="83.23 52.65 83.72 52.16 89.45 57.24 88.31 58.37 83.23 52.65"/>
            <polygon class="cls-2" points="83.48 52.75 83.48 52.06 91.12 51.6 91.12 53.21 83.48 52.75"/>
            <polygon class="cls-2" points="83.72 52.65 83.23 52.16 88.31 46.43 89.45 47.57 83.72 52.65"/>
          </g>
        </g>
        <g>
          <path class="cls-4" d="m15.07,52.41c.03.55.09,1.1.18,1.63h27.32c.09-.54.16-1.08.18-1.64-.37-7.33-6.43-13.16-13.84-13.16-7.43,0-13.49,5.83-13.85,13.17Z"/>
          <path class="cls-12" d="m15.05,51.66c0,.25,0,.5.02.75.02-.45.07-.89.13-1.32,0-.03,0-.06.01-.09.01-.08.03-.16.04-.24.04-.22.08-.44.13-.65,0-.04.02-.07.02-.11.02-.08.03-.15.05-.22.01-.06.03-.11.04-.17.02-.08.04-.17.07-.25.02-.07.04-.14.06-.21.01-.05.03-.09.04-.14.01-.04.02-.08.04-.11.02-.06.04-.12.06-.18.01-.04.03-.08.04-.12.02-.06.04-.11.06-.17.03-.09.06-.18.1-.27.03-.08.06-.17.1-.25.08-.2.17-.4.26-.6.03-.06.05-.12.08-.17.02-.05.05-.1.07-.15,0-.02.02-.04.03-.06.04-.08.08-.15.11-.23,0-.02.02-.04.03-.06.03-.07.07-.13.11-.2.02-.04.04-.07.06-.11.2-.36.42-.71.65-1.05.06-.09.12-.18.19-.26.05-.08.11-.15.17-.23.02-.03.05-.06.07-.09.04-.05.07-.09.11-.14.03-.04.06-.07.09-.11.04-.06.09-.11.14-.17.01-.01.02-.03.03-.04.06-.07.12-.14.18-.21,0,0,.01-.02.02-.03.05-.06.1-.12.15-.17.35-.39.73-.77,1.13-1.12.05-.05.11-.1.17-.14.03-.02.05-.05.08-.07.05-.05.11-.09.16-.13.02-.02.04-.03.06-.05.05-.04.1-.08.15-.12.04-.03.08-.06.12-.09.05-.04.1-.08.16-.12.08-.06.15-.11.23-.17.14-.1.29-.2.44-.3.09-.06.19-.12.28-.18.07-.04.13-.08.2-.13.02-.01.05-.03.07-.04.06-.04.13-.08.2-.11.01,0,.03-.02.04-.02.07-.04.14-.08.21-.12.03-.02.05-.03.08-.04.07-.04.13-.07.2-.1,0,0,.02-.01.03-.01.07-.04.14-.07.21-.1.03-.02.07-.03.1-.05.06-.03.13-.06.19-.09.35-.16.72-.31,1.08-.45.07-.03.14-.05.21-.07.04-.01.07-.03.11-.04.06-.02.13-.04.19-.06.03,0,.06-.02.08-.03.06-.02.12-.04.18-.06.05-.01.1-.03.15-.04.05-.02.1-.03.16-.04.03,0,.06-.02.1-.03.08-.02.15-.04.23-.06.1-.02.19-.05.29-.07.29-.07.59-.12.89-.17.07-.01.14-.02.21-.03.05,0,.09-.01.14-.02.05,0,.09-.01.14-.02.06,0,.11-.01.17-.02.06,0,.12-.01.18-.02.07,0,.14-.01.2-.02.02,0,.04,0,.06,0,.09,0,.18-.01.27-.02.03,0,.06,0,.08,0,.11,0,.21,0,.32-.01.12,0,.23,0,.35,0s.23,0,.35,0c.11,0,.22,0,.32.01.03,0,.05,0,.08,0,.09,0,.18,0,.27.02.02,0,.03,0,.05,0,.08,0,.15.01.23.02.05,0,.1,0,.15.01.07,0,.13.01.2.02.04,0,.08,0,.12.01.05,0,.11.01.16.02.06,0,.12.01.17.02.41.06.81.14,1.2.24.05.01.1.02.15.04.08.02.15.04.23.06,0,0,0,0,0,0,.1.03.2.05.29.08.02,0,.04,0,.05.02.09.03.18.06.28.09,0,0,0,0,0,0,.1.03.19.06.28.1.02,0,.03,0,.05.02.07.03.15.05.22.08.42.15.82.33,1.21.52.08.04.15.07.22.11.01,0,.02.01.03.02.06.03.12.06.17.09.05.03.11.06.16.09.03.01.05.03.08.04.05.03.1.05.15.08.06.03.12.07.17.1.01,0,.03.02.04.03.08.04.15.09.22.14.07.04.14.09.21.13.06.04.11.07.17.11.19.13.39.26.57.4.05.04.1.08.15.11.04.03.08.06.13.1.07.06.14.12.22.17.04.03.08.07.12.1.04.04.09.07.13.11.04.03.07.06.11.1.03.03.07.06.1.09.05.04.09.08.14.13.29.26.56.54.82.82.04.04.08.08.11.13.04.04.08.09.12.13.02.02.04.05.06.07.05.06.1.12.15.18.02.02.03.04.05.06.04.05.08.1.12.14.04.05.09.11.13.17.05.06.09.12.14.18.04.05.08.11.12.16.03.04.06.08.09.12.11.16.23.32.33.49.06.09.12.18.17.27s.11.18.17.28c.05.08.1.17.14.25.04.07.08.15.12.22.04.08.08.15.12.23.04.08.08.16.12.25.04.08.08.15.11.23.03.06.05.12.08.18.08.17.15.34.21.51.06.15.12.3.17.44.03.08.05.15.08.23,0,.02.01.04.02.06.03.09.06.18.08.26.03.09.06.19.09.28.03.09.05.19.08.28.03.09.05.19.07.28,0,.01,0,.02,0,.04.02.08.04.17.06.26,0,0,0,0,0,0,.03.12.05.23.07.35.01.07.03.14.04.21,0,.02,0,.05.01.07.02.09.03.18.04.27,0,.02,0,.05.01.07,0,.03,0,.06.01.09.01.08.02.15.03.23.04.32.07.65.08.98.01-.24.02-.49.02-.73,0-.15,0-.3,0-.45,0-.04,0-.08,0-.12-.01-.33-.04-.66-.07-.98-.19-1.69-.68-3.29-1.42-4.74-.15-.3-.31-.59-.48-.87-2.43-4.02-6.84-6.7-11.87-6.7-7.13,0-13.01,5.38-13.78,12.31-.04.32-.06.65-.07.98,0,.04,0,.08,0,.12,0,.15,0,.3,0,.45Z"/>
          <g>
            <circle class="cls-7" cx="28.92" cy="52.4" r="10.72"/>
            <path class="cls-2" d="m28.92,44.3c-4.47,0-8.1,3.63-8.1,8.1,0,.21,0,.41.02.62h0c.32,4.19,3.81,7.48,8.08,7.48s7.76-3.29,8.08-7.47h0c.02-.21.02-.42.02-.62,0-4.47-3.63-8.1-8.1-8.1Z"/>
            <path class="cls-8" d="m28.92,45.03c-4.07,0-7.38,3.3-7.38,7.38,0,.19,0,.38.02.56h0c.29,3.81,3.47,6.81,7.35,6.81s7.06-3,7.35-6.81h0c.01-.19.02-.38.02-.57,0-4.07-3.3-7.38-7.38-7.38Z"/>
            <path class="cls-2" d="m28.92,49.98c-1.34,0-2.42,1.08-2.42,2.42,0,.06,0,.12,0,.18h0c.1,1.25,1.14,2.23,2.41,2.23s2.32-.98,2.41-2.23h0c0-.06,0-.12,0-.19,0-1.34-1.08-2.42-2.42-2.42Z"/>
            <polygon class="cls-2" points="29.26 52.4 28.57 52.4 28.11 44.76 29.72 44.76 29.26 52.4"/>
            <polygon class="cls-2" points="29.16 52.16 28.67 52.65 22.94 47.57 24.08 46.43 29.16 52.16"/>
            <polygon class="cls-2" points="28.92 52.06 28.92 52.75 21.27 53.21 21.27 51.6 28.92 52.06"/>
            <polygon class="cls-2" points="28.67 52.16 29.16 52.65 24.08 58.37 22.94 57.24 28.67 52.16"/>
            <polygon class="cls-2" points="28.57 52.4 29.26 52.4 29.72 60.04 28.11 60.04 28.57 52.4"/>
            <polygon class="cls-2" points="28.67 52.65 29.16 52.16 34.89 57.24 33.75 58.37 28.67 52.65"/>
            <polygon class="cls-2" points="28.92 52.75 28.92 52.06 36.56 51.6 36.56 53.21 28.92 52.75"/>
            <polygon class="cls-2" points="29.16 52.65 28.67 52.16 33.75 46.43 34.89 47.57 29.16 52.65"/>
          </g>
        </g>
      </g>
    </g>
  </g>
</svg>