<?xml version="1.0" encoding="UTF-8"?>
<svg xmlns="http://www.w3.org/2000/svg" xmlns:xlink="http://www.w3.org/1999/xlink" viewBox="0 0 107 107">
  <defs>
    <style>
      .cls-1 {
        opacity: .1;
      }

      .cls-1, .cls-2, .cls-3, .cls-4, .cls-5, .cls-6, .cls-7, .cls-8, .cls-9, .cls-10, .cls-11, .cls-12, .cls-13, .cls-14, .cls-15, .cls-16, .cls-17, .cls-18, .cls-19, .cls-20, .cls-21, .cls-22, .cls-23, .cls-24, .cls-25, .cls-26, .cls-27, .cls-28, .cls-29, .cls-30, .cls-31, .cls-32 {
        fill: #fff;
      }

      .cls-2 {
        opacity: .32;
      }

      .cls-4 {
        opacity: .55;
      }

      .cls-5 {
        opacity: .03;
      }

      .cls-33 {
        fill: url(#radial-gradient);
      }

      .cls-33, .cls-34, .cls-35, .cls-36, .cls-37, .cls-38 {
        mix-blend-mode: screen;
      }

      .cls-6 {
        opacity: .26;
      }

      .cls-7 {
        opacity: .68;
      }

      .cls-8 {
        opacity: .71;
      }

      .cls-9 {
        opacity: .13;
      }

      .cls-10 {
        opacity: .97;
      }

      .cls-11 {
        opacity: .9;
      }

      .cls-34 {
        fill: url(#linear-gradient);
      }

      .cls-12 {
        opacity: 0;
      }

      .cls-13 {
        opacity: .39;
      }

      .cls-35 {
        opacity: .4;
      }

      .cls-35, .cls-39, .cls-37 {
        fill: none;
      }

      .cls-14 {
        opacity: .45;
      }

      .cls-40 {
        letter-spacing: 0em;
      }

      .cls-15 {
        opacity: .52;
      }

      .cls-41 {
        letter-spacing: 0em;
      }

      .cls-16 {
        opacity: .35;
      }

      .cls-17 {
        opacity: .84;
      }

      .cls-42 {
        letter-spacing: 0em;
      }

      .cls-18 {
        opacity: .19;
      }

      .cls-43 {
        fill: #00dcf9;
        filter: url(#outer-glow-2);
        font-family: P22MuschampPro, 'P22 Muschamp Pro';
        font-size: 25.37px;
      }

      .cls-19 {
        opacity: .77;
      }

      .cls-20 {
        opacity: .29;
      }

      .cls-44 {
        letter-spacing: 0em;
      }

      .cls-21 {
        opacity: .61;
      }

      .cls-22 {
        opacity: .58;
      }

      .cls-39 {
        isolation: isolate;
      }

      .cls-23 {
        opacity: .06;
      }

      .cls-36 {
        fill: #1a1a1a;
      }

      .cls-24 {
        opacity: .87;
      }

      .cls-25 {
        opacity: .42;
      }

      .cls-26 {
        opacity: .23;
      }

      .cls-27 {
        opacity: .74;
      }

      .cls-28 {
        opacity: .81;
      }

      .cls-29 {
        opacity: .16;
      }

      .cls-45 {
        letter-spacing: -.06em;
      }

      .cls-30 {
        opacity: .94;
      }

      .cls-46 {
        fill: #f7f7f7;
        filter: url(#outer-glow-1);
        font-family: Lobster-Regular, Lobster;
        font-size: 29.25px;
      }

      .cls-31 {
        opacity: .48;
      }

      .cls-32 {
        opacity: .65;
      }

      .cls-38 {
        fill: #333;
      }
    </style>
    <filter id="outer-glow-1" filterUnits="userSpaceOnUse">
      <feOffset dx="0" dy="0"/>
      <feGaussianBlur result="blur" stdDeviation="4"/>
      <feFlood flood-color="#8bdcf2" flood-opacity=".74"/>
      <feComposite in2="blur" operator="in"/>
      <feComposite in="SourceGraphic"/>
    </filter>
    <radialGradient id="radial-gradient" cx="55.02" cy="50.64" fx="55.02" fy="50.64" r="55.65" gradientUnits="userSpaceOnUse">
      <stop offset="0" stop-color="#000"/>
      <stop offset=".42" stop-color="#010101"/>
      <stop offset=".57" stop-color="#080808"/>
      <stop offset=".68" stop-color="#141414"/>
      <stop offset=".77" stop-color="#252525"/>
      <stop offset=".84" stop-color="#3b3b3b"/>
      <stop offset=".91" stop-color="#565656"/>
      <stop offset=".97" stop-color="#767676"/>
      <stop offset="1" stop-color="#8a8a8a"/>
    </radialGradient>
    <linearGradient id="linear-gradient" x1="-4843.96" y1="-2360.39" x2="-4843.96" y2="-2296.12" gradientTransform="translate(-4790.46 -2319.55) rotate(-180)" gradientUnits="userSpaceOnUse">
      <stop offset="0" stop-color="#000"/>
      <stop offset="0" stop-color="#010101"/>
      <stop offset=".69" stop-color="#636363"/>
      <stop offset="1" stop-color="#8a8a8a"/>
    </linearGradient>
    <filter id="outer-glow-2" filterUnits="userSpaceOnUse">
      <feOffset dx="0" dy="0"/>
      <feGaussianBlur result="blur-2" stdDeviation="4"/>
      <feFlood flood-color="#8bdcf2" flood-opacity=".74"/>
      <feComposite in2="blur-2" operator="in"/>
      <feComposite in="SourceGraphic"/>
    </filter>
  </defs>
  <g class="cls-39">
    <g id="Layer_2" data-name="Layer 2">
      <g id="_图层_1" data-name="图层 1">
        <g>
          <text class="cls-46" transform="translate(37.75 74.34)"><tspan class="cls-45" x="0" y="0">1</tspan><tspan class="cls-44" x="7.43" y="0">.</tspan><tspan class="cls-40" x="14.98" y="0">5</tspan></text>
          <g>
            <circle class="cls-33" cx="53.5" cy="53.5" r="53.5"/>
            <path class="cls-36" d="m8.05,27.79c.41-.19.8-.16,1.24-.45-.78,3.17-3.89,5.69-4.6,9.04.27-.04.44-.17.71-.21.04,2.57-2,5.29-2.62,7.83-.63,2.56-1.62,6.38-1.19,8.98,2.31-.05,1.86-4.98,2.62-6.68,2.1,2.4-3.35,12.97.22,14.49,1.8-4.46-.57-10.34,1.6-14.76,2.43,2.81-.03,11.82.2,15.83.23,3.93.87,14.93,4.63,17.11.13-2.53-.62-5.18-.43-7.48,1.76,1.39,1.29,4.81,3.53,5.64,1.27-2.76-.8-4.47-2.1-6.71-1.28-2.21-2.38-5.19-2.23-7.76.57.54,1.13.74,1.47,1.51.39-2.23-.86-4.79-.99-7.05-.19-3.22-.27-6.79,0-10,.65-7.82,4.48-14.91,10.29-20.28-.18.6-.64.98-1,1.43-4.96-4.93,6.2-9.3,7.57-12.59-2.52-.27-4.77,2.06-6.43,3.5-.57-2.82,3.31-4.86,4.61-6.88-3.32-.17-6.9,4.43-9.06,6.5-2.75,2.63-6.34,5.54-8.04,9Z"/>
            <path class="cls-38" d="m21.79,90.93c2.25,2.48,4.46,5.2,7.1,6.45-.65-.6-1.23-1.31-1.62-2.02,1.93.84,3.3,3,5.17,4.06,2.3,1.31,5.28,2.13,7.76,2.55-5.64-3.34-12.16-5.26-15.82-11.11-.31-.5-.62-1.66-1.04-2.03-.62-.56-1.22-.5-1.56-.75-1.27-.97-2.28-1.68-3.19-3.39-.64-1.21-3.78-8.57-6.01-6.24-1.73,1.81,2.64,7.41,3.93,8.37.69-1.26-.23-2.45-.88-3.59,2.91.42,4.3,5.68,6.15,7.71Z"/>
            <path class="cls-38" d="m47.25,98.76c-1.45-.71-9.36-3.16-6.52,1.1,1.24,1.85,10.79,2.24,7.57,5.2,2.79,2.46,11.32-1.09,14.46-1.89,4-1.03,9-1.44,11.77-4.86-1.22-1.96-4.72.02-6.43-.11.5-2.02,4.04-2.5,2.19-4.41-1.29-1.33-5.74-.4-7.23-.08-2.8.6-5.45,1.73-7.14,4.11-.95,1.34-.98,2.97-2.72,3.44-2.07.56-4.29-1.67-5.96-2.49Z"/>
            <path class="cls-38" d="m92.41,81.57c-1.62,1.61-3.16,3.35-4.86,4.87-1.22,1.09-4.25,2.08-4.97,3.5-2.29,4.52,4.15,1.33,5.44.82-.91,3.19-5.25,4.21-8.14,4.78-3.74.73-5.45-1.35-2.58-4.37,2.32-2.43,5.07-4.21,7.32-6.74,2.1-2.36,7.74-7.53,10.87-7.75-.04,1.77-2.28,2.37-2.52,4.08,1,.16,2.13.03,3.04-.19.33,1.54-1.62,3.32-3.08,3.6-1.93.37-1.47-.24-1.55-1.82l1.04-.78Z"/>
            <path class="cls-36" d="m91.64,76.28c1.31-1.91,3.25-3.27,4.36-5.28,2.4-4.33,4.42-10.63,4.21-15.64-.14-3.2-2.06-5.81-3.84-1.54-2.21,5.3-2.28,10.72-5.24,15.92-1.87,3.29-5.99,7.48-5.12,11.55,2.73.63,4.37-3.18,5.63-5.01Z"/>
            <path class="cls-36" d="m98.38,53.8c-.39,2.32-.98,4.61-.77,7.01.19,2.23.56,4.47.78,6.74.54,5.55,2.7-.48,3.32-3.06.97-4.04.16-8.71.56-12.79.32-3.22,1.8-9.08-.76-11.7-.07-.08-2.37,4.97-2.54,5.58-.74,2.64-.14,5.53-.59,8.22Z"/>
            <path class="cls-36" d="m96.03,30.24c.09.88.14.95.55,1.65-.05-2.77-3.03-5.94-4.69-7.9-1.9-2.25-2.41-4.48-3.38-7.24.03,1.48.42,3.49-.49,4.62-2.74-1.71-4.34-5.64-6.73-8,.97,3.83,3.35,7.09,5.72,10.17,2.44,3.18,3.51,5.36,4.61,9.13.86,2.97,2.33,3.53,4.44,5.44,2.77,2.51,1.84,5.36,2.15,8.8,6.81-.93-1.91-14.02-2.17-16.67Z"/>
            <path class="cls-38" d="m98.39,76.64c.36-2.71,2.58-4.09,2.3-7.23-2.75-.7-3.68,3.8-4.58,5.68-1.17,2.47-2.8,4.78-5.73,5.16.77-4.81-2.97-.78-4.21,1-.93,1.34-6.35,6.25-6.18,7.59.52,4.15,7.09-3.79,8.02-3.66,2.45.34-1.9,5.81-2.04,6.99,3.73.67,8.2-7.53,10.36-10.09,2.17-2.58,4.02-5.29,5.45-8.3l-3.38,2.86Z"/>
            <path class="cls-36" d="m63.85,7.04c2.52,1.63,5.65,6.22,9.06,5.69-.8-2.3-2.72-2.88-4.42-4.11,2.69-3.69,6.55,3.62,9.86,3.07,1.33-.22-2.7-3.97-2.88-4.1-1.96-1.36-4.17-1.94-6.29-2.93-5.16-2.38-9.7-4.58-15.15-1.05,2.43,2.55,6.97,1.57,9.83,3.42Z"/>
            <path class="cls-36" d="m48.79.56c-3.85.34-7.79,1.82-11.39,3.13-1.78.64-4.95,1.41-5.16,3.83-.28,3.13,4.41,0,6.12-.92,2.62-1.41,4.31-1.99,7.28-1.84.19,1.04-.46,2.06-.96,2.77,2.11.28,4.08-.6,6.16-.74,1.84-.12,3.38.38,5.17.54,2.55.23,5.05-.08,7.6.31,1,.15,4.58,1.53,5.46.53,2.44-2.75-6.25-2.99-7.29-3.18-1.06-.19-9.2-1.63-4.7-3.12-1.03-1.32-5-1.05-6.74-.79-1.21.18-2.5.93-3.81,1.07-1.86.19-3.7-.27-5.52.25l7.79-1.82Z"/>
            <path class="cls-36" d="m21.11,18.7c4.47.08,7.69-5.17,11.81-5.9-.85,5.06,7.26-1.3,9.2-2.37,1.91-1.06,9.79-3.83,8.99-6.71-.79-2.85-31.22,7.72-30,14.99Z"/>
            <path class="cls-38" d="m23.27,89.7c2.12,2.79,5.57,6.05,9.22,6.7,3.98.7,3.59-2.14.86-3.84-2.91-1.81-6.1-2.13-7.78-5.16,1.51.3,8.21,4.04,9.54,1.8,1.03-1.73-7.97-5.08-9.12-5.8-3.43-2.12-5.83-5.22-8.51-8.24-1.82-2.05-4.07-5.42-7.23-4.88,1.24,2.03,3.17,3.63,3.57,6.14-1.17.06-2.39.02-3.57.07-.84.04,2.22,2.61,2.27,2.64,1.18.82,2,1.03,3.12,2.18,2.62,2.66,5.36,5.41,7.62,8.39Z"/>
            <path class="cls-38" d="m51.58,101.89c2.86-2.02-.14-2.19-2.26-2.41-2.07-.21-4.32-.11-6.01-1.29,1.25-1.43,6.57-.84,4.72-3.59-.79-1.17-3.55-1.02-4.67-1.09-2.63-.17-4.53-.39-7.02-1.24-2.27-.78-4.82-4.12-7.23-4.14-3.44-.03.21,4.48,1.39,6,3.85,4.93,15.2,11.91,21.09,7.76Z"/>
            <path class="cls-38" d="m75.02,85.21c-4.6.45-10.03,4.61-14.25,6.56-3.77,1.75-4.84,3.51.2,3.83,4.42.28,10.99-.88,14.73-3.39-1.41.17-2.64.95-3.99,1.33,5.51-3.67,14.14-.11,16.52-8.29-2.38-.34-4.44,1.09-6.68,1.22.12-1.33,1.24-2.37,1.95-3.56-3.24-.2-5.65,3.41-9,3.08l.52-.78Z"/>
            <g class="cls-35">
              <g class="cls-37">
                <path class="cls-12" d="m55.92,104.24c.8-.08,1.6-.16,2.39-.24.39-.04.79-.08,1.18-.13.39-.06.78-.13,1.16-.2.77-.14,1.54-.28,2.29-.42.75-.18,1.49-.38,2.22-.56,2.93-.76,5.63-1.81,8.13-2.98,2.49-1.18,4.77-2.5,6.77-3.91,2-1.41,3.74-2.89,5.23-4.34,2.95-2.94,4.81-5.76,5.8-7.84.24-.53.45-.99.6-1.42.14-.43.23-.81.29-1.12.11-.63.04-1.03-.2-1.19s-.65-.06-1.19.24c-.27.15-.57.36-.91.62-.34.25-.73.54-1.15.88-1.67,1.33-3.96,3.26-6.99,5.28-1.52,1-3.22,2.02-5.1,3-1.88.98-3.94,1.9-6.16,2.74-2.22.82-4.61,1.58-7.1,2.12-.62.14-1.25.27-1.88.41-.64.1-1.28.2-1.93.3-.32.05-.65.1-.98.15-.33.03-.66.06-.99.09-.66.06-1.33.13-2,.19-5.4.3-10.59-.26-15.26-1.29-.58-.13-1.18-.24-1.72-.37-.51-.15-1.02-.26-1.52-.43-.25-.08-.5-.16-.75-.24-.25-.09-.49-.19-.73-.28-.49-.17-.96-.39-1.43-.59-1.87-.82-3.59-1.78-5.15-2.74-3.11-1.92-5.59-3.76-7.41-4.93-1.82-1.19-3.01-1.74-3.45-1.36-.43.37-.06,1.65,1.1,3.6,1.18,1.94,3.15,4.56,6.18,7.38,1.52,1.4,3.32,2.84,5.48,4.15.54.32,1.09.66,1.68.96.29.15.59.31.89.46.31.14.62.28.94.42.62.3,1.3.53,1.97.78.66.23,1.29.4,1.95.61,5.21,1.62,11.33,2.56,17.76,2.19Z"/>
                <path class="cls-5" d="m55.92,104.14c.78-.08,1.55-.15,2.32-.23.38-.04.77-.08,1.15-.12.38-.05.76-.13,1.13-.19.75-.14,1.49-.27,2.23-.41.73-.15,1.45-.36,2.17-.54,2.86-.73,5.49-1.73,7.93-2.84,2.44-1.12,4.65-2.4,6.62-3.75,1.97-1.35,3.7-2.74,5.15-4.15,2.93-2.78,4.8-5.5,5.81-7.5.49-1.02.8-1.84.92-2.45.11-.62.05-1.02-.19-1.18-.23-.16-.62-.07-1.14.22-.54.29-1.23.76-2.04,1.41-1.66,1.26-3.94,3.1-6.94,5.01-1.49.97-3.18,1.93-5.02,2.86-1.85.93-3.86,1.84-6.04,2.62-2.17.78-4.51,1.51-6.95,2.02-.61.13-1.22.28-1.84.39-.62.1-1.26.19-1.89.29-.32.05-.63.11-.95.15-.32.03-.65.06-.97.09-.65.06-1.3.13-1.96.19-5.27.3-10.34-.23-14.91-1.21-.57-.12-1.14-.24-1.7-.36-.29-.05-.52-.13-.77-.19-.25-.07-.5-.13-.74-.2-.98-.31-1.93-.64-2.85-1.03-1.83-.77-3.53-1.68-5.06-2.58-1.53-.9-2.91-1.79-4.12-2.61-.61-.4-1.18-.78-1.71-1.13-.52-.36-1.02-.67-1.47-.96-1.79-1.14-2.96-1.66-3.38-1.28-.41.37-.05,1.62,1.12,3.5.29.47.64.98,1.03,1.52.41.53.84,1.12,1.35,1.72,1.01,1.21,2.25,2.52,3.76,3.86,1.51,1.34,3.29,2.71,5.41,3.96,1.06.63,2.22,1.2,3.45,1.74.31.13.63.25.95.37.32.12.66.26.96.34.62.19,1.25.38,1.88.58,5.09,1.54,11.04,2.43,17.3,2.07Z"/>
                <path class="cls-23" d="m55.91,104.03c3.03-.26,5.99-.66,8.75-1.43.69-.19,1.39-.34,2.05-.56.66-.22,1.33-.42,1.97-.65.64-.24,1.28-.47,1.9-.72.61-.26,1.22-.52,1.82-.78,4.75-2.17,8.66-4.87,11.53-7.54,2.88-2.68,4.77-5.26,5.8-7.19.25-.49.48-.91.63-1.32.15-.4.26-.75.33-1.05.13-.59.09-.98-.13-1.14-.22-.16-.61-.09-1.14.17-.26.13-.56.31-.89.54-.33.23-.72.48-1.13.78-1.65,1.19-3.92,2.93-6.87,4.76-2.95,1.82-6.61,3.69-10.87,5.23-.54.18-1.08.37-1.63.55-.55.17-1.11.34-1.68.51-.57.17-1.15.31-1.73.47-.58.17-1.17.26-1.77.4-2.37.57-4.87.83-7.44,1.07-5.15.29-10.1-.21-14.57-1.12-.56-.12-1.11-.23-1.66-.35-.27-.06-.56-.11-.8-.17-.24-.07-.48-.13-.72-.19-.48-.11-.95-.3-1.42-.43-.47-.15-.92-.34-1.38-.5-1.8-.72-3.46-1.57-4.97-2.42-3.01-1.72-5.41-3.39-7.17-4.46-1.76-1.08-2.9-1.58-3.31-1.2-.4.37-.02,1.58,1.14,3.4,1.17,1.81,3.12,4.25,6.09,6.83,1.49,1.28,3.25,2.59,5.35,3.77.53.28,1.07.58,1.64.85.58.25,1.15.55,1.77.77.31.12.62.23.93.35.31.12.6.19.9.29.6.18,1.21.37,1.83.56,4.97,1.46,10.75,2.3,16.84,1.94Z"/>
                <path class="cls-1" d="m55.9,103.93c.74-.07,1.47-.15,2.19-.22.73-.08,1.45-.14,2.16-.28,1.42-.26,2.82-.48,4.16-.87,2.72-.65,5.21-1.57,7.53-2.6,2.32-1.03,4.43-2.19,6.33-3.4,1.88-1.24,3.55-2.51,4.97-3.79,2.85-2.54,4.72-5.03,5.78-6.87.51-.94.85-1.7.99-2.28.13-.58.1-.96-.12-1.13-.21-.16-.58-.1-1.1.15-.52.24-1.2.66-2.01,1.24-1.65,1.11-3.88,2.78-6.8,4.5-1.46.86-3.09,1.73-4.86,2.59-1.79.83-3.73,1.64-5.82,2.37-2.08.72-4.32,1.4-6.64,1.85-1.15.29-2.35.44-3.56.63-.6.12-1.22.15-1.84.21-.62.06-1.24.12-1.86.18-5.03.29-9.86-.18-14.22-1.03-.54-.11-1.08-.23-1.61-.34-.52-.11-1.09-.2-1.53-.34-.24-.06-.47-.12-.7-.18-.23-.06-.46-.15-.69-.21-.23-.07-.46-.14-.68-.22-.22-.08-.45-.17-.67-.25-1.76-.66-3.4-1.46-4.88-2.26-1.48-.8-2.81-1.6-3.98-2.34-1.18-.72-2.2-1.38-3.07-1.88-1.73-1.03-2.85-1.5-3.24-1.12-.38.36,0,1.53,1.16,3.29.58.87,1.36,1.9,2.36,3.01.99,1.12,2.21,2.32,3.69,3.55,1.48,1.22,3.22,2.46,5.28,3.57.26.14.52.28.78.41.27.13.55.25.83.38.28.12.56.26.85.38.29.11.59.23.89.34.61.25,1.16.39,1.76.58.59.18,1.18.36,1.78.54,4.84,1.38,10.47,2.17,16.38,1.82Z"/>
                <path class="cls-9" d="m55.9,103.83c.71-.07,1.42-.14,2.13-.21.7-.08,1.41-.12,2.09-.27,1.37-.26,2.74-.45,4.04-.83.65-.17,1.3-.34,1.94-.51.63-.19,1.25-.4,1.86-.6,1.22-.43,2.4-.87,3.53-1.37,4.53-1.95,8.26-4.42,11.06-6.85,2.81-2.42,4.69-4.79,5.74-6.56.54-.88.86-1.63,1.02-2.19.15-.56.13-.92-.07-1.08-.2-.16-.57-.12-1.09.11-.51.23-1.16.64-1.98,1.16-1.62,1.06-3.84,2.62-6.71,4.25-2.86,1.64-6.39,3.35-10.47,4.72-2.04.68-4.22,1.33-6.49,1.76-1.12.29-2.3.4-3.47.61-.59.12-1.19.14-1.79.2-.6.06-1.21.12-1.82.18-4.9.29-9.61-.15-13.87-.94-1.06-.23-2.1-.44-3.11-.65-.46-.13-.91-.23-1.36-.36-.44-.15-.89-.27-1.32-.43-1.73-.61-3.33-1.35-4.78-2.1-2.9-1.52-5.22-3.02-6.92-3.99-.85-.48-1.55-.84-2.08-1.03-.54-.18-.9-.2-1.09-.02-.18.18-.18.55.02,1.09.19.54.58,1.25,1.16,2.09,1.16,1.69,3.08,3.94,5.99,6.29,1.46,1.17,3.18,2.34,5.21,3.37.5.26,1.04.49,1.58.74.55.23,1.12.44,1.7.67,1.1.35,2.24.7,3.41,1.05,4.72,1.3,10.18,2.04,15.92,1.7Z"/>
                <path class="cls-29" d="m55.89,103.72c.69-.07,1.38-.14,2.07-.21.34-.04.68-.07,1.02-.11l.51-.06.5-.09c.67-.12,1.33-.24,1.99-.36.33-.06.65-.12.98-.19.32-.08.64-.16.96-.25,2.56-.61,4.93-1.44,7.13-2.36,2.21-.92,4.22-1.98,6.02-3.09,1.82-1.09,3.4-2.28,4.79-3.42,2.76-2.32,4.62-4.57,5.71-6.25.52-.87.88-1.57,1.04-2.1.15-.54.14-.9-.05-1.07-.78-.67-4,2.05-9.62,5.18-1.42.76-2.97,1.58-4.69,2.32-1.71.76-3.57,1.51-5.57,2.15-1.99.65-4.12,1.25-6.33,1.68-.28.06-.55.12-.83.18-.28.04-.56.09-.85.13-.57.09-1.14.18-1.71.27l-.43.07-.44.04c-.29.03-.58.05-.88.08-.59.06-1.18.11-1.77.17-4.78.29-9.36-.12-13.52-.85-1.03-.22-2.04-.43-3.03-.63-.51-.09-.93-.22-1.37-.33-.44-.1-.86-.26-1.29-.38-1.69-.55-3.26-1.24-4.68-1.95-.72-.34-1.38-.71-2.03-1.05-.63-.36-1.25-.68-1.81-1.02-.57-.32-1.1-.63-1.59-.91-.5-.28-.95-.54-1.36-.77-1.67-.91-2.74-1.33-3.09-.97-.35.36.04,1.45,1.19,3.08.29.4.62.85,1.01,1.31.38.47.82.96,1.31,1.47.48.52,1.04,1.03,1.63,1.59.61.53,1.26,1.1,1.99,1.64,1.44,1.1,3.14,2.21,5.14,3.18.51.23,1.01.49,1.56.69.54.21,1.11.44,1.63.59,1.07.34,2.18.68,3.31,1.02,4.59,1.22,9.9,1.92,15.46,1.58Z"/>
                <path class="cls-18" d="m55.88,103.62c5.39-.35,10.45-1.68,14.72-3.44,2.14-.88,4.1-1.9,5.87-2.94.88-.54,1.72-1.06,2.49-1.62.79-.53,1.51-1.1,2.19-1.64,2.72-2.19,4.57-4.34,5.64-5.96.55-.8.89-1.5,1.06-2.01.17-.52.17-.86-.01-1.03-.18-.16-.53-.14-1.03.05-.5.19-1.13.55-1.93,1-1.57.93-3.74,2.33-6.52,3.78-.7.36-1.42.75-2.19,1.1-.76.38-1.57.73-2.41,1.1-1.69.71-3.49,1.42-5.44,2.04-3.91,1.25-8.25,2.18-12.9,2.49-4.65.27-9.12-.07-13.16-.78-1.01-.18-1.99-.41-2.95-.6-.47-.1-.97-.18-1.38-.3-.43-.11-.85-.2-1.26-.35-1.65-.5-3.19-1.13-4.59-1.78-2.79-1.33-5.03-2.66-6.66-3.52-1.63-.87-2.67-1.25-3.02-.89-.33.35.07,1.41,1.2,2.97,1.15,1.56,3.05,3.62,5.89,5.73,1.43,1.04,3.1,2.08,5.07,2.98.48.24,1,.43,1.53.63.54.22,1.03.36,1.55.53,1.04.32,2.11.67,3.22.97,4.46,1.17,9.61,1.8,15,1.48Z"/>
                <path class="cls-26" d="m55.88,103.51c5.22-.33,10.13-1.6,14.27-3.27,4.16-1.7,7.65-3.79,10.3-5.89,2.66-2.08,4.5-4.13,5.59-5.66.53-.79.89-1.43,1.07-1.93.17-.5.17-.85,0-1.01-.7-.66-3.88,1.73-9.3,4.51-2.71,1.4-6.02,2.82-9.81,4.02-3.81,1.18-8.03,2.08-12.56,2.37-4.52.27-8.87-.03-12.8-.72-.25-.04-.49-.06-.74-.11-.24-.05-.48-.1-.72-.15-.48-.1-.95-.19-1.41-.29-.47-.09-.93-.18-1.38-.27-.42-.1-.83-.21-1.23-.31-1.62-.45-3.12-1.04-4.48-1.64-2.74-1.2-4.92-2.49-6.53-3.28-.8-.4-1.45-.69-1.95-.84-.5-.14-.84-.14-1,.03-.16.18-.14.52.07,1,.2.48.58,1.12,1.16,1.86.57.75,1.33,1.61,2.29,2.54.96.93,2.12,1.93,3.54,2.91,1.41.98,3.05,1.97,4.98,2.79.49.19.99.4,1.49.58.49.16.98.31,1.48.47.5.16,1.02.32,1.53.48.26.08.52.16.79.24.26.08.54.13.81.2,4.33,1.13,9.32,1.7,14.54,1.38Z"/>
                <path class="cls-6" d="m55.87,103.41c5.05-.32,9.81-1.51,13.83-3.12,4.04-1.6,7.43-3.61,10.04-5.57,2.6-1.98,4.43-3.91,5.5-5.39.55-.72.9-1.37,1.08-1.84.18-.48.2-.8.04-.97-.16-.16-.49-.16-.97,0-.48.15-1.08.47-1.86.86-1.52.82-3.63,2.04-6.29,3.34-2.67,1.29-5.89,2.66-9.59,3.78-3.71,1.13-7.81,1.98-12.21,2.26-1.1.03-2.19.07-3.26.1-1.07-.04-2.13-.07-3.18-.09-1.04-.09-2.06-.18-3.07-.27-.5-.02-.99-.14-1.48-.2-.49-.07-.97-.14-1.45-.21-.96-.11-1.89-.33-2.79-.51-.45-.09-.9-.18-1.34-.26-.22-.04-.45-.08-.65-.13-.2-.05-.4-.1-.59-.15-1.57-.4-3.05-.92-4.38-1.48-2.67-1.13-4.82-2.3-6.38-3.05-1.56-.75-2.56-1.08-2.87-.73-.31.34.1,1.32,1.24,2.75,1.13,1.42,3,3.3,5.76,5.17,1.39.92,3.01,1.83,4.9,2.58.24.09.47.19.72.28.24.09.47.16.7.23.47.15.95.3,1.44.46.98.3,1.98.64,3.04.85.53.12,1.07.24,1.61.36.54.11,1.09.27,1.65.33,1.13.16,2.28.33,3.46.48,1.19.08,2.39.15,3.62.21,1.23,0,2.48-.05,3.74-.08Z"/>
                <path class="cls-20" d="m55.86,103.31c4.88-.3,9.49-1.43,13.39-2.96,3.93-1.5,7.22-3.42,9.77-5.28,2.55-1.87,4.34-3.71,5.43-5.1.53-.72.9-1.3,1.09-1.76.18-.47.2-.78.05-.95-.15-.16-.47-.16-.93-.01-.47.13-1.09.4-1.83.79-1.51.74-3.56,1.89-6.17,3.11-2.61,1.21-5.74,2.53-9.35,3.57-3.6,1.08-7.59,1.87-11.87,2.14-4.27.28-8.37-.02-12.08-.6-.47-.06-.93-.13-1.38-.19-.45-.09-.89-.18-1.33-.27-.88-.17-1.73-.34-2.55-.51-1.54-.34-2.97-.84-4.27-1.34-2.62-1.01-4.71-2.12-6.25-2.81-1.53-.7-2.49-1-2.79-.66-.29.33.13,1.28,1.25,2.65,1.13,1.35,2.97,3.15,5.7,4.88,1.37.86,2.95,1.72,4.8,2.4.89.32,1.79.59,2.74.9.47.15.95.29,1.44.44.5.12,1,.23,1.51.35,4.07.98,8.74,1.52,13.63,1.2Z"/>
                <path class="cls-2" d="m55.86,103.2c4.72-.29,9.17-1.36,12.95-2.81,1.91-.7,3.65-1.54,5.24-2.36.79-.44,1.55-.86,2.25-1.3.7-.46,1.39-.87,2-1.33,2.49-1.78,4.28-3.48,5.34-4.83.55-.65.9-1.24,1.09-1.67.19-.44.22-.74.08-.9-.14-.16-.45-.17-.91-.05-.45.12-1.04.39-1.78.72-1.46.71-3.5,1.76-6.03,2.91-.62.31-1.31.56-2,.87-.7.3-1.44.57-2.19.87-1.53.55-3.16,1.14-4.91,1.61-3.5,1.01-7.37,1.77-11.52,2.03-4.14.27-8.12-.01-11.72-.53-1.81-.2-3.5-.62-5.12-.9-.42-.07-.76-.17-1.13-.25-.18-.04-.36-.09-.54-.13-.18-.05-.35-.1-.52-.16-.7-.19-1.36-.43-2-.65-2.55-.93-4.6-1.95-6.1-2.59-.75-.31-1.35-.55-1.81-.66-.46-.1-.77-.08-.9.08-.14.17-.1.47.11.9.21.43.59.99,1.15,1.63,1.12,1.29,2.94,2.98,5.62,4.61.68.39,1.39.8,2.18,1.16.2.09.39.19.59.28.21.08.41.17.62.26.42.17.86.36,1.28.48,1.7.55,3.51,1.19,5.5,1.59,3.94.91,8.45,1.42,13.17,1.11Z"/>
                <path class="cls-16" d="m55.85,103.1c1.13-.11,2.26-.23,3.36-.35,1.1-.17,2.17-.38,3.23-.58,1.05-.22,2.06-.53,3.06-.79.5-.13.98-.29,1.46-.45.47-.16.95-.31,1.41-.49,3.67-1.37,6.79-3.04,9.22-4.71,2.43-1.67,4.17-3.32,5.24-4.57.52-.64.89-1.17,1.1-1.59.19-.43.22-.72.09-.88-.14-.16-.43-.17-.87-.06-.44.1-1.03.32-1.74.65-1.45.63-3.41,1.64-5.89,2.71-2.48,1.07-5.47,2.19-8.86,3.15-.42.13-.86.22-1.29.34-.44.11-.87.24-1.32.32-.9.17-1.8.4-2.74.56-.94.13-1.89.29-2.86.43-.97.09-1.96.18-2.96.28-4.01.25-7.86,0-11.35-.47-.44-.06-.87-.12-1.29-.18-.43-.06-.85-.1-1.26-.19-.83-.16-1.63-.32-2.4-.47-.38-.08-.79-.13-1.14-.22-.35-.08-.7-.17-1.04-.25-.67-.2-1.33-.36-1.95-.59-2.49-.83-4.5-1.76-5.95-2.35-.73-.29-1.32-.51-1.77-.59-.44-.1-.74-.07-.87.09-.13.16-.09.46.12.88.22.4.59.94,1.15,1.55,1.11,1.23,2.91,2.82,5.55,4.32.65.39,1.38.72,2.13,1.08.39.16.79.32,1.19.49.41.16.8.28,1.21.42.82.26,1.68.54,2.55.82.44.15.9.24,1.36.35.46.11.93.22,1.41.33,3.81.83,8.16,1.31,12.71,1.02Z"/>
                <path class="cls-13" d="m55.84,102.99c1.09-.1,2.17-.22,3.24-.33,1.06-.15,2.09-.37,3.11-.55,2.02-.45,3.95-.99,5.72-1.62,3.55-1.28,6.57-2.88,8.93-4.45.3-.2.58-.39.86-.58.27-.2.53-.4.79-.59.51-.38.99-.75,1.41-1.13.42-.37.82-.72,1.16-1.05.34-.34.64-.67.91-.96.54-.58.88-1.12,1.09-1.51.2-.4.24-.68.11-.84-.54-.66-3.46,1.02-8.28,3.03-2.41,1-5.31,2.06-8.6,2.95-1.65.44-3.38.8-5.19,1.13-.91.12-1.83.29-2.77.41-.94.09-1.9.18-2.87.27-3.88.24-7.6,0-10.99-.41-.85-.12-1.67-.23-2.47-.34-.8-.15-1.57-.3-2.32-.45-1.55-.26-2.82-.56-4.04-.93-2.42-.74-4.37-1.6-5.79-2.12-1.42-.53-2.3-.75-2.55-.42-.24.32.19,1.15,1.28,2.31,1.11,1.15,2.88,2.65,5.46,4.04,1.28.69,2.84,1.32,4.39,1.8.79.26,1.61.53,2.46.78.87.2,1.76.41,2.68.63,3.69.76,7.87,1.2,12.26.93Z"/>
                <path class="cls-25" d="m55.84,102.89c1.05-.11,2.09-.22,3.11-.32.51-.04,1.01-.16,1.51-.24.5-.09.99-.19,1.48-.28.24-.05.49-.09.73-.14.24-.05.48-.12.71-.18.47-.13.94-.25,1.4-.38.46-.13.92-.24,1.36-.38.44-.15.88-.3,1.31-.44,3.44-1.19,6.35-2.7,8.65-4.17,2.31-1.47,3.97-2.94,5.01-4.06.51-.57.88-1.05,1.08-1.43.2-.39.24-.66.12-.82-.12-.15-.39-.18-.8-.09-.42.08-.98.26-1.65.54-1.37.53-3.24,1.41-5.59,2.33-2.35.92-5.15,1.94-8.34,2.75-3.19.8-6.7,1.46-10.46,1.71-3.75.23-7.35.01-10.62-.34-.82-.11-1.61-.22-2.39-.33-.19-.02-.39-.05-.58-.07-.19-.04-.38-.07-.56-.11-.37-.07-.74-.14-1.11-.21-.73-.13-1.43-.26-2.11-.38-.63-.16-1.26-.27-1.84-.45-2.35-.64-4.26-1.42-5.64-1.89-.7-.23-1.25-.41-1.67-.47-.42-.07-.69-.03-.81.13-.11.16-.06.43.16.8.22.37.59.85,1.14,1.39,1.09,1.09,2.84,2.49,5.37,3.75.62.33,1.32.6,2.04.9.7.24,1.44.49,2.2.74.38.12.77.25,1.16.38.2.06.4.13.6.19.2.05.41.1.62.15.84.2,1.7.4,2.58.6,3.56.69,7.58,1.1,11.81.84Z"/>
                <path class="cls-14" d="m55.83,102.79c4.06-.27,7.87-1.12,11.19-2.23,3.31-1.13,6.14-2.52,8.36-3.92,2.23-1.4,3.87-2.75,4.89-3.82.52-.52.86-1,1.07-1.36.2-.36.25-.62.14-.77-.47-.63-3.27.78-7.81,2.52-2.27.87-5,1.79-8.08,2.56-3.08.75-6.48,1.36-10.1,1.61-3.62.21-7.09.02-10.25-.28-.79-.11-1.56-.21-2.3-.32-.38-.05-.75-.09-1.11-.14-.36-.07-.72-.14-1.07-.21-1.39-.27-2.75-.47-3.86-.74-2.28-.55-4.13-1.25-5.47-1.67-1.33-.43-2.18-.58-2.38-.27-.21.31.23,1.05,1.3,2.09,1.08,1.02,2.8,2.32,5.27,3.47,1.26.59,2.6,1,4.07,1.5.37.12.74.24,1.12.36.39.1.78.19,1.18.29.8.19,1.63.38,2.48.58,3.43.62,7.3.99,11.36.75Z"/>
                <path class="cls-31" d="m55.82,102.68c3.89-.27,7.55-1.06,10.75-2.09,3.18-1.06,5.91-2.37,8.07-3.67,1.09-.63,2.02-1.31,2.82-1.89.78-.63,1.45-1.17,1.94-1.69.5-.51.85-.94,1.06-1.27.2-.35.25-.6.15-.75-.1-.15-.36-.18-.74-.12-.39.05-.92.2-1.55.43-.63.24-1.42.5-2.29.86-.89.32-1.87.73-2.98,1.11-2.2.8-4.84,1.66-7.81,2.38-2.97.69-6.25,1.26-9.74,1.5-3.49.19-6.83.05-9.88-.23-.76-.08-1.5-.2-2.22-.29-.36-.05-.72-.09-1.07-.14-.18-.02-.35-.04-.52-.06-.17-.03-.34-.07-.51-.1-.68-.12-1.33-.24-1.96-.36-.62-.12-1.26-.19-1.79-.33-2.21-.47-4.01-1.08-5.31-1.45-1.3-.37-2.1-.51-2.3-.2-.19.3.24,1.01,1.31,1.97,1.07.94,2.76,2.15,5.17,3.18.61.28,1.22.47,1.87.7.65.22,1.33.45,2.03.68.18.06.35.12.53.17.18.05.37.09.55.14.37.09.75.18,1.14.28.77.18,1.56.38,2.38.54,3.3.58,7.01.9,10.91.68Z"/>
                <path class="cls-15" d="m55.82,102.58c3.73-.26,7.23-.99,10.31-1.96,3.06-.99,5.68-2.22,7.78-3.43,4.18-2.46,6.2-4.73,5.82-5.27-.4-.59-3.05.57-7.3,2.06-2.13.73-4.68,1.53-7.54,2.2-2.86.64-6.02,1.16-9.38,1.4-1.68.04-3.32.16-4.91.07-1.59.01-3.12-.16-4.59-.26-.18-.01-.37-.02-.55-.04-.18-.02-.36-.05-.54-.07-.36-.05-.71-.1-1.05-.14-.7-.09-1.37-.17-2.03-.25-1.3-.24-2.51-.45-3.63-.63-2.15-.37-3.88-.92-5.14-1.24-.63-.15-1.13-.27-1.51-.29-.37-.03-.62.03-.71.18-.09.15-.02.38.2.7.22.31.58.72,1.11,1.15,1.04.88,2.72,2.01,5.04,2.91,1.13.41,2.37.85,3.73,1.28.69.17,1.4.35,2.14.53.37.09.74.18,1.12.27.19.04.38.09.58.13.2.03.39.06.59.09,1.59.24,3.26.53,5.01.59,1.75.16,3.57.08,5.44.03Z"/>
                <path class="cls-4" d="m55.81,102.47c3.56-.27,6.92-.92,9.87-1.83,2.94-.92,5.46-2.07,7.47-3.2,2.02-1.14,3.53-2.24,4.48-3.13.47-.45.82-.83,1.02-1.13.2-.31.25-.54.17-.68-.09-.14-.32-.18-.68-.14-.36.03-.85.15-1.45.33-1.2.37-2.87.97-4.92,1.65-2.05.68-4.5,1.42-7.26,2.04-2.75.6-5.79,1.06-9.01,1.31-1.62.03-3.19.16-4.72.07-.38,0-.76-.01-1.14-.02-.38,0-.75,0-1.11-.04-.74-.06-1.46-.11-2.16-.17-.35-.03-.7-.05-1.04-.07-.34-.05-.68-.09-1.01-.14-.67-.08-1.32-.16-1.94-.24-.63-.05-1.23-.19-1.81-.28-.58-.1-1.14-.19-1.68-.28-.54-.08-1.06-.15-1.51-.26-.47-.09-.91-.17-1.32-.28-.83-.17-1.55-.37-2.16-.49-1.2-.28-1.96-.34-2.12-.06-.17.29.29.9,1.31,1.74.52.39,1.18.87,2.01,1.31.41.24.86.46,1.35.68.49.24,1,.43,1.54.62.54.19,1.11.39,1.71.6.6.2,1.21.43,1.88.58.66.16,1.35.33,2.05.51.35.08.71.17,1.08.25.37.07.74.12,1.12.18.76.11,1.54.23,2.34.35.4.07.81.08,1.22.11.41.03.83.05,1.24.08,1.67.16,3.42.05,5.2.02Z"/>
                <path class="cls-22" d="m55.8,102.37c.85-.09,1.69-.17,2.51-.26.41-.05.82-.07,1.22-.15.4-.07.8-.15,1.2-.22.39-.08.78-.15,1.17-.23.39-.08.77-.14,1.14-.25.74-.21,1.47-.41,2.18-.6,2.82-.84,5.23-1.92,7.18-2.97,3.89-2.12,5.83-4.11,5.51-4.62-.34-.56-2.82.4-6.78,1.64-1.98.61-4.34,1.31-6.98,1.86-.66.13-1.34.27-2.03.41-.34.08-.7.12-1.05.17-.36.05-.71.1-1.07.16-.36.05-.72.11-1.09.17-.37.06-.74.07-1.12.11-.75.07-1.51.14-2.28.21-.77.03-1.54.05-2.29.07-.38,0-.75.04-1.12.03-.37,0-.74-.02-1.11-.03-.73-.01-1.45-.03-2.16-.04-.7-.05-1.39-.11-2.07-.16-1.35-.05-2.63-.27-3.83-.4-1.21-.11-2.32-.34-3.35-.5-.52-.08-1.01-.15-1.48-.22-.47-.07-.87-.16-1.28-.22-.8-.16-1.5-.29-2.08-.4-1.17-.22-1.88-.27-2.03.01-.14.28.29.87,1.31,1.62.25.2.54.38.87.58.33.19.68.42,1.09.61.4.19.84.42,1.3.6.46.18.95.36,1.47.55,1.04.37,2.17.81,3.44,1.09,1.26.31,2.61.68,4.06.87.73.11,1.47.22,2.23.33.77.06,1.55.11,2.35.16.4.02.8.05,1.21.07.41.02.82,0,1.23,0,.83-.02,1.67-.04,2.52-.06Z"/>
                <path class="cls-21" d="m55.8,102.27c.81-.08,1.61-.16,2.39-.25.39-.04.78-.08,1.17-.14.38-.07.76-.14,1.14-.21.75-.14,1.49-.28,2.21-.44.71-.2,1.4-.39,2.08-.57,2.7-.77,5.01-1.78,6.88-2.74,1.86-1,3.28-1.94,4.18-2.72.9-.77,1.31-1.33,1.15-1.6-.15-.26-.84-.2-1.95.09-1.11.3-2.66.78-4.55,1.36-1.91.55-4.17,1.19-6.7,1.69-.63.13-1.28.26-1.94.39-.67.1-1.35.2-2.04.3-.35.05-.69.11-1.04.16-.35.04-.71.06-1.07.1-.72.07-1.45.14-2.18.2-.74.02-1.47.05-2.19.07-.36.02-.72.03-1.07.04-.36,0-.71-.02-1.06-.03-.7-.01-1.39-.02-2.06-.03-.67-.02-1.33-.1-1.98-.14-.65-.04-1.28-.09-1.89-.13-.61-.08-1.2-.15-1.78-.22-.58-.06-1.14-.12-1.67-.18-.53-.09-1.05-.17-1.54-.25-.98-.16-1.89-.26-2.67-.38-.38-.07-.74-.12-1.08-.17-.33-.06-.64-.11-.92-.15-.56-.07-1.01-.13-1.34-.13-.33,0-.53.08-.6.21-.07.14.02.34.23.59.22.26.57.58,1.07.9.25.17.53.35.85.53.32.17.68.35,1.06.54.77.36,1.65.67,2.64,1.04.49.18,1.01.37,1.56.54.56.15,1.13.3,1.73.45.6.15,1.23.3,1.87.46.65.12,1.32.22,2.01.33.69.1,1.4.23,2.13.3.73.05,1.48.1,2.24.15.38.02.77.04,1.15.07.39,0,.78-.01,1.17-.02.79-.02,1.59-.04,2.4-.06Z"/>
                <path class="cls-32" d="m55.79,102.16c.77-.08,1.53-.16,2.27-.23.37-.04.74-.08,1.11-.12.37-.05.73-.13,1.08-.19.71-.14,1.41-.27,2.1-.41.68-.15,1.34-.36,1.98-.53,2.57-.7,4.78-1.63,6.57-2.53,3.58-1.8,5.42-3.53,5.15-4.01-.29-.53-2.58.25-6.22,1.27-1.82.51-3.98,1.1-6.4,1.55-.61.11-1.22.26-1.85.36-.64.09-1.28.18-1.95.28-.33.05-.66.11-1,.15-.34.03-.68.06-1.02.09-.69.06-1.38.13-2.08.2-2.82.11-5.53.16-7.99-.04-.62-.04-1.22-.08-1.8-.12-.29,0-.58-.04-.86-.08-.28-.03-.56-.07-.83-.1-.55-.06-1.08-.12-1.59-.18-.26-.03-.51-.05-.76-.07-.24-.04-.48-.08-.72-.11-.93-.15-1.79-.26-2.55-.35-.77-.07-1.38-.19-1.93-.22-1.06-.14-1.73-.11-1.84.15-.12.27.33.75,1.29,1.38.49.28,1.11.65,1.84.94.73.31,1.57.63,2.51.97.24.08.48.17.72.26.25.07.51.14.77.21.53.14,1.08.28,1.65.43.29.07.58.14.87.22.3.08.6.15.91.19.62.1,1.26.2,1.92.31,2.63.43,5.57.51,8.65.38Z"/>
                <path class="cls-7" d="m55.78,102.06c.73-.07,1.45-.15,2.15-.22.71-.08,1.41-.14,2.08-.29,1.35-.26,2.66-.49,3.87-.87.61-.18,1.2-.35,1.77-.51.57-.19,1.11-.39,1.63-.58.53-.18,1.02-.41,1.5-.61.48-.21.93-.4,1.36-.62.85-.42,1.61-.82,2.25-1.22.65-.39,1.19-.75,1.6-1.09.84-.66,1.23-1.15,1.1-1.4-.12-.24-.75-.21-1.77,0-.5.12-1.12.27-1.82.45-.69.2-1.49.4-2.36.63-.43.13-.89.23-1.36.35-.48.11-.96.26-1.48.37-.51.12-1.04.24-1.58.36-.55.1-1.11.21-1.68.32-1.14.26-2.36.39-3.62.58-.62.11-1.27.15-1.92.21-.65.06-1.31.12-1.98.19-5.38.32-10.28-.16-13.86-.56-.89-.14-1.7-.25-2.42-.33-.72-.09-1.36-.11-1.87-.16-.51-.05-.92-.04-1.22-.02-.29.02-.47.1-.52.22-.05.13.04.3.25.53.21.22.56.46,1.03.74.47.29,1.06.53,1.75.83.69.29,1.49.6,2.39.92.91.26,1.91.53,3,.81.27.07.55.14.83.2.29.05.57.1.87.15.59.09,1.2.19,1.82.29.31.05.63.1.95.14.32.03.65.05.98.08.66.04,1.33.09,2.02.14.69.06,1.39.03,2.1.02.71-.02,1.43-.03,2.16-.05Z"/>
                <path class="cls-8" d="m55.78,101.95c5.53-.36,10.39-1.88,13.62-3.4,3.26-1.52,4.97-3,4.75-3.44-.24-.48-2.33.13-5.64.94-3.32.83-7.86,1.82-12.97,2.16-.64.02-1.27.04-1.89.06-.31.01-.62.03-.93.04l-.46.02h-.45c-.6-.02-1.2-.03-1.78-.04-.58-.01-1.15.01-1.71-.05-1.11-.09-2.17-.13-3.17-.2-.99-.12-1.92-.21-2.77-.29-3.39-.41-5.57-.6-5.73-.12-.17.51,1.77,1.62,5.19,2.72.86.25,1.81.5,2.84.76,1.04.21,2.15.38,3.33.57.59.11,1.2.13,1.82.18.62.04,1.26.08,1.91.13.16,0,.33.02.49.03h.49c.33-.01.66-.02,1-.02.67-.02,1.36-.03,2.05-.05Z"/>
                <path class="cls-27" d="m55.77,101.85c5.21-.34,9.81-1.71,12.87-3.12.78-.34,1.46-.69,2.04-1.02.29-.17.57-.32.81-.47.24-.16.46-.31.65-.45.77-.56,1.14-.98,1.04-1.21-.44-.96-7.96,2.15-17.64,2.74-1.21.02-2.39.1-3.53.12-1.14-.02-2.25-.03-3.3-.05-1.05-.08-2.05-.14-3-.18-.47,0-.92-.08-1.36-.12-.44-.04-.86-.08-1.26-.12-1.62-.1-2.92-.3-3.86-.31-.93-.02-1.49.07-1.56.31-.07.23.36.59,1.21,1.03.85.43,2.1,1.02,3.74,1.44.41.11.84.23,1.28.36.45.11.91.26,1.4.33.98.18,2.03.35,3.15.52,1.12.11,2.3.19,3.52.27,1.23.03,2.5-.02,3.8-.05Z"/>
                <path class="cls-19" d="m55.76,101.75c1.22-.12,2.41-.24,3.55-.39,1.13-.22,2.23-.43,3.26-.66,1.02-.29,1.98-.57,2.88-.85.89-.31,1.7-.62,2.43-.94,2.93-1.27,4.51-2.5,4.32-2.91-.19-.43-2.08.01-5.05.66-.74.16-1.56.33-2.43.51-.88.15-1.81.32-2.78.51-.98.13-2.02.27-3.08.43-1.07.1-2.18.2-3.32.3-1.14.03-2.25.08-3.33.12-1.08-.03-2.12-.04-3.11-.04-.99-.03-1.94-.12-2.83-.15-.44-.03-.88-.02-1.29-.07-.41-.04-.81-.08-1.19-.11-.76-.07-1.45-.11-2.06-.13-.61-.04-1.14-.1-1.57-.1-.88-.02-1.4.07-1.46.29-.06.22.35.55,1.15.97.4.2.89.45,1.49.66.6.2,1.28.41,2.05.63.38.11.79.22,1.21.33.42.12.87.18,1.33.27.92.16,1.91.35,2.96.47,1.05.09,2.16.17,3.31.24,1.15,0,2.35-.03,3.57-.06Z"/>
                <path class="cls-28" d="m55.76,101.64c1.14-.11,2.25-.23,3.32-.36,1.06-.18,2.08-.4,3.05-.6,1.92-.5,3.62-1.02,4.99-1.61,1.37-.58,2.45-1.13,3.14-1.61.7-.47,1.04-.82.96-1.03-.36-.86-7.09,1.57-15.66,2.09-4.29.29-8.18.01-11.03-.14-.71-.06-1.36-.1-1.93-.13-.57-.03-1.08,0-1.49-.03-.82-.02-1.3.07-1.36.28-.05.21.33.52,1.08.91.37.21.85.37,1.41.56.56.19,1.2.39,1.92.59,2.87.73,7.01,1.39,11.59,1.08Z"/>
                <path class="cls-17" d="m55.75,101.54c1.06-.1,2.1-.22,3.09-.33.99-.14,1.94-.36,2.84-.54.45-.09.89-.19,1.31-.32.42-.13.82-.25,1.22-.37.78-.24,1.51-.47,2.15-.75,1.29-.5,2.29-1.04,2.96-1.45.66-.43.98-.77.91-.96-.31-.76-6.65,1.28-14.66,1.8-4.01.26-7.65.03-10.32-.04-1.33-.11-2.42-.16-3.19-.13-.78.05-1.22.1-1.27.3-.04.19.31.51,1.03.81.72.31,1.78.67,3.12,1.05,2.7.61,6.54,1.18,10.81.91Z"/>
                <path class="cls-24" d="m55.74,101.43c3.95-.26,7.44-1.18,9.86-2.06.6-.24,1.13-.47,1.6-.68.47-.21.85-.44,1.16-.63.62-.38.93-.67.86-.85-.06-.17-.49-.22-1.2-.15-.36.03-.78.11-1.27.18-.49.07-1.05.17-1.66.28-2.45.38-5.79.96-9.52,1.2-.93.03-1.84.06-2.72.1-.22,0-.44.03-.65.03-.22,0-.43,0-.64-.01-.42,0-.84,0-1.25,0-1.63.05-3.09-.1-4.33-.1-.31,0-.61,0-.89-.01-.28-.02-.54-.03-.79-.04-.5-.02-.93-.02-1.29,0-.72.03-1.14.13-1.17.32-.04.18.31.43.97.72.33.14.75.3,1.24.47.24.08.51.16.78.25.28.08.58.14.89.21,1.26.25,2.76.6,4.47.69.43.03.86.07,1.31.1.22.02.45.03.68.05.23,0,.46,0,.69,0,.93,0,1.89-.03,2.88-.05Z"/>
                <path class="cls-11" d="m55.74,101.33c1.81-.18,3.54-.34,5.07-.72,1.55-.29,2.9-.75,4.02-1.13.56-.18,1.06-.4,1.49-.6.43-.2.79-.38,1.09-.55.58-.35.86-.63.81-.79-.06-.16-.45-.2-1.1-.14-.33.02-.73.06-1.18.13-.45.07-.97.16-1.54.23-1.14.15-2.46.42-3.96.57-1.48.24-3.13.32-4.85.49-6.89.39-12.55-.33-12.7.36-.03.17.29.4.91.67.31.13.69.28,1.14.43.45.12.98.24,1.56.37.58.12,1.22.25,1.91.37.69.11,1.44.16,2.22.23,1.57.18,3.3.11,5.12.07Z"/>
                <path class="cls-30" d="m55.73,101.22c.83-.08,1.64-.17,2.41-.26.39-.05.77-.08,1.14-.15.37-.08.73-.15,1.08-.22.71-.15,1.37-.3,1.99-.45.61-.19,1.18-.37,1.69-.55.51-.18.98-.35,1.38-.51.39-.18.73-.35,1-.5.54-.3.81-.54.76-.69-.21-.63-5.29.61-11.61,1.04-.79.02-1.57.05-2.31.09-.37.02-.74.04-1.1.05-.36,0-.71,0-1.06,0-.69,0-1.35,0-1.96.02-.31.02-.61,0-.89-.01-.29,0-.56-.01-.82-.02-1.05-.02-1.92.03-2.52.06-.6.03-.95.11-.98.27-.03.16.27.36.84.61.57.24,1.42.44,2.49.67.27.05.55.11.84.17.29.06.6.12.91.14.63.07,1.31.13,2.03.19.36.03.73.06,1.1.09.38.01.76,0,1.15,0,.78,0,1.6-.02,2.43-.05Z"/>
                <path class="cls-10" d="m55.72,101.12c.75-.07,1.48-.15,2.19-.24.35-.04.7-.09,1.04-.13.34-.04.67-.13.99-.19,1.28-.28,2.43-.51,3.36-.86.93-.32,1.68-.61,2.17-.87.49-.28.74-.49.7-.63-.04-.14-.37-.18-.91-.15-.55.02-1.34.08-2.28.21-.94.16-2.08.23-3.32.4-.31.03-.63.09-.96.12-.33.02-.66.05-1,.07-.68.05-1.38.12-2.1.19-.72.02-1.43.05-2.11.08-.68.03-1.34.08-1.97.06-.63,0-1.23,0-1.79.02-.28,0-.55.02-.81.03-.26.01-.51,0-.75,0-1.91-.03-3.14.1-3.18.37-.05.3,1.11.68,3.05,1.1.24.05.49.11.76.14.27.03.55.06.83.1.58.06,1.19.12,1.85.18.65.07,1.34.07,2.05.06.71,0,1.45-.02,2.2-.04Z"/>
                <path class="cls-3" d="m55.72,101.02c.67-.06,1.33-.14,1.97-.21.32-.04.63-.08.93-.12.31-.03.6-.08.89-.15,1.15-.25,2.18-.47,3.03-.73,1.68-.58,2.68-1.06,2.61-1.31-.07-.25-1.17-.23-2.88.01-.86.09-1.88.17-3,.32-.28.04-.57.07-.86.08-.29.02-.6.04-.9.07-.61.05-1.25.11-1.9.17-1.3.03-2.54.12-3.67.15-1.13,0-2.15.02-3.02.07-1.72,0-2.82.09-2.85.35-.03.25,1.01.62,2.75.97.88.12,1.93.24,3.1.33,1.17.06,2.46.02,3.82,0Z"/>
              </g>
            </g>
            <path class="cls-34" d="m28.38,15.77c0,7.73,11.25,14,25.12,14s25.12-6.27,25.12-14S67.37,1.77,53.5,1.77s-25.12,6.27-25.12,14Z"/>
          </g>
          <text class="cls-43" transform="translate(37.13 37.73)"><tspan class="cls-41" x="0" y="0">C</tspan><tspan class="cls-42" x="9.44" y="0">O2</tspan></text>
        </g>
      </g>
    </g>
  </g>
</svg>