<?xml version="1.0" encoding="UTF-8"?>
<svg xmlns="http://www.w3.org/2000/svg" xmlns:xlink="http://www.w3.org/1999/xlink" viewBox="0 0 101.65 101.65">
  <defs>
    <style>
      .cls-1 {
        fill: #f7f7f7;
        filter: url(#outer-glow-1);
        font-family: Lobster-Regular, Lobster;
        font-size: 27.79px;
      }

      .cls-2 {
        opacity: .1;
      }

      .cls-2, .cls-3, .cls-4, .cls-5, .cls-6, .cls-7, .cls-8, .cls-9, .cls-10, .cls-11, .cls-12, .cls-13, .cls-14, .cls-15, .cls-16, .cls-17, .cls-18, .cls-19, .cls-20, .cls-21, .cls-22, .cls-23, .cls-24, .cls-25, .cls-26, .cls-27, .cls-28, .cls-29, .cls-30, .cls-31, .cls-32, .cls-33 {
        fill: #fff;
      }

      .cls-3 {
        opacity: .32;
      }

      .cls-5 {
        opacity: .55;
      }

      .cls-6 {
        opacity: .03;
      }

      .cls-34 {
        fill: url(#radial-gradient);
      }

      .cls-34, .cls-35, .cls-36, .cls-37, .cls-38, .cls-39 {
        mix-blend-mode: screen;
      }

      .cls-7 {
        opacity: .26;
      }

      .cls-8 {
        opacity: .68;
      }

      .cls-9 {
        opacity: .71;
      }

      .cls-10 {
        opacity: .13;
      }

      .cls-11 {
        opacity: .97;
      }

      .cls-12 {
        opacity: .9;
      }

      .cls-35 {
        fill: url(#linear-gradient);
      }

      .cls-13 {
        opacity: 0;
      }

      .cls-14 {
        opacity: .39;
      }

      .cls-36 {
        opacity: .4;
      }

      .cls-36, .cls-40, .cls-38 {
        fill: none;
      }

      .cls-15 {
        opacity: .45;
      }

      .cls-16 {
        opacity: .52;
      }

      .cls-17 {
        opacity: .35;
      }

      .cls-18 {
        opacity: .84;
      }

      .cls-19 {
        opacity: .19;
      }

      .cls-20 {
        opacity: .77;
      }

      .cls-21 {
        opacity: .29;
      }

      .cls-22 {
        opacity: .61;
      }

      .cls-23 {
        opacity: .58;
      }

      .cls-40 {
        isolation: isolate;
      }

      .cls-24 {
        opacity: .06;
      }

      .cls-37 {
        fill: #1a1a1a;
      }

      .cls-25 {
        opacity: .87;
      }

      .cls-26 {
        opacity: .42;
      }

      .cls-27 {
        opacity: .23;
      }

      .cls-28 {
        opacity: .74;
      }

      .cls-29 {
        opacity: .81;
      }

      .cls-30 {
        opacity: .16;
      }

      .cls-31 {
        opacity: .94;
      }

      .cls-32 {
        opacity: .48;
      }

      .cls-41 {
        fill: #00dcf9;
        filter: url(#outer-glow-2);
        font-family: P22MuschampPro, 'P22 Muschamp Pro';
        font-size: 24.1px;
      }

      .cls-33 {
        opacity: .65;
      }

      .cls-39 {
        fill: #333;
      }
    </style>
    <filter id="outer-glow-1" filterUnits="userSpaceOnUse">
      <feOffset dx="0" dy="0"/>
      <feGaussianBlur result="blur" stdDeviation="4"/>
      <feFlood flood-color="#8bdcf2" flood-opacity=".74"/>
      <feComposite in2="blur" operator="in"/>
      <feComposite in="SourceGraphic"/>
    </filter>
    <radialGradient id="radial-gradient" cx="52.27" cy="48.11" fx="52.27" fy="48.11" r="52.86" gradientUnits="userSpaceOnUse">
      <stop offset="0" stop-color="#000"/>
      <stop offset=".42" stop-color="#010101"/>
      <stop offset=".57" stop-color="#080808"/>
      <stop offset=".68" stop-color="#141414"/>
      <stop offset=".77" stop-color="#252525"/>
      <stop offset=".84" stop-color="#3b3b3b"/>
      <stop offset=".91" stop-color="#565656"/>
      <stop offset=".97" stop-color="#767676"/>
      <stop offset="1" stop-color="#8a8a8a"/>
    </radialGradient>
    <linearGradient id="linear-gradient" x1="-5070.63" y1="-2482.92" x2="-5070.63" y2="-2421.86" gradientTransform="translate(-5019.81 -2444.12) rotate(-180)" gradientUnits="userSpaceOnUse">
      <stop offset="0" stop-color="#000"/>
      <stop offset="0" stop-color="#010101"/>
      <stop offset=".69" stop-color="#636363"/>
      <stop offset="1" stop-color="#8a8a8a"/>
    </linearGradient>
    <filter id="outer-glow-2" filterUnits="userSpaceOnUse">
      <feOffset dx="0" dy="0"/>
      <feGaussianBlur result="blur-2" stdDeviation="4"/>
      <feFlood flood-color="#8bdcf2" flood-opacity=".74"/>
      <feComposite in2="blur-2" operator="in"/>
      <feComposite in="SourceGraphic"/>
    </filter>
  </defs>
  <g class="cls-40">
    <g id="Layer_2" data-name="Layer 2">
      <g id="_图层_1" data-name="图层 1">
        <g>
          <text class="cls-1" transform="translate(33 74.79)"><tspan x="0" y="0">8.2</tspan></text>
          <g>
            <circle class="cls-34" cx="50.83" cy="50.83" r="50.83"/>
            <path class="cls-37" d="m7.65,26.4c.39-.18.76-.15,1.18-.43-.74,3.01-3.69,5.41-4.37,8.58.25-.03.42-.16.67-.2.04,2.44-1.9,5.02-2.49,7.44-.6,2.43-1.53,6.06-1.13,8.53,2.19-.05,1.76-4.73,2.48-6.35,1.99,2.28-3.18,12.32.21,13.77,1.71-4.23-.54-9.82,1.52-14.02,2.31,2.67-.03,11.23.19,15.03.21,3.73.83,14.18,4.4,16.25.12-2.4-.59-4.92-.41-7.11,1.67,1.32,1.22,4.57,3.35,5.36,1.2-2.62-.76-4.24-1.99-6.37-1.21-2.1-2.27-4.93-2.12-7.37.54.51,1.07.7,1.39,1.44.37-2.12-.82-4.55-.94-6.7-.18-3.05-.26-6.45,0-9.5.62-7.42,4.25-14.17,9.77-19.27-.18.57-.61.93-.95,1.36-4.71-4.68,5.89-8.83,7.2-11.96-2.39-.26-4.53,1.95-6.11,3.33-.54-2.68,3.14-4.61,4.38-6.53-3.15-.16-6.55,4.21-8.61,6.18-2.61,2.5-6.02,5.27-7.64,8.55Z"/>
            <path class="cls-39" d="m20.7,86.39c2.14,2.35,4.24,4.94,6.74,6.12-.62-.57-1.16-1.24-1.54-1.92,1.83.8,3.13,2.85,4.91,3.86,2.18,1.24,5.02,2.02,7.37,2.42-5.36-3.18-11.55-5-15.03-10.56-.3-.47-.59-1.58-.99-1.93-.59-.53-1.16-.47-1.48-.72-1.21-.92-2.17-1.6-3.03-3.22-.61-1.15-3.59-8.14-5.71-5.93-1.65,1.72,2.51,7.04,3.73,7.95.65-1.2-.22-2.33-.84-3.41,2.77.4,4.08,5.39,5.84,7.33Z"/>
            <path class="cls-39" d="m44.89,93.82c-1.37-.68-8.9-3-6.19,1.05,1.17,1.76,10.25,2.13,7.19,4.94,2.65,2.34,10.76-1.03,13.74-1.8,3.8-.98,8.55-1.37,11.18-4.62-1.16-1.87-4.49.02-6.11-.11.47-1.92,3.84-2.37,2.08-4.19-1.22-1.26-5.45-.38-6.87-.07-2.66.57-5.17,1.64-6.78,3.91-.9,1.27-.93,2.82-2.58,3.27-1.97.53-4.07-1.59-5.66-2.37Z"/>
            <path class="cls-39" d="m87.79,77.5c-1.54,1.53-3.01,3.18-4.62,4.62-1.16,1.04-4.03,1.97-4.72,3.32-2.18,4.3,3.94,1.26,5.17.78-.86,3.03-4.99,4-7.74,4.54-3.55.7-5.18-1.28-2.45-4.15,2.2-2.31,4.82-4,6.95-6.4,1.99-2.25,7.35-7.15,10.33-7.36-.04,1.69-2.17,2.25-2.4,3.87.95.16,2.03.03,2.89-.18.32,1.46-1.54,3.15-2.93,3.42-1.84.35-1.39-.23-1.47-1.73l.99-.74Z"/>
            <path class="cls-37" d="m87.05,72.46c1.25-1.81,3.09-3.11,4.14-5.02,2.28-4.12,4.2-10.1,4-14.86-.13-3.04-1.96-5.52-3.65-1.47-2.1,5.04-2.16,10.18-4.98,15.12-1.78,3.12-5.69,7.1-4.86,10.97,2.6.6,4.15-3.02,5.35-4.76Z"/>
            <path class="cls-37" d="m93.46,51.11c-.37,2.2-.93,4.38-.73,6.66.18,2.12.53,4.24.74,6.4.51,5.27,2.57-.46,3.16-2.9.93-3.84.15-8.27.53-12.15.3-3.06,1.71-8.63-.72-11.12-.07-.07-2.25,4.73-2.41,5.3-.71,2.51-.14,5.25-.56,7.81Z"/>
            <path class="cls-37" d="m91.23,28.73c.08.83.13.9.52,1.56-.04-2.63-2.88-5.64-4.46-7.5-1.81-2.13-2.29-4.26-3.21-6.88.02,1.41.4,3.32-.47,4.39-2.6-1.62-4.13-5.36-6.39-7.6.92,3.64,3.18,6.74,5.43,9.66,2.32,3.02,3.34,5.09,4.38,8.67.82,2.82,2.21,3.35,4.22,5.17,2.64,2.39,1.75,5.09,2.04,8.36,6.47-.88-1.81-13.32-2.06-15.84Z"/>
            <path class="cls-39" d="m93.47,72.81c.34-2.57,2.45-3.89,2.18-6.87-2.61-.66-3.5,3.61-4.35,5.4-1.12,2.34-2.66,4.54-5.44,4.9.74-4.57-2.83-.74-4,.95-.88,1.27-6.04,5.94-5.88,7.22.5,3.95,6.74-3.6,7.61-3.48,2.33.33-1.81,5.52-1.94,6.64,3.55.63,7.79-7.15,9.84-9.59,2.06-2.45,3.82-5.02,5.17-7.89l-3.21,2.71Z"/>
            <path class="cls-37" d="m60.66,6.69c2.39,1.54,5.37,5.91,8.61,5.4-.76-2.18-2.58-2.73-4.2-3.9,2.56-3.51,6.23,3.44,9.37,2.92,1.26-.21-2.56-3.77-2.74-3.89-1.86-1.29-3.96-1.85-5.98-2.78-4.9-2.26-9.21-4.35-14.4-.99,2.3,2.42,6.62,1.5,9.34,3.25Z"/>
            <path class="cls-37" d="m46.35.54c-3.66.32-7.4,1.73-10.82,2.97-1.69.61-4.7,1.34-4.9,3.64-.26,2.97,4.19,0,5.81-.88,2.48-1.33,4.09-1.89,6.91-1.75.19.99-.44,1.96-.92,2.63,2,.27,3.88-.57,5.85-.7,1.74-.12,3.21.36,4.91.51,2.43.22,4.8-.08,7.22.3.95.15,4.35,1.46,5.19.5,2.31-2.61-5.94-2.84-6.92-3.03-1-.18-8.74-1.55-4.47-2.97-.98-1.25-4.75-1-6.4-.75-1.15.17-2.38.88-3.62,1.01-1.76.18-3.52-.26-5.25.23l7.4-1.73Z"/>
            <path class="cls-37" d="m20.05,17.77c4.25.07,7.31-4.91,11.22-5.61-.81,4.81,6.89-1.23,8.74-2.25,1.82-1,9.3-3.64,8.54-6.38-.75-2.71-29.66,7.34-28.5,14.24Z"/>
            <path class="cls-39" d="m22.11,85.21c2.01,2.65,5.29,5.75,8.76,6.36,3.78.67,3.41-2.04.81-3.65-2.77-1.72-5.8-2.03-7.39-4.9,1.43.28,7.8,3.84,9.06,1.71.98-1.65-7.57-4.83-8.66-5.51-3.26-2.02-5.53-4.96-8.08-7.83-1.73-1.95-3.87-5.15-6.87-4.64,1.18,1.93,3.01,3.44,3.4,5.83-1.12.06-2.27.02-3.39.07-.8.03,2.11,2.48,2.16,2.51,1.12.78,1.9.98,2.97,2.07,2.49,2.53,5.09,5.14,7.24,7.97Z"/>
            <path class="cls-39" d="m49,96.8c2.72-1.91-.13-2.08-2.15-2.29-1.97-.2-4.11-.11-5.71-1.23,1.19-1.36,6.24-.79,4.48-3.41-.75-1.12-3.37-.97-4.44-1.04-2.5-.16-4.3-.37-6.67-1.18-2.16-.74-4.58-3.91-6.87-3.93-3.27-.03.2,4.26,1.32,5.7,3.66,4.68,14.44,11.31,20.04,7.37Z"/>
            <path class="cls-39" d="m71.27,80.95c-4.37.43-9.53,4.38-13.53,6.23-3.58,1.66-4.6,3.33.19,3.64,4.19.27,10.44-.84,14-3.22-1.34.16-2.51.9-3.79,1.27,5.24-3.49,13.43-.11,15.69-7.88-2.26-.32-4.22,1.03-6.35,1.16.11-1.27,1.17-2.25,1.85-3.38-3.08-.19-5.37,3.24-8.55,2.92l.49-.74Z"/>
            <g class="cls-36">
              <g class="cls-38">
                <path class="cls-13" d="m53.13,99.03c.76-.08,1.52-.15,2.27-.23.37-.04.75-.08,1.12-.12.37-.06.74-.13,1.1-.19.73-.13,1.46-.27,2.18-.4.71-.17,1.41-.36,2.11-.54,2.78-.73,5.35-1.72,7.72-2.83,2.37-1.12,4.53-2.37,6.43-3.72,1.9-1.34,3.56-2.75,4.97-4.13,2.8-2.79,4.57-5.47,5.51-7.45.23-.5.43-.94.57-1.35.13-.41.22-.77.27-1.07.1-.6.04-.98-.19-1.13s-.61-.06-1.13.23c-.26.15-.55.34-.86.59-.32.24-.7.51-1.09.83-1.58,1.27-3.76,3.1-6.64,5.02-1.45.95-3.06,1.91-4.84,2.85-1.78.94-3.75,1.81-5.85,2.6-2.11.78-4.38,1.5-6.75,2.01-.59.13-1.19.26-1.79.39-.61.09-1.22.19-1.84.28-.31.05-.62.1-.93.15-.31.03-.63.06-.94.08-.63.06-1.26.12-1.9.18-5.13.28-10.06-.25-14.5-1.23-.55-.12-1.12-.23-1.63-.35-.48-.14-.97-.24-1.44-.41-.24-.08-.47-.15-.71-.23-.23-.09-.46-.18-.69-.26-.46-.16-.91-.37-1.36-.56-1.78-.78-3.41-1.7-4.89-2.6-2.96-1.82-5.31-3.57-7.04-4.69-1.73-1.13-2.86-1.66-3.28-1.29-.41.36-.06,1.57,1.05,3.42,1.12,1.84,2.99,4.34,5.87,7.01,1.45,1.33,3.15,2.7,5.2,3.95.52.31,1.04.63,1.6.91.28.14.56.29.84.44.29.13.59.27.89.4.59.28,1.23.5,1.87.75.63.22,1.22.38,1.85.58,4.95,1.54,10.76,2.43,16.87,2.08Z"/>
                <path class="cls-6" d="m53.12,98.93c.74-.07,1.47-.15,2.21-.22.36-.04.73-.08,1.09-.12.36-.04.72-.12,1.07-.18.71-.13,1.42-.26,2.12-.39.7-.14,1.38-.34,2.06-.51,2.71-.69,5.22-1.64,7.54-2.7,2.32-1.06,4.42-2.28,6.29-3.56,1.87-1.28,3.51-2.6,4.89-3.94,2.79-2.65,4.56-5.22,5.52-7.13.47-.96.76-1.75.88-2.33.1-.59.04-.97-.18-1.12-.22-.15-.59-.07-1.09.21-.51.27-1.16.73-1.94,1.34-1.58,1.2-3.74,2.95-6.6,4.76-1.41.92-3.02,1.83-4.77,2.72-1.75.89-3.67,1.74-5.74,2.49-2.07.74-4.29,1.44-6.61,1.92-.58.12-1.16.27-1.75.37-.59.09-1.19.18-1.8.28-.3.04-.6.11-.91.14-.31.03-.61.06-.92.08-.62.06-1.24.12-1.86.18-5.01.28-9.83-.22-14.17-1.15-.54-.11-1.08-.23-1.61-.34-.28-.05-.49-.12-.73-.18-.24-.06-.47-.13-.7-.19-.93-.29-1.84-.61-2.7-.98-1.74-.73-3.35-1.59-4.81-2.45-1.46-.86-2.77-1.7-3.92-2.48-.58-.38-1.12-.74-1.62-1.08-.5-.34-.97-.64-1.39-.91-1.7-1.08-2.81-1.58-3.21-1.22-.39.35-.04,1.54,1.06,3.33.28.45.61.93.98,1.45.39.51.8,1.07,1.29,1.63.96,1.15,2.14,2.39,3.57,3.67,1.43,1.27,3.13,2.58,5.14,3.76,1,.6,2.11,1.14,3.28,1.65.3.12.6.23.91.35.3.11.62.25.91.32.59.18,1.19.36,1.79.55,4.84,1.46,10.49,2.31,16.43,1.96Z"/>
                <path class="cls-24" d="m53.11,98.83c2.88-.25,5.69-.62,8.32-1.36.66-.18,1.32-.32,1.95-.54.63-.21,1.26-.4,1.87-.62.61-.23,1.21-.45,1.8-.68.58-.25,1.16-.5,1.73-.74,4.52-2.06,8.23-4.63,10.96-7.17,2.74-2.54,4.53-5,5.51-6.83.24-.46.45-.87.6-1.25.14-.38.25-.71.31-1,.13-.57.09-.93-.12-1.08-.21-.15-.58-.09-1.08.16-.25.13-.54.3-.85.51-.31.22-.69.45-1.07.74-1.57,1.13-3.72,2.79-6.53,4.52-2.8,1.73-6.28,3.51-10.33,4.96-.51.17-1.02.35-1.55.52-.53.16-1.06.32-1.6.49-.54.16-1.09.29-1.64.45-.55.16-1.12.25-1.68.38-2.25.54-4.63.79-7.07,1.01-4.89.28-9.6-.2-13.84-1.06-.53-.11-1.05-.22-1.57-.33-.25-.06-.53-.1-.76-.16-.23-.06-.46-.12-.69-.18-.46-.1-.9-.28-1.35-.41-.44-.15-.87-.33-1.31-.48-1.71-.68-3.29-1.49-4.72-2.3-2.86-1.63-5.14-3.22-6.81-4.24-1.68-1.03-2.76-1.5-3.14-1.14-.38.35-.02,1.5,1.08,3.23,1.11,1.72,2.96,4.04,5.79,6.49,1.42,1.22,3.09,2.46,5.08,3.58.51.27,1.01.55,1.56.81.55.24,1.09.52,1.68.73.29.11.59.22.88.34.3.11.57.18.86.28.57.18,1.15.35,1.74.53,4.72,1.38,10.22,2.18,15.99,1.85Z"/>
                <path class="cls-2" d="m53.11,98.73c.7-.07,1.39-.14,2.08-.21.69-.07,1.38-.13,2.05-.27,1.35-.24,2.68-.46,3.95-.82,2.58-.62,4.95-1.49,7.16-2.47,2.2-.98,4.21-2.08,6.01-3.23,1.79-1.18,3.37-2.39,4.72-3.6,2.71-2.42,4.49-4.78,5.49-6.52.48-.89.8-1.62.94-2.16.13-.56.09-.92-.11-1.07-.2-.15-.56-.1-1.04.14-.5.23-1.14.63-1.91,1.18-1.56,1.06-3.69,2.64-6.46,4.27-1.39.82-2.93,1.65-4.62,2.46-1.7.79-3.55,1.56-5.53,2.25-1.98.68-4.1,1.33-6.31,1.75-1.09.28-2.23.41-3.38.6-.57.11-1.16.14-1.74.2-.59.06-1.18.11-1.77.17-4.77.28-9.36-.17-13.51-.98-.52-.11-1.03-.22-1.53-.32-.5-.11-1.03-.19-1.46-.32-.22-.06-.45-.12-.67-.17-.22-.06-.44-.14-.65-.2-.22-.07-.43-.14-.65-.21-.21-.08-.42-.16-.63-.24-1.68-.63-3.23-1.39-4.63-2.15-1.41-.76-2.67-1.52-3.79-2.22-1.12-.69-2.09-1.31-2.91-1.79-1.64-.98-2.7-1.42-3.07-1.07-.36.34,0,1.45,1.1,3.13.56.83,1.29,1.8,2.24,2.86.94,1.06,2.1,2.21,3.51,3.37,1.4,1.16,3.06,2.34,5.02,3.39.25.13.49.26.75.39.26.12.52.24.78.36.27.12.53.25.81.36.28.11.56.22.84.32.58.24,1.11.37,1.67.55.56.17,1.12.34,1.69.52,4.6,1.31,9.94,2.06,15.56,1.73Z"/>
                <path class="cls-10" d="m53.1,98.64c.68-.07,1.35-.13,2.02-.2.67-.08,1.34-.12,1.99-.25,1.31-.25,2.6-.43,3.84-.79.62-.16,1.24-.33,1.85-.49.6-.18,1.19-.38,1.77-.57,1.16-.41,2.28-.83,3.35-1.3,4.3-1.85,7.85-4.2,10.5-6.51,2.67-2.3,4.45-4.55,5.46-6.23.52-.83.82-1.55.97-2.08.15-.53.13-.87-.06-1.03-.19-.16-.54-.11-1.03.1-.49.21-1.1.61-1.88,1.1-1.54,1.01-3.65,2.49-6.38,4.04-2.72,1.56-6.07,3.18-9.95,4.48-1.93.64-4.01,1.27-6.16,1.68-1.07.27-2.18.38-3.3.58-.56.11-1.13.13-1.7.19-.57.06-1.15.11-1.73.17-4.66.27-9.13-.14-13.17-.9-1.01-.22-1.99-.42-2.95-.61-.43-.12-.87-.22-1.29-.34-.42-.14-.84-.26-1.25-.41-1.64-.58-3.16-1.28-4.54-2-2.76-1.45-4.96-2.87-6.57-3.79-.81-.46-1.47-.8-1.97-.97-.51-.17-.86-.19-1.03-.02-.18.17-.17.53.02,1.04.18.51.55,1.19,1.1,1.99,1.1,1.6,2.93,3.74,5.69,5.97,1.39,1.11,3.02,2.22,4.95,3.2.48.25.99.47,1.5.71.52.22,1.07.42,1.62.63,1.05.33,2.13.67,3.24,1,4.48,1.23,9.67,1.94,15.12,1.62Z"/>
                <path class="cls-30" d="m53.09,98.54c.66-.07,1.31-.13,1.96-.2.32-.03.65-.07.97-.1l.48-.05.48-.08c.63-.11,1.26-.23,1.89-.34.31-.06.62-.12.93-.18.3-.08.61-.16.91-.23,2.43-.58,4.68-1.37,6.78-2.25,2.1-.87,4.01-1.88,5.72-2.94,1.73-1.04,3.23-2.17,4.55-3.25,2.62-2.2,4.39-4.34,5.42-5.94.49-.82.83-1.49.99-2,.15-.52.13-.86-.05-1.02-.74-.63-3.8,1.95-9.14,4.92-1.35.72-2.82,1.5-4.46,2.21-1.63.73-3.39,1.43-5.29,2.04-1.89.62-3.91,1.19-6.01,1.6-.26.06-.52.12-.79.17-.27.04-.54.08-.8.12-.54.08-1.08.17-1.63.25l-.41.07-.42.04c-.28.03-.56.05-.83.08-.56.05-1.12.11-1.68.16-4.54.27-8.9-.11-12.84-.81-.98-.21-1.94-.41-2.88-.6-.49-.08-.88-.21-1.3-.31-.42-.09-.82-.25-1.23-.37-1.61-.52-3.1-1.18-4.45-1.85-.68-.32-1.32-.68-1.93-1-.6-.35-1.19-.65-1.72-.97-.54-.3-1.04-.6-1.51-.87-.47-.27-.9-.51-1.3-.73-1.58-.87-2.6-1.26-2.94-.92-.34.34.04,1.38,1.13,2.92.28.38.59.81.96,1.24.36.44.78.91,1.25,1.39.46.49.99.98,1.55,1.51.58.5,1.19,1.04,1.89,1.56,1.37,1.05,2.98,2.1,4.88,3.02.48.22.96.46,1.48.65.51.2,1.05.42,1.55.56,1.02.32,2.07.65,3.15.97,4.36,1.16,9.4,1.82,14.69,1.5Z"/>
                <path class="cls-19" d="m53.09,98.44c5.12-.33,9.93-1.59,13.98-3.27,2.04-.83,3.89-1.81,5.58-2.79.83-.51,1.63-1,2.37-1.54.75-.51,1.43-1.05,2.08-1.56,2.58-2.08,4.34-4.12,5.36-5.66.52-.76.84-1.42,1-1.91.16-.49.16-.82-.01-.98-.17-.16-.51-.13-.98.04-.47.18-1.07.52-1.83.95-1.5.88-3.55,2.21-6.19,3.59-.66.34-1.34.71-2.08,1.05-.72.36-1.5.69-2.29,1.05-1.6.67-3.32,1.35-5.17,1.94-3.71,1.18-7.84,2.07-12.25,2.37-4.42.26-8.66-.07-12.5-.74-.96-.17-1.89-.39-2.8-.57-.45-.09-.92-.17-1.31-.28-.4-.11-.81-.19-1.2-.33-1.57-.48-3.03-1.07-4.36-1.69-2.65-1.26-4.78-2.53-6.33-3.34-1.55-.82-2.54-1.19-2.87-.85-.32.33.06,1.34,1.14,2.82,1.09,1.48,2.9,3.44,5.59,5.44,1.36.99,2.95,1.98,4.81,2.83.46.23.95.41,1.45.6.51.21.98.34,1.48.5.99.3,2,.64,3.06.92,4.24,1.11,9.13,1.71,14.25,1.4Z"/>
                <path class="cls-27" d="m53.08,98.34c4.96-.32,9.62-1.52,13.56-3.11,3.95-1.62,7.27-3.6,9.78-5.6,2.53-1.98,4.27-3.92,5.31-5.38.5-.75.85-1.36,1.02-1.83.16-.48.16-.8,0-.96-.67-.63-3.69,1.64-8.83,4.28-2.57,1.33-5.72,2.68-9.32,3.82-3.62,1.12-7.63,1.97-11.93,2.25-4.3.25-8.43-.03-12.16-.68-.23-.04-.47-.06-.7-.11-.23-.05-.46-.1-.68-.14-.45-.09-.9-.19-1.34-.28-.44-.09-.88-.17-1.31-.26-.4-.1-.79-.2-1.17-.29-1.53-.43-2.96-.99-4.26-1.56-2.6-1.14-4.68-2.36-6.2-3.12-.76-.38-1.38-.66-1.85-.8-.47-.13-.79-.13-.95.03-.15.17-.13.49.06.95.19.46.56,1.06,1.1,1.77.54.71,1.26,1.53,2.17,2.41.92.88,2.02,1.84,3.36,2.77,1.34.93,2.9,1.87,4.73,2.65.46.18.94.38,1.42.55.46.15.93.3,1.41.45.48.15.97.3,1.46.45.25.08.5.15.75.23.25.08.51.12.77.19,4.11,1.07,8.85,1.61,13.82,1.31Z"/>
                <path class="cls-7" d="m53.08,98.24c4.8-.3,9.32-1.44,13.14-2.96,3.84-1.52,7.06-3.43,9.54-5.29,2.47-1.88,4.21-3.71,5.23-5.12.52-.69.85-1.3,1.03-1.75.18-.45.19-.76.04-.92-.15-.15-.47-.15-.92,0-.45.14-1.03.44-1.77.81-1.44.78-3.45,1.93-5.97,3.17-2.53,1.22-5.6,2.53-9.11,3.59-3.52,1.07-7.42,1.88-11.6,2.15-1.05.03-2.08.07-3.1.1-1.02-.04-2.03-.06-3.02-.08-.99-.09-1.96-.17-2.91-.25-.48-.02-.94-.13-1.41-.19-.47-.07-.93-.13-1.38-.2-.92-.1-1.79-.31-2.65-.48-.43-.09-.85-.17-1.27-.25-.21-.04-.42-.08-.62-.12-.19-.05-.38-.1-.56-.14-1.5-.38-2.89-.88-4.16-1.4-2.54-1.07-4.58-2.19-6.07-2.9-1.49-.71-2.43-1.02-2.72-.7-.29.33.1,1.26,1.17,2.62,1.08,1.35,2.85,3.14,5.47,4.91,1.32.88,2.86,1.74,4.65,2.45.22.09.45.18.68.27.23.09.44.15.67.22.45.14.9.29,1.37.44.93.29,1.88.61,2.89.81.5.11,1.01.23,1.53.34.52.1,1.03.25,1.57.31,1.07.15,2.17.31,3.29.45,1.13.07,2.27.14,3.44.2,1.17,0,2.36-.04,3.56-.08Z"/>
                <path class="cls-21" d="m53.07,98.14c4.64-.29,9.02-1.36,12.72-2.81,3.73-1.42,6.86-3.25,9.28-5.02,2.43-1.77,4.13-3.52,5.16-4.84.5-.68.85-1.24,1.04-1.67.17-.44.19-.75.05-.9-.15-.15-.45-.15-.88-.01-.44.13-1.03.38-1.73.75-1.44.7-3.39,1.8-5.86,2.96-2.48,1.15-5.45,2.4-8.88,3.39-3.42,1.03-7.21,1.78-11.27,2.04-4.06.27-7.95-.02-11.48-.57-.44-.06-.88-.12-1.31-.18-.43-.09-.85-.17-1.27-.26-.83-.17-1.64-.33-2.42-.48-1.46-.32-2.82-.8-4.06-1.27-2.49-.96-4.48-2.02-5.93-2.67-1.45-.67-2.37-.95-2.65-.62-.27.32.12,1.22,1.19,2.51,1.08,1.28,2.82,2.99,5.41,4.64,1.3.82,2.8,1.64,4.56,2.28.85.3,1.7.56,2.6.85.45.14.91.28,1.37.42.47.11.95.22,1.43.33,3.87.93,8.3,1.45,12.95,1.14Z"/>
                <path class="cls-3" d="m53.06,98.04c4.48-.28,8.71-1.29,12.3-2.67,1.81-.66,3.46-1.46,4.98-2.24.75-.42,1.47-.81,2.14-1.24.67-.43,1.32-.82,1.9-1.26,2.36-1.69,4.06-3.31,5.07-4.59.52-.62.85-1.18,1.04-1.59.18-.42.21-.71.07-.86-.14-.15-.43-.16-.86-.05-.43.11-.98.37-1.69.69-1.38.67-3.32,1.67-5.73,2.76-.59.29-1.25.53-1.9.83-.66.28-1.37.54-2.08.83-1.46.52-3,1.08-4.67,1.53-3.32.96-7,1.68-10.94,1.93-3.93.25-7.71-.01-11.13-.51-1.72-.19-3.33-.59-4.86-.86-.4-.06-.73-.16-1.07-.24-.17-.04-.34-.08-.51-.12-.17-.05-.33-.1-.5-.15-.66-.18-1.29-.41-1.9-.61-2.42-.89-4.37-1.85-5.79-2.46-.71-.3-1.29-.52-1.72-.62-.44-.1-.73-.08-.86.08-.13.16-.09.45.11.86.2.41.56.94,1.09,1.55,1.07,1.22,2.8,2.83,5.34,4.38.65.37,1.32.76,2.07,1.11.19.09.37.18.56.27.2.08.39.16.59.24.4.16.82.34,1.21.46,1.62.52,3.34,1.13,5.23,1.51,3.74.86,8.03,1.34,12.51,1.05Z"/>
                <path class="cls-17" d="m53.06,97.94c1.08-.1,2.14-.21,3.19-.33,1.04-.16,2.06-.37,3.06-.55,1-.21,1.96-.5,2.91-.75.48-.12.93-.28,1.38-.43.45-.16.9-.29,1.33-.46,3.49-1.3,6.45-2.89,8.76-4.48,2.31-1.58,3.96-3.15,4.97-4.34.5-.61.85-1.12,1.04-1.51.18-.41.21-.69.08-.84-.13-.15-.41-.16-.82-.05-.42.1-.98.31-1.66.62-1.37.6-3.24,1.56-5.6,2.57-2.35,1.02-5.19,2.08-8.41,2.99-.4.12-.81.21-1.23.32-.41.11-.83.22-1.26.3-.85.17-1.71.38-2.6.53-.89.13-1.79.28-2.71.41-.92.09-1.86.17-2.81.26-3.81.24-7.47,0-10.78-.45-.42-.06-.83-.12-1.23-.17-.4-.06-.81-.09-1.2-.18-.78-.15-1.55-.3-2.28-.45-.36-.07-.75-.13-1.08-.21-.33-.08-.66-.16-.98-.23-.64-.19-1.26-.35-1.85-.56-2.36-.79-4.27-1.67-5.65-2.23-.69-.28-1.25-.48-1.68-.56-.42-.09-.7-.07-.82.09-.12.16-.08.44.12.83.21.38.57.89,1.09,1.47,1.05,1.16,2.77,2.68,5.27,4.1.62.37,1.31.69,2.03,1.03.37.15.75.31,1.13.46.39.16.76.26,1.15.4.78.25,1.59.51,2.42.78.41.14.85.22,1.29.33.44.1.89.21,1.34.31,3.62.79,7.75,1.24,12.08.97Z"/>
                <path class="cls-14" d="m53.05,97.85c1.04-.1,2.06-.21,3.07-.32,1.01-.14,1.99-.35,2.95-.52,1.92-.43,3.75-.94,5.44-1.54,3.37-1.22,6.24-2.73,8.49-4.22.28-.19.56-.37.82-.55.26-.19.51-.38.75-.56.49-.36.94-.71,1.34-1.07.4-.35.78-.68,1.11-1,.32-.33.61-.63.86-.92.51-.56.84-1.06,1.03-1.44.19-.38.23-.65.11-.8-.51-.62-3.29.97-7.87,2.88-2.29.95-5.05,1.96-8.17,2.81-1.57.42-3.21.76-4.93,1.08-.86.12-1.74.28-2.63.39-.9.08-1.8.17-2.72.25-3.69.23-7.22,0-10.44-.39-.8-.11-1.59-.22-2.35-.32-.76-.15-1.49-.29-2.21-.42-1.47-.25-2.68-.53-3.84-.88-2.3-.7-4.15-1.52-5.5-2.02-1.35-.51-2.19-.71-2.42-.4-.23.3.18,1.09,1.22,2.2,1.05,1.09,2.74,2.52,5.19,3.84,1.22.65,2.7,1.25,4.17,1.71.75.24,1.53.51,2.34.74.83.19,1.67.39,2.54.6,3.5.73,7.48,1.14,11.65.88Z"/>
                <path class="cls-26" d="m53.04,97.75c1-.1,1.99-.2,2.96-.3.49-.04.96-.15,1.44-.23.47-.09.94-.18,1.41-.26.23-.04.46-.09.69-.13.23-.05.45-.12.68-.17.45-.12.89-.24,1.33-.36.44-.12.88-.23,1.3-.37.42-.14.83-.28,1.24-.42,3.26-1.13,6.04-2.57,8.22-3.97,2.19-1.39,3.77-2.8,4.76-3.86.49-.55.83-1,1.03-1.36.19-.37.23-.63.11-.78-.11-.15-.37-.17-.76-.09-.4.07-.93.24-1.57.51-1.3.5-3.08,1.34-5.31,2.21-2.23.88-4.9,1.84-7.93,2.61-3.03.76-6.37,1.39-9.94,1.62-3.57.22-6.98.01-10.09-.33-.78-.11-1.53-.21-2.27-.31-.18-.02-.37-.05-.55-.07-.18-.04-.36-.07-.54-.1-.36-.07-.71-.14-1.05-.2-.69-.13-1.36-.25-2.01-.36-.6-.15-1.19-.26-1.75-.43-2.23-.61-4.05-1.35-5.35-1.8-.66-.22-1.18-.39-1.58-.45-.4-.06-.66-.02-.77.13-.11.15-.05.41.15.76.21.35.56.81,1.08,1.32,1.03,1.03,2.7,2.37,5.1,3.57.59.32,1.25.57,1.94.86.67.23,1.37.46,2.09.7.36.12.73.24,1.11.36.19.06.38.12.57.18.19.05.39.09.59.14.79.19,1.61.38,2.45.57,3.38.66,7.2,1.04,11.22.8Z"/>
                <path class="cls-15" d="m53.04,97.65c3.85-.26,7.48-1.07,10.63-2.12,3.14-1.07,5.83-2.4,7.95-3.72,2.12-1.33,3.68-2.61,4.64-3.63.49-.49.82-.95,1.01-1.29.19-.34.24-.59.13-.74-.44-.6-3.11.74-7.42,2.4-2.16.82-4.75,1.7-7.68,2.43-2.93.71-6.15,1.29-9.59,1.53-3.44.2-6.73.02-9.74-.26-.75-.1-1.48-.2-2.19-.3-.36-.05-.71-.09-1.05-.13-.34-.07-.68-.13-1.01-.2-1.32-.26-2.61-.44-3.66-.7-2.16-.53-3.93-1.19-5.2-1.59-1.27-.41-2.07-.55-2.26-.26-.2.3.22,1,1.24,1.98,1.02.97,2.66,2.21,5.01,3.3,1.2.56,2.47.95,3.87,1.42.35.11.7.23,1.06.35.37.09.74.18,1.12.28.76.18,1.55.36,2.36.55,3.26.59,6.93.94,10.79.71Z"/>
                <path class="cls-32" d="m53.03,97.55c3.7-.25,7.17-1.01,10.21-1.99,3.02-1.01,5.61-2.25,7.67-3.49,1.03-.6,1.91-1.24,2.68-1.8.74-.6,1.38-1.11,1.84-1.6.47-.48.81-.89,1.01-1.21.19-.33.24-.57.14-.71-.1-.14-.34-.17-.7-.11-.37.05-.87.19-1.48.41-.6.23-1.35.47-2.17.82-.85.3-1.78.69-2.83,1.05-2.09.76-4.6,1.57-7.42,2.26-2.82.66-5.94,1.2-9.25,1.43-3.32.18-6.49.05-9.38-.22-.72-.08-1.42-.19-2.11-.28-.34-.04-.68-.09-1.01-.13-.17-.02-.33-.04-.5-.06-.16-.03-.32-.06-.48-.09-.64-.12-1.26-.23-1.86-.34-.59-.11-1.2-.18-1.7-.31-2.1-.44-3.81-1.03-5.04-1.37-1.23-.35-2-.48-2.18-.19-.18.28.23.96,1.24,1.87,1.01.9,2.62,2.05,4.91,3.02.58.27,1.15.44,1.77.66.62.21,1.26.42,1.93.65.17.05.34.11.51.17.17.04.35.09.53.13.35.09.71.17,1.08.26.73.17,1.48.36,2.26.52,3.13.55,6.66.85,10.36.64Z"/>
                <path class="cls-16" d="m53.03,97.45c3.54-.25,6.87-.94,9.79-1.86,2.9-.94,5.4-2.11,7.39-3.26,3.97-2.34,5.89-4.49,5.53-5.01-.38-.56-2.9.54-6.94,1.96-2.03.69-4.44,1.45-7.16,2.09-2.72.61-5.72,1.1-8.91,1.33-1.6.03-3.16.15-4.67.06-1.51.01-2.97-.15-4.36-.25-.17-.01-.35-.02-.52-.04-.17-.02-.34-.05-.51-.07-.34-.05-.67-.09-1-.13-.66-.08-1.3-.16-1.92-.24-1.23-.23-2.39-.43-3.45-.6-2.05-.35-3.69-.87-4.88-1.18-.6-.14-1.08-.26-1.43-.28-.36-.03-.59.03-.67.17-.08.14-.02.36.19.66.21.3.55.68,1.06,1.09.99.84,2.58,1.91,4.79,2.76,1.07.39,2.26.8,3.54,1.22.66.16,1.33.33,2.03.5.35.08.71.17,1.07.25.18.04.36.08.55.12.19.03.37.06.56.09,1.51.23,3.09.5,4.76.56,1.66.15,3.4.07,5.17.03Z"/>
                <path class="cls-5" d="m53.02,97.35c3.38-.25,6.57-.88,9.38-1.74,2.79-.87,5.19-1.96,7.1-3.04,1.92-1.08,3.35-2.13,4.26-2.97.45-.43.78-.78.97-1.07.19-.29.24-.52.16-.65-.09-.13-.3-.17-.64-.13-.34.03-.81.14-1.38.32-1.14.35-2.72.92-4.68,1.57-1.95.65-4.28,1.35-6.9,1.94-2.61.57-5.5,1.01-8.56,1.24-1.53.02-3.03.15-4.48.07-.36,0-.72-.01-1.08-.02-.36,0-.71,0-1.06-.04-.7-.05-1.38-.11-2.05-.16-.33-.02-.67-.05-.99-.07-.32-.04-.64-.09-.96-.13-.63-.08-1.25-.16-1.85-.23-.6-.05-1.17-.18-1.72-.27-.55-.09-1.09-.18-1.6-.26-.51-.08-1-.15-1.44-.24-.44-.08-.87-.16-1.26-.26-.79-.16-1.47-.35-2.05-.47-1.14-.27-1.86-.32-2.01-.05-.16.28.27.86,1.24,1.65.5.37,1.12.82,1.91,1.24.38.23.82.43,1.28.64.47.23.95.41,1.46.59.52.18,1.06.37,1.62.57.57.19,1.15.41,1.78.55.63.15,1.28.32,1.95.48.34.08.68.16,1.02.24.35.07.71.12,1.07.17.72.11,1.46.22,2.22.33.38.07.77.08,1.16.11.39.03.78.05,1.18.08,1.59.15,3.25.05,4.94.02Z"/>
                <path class="cls-23" d="m53.01,97.25c.81-.08,1.6-.16,2.39-.24.39-.05.78-.07,1.16-.15.38-.07.76-.14,1.14-.21.37-.07.75-.14,1.11-.21.37-.07.73-.14,1.08-.24.71-.2,1.4-.39,2.07-.57,2.67-.8,4.97-1.83,6.82-2.82,3.7-2.01,5.54-3.9,5.23-4.39-.33-.53-2.68.38-6.44,1.56-1.88.58-4.12,1.24-6.63,1.77-.63.13-1.27.26-1.92.39-.33.08-.66.12-1,.17-.34.05-.68.1-1.02.15-.34.05-.69.1-1.04.16-.35.06-.71.07-1.06.11-.71.07-1.44.13-2.17.2-.74.02-1.46.05-2.18.07-.36,0-.71.04-1.07.03-.35,0-.7-.02-1.05-.03-.7-.01-1.38-.02-2.05-.04-.67-.05-1.32-.1-1.96-.15-1.29-.05-2.5-.26-3.64-.38-1.15-.1-2.2-.33-3.18-.47-.49-.07-.96-.14-1.4-.2-.44-.06-.83-.15-1.22-.21-.76-.15-1.42-.28-1.98-.38-1.11-.2-1.79-.26-1.93.01-.14.26.28.83,1.24,1.54.24.19.52.36.83.55.31.18.65.4,1.03.58.38.18.8.4,1.24.57.44.17.9.34,1.39.52.98.35,2.06.77,3.26,1.04,1.2.3,2.48.65,3.86.82.69.1,1.4.21,2.12.32.73.06,1.47.11,2.23.15.38.02.76.05,1.15.07.39.02.78,0,1.17,0,.79-.02,1.59-.04,2.4-.06Z"/>
                <path class="cls-22" d="m53.01,97.15c.77-.08,1.53-.16,2.27-.23.37-.04.74-.08,1.11-.13.36-.07.72-.13,1.08-.2.71-.14,1.42-.27,2.1-.41.67-.19,1.33-.37,1.98-.55,2.56-.73,4.76-1.69,6.53-2.6,1.76-.95,3.11-1.84,3.97-2.58.86-.73,1.24-1.27,1.1-1.52-.14-.24-.79-.19-1.85.09-1.05.28-2.53.74-4.33,1.29-1.81.52-3.96,1.13-6.36,1.61-.6.12-1.21.24-1.84.37-.63.09-1.28.19-1.94.28-.33.05-.66.1-.99.15-.34.04-.68.06-1.02.09-.68.06-1.37.13-2.07.19-.7.02-1.4.05-2.08.07-.34.01-.68.03-1.02.04-.34,0-.67-.02-1.01-.03-.67-.01-1.32-.02-1.96-.03-.64-.02-1.27-.09-1.88-.13-.61-.04-1.21-.08-1.79-.12-.58-.07-1.14-.14-1.69-.21-.55-.06-1.08-.12-1.59-.17-.51-.08-.99-.16-1.46-.23-.93-.15-1.8-.25-2.53-.36-.36-.06-.7-.11-1.02-.16-.32-.05-.61-.11-.87-.14-.54-.07-.96-.13-1.27-.12-.31,0-.51.07-.57.2-.06.13.01.32.22.56.21.24.54.55,1.02.86.24.16.5.34.8.51.31.16.64.33,1.01.51.73.34,1.57.64,2.5.99.47.17.96.35,1.48.52.53.14,1.08.28,1.64.43.57.14,1.16.29,1.77.44.62.12,1.26.21,1.91.32.66.09,1.33.22,2.02.28.7.05,1.41.09,2.13.14.36.02.73.04,1.1.06.37,0,.74-.01,1.12-.02.75-.02,1.51-.04,2.28-.05Z"/>
                <path class="cls-33" d="m53,97.05c.73-.07,1.45-.15,2.16-.22.35-.04.71-.08,1.06-.12.35-.05.69-.12,1.03-.19.68-.13,1.34-.26,2-.39.65-.14,1.27-.34,1.88-.5,2.45-.67,4.54-1.54,6.24-2.41,3.41-1.71,5.15-3.36,4.89-3.81-.27-.5-2.45.24-5.91,1.2-1.72.49-3.79,1.04-6.08,1.47-.58.11-1.16.24-1.76.34-.6.09-1.22.17-1.85.26-.31.04-.63.1-.95.14-.32.03-.64.05-.97.08-.65.06-1.31.12-1.98.19-2.68.11-5.25.15-7.59-.04-.59-.04-1.16-.08-1.71-.11-.28,0-.55-.04-.82-.08-.27-.03-.53-.06-.79-.1-.52-.06-1.03-.11-1.51-.17-.24-.02-.48-.05-.72-.07-.23-.04-.46-.07-.68-.11-.89-.14-1.7-.25-2.42-.33-.73-.06-1.32-.18-1.84-.21-1.01-.13-1.64-.1-1.75.14-.11.26.32.71,1.23,1.31.46.27,1.06.62,1.75.89.69.29,1.49.6,2.39.92.22.08.45.16.69.25.24.07.48.13.73.2.5.13,1.02.27,1.57.41.27.07.55.14.83.21.28.07.57.14.86.18.59.1,1.2.19,1.82.29,2.5.41,5.3.49,8.22.37Z"/>
                <path class="cls-8" d="m52.99,96.95c.69-.07,1.37-.14,2.05-.21.67-.07,1.34-.14,1.98-.28,1.29-.25,2.53-.46,3.68-.82.58-.17,1.14-.33,1.68-.49.54-.18,1.05-.37,1.55-.56.5-.17.97-.39,1.42-.58.45-.2.89-.38,1.29-.59.81-.4,1.53-.78,2.14-1.16.61-.37,1.13-.71,1.52-1.04.8-.63,1.17-1.09,1.05-1.33-.12-.22-.71-.2-1.68,0-.48.12-1.06.26-1.72.43-.66.19-1.41.38-2.24.6-.41.12-.85.22-1.3.33-.45.11-.91.25-1.4.35-.49.11-.99.23-1.5.35-.52.1-1.05.2-1.6.3-1.08.25-2.25.37-3.44.56-.59.11-1.21.14-1.83.2-.62.06-1.25.12-1.89.18-5.11.3-9.76-.15-13.17-.53-.84-.13-1.62-.24-2.3-.31-.68-.08-1.3-.1-1.77-.15-.48-.04-.88-.04-1.16-.01-.28.02-.45.09-.5.21-.05.12.03.29.23.5.2.2.53.43.98.7.45.28,1,.5,1.66.79.66.27,1.42.57,2.27.88.86.25,1.82.51,2.85.77.26.06.52.13.79.19.27.05.55.09.82.14.56.09,1.14.18,1.73.28.3.04.6.09.9.14.31.03.62.05.93.07.63.04,1.27.09,1.92.13.65.06,1.32.03,1.99.02.68-.02,1.36-.03,2.06-.05Z"/>
                <path class="cls-9" d="m52.99,96.86c5.26-.35,9.87-1.79,12.94-3.23,3.1-1.45,4.72-2.85,4.51-3.27-.23-.46-2.21.12-5.36.9-3.15.79-7.47,1.73-12.32,2.05-.61.02-1.21.04-1.8.06-.3.01-.59.02-.88.04l-.44.02h-.43c-.57-.02-1.14-.03-1.69-.04-.55-.01-1.1.01-1.62-.05-1.05-.08-2.06-.13-3.01-.19-.94-.11-1.82-.2-2.63-.27-3.22-.39-5.29-.57-5.44-.12-.17.48,1.69,1.54,4.93,2.59.82.24,1.72.48,2.7.73.98.2,2.05.36,3.17.54.56.1,1.14.12,1.73.17.59.04,1.2.08,1.82.12.15,0,.31.02.46.03h.47c.31-.01.63-.02.95-.02.64-.02,1.29-.03,1.94-.05Z"/>
                <path class="cls-28" d="m52.98,96.76c4.95-.32,9.31-1.62,12.23-2.96.74-.32,1.38-.66,1.94-.97.28-.16.54-.3.77-.45.23-.15.44-.29.62-.43.74-.54,1.09-.93.99-1.15-.42-.91-7.56,2.04-16.76,2.6-1.15.02-2.27.09-3.36.11-1.09-.02-2.14-.03-3.14-.05-1-.07-1.95-.13-2.85-.17-.45,0-.88-.08-1.29-.11-.42-.04-.82-.08-1.2-.11-1.54-.09-2.77-.29-3.66-.3-.89-.02-1.42.07-1.48.29-.07.22.34.56,1.15.98.81.41,2,.96,3.55,1.37.39.11.79.22,1.22.34.43.11.86.25,1.33.32.93.17,1.93.34,2.99.5,1.06.11,2.18.18,3.35.25,1.16.03,2.37-.02,3.61-.05Z"/>
                <path class="cls-20" d="m52.98,96.66c1.16-.11,2.29-.23,3.37-.37,1.08-.2,2.12-.41,3.1-.62.97-.27,1.89-.54,2.74-.81.84-.29,1.62-.59,2.31-.89,2.78-1.21,4.28-2.37,4.11-2.76-.18-.41-1.97.01-4.8.63-.71.15-1.48.31-2.31.49-.83.14-1.71.3-2.64.48-.94.13-1.91.25-2.92.41-1.02.09-2.07.19-3.15.28-1.08.03-2.14.07-3.16.12-1.02-.02-2.01-.04-2.96-.04-.94-.03-1.84-.11-2.68-.14-.42-.03-.83-.02-1.22-.07-.39-.04-.77-.07-1.13-.11-.72-.06-1.38-.11-1.96-.13-.58-.04-1.08-.09-1.5-.1-.83-.02-1.33.07-1.39.28-.06.21.33.53,1.09.92.38.19.85.43,1.41.63.57.19,1.22.39,1.94.6.37.1.75.21,1.14.32.4.12.82.17,1.26.26.88.15,1.81.33,2.81.45,1,.08,2.05.16,3.14.23,1.09,0,2.23-.03,3.39-.06Z"/>
                <path class="cls-29" d="m52.97,96.56c1.08-.1,2.14-.22,3.16-.34,1.01-.18,1.98-.38,2.9-.57,1.82-.47,3.44-.97,4.74-1.53,1.3-.55,2.32-1.08,2.98-1.53.67-.45.99-.78.91-.98-.34-.82-6.74,1.49-14.88,1.99-4.07.27-7.77.01-10.48-.13-.67-.06-1.29-.1-1.84-.12-.54-.03-1.02,0-1.41-.03-.78-.02-1.24.06-1.29.26-.05.2.32.5,1.03.87.35.2.81.35,1.34.53.53.18,1.14.37,1.82.56,2.73.7,6.66,1.32,11.01,1.03Z"/>
                <path class="cls-18" d="m52.96,96.46c1.01-.1,1.99-.2,2.94-.32.94-.13,1.84-.35,2.7-.52.43-.09.85-.18,1.24-.31.4-.12.78-.24,1.16-.35.74-.23,1.43-.45,2.04-.71,1.23-.48,2.17-.99,2.81-1.37.63-.41.93-.73.86-.91-.29-.72-6.32,1.22-13.92,1.71-3.81.24-7.26.03-9.81-.03-1.26-.11-2.3-.15-3.03-.12-.74.05-1.16.09-1.2.29-.04.18.29.49.98.77.68.3,1.69.64,2.96,1,2.56.58,6.22,1.12,10.27.86Z"/>
                <path class="cls-25" d="m52.96,96.36c3.75-.25,7.07-1.12,9.36-1.96.57-.23,1.08-.45,1.52-.65.44-.2.81-.42,1.1-.6.59-.36.88-.64.82-.81-.06-.16-.47-.21-1.14-.14-.34.03-.74.1-1.21.17-.47.07-1,.16-1.58.27-2.33.36-5.5.91-9.04,1.14-.89.02-1.75.06-2.59.1-.21,0-.42.03-.62.03-.21,0-.41,0-.61,0-.4,0-.8,0-1.18,0-1.55.05-2.93-.09-4.12-.09-.3,0-.58,0-.84-.01-.27-.01-.52-.03-.75-.04-.47-.02-.88-.02-1.22,0-.68.03-1.08.13-1.12.3-.04.17.29.41.93.68.32.14.71.29,1.17.44.23.07.48.15.74.24.26.08.55.13.85.2,1.2.24,2.63.57,4.25.66.41.03.82.06,1.24.1.21.01.43.03.64.04.22,0,.44,0,.66,0,.88,0,1.8-.02,2.74-.05Z"/>
                <path class="cls-12" d="m52.95,96.26c1.72-.17,3.36-.32,4.82-.68,1.47-.27,2.75-.71,3.82-1.07.54-.17,1-.38,1.41-.57.41-.19.75-.36,1.03-.52.55-.34.82-.59.77-.75-.05-.16-.43-.19-1.05-.13-.31.02-.69.06-1.13.12-.43.06-.92.15-1.46.22-1.08.14-2.34.4-3.76.54-1.41.22-2.97.3-4.6.47-6.55.37-11.92-.31-12.06.35-.03.16.28.38.86.63.29.13.66.26,1.09.41.43.12.93.23,1.48.35.55.12,1.16.24,1.81.35.66.1,1.36.15,2.11.22,1.49.17,3.14.11,4.86.07Z"/>
                <path class="cls-31" d="m52.94,96.16c.79-.07,1.55-.16,2.29-.25.37-.05.73-.08,1.09-.14.35-.07.69-.14,1.03-.21.67-.14,1.3-.28,1.89-.42.58-.18,1.12-.35,1.61-.52.49-.17.93-.33,1.31-.48.37-.17.69-.33.95-.47.51-.29.77-.51.72-.66-.2-.6-5.02.58-11.03.99-.75.02-1.49.05-2.2.08-.36.01-.7.04-1.05.05-.34,0-.68,0-1,0-.65,0-1.28,0-1.86.02-.29.02-.58,0-.85,0-.27,0-.53-.01-.78-.02-1-.02-1.82.02-2.39.06-.57.03-.9.11-.93.26-.03.15.26.35.8.58.54.22,1.35.41,2.36.64.25.05.52.11.8.16.28.05.57.11.87.14.6.07,1.25.13,1.93.18.34.03.69.05,1.05.08.36.01.72,0,1.1,0,.75,0,1.52-.02,2.31-.04Z"/>
                <path class="cls-11" d="m52.94,96.06c.71-.07,1.41-.14,2.08-.22.34-.04.66-.08.99-.12.32-.04.63-.12.94-.18,1.21-.27,2.31-.48,3.19-.82.89-.31,1.6-.58,2.07-.83.46-.26.7-.47.66-.6-.04-.13-.35-.18-.87-.14-.52.01-1.27.08-2.17.2-.89.16-1.97.22-3.16.38-.3.03-.6.09-.91.11-.31.02-.63.05-.95.07-.65.05-1.31.11-2,.18-.69.02-1.36.04-2,.08-.65.03-1.27.08-1.87.06-.6,0-1.16,0-1.7.02-.27,0-.52.02-.77.02-.25.01-.49,0-.71,0-1.82-.03-2.98.09-3.02.35-.04.28,1.06.65,2.89,1.04.23.04.47.11.72.14.25.03.52.06.79.09.55.06,1.13.12,1.75.17.62.07,1.27.06,1.95.06.68,0,1.38-.02,2.09-.04Z"/>
                <path class="cls-4" d="m52.93,95.97c.64-.06,1.27-.13,1.87-.2.3-.04.6-.07.89-.11.29-.03.57-.08.84-.14,1.09-.24,2.07-.45,2.88-.7,1.6-.55,2.54-1.01,2.48-1.24-.07-.24-1.12-.21-2.73,0-.82.08-1.79.16-2.85.3-.27.04-.54.06-.82.08-.28.02-.57.04-.86.06-.58.05-1.18.1-1.8.16-1.24.02-2.42.11-3.49.15-1.07,0-2.05.02-2.87.07-1.64,0-2.68.08-2.71.33-.03.24.96.59,2.62.92.83.12,1.83.23,2.94.32,1.11.06,2.34.02,3.63,0Z"/>
              </g>
            </g>
            <path class="cls-35" d="m26.96,14.98c0,7.34,10.69,13.3,23.87,13.3s23.87-5.95,23.87-13.3S64.01,1.68,50.83,1.68s-23.87,5.95-23.87,13.3Z"/>
          </g>
          <text class="cls-41" transform="translate(40.74 36.93)"><tspan x="0" y="0">pH</tspan></text>
        </g>
      </g>
    </g>
  </g>
</svg>