<?xml version="1.0" encoding="UTF-8"?>
<svg id="Layer_2" data-name="Layer 2" xmlns="http://www.w3.org/2000/svg" viewBox="0 0 87.49 52.64">
  <defs>
    <style>
      .cls-1 {
        fill: #ba0017;
      }

      .cls-2 {
        fill: #21190a;
      }

      .cls-3, .cls-4 {
        fill: #273333;
      }

      .cls-5 {
        fill: #f5eed2;
      }

      .cls-6, .cls-7 {
        fill: none;
      }

      .cls-8 {
        fill: #505b5f;
      }

      .cls-4 {
        stroke: #070102;
        stroke-miterlimit: 10;
      }

      .cls-7 {
        opacity: .53;
      }

      .cls-9 {
        fill: #dd0012;
      }

      .cls-10 {
        fill: #f1cd1f;
      }
    </style>
  </defs>
  <g id="_图层_1" data-name="图层 1">
    <g id="_图层_4" data-name="图层 4">
      <g>
        <path class="cls-1" d="m66.64,47.17h-3.68c5.73,0,10.95-2.35,14.73-6.12,3.78-3.78,6.12-8.99,6.12-14.73,0-11.47-9.38-20.85-20.85-20.85h3.68c11.47,0,20.85,9.38,20.85,20.85,0,5.73-2.35,10.95-6.12,14.73-3.78,3.78-8.99,6.12-14.73,6.12Z"/>
        <path class="cls-9" d="m62.96,47.17H8.99c-.72,0-1.43-.04-2.12-.11,0,0-.01,0-.02,0-3.88-.64-6.86-4.02-6.86-8.07V13.65c0-4.05,2.98-7.43,6.86-8.07,0,0,0,0,.02,0,.69-.07,1.41-.11,2.12-.11h53.96c3.09,0,6.02.68,8.67,1.9-1.6-.37-3.27-.57-4.99-.57H12.67c-.72,0-1.43.03-2.12.1,0,0-.01,0-.02,0-3.88.6-6.86,3.77-6.86,7.56v23.73c0,3.79,2.98,6.96,6.86,7.56,0,0,0,0,.02,0,.69.07,1.41.1,2.12.1h53.96c1.72,0,3.39-.2,4.99-.57-2.65,1.22-5.58,1.9-8.67,1.9Z"/>
        <path class="cls-9" d="m66.64,45.84H12.67c-.72,0-1.43-.03-2.12-.1,0,0-.01,0-.02,0-3.88-.6-6.86-3.77-6.86-7.56V14.46c0-3.79,2.98-6.96,6.86-7.56,0,0,0,0,.02,0,.69-.07,1.41-.1,2.12-.1h53.96c1.72,0,3.39.2,4.99.57,7.17,3.31,12.18,10.57,12.18,18.95,0,5.73-2.35,10.95-6.12,14.73-1.74,1.74-3.79,3.18-6.05,4.22-1.6.38-3.27.57-4.99.57Z"/>
        <path class="cls-3" d="m3.74,39c-.04-.29-.06-.6-.06-.91V14.37c0-.29.02-.58.05-.86l3.97,1.6c1.45,3.07,2.32,7.02,2.32,11.35,0,4.1-.78,7.87-2.1,10.87l-4.18,1.68Z"/>
        <ellipse class="cls-5" cx="75.22" cy="12.32" rx="1.23" ry="3.37" transform="translate(8.47 49.12) rotate(-38.17)"/>
        <ellipse class="cls-5" cx="75.22" cy="40.29" rx="3.37" ry="1.23" transform="translate(-2.94 74.53) rotate(-51.83)"/>
        <ellipse class="cls-10" cx="7.8" cy="11.05" rx="3.37" ry="1.23" transform="translate(-5.71 10.36) rotate(-51.83)"/>
        <ellipse class="cls-10" cx="8.07" cy="41.3" rx="1.23" ry="3.37" transform="translate(-23.8 13.82) rotate(-38.17)"/>
        <path class="cls-3" d="m62.73,38.71c.38-.57.73-1.15,1.06-1.75.71-1.3,1.3-2.67,1.75-4.09.65-2.09,1-4.28,1-6.55,0-4-1.09-7.79-3.01-11.12-.9-1.55-1.98-3-3.21-4.33l-13.88,1.24v28.42l13.88,1.24c.89-.96,1.7-1.98,2.41-3.06Zm-16.18-11.61l18.88,5.74c-.44,1.41-1.03,2.78-1.75,4.09l-17.14-5.21v-4.62Z"/>
        <path class="cls-2" d="m60.39,41.84c.44-.48.87-.98,1.28-1.49.4-.51.79-1.04,1.15-1.58.39-.58.74-1.17,1.07-1.77.72-1.32,1.3-2.69,1.74-4.09.67-2.13,1.01-4.35,1.01-6.58,0-3.88-1.05-7.74-3.03-11.17-.9-1.54-1.98-3.01-3.22-4.35l-.04-.04-14.03,1.25v28.62l14.03,1.25.04-.04Zm-13.85-29.64l13.73-1.22c1.22,1.32,2.28,2.76,3.16,4.27,1.96,3.4,3,7.22,3,11.06,0,2.17-.33,4.33-.97,6.4-.01.04-.02.08-.04.12-.44,1.41-1.03,2.78-1.75,4.09-.32.58-.67,1.16-1.04,1.72-.7,1.05-1.5,2.07-2.37,3.01l-13.73-1.22V12.21Z"/>
        <path class="cls-8" d="m63.68,36.94l-17.14-5.21v-4.62l18.88,5.74c-.44,1.41-1.03,2.78-1.75,4.09Z"/>
        <path class="cls-3" d="m32.87,11l4.32-4.2h20.63c-2.94,1.69-6.51,2.39-9.81,2.99-4.74.85-10.35,1.12-15.14,1.21Z"/>
        <path class="cls-3" d="m21.34,10.98c-2.36-.05-4.8.05-7.04-.85-1.04-.42-2.09-1.09-2.56-2.15-.03-.06-.36-1.19-.23-1.19h23.91l-4.36,4.23c-.31,0-.62,0-.93,0-2.93.02-5.86,0-8.79-.06Z"/>
        <path class="cls-3" d="m32.82,41.64l4.32,4.2c10.36,0,20.63,0,20.63,0-2.94-1.69-6.51-2.39-9.81-2.99-4.74-.85-10.35-1.12-15.14-1.21Z"/>
        <path class="cls-3" d="m21.29,41.66c-2.36.05-4.8-.05-7.04.85-1.04.42-2.09,1.09-2.56,2.15-.03.06-.36,1.19-.23,1.19h23.91s-4.36-4.23-4.36-4.23c-.31,0-.62,0-.93,0-2.93-.02-5.86,0-8.79.06Z"/>
        <path class="cls-6" d="m30.27,10.86l4.18-4.06h2.49l-4.15,4.03c-.84.02-1.68.02-2.53.03Z"/>
        <ellipse class="cls-9" cx="64.75" cy="3.4" rx="1.07" ry="4.24" transform="translate(11.74 40.74) rotate(-38.17)"/>
        <ellipse class="cls-9" cx="64.75" cy="49.24" rx="4.24" ry="1.07" transform="translate(-13.98 69.72) rotate(-51.83)"/>
        <polyline class="cls-6" points="65.42 32.84 65.53 32.88 65.63 32.91"/>
        <polyline class="cls-6" points="46.33 27.03 46.43 27.07 46.54 27.1"/>
        <polyline class="cls-6" points="63.68 36.94 63.78 36.97 63.89 37"/>
        <polyline class="cls-6" points="46.33 31.66 46.43 31.69 46.54 31.72"/>
        <rect class="cls-4" x="20.03" y="17.86" width="28.75" height="16.79" transform="translate(60.67 -8.15) rotate(90)"/>
        <g class="cls-7">
          <rect class="cls-1" x="67.8" y="17.38" width="13.11" height=".53" transform="translate(-2.06 16.55) rotate(-12.53)"/>
        </g>
        <g class="cls-7">
          <rect class="cls-1" x="74.48" y="28.71" width=".53" height="13.11" transform="translate(24.11 100.58) rotate(-77.47)"/>
        </g>
      </g>
    </g>
  </g>
</svg>