<?xml version="1.0" encoding="UTF-8"?>
<svg xmlns="http://www.w3.org/2000/svg" xmlns:xlink="http://www.w3.org/1999/xlink" viewBox="0 0 119.42 119.42">
  <defs>
    <style>
      .cls-1 {
        fill: url(#radial-gradient);
      }

      .cls-1, .cls-2, .cls-3, .cls-4, .cls-5 {
        mix-blend-mode: screen;
      }

      .cls-6 {
        filter: url(#outer-glow-2);
        font-family: Lobster-Regular, Lobster;
        font-size: 31.05px;
      }

      .cls-6, .cls-7 {
        fill: #f7f7f7;
      }

      .cls-8 {
        letter-spacing: -.01em;
      }

      .cls-9 {
        fill: url(#radial-gradient-4);
      }

      .cls-10 {
        letter-spacing: -.01em;
      }

      .cls-11 {
        letter-spacing: 0em;
      }

      .cls-12 {
        letter-spacing: 0em;
      }

      .cls-13 {
        letter-spacing: -.03em;
      }

      .cls-14 {
        fill: #e6e6e6;
      }

      .cls-15 {
        letter-spacing: 0em;
      }

      .cls-16 {
        letter-spacing: -.02em;
      }

      .cls-17 {
        fill: #00dcf9;
        filter: url(#outer-glow-1);
        font-family: P22MuschampPro, 'P22 Muschamp Pro';
        font-size: 16.28px;
      }

      .cls-18 {
        isolation: isolate;
      }

      .cls-18, .cls-3 {
        fill: none;
      }

      .cls-2 {
        fill: #1a1a1a;
      }

      .cls-19 {
        fill: url(#radial-gradient-3);
      }

      .cls-4 {
        fill: url(#radial-gradient-2);
      }

      .cls-20 {
        letter-spacing: -.09em;
      }

      .cls-21 {
        letter-spacing: 0em;
      }

      .cls-22 {
        fill: #f2f2f2;
      }

      .cls-23 {
        fill: #e24949;
      }

      .cls-5 {
        fill: #333;
      }
    </style>
    <radialGradient id="radial-gradient" cx="-4432.56" cy="-2113.87" fx="-4432.56" fy="-2113.87" r="97.76" gradientTransform="translate(-4373.98 -2020.05) rotate(-180)" gradientUnits="userSpaceOnUse">
      <stop offset="0" stop-color="#000"/>
      <stop offset=".18" stop-color="#030303"/>
      <stop offset=".32" stop-color="#0d0d0d"/>
      <stop offset=".45" stop-color="#1e1e1e"/>
      <stop offset=".58" stop-color="#363636"/>
      <stop offset=".7" stop-color="#555"/>
      <stop offset=".82" stop-color="#7b7b7b"/>
      <stop offset=".93" stop-color="#a8a8a8"/>
      <stop offset="1" stop-color="#c7c7c7"/>
    </radialGradient>
    <radialGradient id="radial-gradient-2" cx="-4434.73" cy="-2060.58" fx="-4434.73" fy="-2060.58" r="99.64" gradientTransform="translate(-4373.98 -2020.05) rotate(-180)" gradientUnits="userSpaceOnUse">
      <stop offset="0" stop-color="#000"/>
      <stop offset=".38" stop-color="#020202"/>
      <stop offset=".55" stop-color="#090909"/>
      <stop offset=".68" stop-color="#161616"/>
      <stop offset=".79" stop-color="#282828"/>
      <stop offset=".88" stop-color="#404040"/>
      <stop offset=".97" stop-color="#5c5c5c"/>
      <stop offset="1" stop-color="#696969"/>
    </radialGradient>
    <radialGradient id="radial-gradient-3" cx="-467.73" cy="309.3" fx="-467.73" fy="309.3" r="68.54" gradientTransform="translate(673.28 -190.69) scale(1.31 .92)" gradientUnits="userSpaceOnUse">
      <stop offset="0" stop-color="#000"/>
      <stop offset=".67" stop-color="#595959"/>
      <stop offset="1" stop-color="gray"/>
    </radialGradient>
    <radialGradient id="radial-gradient-4" cx="-4510.56" cy="-2861.75" fx="-4510.56" fy="-2861.75" r="82.55" gradientTransform="translate(-4299.94 -1605.87) rotate(-180) scale(.97 .57)" gradientUnits="userSpaceOnUse">
      <stop offset="0" stop-color="#474747"/>
      <stop offset=".52" stop-color="#757575"/>
      <stop offset="1" stop-color="#9c9c9c"/>
    </radialGradient>
    <filter id="outer-glow-1" filterUnits="userSpaceOnUse">
      <feOffset dx="0" dy="0"/>
      <feGaussianBlur result="blur" stdDeviation="4"/>
      <feFlood flood-color="#8bdcf2" flood-opacity=".74"/>
      <feComposite in2="blur" operator="in"/>
      <feComposite in="SourceGraphic"/>
    </filter>
    <filter id="outer-glow-2" filterUnits="userSpaceOnUse">
      <feOffset dx="0" dy="0"/>
      <feGaussianBlur result="blur-2" stdDeviation="4"/>
      <feFlood flood-color="#8bdcf2" flood-opacity=".74"/>
      <feComposite in2="blur-2" operator="in"/>
      <feComposite in="SourceGraphic"/>
    </filter>
  </defs>
  <g class="cls-18">
    <g id="Layer_2" data-name="Layer 2">
      <g id="_图层_1" data-name="图层 1">
        <g>
          <g>
            <path class="cls-1" d="m0,59.71C0,26.73,26.73,0,59.71,0s59.71,26.73,59.71,59.71-26.73,59.71-59.71,59.71S0,92.69,0,59.71Z"/>
            <path class="cls-4" d="m0,59.71C0,26.73,26.73,0,59.71,0s59.71,26.73,59.71,59.71-26.73,59.71-59.71,59.71S0,92.69,0,59.71Z"/>
            <g>
              <path class="cls-2" d="m110.54,87.4c-.34.3-.66.35-1.05.78.94-3.79,3.39-7.35,3.87-11.28-.18.09-.3.27-.48.37.07-2.96,1.4-6.4,1.73-9.33.37-2.99.83-7.29.63-10.18-1.16.07-.99,5.7-1.42,7.7-1.17-2.79,1.95-14.8-.13-16.66-1.06,5.09.42,11.89-1.01,17.13-1.55-3.14.11-13.93-.14-18.52-.21-4.62-.82-17.47-4.29-20.73.09,2.89.89,6.14.85,8.83-1.55-1.94-1.36-5.9-3.5-7.28-.95,3.03,1.13,5.45,2.35,8.32,1.23,2.85,2.18,6.53,2.12,9.61-.45-.7-.91-1-1.21-1.96-.24,2.68.83,5.9.94,8.64.18,3.91.22,8.24-.05,12.14-.65,9.43-4.09,18.65-11.02,25.85.27-.72.8-1.24,1.22-1.83,4.79,4.98-7.8,11.58-10.18,14.85,2.86,0,5.77-2.65,7.78-4.48.22,2.92-4.41,5.5-6.28,7.5,3.76-.11,8.46-5.15,10.91-7.84,3.22-3.29,6.81-7.33,8.35-11.63Z"/>
              <path class="cls-5" d="m94.95,17.66c-2.89-2.88-5.91-5.65-9.17-6.93.86.57,1.65,1.26,2.23,1.95-2.37-.98-4.34-2.96-6.71-3.9-2.9-1.18-6.49-1.85-9.43-2.21,7,2.51,15.11,4.44,20.19,10.8.43.54.97,1.79,1.49,2.25.78.68,1.44.71,1.85,1.03,1.54,1.23,2.73,2.16,3.91,4.22.91,1.39,4.85,10.5,6.59,8.23,1.49-1.8-3.15-8.99-4.72-10.2-.53,1.25.56,2.74,1.34,4.15-2.93-1.05-5.18-7.09-7.56-9.37Z"/>
              <path class="cls-5" d="m67.08,7.14c1.74.52,11.51,2.6,7.62-.64-1.71-1.33-12.74-1.72-9.15-3.28-3.15-1.22-12.68.49-16.5,1.09-4.7.71-10.51.97-14.33,3.86,1.05,1.51,5.49-.33,7.47-.28-.87,1.6-5.16,2.26-3.24,3.83,1.33,1.09,6.9-.03,8.76-.36,3.49-.64,6.85-1.72,8.97-3.55,1.19-1.03,1.28-2.11,3.31-2.41,2.4-.37,5.04,1.08,7.09,1.73Z"/>
              <path class="cls-5" d="m16.44,27.78c1.63-2.16,3.34-4.41,5.28-6.38,1.37-1.42,4.77-2.97,5.81-4.55,3.25-4.95-4.37-.78-5.69,0,1.38-3.5,6.27-5.04,9.67-5.88,4.36-1.04,6.04.59,2.2,3.92-3.07,2.72-6.46,5.03-9.19,8.22-2.69,2.95-8.74,10.01-11.11,10.89.12-2.05,2.07-3.19,2.45-5.19-.88.01-1.87.4-2.63.85-.19-1.68,1.59-4.11,2.98-4.72,1.83-.81,1.34-.03,1.26,1.73-.35.36-.7.73-1.04,1.09Z"/>
              <path class="cls-2" d="m13.05,31.96c-1.35,2.48-3.05,4.43-3.97,6.97-2.05,5.52-3.24,12.95-3.12,18.65.07,3.63,1.21,6.83,2.49,1.78,1.64-6.38,1.74-12.99,4.62-19.67,1.78-4.23,6.36-10.01,5.97-14.56-2.77-.27-4.71,4.44-5.98,6.83Z"/>
              <path class="cls-2" d="m4.56,58.8c.25-2.71.66-5.44.56-8.26-.1-2.61-.3-5.19-.39-7.79-.26-6.33-1.79,1.01-2.09,3.95-.54,4.65-.11,9.84-.32,14.45-.12,3.66-.96,9.94.45,13.27.03.14,1.35-5.34,1.47-6.07.44-3.01.03-6.42.32-9.56Z"/>
              <path class="cls-2" d="m7.85,84.92c-.22-1.01-.28-1.1-.72-1.94.45,3.17,3.56,7.13,5.62,9.46,2.31,2.68,3.38,5.14,5.08,8.04-.4-1.51-1.3-3.67-.63-4.83,3.24,2.08,6.06,6.22,9.38,8.42-2.14-3.59-5.66-7.15-8.85-10.71-3.27-3.7-4.74-6.3-6.5-10.79-1.35-3.55-2.76-4.33-4.7-6.72-2.46-3.14-2.11-6.34-2.8-10.36-4.25.77,2.97,16.19,4.13,19.43Z"/>
              <path class="cls-5" d="m7.47,36.23c-.41,3.18-1.9,5.19-1.74,8.69,1.69.35,2.6-5.02,3.39-7.37,1.05-3.08,2.56-6.09,5.38-7.08-1.21,5.73,2.74.36,4.29-1.9,1.01-1.77,7.69-8.06,7.77-9.37-.05-4.35-8.42,5.05-9.17,5.24-2.48,0,2.71-6.67,3.14-7.81-4.02-.27-9.37,9.46-11.15,12.96-1.97,3.39-3.35,6.9-4.25,10.59.69-1.31,1.48-2.63,2.34-3.95Z"/>
              <path class="cls-2" d="m49.54,112.3c-3.12-1.12-7.57-5.28-11.53-5.16,1.31,2.13,3.66,2.71,5.86,3.78-2.54,2.84-8.28-3.29-12-3.35-1.48.14,3.82,3.73,4.06,3.75,2.5,1.2,5.15,1.72,7.76,2.46,6.4,1.74,11.45,2.8,17.56.89-2.88-1.57-8.17-1.01-11.71-2.38Z"/>
              <path class="cls-2" d="m62.7,117.16c4.29-.16,8.87-.91,13.21-1.83,2.13-.45,5.9-1.02,6.58-2.9.87-2.49-5.17.3-7.27.96-3.25,1.08-5.25,1.45-8.68,1.41-.15-.65.69-1.37,1.34-1.89-2.49-.15-4.89.5-7.35.6-2.17.09-4.01-.26-6.15-.39-3.06-.19-6-.02-9.05-.39-1.2-.12-5.62-1.35-6.51-.62-2.39,2.02,7.71,2.38,8.93,2.51,1.3.17,10.72,1.13,5.64,1.89,1.24.69,5.64.53,7.6.41,1.36-.09,2.85-.48,4.34-.56,2.12-.12,4.17.13,6.29-.17-3.02.37-6,.69-8.92.98Z"/>
              <path class="cls-2" d="m99.36,100.86c-4.89.68-9.55,6.31-14.54,7.19,1.78-4.71-8.96,1.82-11.36,2.56-2.48.99-12.02,3.21-11.04,4.87.3.59,9.43.1,18.71-2.82,9.23-2.72,18.6-7.87,18.23-11.79Z"/>
              <path class="cls-5" d="m96.85,15.11c-2.8-3.25-7.36-6.64-11.76-7.43-4.81-.89-3.98,1.56-.44,3.44,3.77,2.01,7.58,2.66,9.94,6.1-1.72-.6-10.25-5.15-11.65-2.93-1.02,1.6,10.41,6.22,11.71,7.27,4.24,2.86,7.22,6.89,10.2,10.94,2.02,2.75,4.41,7.16,6.95,6.98-1.09-2.6-2.92-4.84-3.52-7.88,1.09.14,2.17.4,3.15.57.74.12-2.1-3.45-2.19-3.5-1.16-1.18-1.95-1.57-3.18-3.09-2.86-3.53-6.21-7.08-9.21-10.49Z"/>
              <path class="cls-5" d="m61.89,2.86c-3.38,1.35.16,1.52,2.73,1.69,2.5.18,5.18.13,7.31,1.09-1.37,1.1-7.94.47-5.56,2.86,1.03,1.05,4.48.99,5.88,1.11,3.28.26,5.65.56,8.8,1.55,2.87.86,6.43,4.51,9.29,4.84,4.06.39-.9-4.69-2.55-6.11-5.56-5.34-19.34-9.71-25.92-7.03Z"/>
              <path class="cls-5" d="m30.78,19.83c5.58-1.09,12.96-5.95,18.38-7.9,4.89-1.81,6.2-3.33.04-3.46-5.4-.1-13.45,1.27-18.23,4.14,1.68-.32,3.26-1.19,4.93-1.66-7.25,4.07-16.42,1.48-19.8,10.8,2.36-.06,4.76-1.97,7.29-2.44-.33,1.47-1.7,2.8-2.62,4.26,3.5-.3,6.78-4.66,10.74-4.65l-.72.92Z"/>
              <path class="cls-5" d="m108.31,46.79c.5,5.66,4.57,13.51,5.94,19.1,1.29,5.05,2.67,6.52,3.44.4.66-5.36.14-13.51-2.22-18.56.14,1.71.84,3.37,1.14,5.07-3.29-7.63.24-16.48-8.68-20.81-.19,2.35,1.47,4.94,1.67,7.5-1.43-.48-2.61-1.99-3.96-3.05-.06,3.52,3.93,7.23,3.51,11.16l-.83-.81Z"/>
            </g>
            <g class="cls-3">
              <path class="cls-19" d="m94.2,96.77c-6.2-1.69-19.39,5.81-34.49,5.08-15.1.73-28.29-6.77-34.49-5.08-2.74.96-3.4,6.09,2.34,11.62,5.42,5.42,17.23,11.24,32.15,11.02,14.92.22,26.73-5.6,32.15-11.02,5.73-5.53,5.08-10.67,2.34-11.62Z"/>
            </g>
            <g class="cls-3">
              <path class="cls-9" d="m29.03,19.55c5.52,1.26,17.25-4.32,30.68-3.78,13.43-.54,25.16,5.03,30.68,3.78,2.44-.71,3.02-4.53-2.08-8.64-4.82-4.03-15.33-8.35-28.6-8.19-13.27-.16-23.78,4.16-28.6,8.19-5.1,4.11-4.52,7.92-2.08,8.64Z"/>
            </g>
          </g>
          <text class="cls-17" transform="translate(26.41 32.13)"><tspan class="cls-20" x="0" y="0">T</tspan><tspan class="cls-11" x="4.83" y="0">emp</tspan><tspan class="cls-10" x="27.27" y="0">e</tspan><tspan class="cls-11" x="33.73" y="0">r</tspan><tspan class="cls-13" x="39.25" y="0">a</tspan><tspan class="cls-15" x="44.25" y="0">tu</tspan><tspan class="cls-21" x="55.48" y="0">r</tspan><tspan x="60.84" y="0">e</tspan></text>
          <text class="cls-6" transform="translate(19.01 76.16)"><tspan class="cls-12" x="0" y="0">2</tspan><tspan class="cls-16" x="15.12" y="0">5</tspan><tspan class="cls-8" x="30.55" y="0">.</tspan><tspan x="38.4" y="0">6</tspan></text>
          <g>
            <rect class="cls-7" x="90.66" y="85.64" width="2.8" height=".39" transform="translate(184.12 171.67) rotate(180)"/>
            <rect class="cls-7" x="90.66" y="84.56" width="1.93" height=".39" transform="translate(183.24 169.51) rotate(180)"/>
            <rect class="cls-14" x="90.66" y="83.49" width="3.86" height=".39" transform="translate(185.17 167.36) rotate(180)"/>
            <rect class="cls-7" x="90.66" y="82.41" width="1.93" height=".39" transform="translate(183.24 165.2) rotate(180)"/>
            <rect class="cls-7" x="90.66" y="81.33" width="2.8" height=".39" transform="translate(184.12 163.04) rotate(180)"/>
            <rect class="cls-7" x="90.66" y="80.25" width="1.93" height=".39" transform="translate(183.24 160.89) rotate(180)"/>
            <rect class="cls-14" x="90.66" y="79.17" width="3.86" height=".39" transform="translate(185.17 158.73) rotate(180)"/>
            <rect class="cls-7" x="90.66" y="78.09" width="1.93" height=".39" transform="translate(183.24 156.57) rotate(180)"/>
            <rect class="cls-7" x="90.66" y="77.02" width="2.8" height=".39" transform="translate(184.12 154.42) rotate(180)"/>
            <rect class="cls-7" x="90.66" y="75.94" width="1.93" height=".39" transform="translate(183.24 152.26) rotate(180)"/>
            <rect class="cls-14" x="90.66" y="74.86" width="3.86" height=".39" transform="translate(185.17 150.1) rotate(180)"/>
            <rect class="cls-7" x="90.66" y="73.78" width="1.93" height=".39" transform="translate(183.24 147.95) rotate(180)"/>
            <rect class="cls-7" x="90.66" y="72.7" width="2.8" height=".39" transform="translate(184.12 145.79) rotate(180)"/>
            <rect class="cls-7" x="90.66" y="71.62" width="1.93" height=".39" transform="translate(183.24 143.63) rotate(180)"/>
            <rect class="cls-14" x="90.66" y="70.55" width="3.86" height=".39" transform="translate(185.17 141.48) rotate(180)"/>
            <rect class="cls-7" x="90.66" y="69.47" width="1.93" height=".39" transform="translate(183.24 139.32) rotate(180)"/>
            <rect class="cls-7" x="90.66" y="68.39" width="2.8" height=".39" transform="translate(184.12 137.16) rotate(180)"/>
            <rect class="cls-7" x="90.66" y="67.31" width="1.93" height=".39" transform="translate(183.24 135.01) rotate(180)"/>
            <rect class="cls-14" x="90.66" y="66.23" width="3.86" height=".39" transform="translate(185.17 132.85) rotate(180)"/>
            <rect class="cls-7" x="90.66" y="65.15" width="1.93" height=".39" transform="translate(183.24 130.69) rotate(180)"/>
            <rect class="cls-7" x="90.66" y="64.08" width="2.8" height=".39" transform="translate(184.12 128.54) rotate(180)"/>
            <rect class="cls-7" x="90.66" y="63" width="1.93" height=".39" transform="translate(183.24 126.38) rotate(180)"/>
            <rect class="cls-14" x="90.66" y="61.92" width="3.86" height=".39" transform="translate(185.17 124.22) rotate(180)"/>
            <rect class="cls-7" x="90.66" y="60.84" width="1.93" height=".39" transform="translate(183.24 122.07) rotate(180)"/>
            <rect class="cls-7" x="90.66" y="59.76" width="2.8" height=".39" transform="translate(184.12 119.91) rotate(180)"/>
            <rect class="cls-7" x="90.66" y="58.68" width="1.93" height=".39" transform="translate(183.24 117.75) rotate(180)"/>
            <rect class="cls-14" x="90.66" y="57.6" width="3.86" height=".39" transform="translate(185.17 115.59) rotate(180)"/>
            <rect class="cls-7" x="90.66" y="56.53" width="1.93" height=".39" transform="translate(183.24 113.44) rotate(180)"/>
            <rect class="cls-7" x="90.66" y="55.45" width="2.8" height=".39" transform="translate(184.12 111.28) rotate(180)"/>
            <rect class="cls-7" x="90.66" y="54.37" width="1.93" height=".39" transform="translate(183.24 109.12) rotate(180)"/>
            <rect class="cls-14" x="90.66" y="53.29" width="3.86" height=".39" transform="translate(185.17 106.97) rotate(180)"/>
            <rect class="cls-7" x="90.66" y="52.21" width="1.93" height=".39" transform="translate(183.24 104.81) rotate(180)"/>
            <rect class="cls-7" x="90.66" y="51.13" width="2.8" height=".39" transform="translate(184.12 102.65) rotate(180)"/>
            <rect class="cls-7" x="90.66" y="50.06" width="1.93" height=".39" transform="translate(183.24 100.5) rotate(180)"/>
            <rect class="cls-14" x="90.66" y="48.98" width="3.86" height=".39" transform="translate(185.17 98.34) rotate(180)"/>
            <rect class="cls-7" x="90.66" y="47.9" width="1.93" height=".39" transform="translate(183.24 96.18) rotate(180)"/>
            <rect class="cls-7" x="90.66" y="46.82" width="2.8" height=".39" transform="translate(184.12 94.03) rotate(180)"/>
            <rect class="cls-7" x="90.66" y="45.74" width="1.93" height=".39" transform="translate(183.24 91.87) rotate(180)"/>
            <rect class="cls-14" x="90.66" y="44.66" width="3.86" height=".39" transform="translate(185.17 89.71) rotate(180)"/>
            <path class="cls-7" d="m91.72,87.11h.87v-.39h-1.32c.16.12.31.25.45.39Z"/>
            <path class="cls-7" d="m92.4,87.8c.11.13.22.25.32.39h1.8v-.39h-2.12Z"/>
            <path class="cls-22" d="m96.71,70c0,.49-.18.76-.5.76-.28,0-.47-.26-.47-.74,0-.48.21-.75.5-.75s.47.27.47.73Zm-.78.02c0,.37.11.59.29.59.2,0,.29-.23.29-.6s-.09-.59-.29-.59c-.17,0-.29.21-.29.6Z"/>
            <g>
              <path class="cls-7" d="m95.53,65.15h0l-.25.13-.04-.15.31-.17h.17v1.44h-.19v-1.25Z"/>
              <path class="cls-7" d="m97.2,65.67c0,.49-.18.76-.5.76-.28,0-.47-.26-.47-.74,0-.48.21-.75.5-.75s.47.27.47.73Zm-.78.02c0,.37.11.59.29.59.2,0,.29-.23.29-.6s-.09-.59-.29-.59c-.17,0-.29.21-.29.6Z"/>
            </g>
            <g>
              <path class="cls-7" d="m95.18,62.06v-.12l.15-.15c.37-.35.53-.53.53-.75,0-.15-.07-.28-.28-.28-.13,0-.24.07-.3.12l-.06-.14c.1-.08.24-.15.41-.15.31,0,.44.21.44.42,0,.26-.19.48-.49.77l-.11.11h0s.64,0,.64,0v.16h-.92Z"/>
              <path class="cls-7" d="m97.26,61.33c0,.49-.18.76-.5.76-.28,0-.47-.26-.47-.74,0-.48.21-.75.5-.75s.47.27.47.73Zm-.78.02c0,.37.11.59.29.59.2,0,.29-.23.29-.6s-.09-.59-.29-.59c-.17,0-.29.21-.29.6Z"/>
            </g>
            <g>
              <path class="cls-7" d="m95.23,57.5c.06.04.18.09.32.09.25,0,.33-.16.32-.28,0-.2-.18-.29-.37-.29h-.11v-.15h.11c.14,0,.32-.07.32-.24,0-.11-.07-.22-.25-.22-.11,0-.23.05-.29.09l-.05-.14c.08-.06.22-.11.38-.11.28,0,.41.17.41.34,0,.15-.09.27-.27.34h0c.18.04.32.17.32.37,0,.23-.18.43-.52.43-.16,0-.3-.05-.37-.1l.05-.15Z"/>
              <path class="cls-7" d="m97.27,56.99c0,.49-.18.76-.5.76-.28,0-.47-.26-.47-.74,0-.48.21-.75.5-.75s.47.27.47.73Zm-.78.02c0,.37.11.59.29.59.2,0,.29-.23.29-.6s-.09-.59-.29-.59c-.17,0-.29.21-.29.6Z"/>
            </g>
            <g>
              <path class="cls-7" d="m95.81,53.39v-.39h-.67v-.13l.64-.92h.21v.89h.2v.15h-.2v.39h-.18Zm0-.54v-.48c0-.08,0-.15,0-.23h0c-.04.08-.08.15-.12.21l-.35.49h0s.47,0,.47,0Z"/>
              <path class="cls-7" d="m97.3,52.65c0,.49-.18.76-.5.76-.28,0-.47-.26-.47-.74,0-.48.21-.75.5-.75s.47.27.47.73Zm-.78.02c0,.37.11.59.29.59.2,0,.29-.23.29-.6s-.09-.59-.29-.59c-.17,0-.29.21-.29.6Z"/>
            </g>
            <g>
              <path class="cls-7" d="m96.04,47.78h-.55l-.06.37s.06,0,.12,0c.11,0,.22.02.31.08.11.06.21.19.21.37,0,.28-.22.49-.53.49-.16,0-.29-.04-.36-.09l.05-.15c.06.04.18.08.31.08.18,0,.34-.12.34-.31,0-.19-.13-.32-.41-.32-.08,0-.15,0-.2.02l.09-.69h.69v.16Z"/>
              <path class="cls-7" d="m97.27,48.32c0,.49-.18.76-.5.76-.28,0-.47-.26-.47-.74,0-.48.21-.75.5-.75s.47.27.47.73Zm-.78.02c0,.37.11.59.29.59.2,0,.29-.23.29-.6s-.09-.59-.29-.59c-.17,0-.29.21-.29.6Z"/>
            </g>
            <g>
              <path class="cls-7" d="m96.01,43.41s-.09,0-.15,0c-.3.05-.47.27-.5.51h0c.07-.09.19-.17.35-.17.25,0,.43.18.43.46,0,.26-.18.51-.48.51s-.51-.24-.51-.61c0-.28.1-.51.24-.65.12-.12.28-.19.46-.21.06,0,.11-.01.14-.01v.16Zm-.06.83c0-.21-.12-.33-.3-.33-.12,0-.23.07-.28.18-.01.02-.02.05-.02.09,0,.24.11.41.32.41.17,0,.28-.14.28-.34Z"/>
              <path class="cls-7" d="m97.28,43.98c0,.49-.18.76-.5.76-.28,0-.47-.26-.47-.74,0-.48.21-.75.5-.75s.47.27.47.73Zm-.78.02c0,.37.11.59.29.59.2,0,.29-.23.29-.6s-.09-.59-.29-.59c-.17,0-.29.21-.29.6Z"/>
            </g>
            <g>
              <path class="cls-7" d="m95.37,74.41v.14h-.55v-.14h.55Z"/>
              <path class="cls-7" d="m95.95,73.82h0l-.25.13-.04-.15.31-.17h.17v1.44h-.19v-1.25Z"/>
              <path class="cls-7" d="m97.62,74.34c0,.49-.18.76-.5.76-.28,0-.47-.26-.47-.74,0-.48.21-.75.5-.75s.47.27.47.73Zm-.78.02c0,.37.11.59.29.59.2,0,.29-.23.29-.6s-.09-.59-.29-.59c-.17,0-.29.21-.29.6Z"/>
            </g>
            <g>
              <path class="cls-7" d="m95.37,78.74v.14h-.55v-.14h.55Z"/>
              <path class="cls-7" d="m95.53,79.41v-.12l.15-.15c.37-.35.53-.53.53-.75,0-.15-.07-.28-.28-.28-.13,0-.24.07-.3.12l-.06-.14c.1-.08.24-.15.41-.15.31,0,.44.21.44.42,0,.26-.19.48-.49.77l-.11.11h0s.64,0,.64,0v.16h-.92Z"/>
              <path class="cls-7" d="m97.62,78.68c0,.49-.18.76-.5.76-.28,0-.47-.26-.47-.74,0-.48.21-.75.5-.75s.47.27.47.73Zm-.78.02c0,.37.11.59.29.59.2,0,.29-.23.29-.6s-.09-.59-.29-.59c-.17,0-.29.21-.29.6Z"/>
            </g>
            <g>
              <path class="cls-7" d="m95.37,83.08v.14h-.55v-.14h.55Z"/>
              <path class="cls-7" d="m95.58,83.53c.06.04.18.09.32.09.25,0,.33-.16.32-.28,0-.2-.18-.29-.37-.29h-.11v-.15h.11c.14,0,.32-.07.32-.24,0-.11-.07-.22-.25-.22-.11,0-.23.05-.29.09l-.05-.14c.08-.06.22-.11.38-.11.28,0,.41.17.41.34,0,.15-.09.27-.27.34h0c.18.04.32.17.32.37,0,.23-.18.43-.52.43-.16,0-.3-.05-.37-.1l.05-.15Z"/>
              <path class="cls-7" d="m97.62,83.02c0,.49-.18.76-.5.76-.28,0-.47-.26-.47-.74,0-.48.21-.75.5-.75s.47.27.47.73Zm-.78.02c0,.37.11.59.29.59.2,0,.29-.23.29-.6s-.09-.59-.29-.59c-.17,0-.29.21-.29.6Z"/>
            </g>
            <g>
              <path class="cls-7" d="m95.37,87.15v.14h-.55v-.14h.55Z"/>
              <path class="cls-7" d="m96.13,87.82v-.39h-.67v-.13l.64-.92h.21v.89h.2v.15h-.2v.39h-.18Zm0-.54v-.48c0-.08,0-.15,0-.23h0c-.04.08-.08.15-.12.21l-.35.49h0s.47,0,.47,0Z"/>
              <path class="cls-7" d="m97.62,87.09c0,.49-.18.76-.5.76-.28,0-.47-.26-.47-.74,0-.48.21-.75.5-.75s.47.27.47.73Zm-.78.02c0,.37.11.59.29.59.2,0,.29-.23.29-.6s-.09-.59-.29-.59c-.17,0-.29.21-.29.6Z"/>
            </g>
            <g>
              <path class="cls-7" d="m92.86,40.54c-.16.1-.47.2-.86.2-.92,0-1.61-.75-1.61-2.12s.69-2.2,1.71-2.2c.41,0,.66.11.78.19l-.1.44c-.16-.1-.39-.17-.66-.17-.77,0-1.28.63-1.28,1.73,0,1.03.46,1.69,1.26,1.69.26,0,.52-.07.69-.17l.09.43Z"/>
              <path class="cls-7" d="m90.01,37.79c0,.71-.26,1.1-.73,1.1-.41,0-.68-.38-.69-1.07,0-.7.3-1.09.73-1.09s.69.39.69,1.06Zm-1.13.03c0,.54.17.85.42.85.29,0,.43-.34.43-.87s-.13-.85-.42-.85c-.25,0-.43.3-.43.87Z"/>
            </g>
            <path class="cls-14" d="m84.97,102.31c-2.23-.03-4.33-.92-5.93-2.49-1.6-1.57-2.52-3.66-2.59-5.89-.1-3.05,1.44-5.89,3.91-7.52v-41.01c0-2.62,2.13-4.75,4.75-4.75s4.75,2.13,4.75,4.75v41c2.41,1.57,3.91,4.26,3.91,7.25,0,2.31-.9,4.49-2.54,6.12-1.64,1.64-3.81,2.54-6.12,2.54,0,0-.09,0-.13,0Z"/>
            <g>
              <ellipse class="cls-23" cx="85.03" cy="93.67" rx="4.92" ry="4.76"/>
              <rect class="cls-23" x="82.94" y="59.67" width="4.72" height="38.69" rx="1.83" ry="1.83"/>
            </g>
          </g>
        </g>
      </g>
    </g>
  </g>
</svg>