<svg xmlns="http://www.w3.org/2000/svg" xmlns:xlink="http://www.w3.org/1999/xlink" viewBox="0 0 675 734.82"><defs><linearGradient id="b91c26ef-b0c6-4301-a7c6-362eed8ef77a" x1="212.73" y1="440.24" x2="143.26" y2="348.06" gradientUnits="userSpaceOnUse"><stop offset="0" stop-color="#fff"/><stop offset="1" stop-color="#fff" stop-opacity="0"/></linearGradient><linearGradient id="ec3a421d-6337-4ee2-a6e8-798da4f93bf6" x1="-108.1" y1="138.91" x2="-179.01" y2="44.81" gradientTransform="matrix(-0.05, -1, -1, 0.05, 337.13, 319.21)" xlink:href="#b91c26ef-b0c6-4301-a7c6-362eed8ef77a"/></defs><title>资源 46</title><g id="ac55a2d3-92c4-4e0d-ac6b-493f1d87715e" data-name="图层 2"><g id="af68ee63-4fc4-473b-b4e3-b1f61820fa4c" data-name="图层 2"><path d="M355,39.52C200,39.52,74.4,162.44,74.4,314.06S200,588.6,355,588.6,635.5,465.69,635.5,314.06,509.9,39.52,355,39.52Zm0,534.07c-146.46,0-265.2-116.2-265.2-259.53S208.49,54.54,355,54.54,620.16,170.73,620.16,314.06,501.42,573.59,355,573.59Z" fill="#4c425b"/><image width="532" height="515" transform="translate(91 52.68)" opacity="0.58" xlink:href="%E8%B5%84%E6%BA%90%20461.png"/><ellipse cx="196.42" cy="169.54" rx="10.66" ry="10.33" fill="#fff"/><ellipse cx="245.34" cy="122.15" rx="29.77" ry="10.84" transform="translate(-27.77 99.3) rotate(-21.69)" fill="#fff"/><path d="M218.27,416.49,185.76,445.7S126.85,382,136.44,297C136.44,297,149.39,370,218.27,416.49Z" opacity="0.51" fill="url(#b91c26ef-b0c6-4301-a7c6-362eed8ef77a)"/><path d="M227.71,430.79l-28.32,33s68.88,53.52,155.9,39.61C355.29,503.45,279.35,494.89,227.71,430.79Z" opacity="0.51" fill="url(#ec3a421d-6337-4ee2-a6e8-798da4f93bf6)"/><image width="569" height="513" transform="translate(37.9) scale(1.12 1.22)" xlink:href="%E8%B5%84%E6%BA%90%20462.png"/><path d="M177.26,360.86c-.14-4.16-3.56-9.92-9.41-10.06-6-.14-9.85,5.78-9.9,10.06,0,2.17.92,3.79,2.48,6.38a30.82,30.82,0,0,0,7.18,8.22,25.66,25.66,0,0,0,7-7.5C176.12,365.52,177.35,363.5,177.26,360.86Zm-9.68,3.06a3.67,3.67,0,1,1,3.67-3.67A3.67,3.67,0,0,1,167.58,363.92Z" fill="#d65241"/><path d="M176,361.76c-.14-4.16-3.56-9.91-9.41-10.05-6-.15-9.85,5.77-9.9,10.05,0,2.17.93,3.8,2.48,6.38a31.18,31.18,0,0,0,7.18,8.22,25.53,25.53,0,0,0,7-7.5C174.9,366.42,176.13,364.4,176,361.76Zm-9.68,3.07a3.68,3.68,0,1,1,3.67-3.68A3.68,3.68,0,0,1,166.36,364.83Z" fill="#f3715b"/><path d="M497,250c-.15-4.16-3.57-9.92-9.42-10.06-6-.14-9.85,5.78-9.89,10.06,0,2.17.92,3.79,2.47,6.38a31.18,31.18,0,0,0,7.18,8.22,25.66,25.66,0,0,0,7-7.5C495.85,254.68,497.09,252.66,497,250Zm-9.69,3.06a3.67,3.67,0,1,1,3.67-3.67A3.67,3.67,0,0,1,487.31,253.08Z" fill="#d65241"/><path d="M495.78,250.92c-.14-4.16-3.57-9.91-9.42-10.06-6-.14-9.84,5.78-9.89,10.06,0,2.17.92,3.8,2.47,6.38a31.18,31.18,0,0,0,7.18,8.22,25.4,25.4,0,0,0,7-7.5C494.63,255.58,495.87,253.56,495.78,250.92ZM486.1,254a3.67,3.67,0,1,1,3.67-3.67A3.67,3.67,0,0,1,486.1,254Z" fill="#f3715b"/><path d="M266.79,190.33c-.14-4.16-3.57-9.91-9.42-10.05-6-.15-9.84,5.77-9.89,10.05,0,2.17.92,3.8,2.47,6.39a30.94,30.94,0,0,0,7.18,8.21,25.4,25.4,0,0,0,7-7.5C265.64,195,266.88,193,266.79,190.33Zm-9.68,3.07a3.67,3.67,0,1,1,3.67-3.67A3.68,3.68,0,0,1,257.11,193.4Z" fill="#d65241"/><path d="M265.57,191.24c-.14-4.16-3.57-9.92-9.42-10.06-6-.15-9.84,5.78-9.89,10.06,0,2.17.92,3.79,2.47,6.38a31.18,31.18,0,0,0,7.18,8.22,25.8,25.8,0,0,0,7-7.5C264.43,195.9,265.66,193.88,265.57,191.24Zm-9.68,3.06a3.67,3.67,0,1,1,3.67-3.67A3.67,3.67,0,0,1,255.89,194.3Z" fill="#f3715b"/><path d="M468.22,471.7c-.14-4.16-3.57-9.91-9.42-10.06-6-.14-9.84,5.78-9.89,10.06,0,2.17.92,3.79,2.47,6.38a31.18,31.18,0,0,0,7.18,8.22,25.54,25.54,0,0,0,7-7.5C467.07,476.36,468.31,474.34,468.22,471.7Zm-9.68,3.06a3.67,3.67,0,1,1,3.67-3.67A3.67,3.67,0,0,1,458.54,474.76Z" fill="#d65241"/><path d="M467,472.6c-.14-4.16-3.56-9.91-9.41-10.05-6-.15-9.85,5.77-9.9,10.05,0,2.17.92,3.8,2.47,6.38a31,31,0,0,0,7.19,8.22,25.66,25.66,0,0,0,7-7.5C465.86,477.26,467.09,475.24,467,472.6Zm-9.68,3.07A3.68,3.68,0,1,1,461,472,3.67,3.67,0,0,1,457.32,475.67Z" fill="#f3715b"/><path d="M398.94,415.21c-.14-4.16-3.56-9.91-9.41-10-6-.15-9.85,5.77-9.9,10,0,2.17.93,3.8,2.48,6.38a30.84,30.84,0,0,0,7.18,8.22,25.53,25.53,0,0,0,7-7.5C397.8,419.87,399,417.85,398.94,415.21Zm-9.68,3.07a3.67,3.67,0,1,1,3.67-3.67A3.67,3.67,0,0,1,389.26,418.28Z" fill="#d65241"/><path d="M397.73,416.11c-.14-4.16-3.57-9.91-9.42-10.05-6-.15-9.84,5.77-9.89,10.05,0,2.18.92,3.8,2.47,6.39a31.18,31.18,0,0,0,7.18,8.22,25.79,25.79,0,0,0,7-7.5C396.58,420.78,397.82,418.76,397.73,416.11ZM388,419.18a3.67,3.67,0,1,1,3.67-3.67A3.67,3.67,0,0,1,388,419.18Z" fill="#f3715b"/><path d="M17.94,393.57s-6.81,8.78-15.81,10.77a28.29,28.29,0,0,1,0-21.54C11.13,384.79,17.94,393.57,17.94,393.57Z" fill="#ff9b9b"/><path d="M11.19,393.57S25,411.35,42,411.35s30.81-17.78,30.81-17.78S59,375.79,42,375.79,11.19,393.57,11.19,393.57Z" fill="#ff9b9b"/><path d="M17.94,393.38s5.79,6.75,12.94,6.75,12.93-6.75,12.93-6.75-5.79-6.74-12.93-6.74S17.94,393.38,17.94,393.38Z" fill="#ff8585"/><path d="M72.81,393.57a58.33,58.33,0,0,1-16.22,13.71,39,39,0,0,1,0-27.42A58.33,58.33,0,0,1,72.81,393.57Z" fill="#ffdbdb"/><path d="M59.08,390.72a2.28,2.28,0,1,0,2.24-2.66A2.47,2.47,0,0,0,59.08,390.72Z" fill="#fff"/><path d="M60.23,391.16a1.21,1.21,0,1,0,1.19-1.41A1.32,1.32,0,0,0,60.23,391.16Z" fill="#242221"/><g opacity="0.9"><path d="M148.06,649.58c-3.87,3.94-2.94,11.87,3.42,21.17,3.39,5,6.55,11,11.71,13.22,0,0,9.44-13.61,11.13-16.51,3.14-5.35,6.45-11.29,6.67-17.84a20.61,20.61,0,0,1,.23-3.6,11.28,11.28,0,0,1,3.23-5.26l18.26-19.68c2.19-2.36,4.46-4.85,5.77-8.22,1.44-3.7,1.56-8.11,3.33-11.56,2.1-4.09,6-5.8,8.18-9.8s2.16-9.33,2.65-14.18A26.1,26.1,0,0,1,224,571c1.79-4.91,1.51-10.5-.95-14.08-3.1-4.5-6.62-8.26-11-9.84C205,544.5,195.2,550.68,194,561.22c-.29,2.52-.14,5.32-1.36,7.36-1.52,2.54-4.43,2.59-5.92,5.17-.88,1.53-1,3.53-1.5,5.33-1.33,4.93-5.05,7.83-8.23,10.85s-6.43,7.85-5.7,12.7c.3,2,1.28,3.68,1.44,5.75.36,4.66-3.37,8.46-6.65,10.31s-7.16,3.66-8.62,8.19.36,10-1.47,14.34C153.73,646.6,148.06,649.58,148.06,649.58Z" fill="#fde9f8"/><path d="M192.64,568.58c-1.52,2.54-4.43,2.59-5.92,5.17-.88,1.53-1,3.53-1.5,5.33-1.33,4.93-5.05,7.83-8.23,10.85s-6.43,7.85-5.7,12.7c.3,2,1.28,3.68,1.44,5.75a7.73,7.73,0,0,1,0,1.6c-.17,1.38.64,2.49,1.63,2.39,4.26-.4,8.62,1.43,12.67,3.07,3.43,1.39,7.27,2.49,10.92,2,2-.27,2.45-4.27.52-4.76A32.34,32.34,0,0,1,186,606.2c-1.57-1.3-.34-4.9,1.52-4.46a49,49,0,0,0,6.14,1.07c1.8.19,2.82-3.22,1.34-4.5l-.14-.12c-1.46-1.28-.47-4.68,1.32-4.5a18,18,0,0,0,7.25-.78c1.47-.47,2-3.09.93-4.32a39.09,39.09,0,0,1-4.52-6.37c-.9-1.58.13-4.1,1.65-4.05a21.47,21.47,0,0,0,10.31-2.43,3,3,0,0,0,.74-4.25,87.23,87.23,0,0,1-13.24-17.93c-.63-1.11-1.88-1-2.64.14a17.54,17.54,0,0,0-2.66,7.52C193.71,563.74,193.86,566.54,192.64,568.58Z" fill="#ffb4ee"/><path d="M162.9,635.68l5.5,2.16c1.24.5,2.34-1.76,1.48-3.05l-.14-.21c-.87-1.29.24-3.52,1.49-3.06A26.53,26.53,0,0,0,182.16,633c1.24-.09,1.89-2.31,1-3.31l-12.45-13.37a1,1,0,0,0-1.48,0,15.27,15.27,0,0,1-3.11,2.34c-3.29,1.85-7.16,3.66-8.62,8.19s.36,10-1.47,14.34c-2.26,5.38-7.93,8.36-7.93,8.36-3.87,3.94-2.94,11.87,3.42,21.17,3.21,4.69,6.21,10.36,10.91,12.83a1.12,1.12,0,0,0,1.43-.54c.88-1.27,2.56-3.69,4.33-6.28a2.41,2.41,0,0,0,.15-2.45q-1.77-3-3.69-5.71c-.9-1.29.22-3.62,1.47-3.07a28.4,28.4,0,0,0,7.33,2.1l1.27-.78a59.33,59.33,0,0,0,4.77-9.73,2.05,2.05,0,0,0-.44-2.22c-6.5-5-14.22-8.29-17.75-16.45C160.67,637.08,161.78,635.23,162.9,635.68Z" fill="#00b1bf"/><path d="M206.64,604.71c-1.17-1.16-2.53-1.86-3.75-2.89-1.5-1.25-3.36,2.13-1.85,3.36s2.92,2.27,4.69,2.34c1.06,0,1.78-1.95.91-2.81Z" fill="#ffb4ee"/><path d="M217.27,586.14a4.57,4.57,0,0,0-2.71-3,4.88,4.88,0,0,0-3.93,0,2.2,2.2,0,0,0-.95,2.9c1.59,3.29,4.71,4.28,7.56,2.68a2.38,2.38,0,0,0,.81-2.47c-1.36-4.15-5.05-5.2-8-2.53a2.59,2.59,0,0,0-.35,2.74c1.43,2,3.9,3.72,6.07,1.92.71-.58,1.05-2.37.1-2.67-1.35-.43-2.87-.42-3.89-1.81-.11.91-.23,1.82-.35,2.73a2.41,2.41,0,0,1,4,1.24l.81-2.48c-1.77,1-3.62.28-4.6-1.68-.32,1-.63,1.94-1,2.9a5.2,5.2,0,0,1,2.92-.47c1,.15,1.73.93,2.67,1.21.51.15,1-.48.86-1.23Z" fill="#ffb4ee"/><path d="M197.45,556c.05.09.16,0,.11-.13s-.16,0-.11.13Z" fill="#00b1bf"/><path d="M199.72,556.26c-.83-.75-1-2.56-.54-4a6.41,6.41,0,0,1,2.35-3.44,8.38,8.38,0,0,1,2.88-1.37,6.05,6.05,0,0,1,1.42-.32,5.65,5.65,0,0,1,1.42,0,17.11,17.11,0,0,1,5.3,1.59,46.73,46.73,0,0,1,5,2.28,13.34,13.34,0,0,1,4.5,4c.31.45.64.89.94,1.36l.85,1.48a12.81,12.81,0,0,1,1.26,3.69,10.41,10.41,0,0,1-.2,4.77,6.93,6.93,0,0,1-2.48,3.71,5,5,0,0,1-3,1,7.68,7.68,0,0,1-2.71-.58l0-.35c1.82-.56,3.62-1,4.78-2.39a5.1,5.1,0,0,0,1-4.78,19.33,19.33,0,0,0-2.26-5.44,32.23,32.23,0,0,0-3.44-4.7,9.33,9.33,0,0,0-4.52-2.89,11.61,11.61,0,0,0-5.17.26,24.48,24.48,0,0,0-4.92,1.26,4.12,4.12,0,0,0-1.8,1.67,4.19,4.19,0,0,0-.46,3Z" fill="#ffb4ee"/><path d="M193.65,573.89c2.37,7.4,8.2,14.09,13.7,16.67,1,.47,2-1.71,1.07-2.5-2.41-2-4.89-3.65-7.07-6.09-2.43-2.71-4.26-6.13-6.42-9.2-.49-.7-1.63,0-1.28,1.12Z" fill="#fde9f8"/><path d="M201.1,549.31a10.41,10.41,0,0,0-4.54,8.08c0,1,1,1.54,1.33.37a15.55,15.55,0,0,1,4.73-7.23c.83-.73.09-2.22-.7-1.81-3.1,1.62-5.86,3.91-6.55,8.75-.27,1.91,1.53,2.2,2.16.61a17.1,17.1,0,0,1,6.19-7.73c-.28-.71-.56-1.42-.83-2.13-2.66,2.69-4.81,5.74-5.27,10.3-.21,2.07,1.8,2.15,2.22.2a12.25,12.25,0,0,1,5.57-8.16l-.69-2.65c-2,1.1-4.2,2.59-5.15,5.6s.05,5.46,1.16,7.71c.72,1.46,2.78-.24,2.16-1.88-.54-1.43-1.22-3.29-.75-5a6.06,6.06,0,0,1,3.27-3.77c1.16-.55.75-3.22-.43-2.77-3.65,1.38-6.32,5.77-7.36,10.73l2.22.2a14.2,14.2,0,0,1,4.1-8.56c.79-.81.29-2.49-.6-2.24-3.44,1-6.21,4.88-7.88,9.15l2.15.61a10.53,10.53,0,0,1,4.82-7l-.51-2c-2.49,2.15-4,4.85-5.3,8.42l1.27.62a22.6,22.6,0,0,1,3.89-6.7c.72-.79.13-2.24-.68-1.75Z" fill="#ffb4ee"/><path d="M222.13,562.19a8.86,8.86,0,0,0-1.83-3.68c-3.53-5.43-10.44-8.58-15.39-7.67-2.43.45-4.54,2.41-4,6.09.69,4.77,4.33,7.1,7.21,8.83C210.5,567.19,224.35,572.19,222.13,562.19Z" fill="#442a3b"/><path d="M198.12,579.59c1.66,1.26,4.63,4.15,6.77,2.33.34-.28.48-1.06.05-1.23-.93-.35-2-.11-3-.3a11.14,11.14,0,0,1-3.51-1.57c-.3-.18-.62.54-.32.77Z" fill="#fde9f8"/><path d="M196.37,577.92a7.65,7.65,0,0,0,4.66,3.82c1.38.4,3.79,1,5-.65A.74.74,0,0,0,206,580c-.64-.4-1.21-.18-1.94-.16a7.5,7.5,0,0,1-2.58-.32,13.12,13.12,0,0,1-4.31-2.79c-.48-.42-1.17.47-.8,1.15Z" fill="#fde9f8"/><path d="M195.92,577c1.46,1.66,2.92,3.12,4.89,3.55,1.52.33,3.79,1,5.25-.28a.77.77,0,0,0,0-1c-1.06-1.07-2.82-.6-4.13-.78a10.08,10.08,0,0,1-5.31-2.87c-.59-.52-1.29.74-.74,1.36Z" fill="#fde9f8"/><path d="M199.74,574.43c.58,1.08,1.91-.39,1.32-1.48s-1.91.39-1.32,1.48Z" fill="#ffcfef"/><path d="M186.2,585.61c.37,7.36,8.77,15.44,14.07,13.49a1.83,1.83,0,0,0,.6-2.71c-2.13-2.17-5-2.7-7.27-4.75s-3.78-5.36-6.07-7.19c-.56-.45-1.39.14-1.33,1.16Z" fill="#fde9f8"/><path d="M156.36,677.29,157,676l.09-.18c1.75-3.5,6-12.09,6.94-14.24.08-.18.15-.37.23-.56h0a2.88,2.88,0,0,0,.13-.31l.66-1.63.15-.38c.26-.67.51-1.34.75-2l0-.06a26,26,0,0,0,1.82-10.92,16.41,16.41,0,0,1-.19-3,10.68,10.68,0,0,1,2.18-4.95l13.4-19.79a25.08,25.08,0,0,0,4-7.88c.82-3.31.46-6.92,1.59-10.09,1.35-3.77,4.46-6,5.9-9.67s.85-8,.74-12.09a22.06,22.06,0,0,1,.51-5.46,16.17,16.17,0,0,0,.35-5,8.77,8.77,0,0,0-.42-3,9.18,9.18,0,0,0-1.47-2.73l-.44-.53c-.09.85-.14,1.73-.21,2.6-.06.65-.13,1.28-.24,1.9a8.32,8.32,0,0,1-.5,1.76,5.91,5.91,0,0,1-.39.8,4.61,4.61,0,0,1-.63.84,14.32,14.32,0,0,1-3.17,2.23,7.61,7.61,0,0,0-1.5,1.24,5.56,5.56,0,0,0-.62.86h0l0,.09a9.37,9.37,0,0,0-.86,2.47c-.1.46-.19.93-.28,1.39s-.2.93-.32,1.38a16,16,0,0,1-4,6.78c-.77.83-1.59,1.61-2.41,2.37-.62.57-1.23,1.13-1.83,1.7-2.58,2.45-5.21,6.1-5.72,10a9.54,9.54,0,0,0,0,2.72,17.68,17.68,0,0,0,.77,2.86,14.84,14.84,0,0,1,.58,2.13c0,.25.07.5.09.76a7.54,7.54,0,0,1,0,.82c0,.26,0,.52-.06.77h0a10.86,10.86,0,0,1-3.44,6.34l-.06,0a15.27,15.27,0,0,1-3.11,2.34c-1.23.69-2.55,1.38-3.79,2.21-.41.28-.82.57-1.21.88A12.11,12.11,0,0,0,159,624c-.15.21-.3.43-.44.65a10.18,10.18,0,0,0-1.06,2.28,19.91,19.91,0,0,0-.62,6.33c0,.31,0,.62,0,.92,0,.93,0,1.85,0,2.75q0,.45-.06.9a11.8,11.8,0,0,1-.79,3.44,14.32,14.32,0,0,1-1,1.91,17.32,17.32,0,0,1-1.2,1.67c-.22.26-.43.5-.65.74a18.12,18.12,0,0,1-1.33,1.31,20.89,20.89,0,0,1-3.76,2.73,6.14,6.14,0,0,0-.67.78,7.28,7.28,0,0,0-.56.88,9.64,9.64,0,0,0-1.07,4.32,16,16,0,0,0,.44,4,33.61,33.61,0,0,0,5.28,11.2l.63.93.19.3c.14.21.29.42.43.64l.3.46.53.82.37.56.28.42.35.54c.1.14.2.28.29.43l.35.51.3.42.25.36h.06C156,677.18,156.17,677.25,156.36,677.29Z" fill="#ffb4ee"/><path d="M135.75,647.62c-2.77,3.89-1.2,10,5,16,3.29,3.22,6.5,7.36,11,8.07,0,0,6.36-12.62,7.45-15.25,2-4.85,4.14-10.2,3.65-15.41a15.32,15.32,0,0,1-.18-2.88,10.33,10.33,0,0,1,2.11-4.8q6.49-9.58,13-19.18a24.2,24.2,0,0,0,3.9-7.64c.8-3.21.45-6.71,1.55-9.78,1.3-3.65,4.32-5.77,5.71-9.37s.82-7.8.72-11.72a22.1,22.1,0,0,1,.49-5.29c1-4.23.17-8.58-2.22-10.91-3-2.93-6.29-5.19-10.07-5.55-6.07-.58-13.47,6.25-13.38,14.81,0,2,.43,4.22-.36,6.07-1,2.31-3.38,2.94-4.33,5.27-.57,1.38-.47,3-.69,4.5-.58,4.16-3.35,7.19-5.64,10.21s-4.49,7.48-3.39,11.16c.46,1.53,1.44,2.64,1.78,4.25.77,3.6-1.9,7.34-4.41,9.46s-5.51,4.33-6.23,8.19,1.31,7.78.25,11.6C140.1,644.13,135.75,647.62,135.75,647.62Z" fill="#ffb4ee"/><path d="M164.06,574.8c-1,2.31-3.38,2.94-4.33,5.27-.57,1.38-.47,3-.69,4.5-.58,4.16-3.35,7.19-5.64,10.21s-4.49,7.48-3.39,11.16c.46,1.53,1.44,2.64,1.78,4.25a6,6,0,0,1,.13,1.26c0,1.13.78,1.84,1.58,1.56,3.46-1.17,7.23-.6,10.73-.12a18.76,18.76,0,0,0,9.18-.62c1.62-.62,1.57-3.86-.06-3.87a24.53,24.53,0,0,1-10.88-2.6c-1.43-.71-.78-3.8.79-3.82a40.71,40.71,0,0,0,5.15-.39c1.5-.21,2-3.1.64-3.82l-.13-.06c-1.33-.72-.86-3.6.63-3.82a16.48,16.48,0,0,0,5.87-2.07,2.4,2.4,0,0,0,.33-3.59,26,26,0,0,1-4.37-4.12c-.91-1.06-.32-3.25.94-3.52a20.56,20.56,0,0,0,8.22-4c1-.81,1.15-2.85.17-3.5A59,59,0,0,1,168,561.63c-.63-.76-1.66-.46-2.16.63a15.16,15.16,0,0,0-1.41,6.47C164.45,570.78,164.85,573,164.06,574.8Z" fill="#ffcfef"/><path d="M146.52,633.68l4.73.61c1.08.14,1.75-1.86.91-2.71l-.14-.14c-.84-.84-.17-2.82.91-2.71a23,23,0,0,0,9.14-1,1.78,1.78,0,0,0,.45-2.81l-11.6-8a.87.87,0,0,0-1.22.29,14.91,14.91,0,0,1-2.32,2.47c-2.51,2.11-5.51,4.33-6.23,8.19s1.31,7.78.25,11.6c-1.3,4.69-5.65,8.18-5.65,8.18-2.77,3.89-1.2,10,5,16,3.11,3,6.16,6.93,10.27,7.93a1.08,1.08,0,0,0,1.13-.71c.59-1.18,1.72-3.43,2.91-5.83a1.89,1.89,0,0,0-.13-2c-1.17-1.31-2.38-2.57-3.62-3.76-.87-.84-.19-2.9.89-2.72a23.31,23.31,0,0,0,6.25.19l.95-.87a51,51,0,0,0,2.92-8.63,1.47,1.47,0,0,0-.59-1.67c-5.85-2.6-12.53-3.68-16.26-9.41C144.83,635.24,145.55,633.56,146.52,633.68Z" fill="#ffcfef"/><path d="M179.27,600.48c-1.08-.67-2.26-1-3.38-1.52-1.36-.69-2.54,2.35-1.17,3a6.41,6.41,0,0,0,4.1.91,1.49,1.49,0,0,0,.45-2.4Z" fill="#ffcfef"/><path d="M186.1,583.71a3.21,3.21,0,0,0-2.53-1.8,4.36,4.36,0,0,0-3.23.78,1.85,1.85,0,0,0-.48,2.48c1.64,2.27,4.31,2.43,6.48.6a2,2,0,0,0,.42-2.12c-1.55-3-4.69-3.09-6.87-.38a2,2,0,0,0,0,2.23c1.38,1.32,3.59,2.16,5.19.3.52-.6.62-2.08-.2-2.13-1.15-.06-2.4.25-3.38-.64v2.22a2,2,0,0,1,3.38.18c.14-.71.28-1.41.41-2.11a2.55,2.55,0,0,1-3.95-.41l-.48,2.48a4.87,4.87,0,0,1,2.35-1c.83-.08,1.52.39,2.32.42.43,0,.79-.59.58-1.14Z" fill="#ffcfef"/><path d="M166.72,563.91c.05.07.13,0,.08-.12s-.13.06-.08.12Z" fill="#52cfd7"/><path d="M168.61,563.67c-.76-.42-1.05-1.83-.85-3a5.82,5.82,0,0,1,1.58-3.18,8.13,8.13,0,0,1,2.22-1.66,6.13,6.13,0,0,1,1.13-.54,5.16,5.16,0,0,1,1.16-.32,13.89,13.89,0,0,1,4.52.19,35.19,35.19,0,0,1,4.37.79,9.39,9.39,0,0,1,4.11,2.22c.3.3.61.57.91.89l.85,1a9.16,9.16,0,0,1,1.41,2.66,8,8,0,0,1,.32,3.81,6.33,6.33,0,0,1-1.65,3.42,4.87,4.87,0,0,1-2.4,1.39,6.52,6.52,0,0,1-2.28.08v-.28c1.44-.81,2.88-1.53,3.69-2.85a4.12,4.12,0,0,0,.3-4,13.45,13.45,0,0,0-2.41-3.84,21.9,21.9,0,0,0-3.31-3,6.93,6.93,0,0,0-4-1.37,10.56,10.56,0,0,0-4.22,1.24,23.12,23.12,0,0,0-3.91,2,4,4,0,0,0-1.32,1.68,3.37,3.37,0,0,0-.06,2.48Z" fill="#ffcfef"/><path d="M165.43,578.79c2.71,5.36,8.19,9.47,13,10.39.87.17,1.49-1.75.62-2.19a42.44,42.44,0,0,1-6.43-3.37c-2.28-1.65-4.13-4-6.22-6-.48-.46-1.34.35-.94,1.14Z" fill="#ffb4ee"/><path d="M169,557.91a9.37,9.37,0,0,0-2.9,7.28c.07.83,1,1,1.14,0a14.15,14.15,0,0,1,3.14-6.65c.6-.75-.16-1.77-.77-1.29-2.37,1.9-4.41,4.26-4.48,8.22,0,1.55,1.49,1.42,1.84,0a16,16,0,0,1,4.29-7.33l-.9-1.52c-1.91,2.66-3.36,5.49-3.27,9.18,0,1.68,1.7,1.34,1.84-.28A11.33,11.33,0,0,1,172.7,558l-.84-1.95a9.11,9.11,0,0,0-3.65,5.45c-.48,2.59.6,4.29,1.74,5.84.75,1,2.26-.74,1.59-1.91a6,6,0,0,1-1.14-3.8,5.73,5.73,0,0,1,2.3-3.63c.9-.67.29-2.68-.63-2.1-2.87,1.82-4.61,5.82-4.95,9.94l1.84-.28a12.64,12.64,0,0,1,2.49-7.58c.57-.8,0-2-.72-1.65-2.73,1.46-4.6,5.1-5.54,8.81l1.84,0a9.68,9.68,0,0,1,3.24-6.48l-.63-1.45a17.68,17.68,0,0,0-3.49,7.71l1.12.23a20.17,20.17,0,0,1,2.5-6.06c.51-.78-.12-1.8-.74-1.25Z" fill="#ffcfef"/><path d="M187.63,563.84a6.06,6.06,0,0,0-1.88-2.53c-3.46-3.57-9.46-4.67-13.43-2.95a4.48,4.48,0,0,0-2.68,5.6c1.05,3.62,4.29,4.73,6.83,5.51C178.59,570.12,190.48,571.29,187.63,563.84Z" fill="#442a3b"/><path d="M169.69,582.38c1.5.66,4.23,2.35,5.81.48.24-.28.28-.93-.09-1a15.57,15.57,0,0,0-2.49.36,9,9,0,0,1-3-.53c-.27-.09-.45.55-.19.66Z" fill="#ffb4ee"/><path d="M168.08,581.42a5.47,5.47,0,0,0,4.23,2.07c1.17,0,3.21,0,4.06-1.51.19-.34.11-.73-.16-.82-.56-.19-1,.1-1.61.26a6.62,6.62,0,0,1-2.15.27,9.61,9.61,0,0,1-3.82-1.34c-.45-.23-.92.61-.55,1.07Z" fill="#ffb4ee"/><path d="M167.61,580.75a7,7,0,0,0,4.38,1.81c1.29,0,3.23.05,4.29-1.27a.59.59,0,0,0-.07-.78c-1-.63-2.37.09-3.47.21a7.58,7.58,0,0,1-4.65-1.19c-.55-.3-1,.84-.48,1.22Z" fill="#ffb4ee"/><path d="M170.49,578c.6.74,1.53-.69.93-1.43s-1.52.69-.93,1.43Z" fill="#ffb4ee"/><path d="M160.51,589.53c1.07,5.72,8.8,10.41,13,7.81.71-.44.91-1.81.22-2.26-2-1.28-4.4-1.12-6.47-2.29s-3.65-3.46-5.72-4.45c-.5-.24-1.12.39-1,1.19Z" fill="#ffb4ee"/><path d="M168.36,686.57c-1.82,3.06-5.11,2-8.74-3.72-1.93-3-4.33-5.9-5-10.3,0,0,6.11-7.32,7.4-8.62,2.38-2.4,5-4.91,7.77-4.84a4.31,4.31,0,0,0,1.52,0c.95-.3,1.69-1.42,2.35-2.48q4.51-7.22,9-14.44a14.48,14.48,0,0,1,3.7-4.48c1.61-1,3.47-1,5-2.3,1.81-1.59,2.69-4.76,4.47-6.43s4-1.43,6.06-1.63a6.71,6.71,0,0,0,2.73-.9,4.06,4.06,0,0,1,5.87,1.36,23,23,0,0,1,3.65,9.59c.76,6-2.25,13.91-6.72,14.49-1.07.14-2.24-.1-3.15.84-1.13,1.16-1.28,3.59-2.42,4.72a6.19,6.19,0,0,1-2.3,1c-2.13.91-3.51,3.9-4.91,6.42s-3.57,5-5.57,4.25c-.84-.34-1.49-1.23-2.36-1.44-1.94-.49-3.69,2.47-4.61,5.13s-1.84,5.83-3.8,6.85-4.17-.7-6.09.65C169.85,682,168.36,686.57,168.36,686.57Z" fill="#00b1bf"/><path d="M204.26,652.67c-1.13,1.16-1.28,3.59-2.42,4.72a6.19,6.19,0,0,1-2.3,1c-2.13.91-3.51,3.9-4.91,6.42s-3.57,5-5.57,4.25c-.84-.34-1.49-1.23-2.36-1.44a1.52,1.52,0,0,0-.67,0c-.59.09-1-.63-.93-1.46a44,44,0,0,0-.75-10.69,35.25,35.25,0,0,1-.36-9.19c.2-1.67,1.89-1.87,2-.25a42,42,0,0,0,2.18,10.63c.48,1.37,2,.49,1.93-1.08s-.17-3.43-.18-5.16c0-1.52,1.47-2.23,1.95-.94l0,.12c.47,1.27,1.94.58,1.94-.92a29.79,29.79,0,0,1,.64-6c.26-1.21,1.39-1.56,1.86-.61a23.74,23.74,0,0,0,2.48,4c.62.82,1.72.07,1.77-1.21a32.3,32.3,0,0,1,1.46-8.5c.35-1.1,1.4-1.37,1.81-.44a57.36,57.36,0,0,0,7,11.77,1.86,1.86,0,0,1-.17,2.2,5.47,5.47,0,0,1-3.27,1.91C206.34,652,205.17,651.73,204.26,652.67Z" fill="#52cfd7"/><path d="M174.83,674.75c-.23-1.56-.45-3.11-.68-4.67-.15-1.06.85-1.89,1.35-1.11l.08.12c.51.77,1.49-.05,1.35-1.12a43.18,43.18,0,0,1-.17-9.18c.09-1,1.05-1.49,1.43-.67q2.53,5.48,5.08,10.93a1.43,1.43,0,0,1-.06,1.24,16,16,0,0,0-1.12,2.5c-.91,2.66-1.84,5.83-3.8,6.85s-4.17-.7-6.09.65c-2.35,1.67-3.84,6.28-3.84,6.28-1.82,3.06-5.11,2-8.74-3.72-1.83-2.87-4.08-5.6-4.92-9.62a1.47,1.47,0,0,1,.29-1.17c.57-.68,1.66-2,2.83-3.35a.61.61,0,0,1,1,0c.77,1.06,1.52,2.17,2.24,3.31.5.8,1.53,0,1.35-1.1a45.07,45.07,0,0,1-.57-6.21c.14-.36.25-.65.38-1a22.72,22.72,0,0,1,4.29-3.58c.37-.22.77,0,.91.46,1.81,5.62,2.87,12.19,6.15,15.46C174.14,676.55,175,675.7,174.83,674.75Z" fill="#52cfd7"/><path d="M189.7,639.52c.44,1,.67,2.18,1.05,3.25.46,1.3-1,2.71-1.49,1.4a11.1,11.1,0,0,1-.78-4c0-.88.9-1.4,1.22-.64Z" fill="#52cfd7"/><path d="M198,631.4c.63.35,1,1.51,1.13,2.39a7.78,7.78,0,0,1-.17,3.28c-.2.77-.81,1.17-1.26.67-1.3-1.46-1.59-4.1-.8-6.42.19-.52.74-.83,1.08-.57,1.68,1.3,2,4.42.71,6.81a.69.69,0,0,1-1.16.18,5.58,5.58,0,0,1-.55-5.14c.28-.57,1-.78,1.13,0a8.36,8.36,0,0,0,.59,3.32l-1.16.18a3,3,0,0,0-.35-3.35l1.07-.58a4.09,4.09,0,0,0,.51,3.91l-1.26.67a8,8,0,0,0,.33-2.42c0-.84-.32-1.48-.39-2.27,0-.44.24-.84.55-.68Z" fill="#52cfd7"/><path d="M209.75,649.16s0-.13.06-.09,0,.14-.06.09Z" fill="#52cfd7"/><path d="M209.73,647.26a1.17,1.17,0,0,0,1.66.61,3.49,3.49,0,0,0,1.55-1.82,11.09,11.09,0,0,0,.69-2.34,11.88,11.88,0,0,0,.28-2.36,25.77,25.77,0,0,0-.44-4.48c-.21-1.44-.43-2.87-.74-4.29a12.6,12.6,0,0,0-1.48-3.92c-.17-.28-.34-.57-.52-.84l-.59-.77a4.54,4.54,0,0,0-1.49-1.2,2.3,2.3,0,0,0-2,0,3.64,3.64,0,0,0-1.66,1.92,7,7,0,0,0-.54,2.49,12.09,12.09,0,0,0,.12,2.28h.15a11.57,11.57,0,0,1,1.21-3.9A1.39,1.39,0,0,1,208,628a7.39,7.39,0,0,1,2.18,2.1,21.1,21.1,0,0,1,1.83,3.07,11,11,0,0,1,1,3.88,19.31,19.31,0,0,1-.33,4.3,38.22,38.22,0,0,1-.74,4.06,3.33,3.33,0,0,1-.78,1.43,1,1,0,0,1-1.29.26Z" fill="#52cfd7"/><path d="M202.08,651.61c-3-2.28-5.57-7.41-6.41-12.11-.16-.85.8-1.62,1.09-.79a63.85,63.85,0,0,0,2.25,6.15,62.34,62.34,0,0,0,3.59,5.72c.27.44-.08,1.37-.52,1Z" fill="#00b1bf"/><path d="M212.71,646.39c-.67,1.86-2.12,3.47-3.59,3.46-.43,0-.6-.89-.1-1.13a7.86,7.86,0,0,0,3.24-3.65c.35-.66.94,0,.73.66-.81,2.52-1.89,4.73-4,5.11-.81.15-.86-1.37-.16-1.82,1.62-1.07,2.56-2.8,3.5-4.86l.87.78c-1.25,2.11-2.62,3.78-4.55,4-.88.09-.83-1.59,0-1.86,1.7-.54,2.84-2.2,3.66-4.32l1.08.69c-.54,1.65-1.26,3.4-2.57,4.07s-2.29-.27-3.18-1.28c-.59-.67.22-2.32.88-1.73s1.33,1.15,2.07.83a4.08,4.08,0,0,0,1.72-2.58c.28-.94,1.38-.49,1.15.47a7.71,7.71,0,0,1-4.82,5.71c0-.62,0-1.24,0-1.86,1.49-.14,2.78-1.42,3.76-3.07.38-.63,1.06-.15.92.59a9.72,9.72,0,0,1-4.18,6.2c-.05-.61-.11-1.21-.16-1.82,1.41-.26,2.45-2.07,3.14-3.74l.8.51a9.49,9.49,0,0,1-3.76,4.08l-.21-1.09a10.14,10.14,0,0,0,3-3c.37-.57.95,0,.71.64Z" fill="#52cfd7"/><path d="M208.21,628.33a3.91,3.91,0,0,1,1.46,1.67c2.13,3.17,3.16,9.06,2.56,13.15-.29,2-1.2,3.69-2.73,3.1-2-.76-2.79-3.89-3.39-6.37C205.61,637.82,204.11,626.07,208.21,628.33Z" fill="#002a33"/><path d="M199.88,647.65c-.46-1.44-1.55-4-.69-5.75.13-.26.47-.35.52,0,.1.79-.05,1.68,0,2.5a16.82,16.82,0,0,0,.51,3c.06.26-.25.49-.33.24Z" fill="#00b1bf"/><path d="M200.5,649.18a7.66,7.66,0,0,1-1.4-4c-.11-1.17-.25-3.2.49-4.17.16-.21.37-.16.44.1a4.91,4.91,0,0,1,0,1.62,12,12,0,0,0,0,2.16,15.43,15.43,0,0,0,1,3.71c.15.42-.25,1-.52.63Z" fill="#00b1bf"/><path d="M200.89,649.59a10.38,10.38,0,0,1-1.28-4.22c-.07-1.28-.27-3.21.34-4.38a.23.23,0,0,1,.42,0c.4.92.13,2.37.15,3.48a12.71,12.71,0,0,0,1,4.53c.2.52-.36,1.05-.6.57Z" fill="#00b1bf"/><path d="M202.11,646.51c-.43-.54.25-1.58.68-1s-.25,1.57-.68,1Z" fill="#00b1bf"/><path d="M196.84,657.35c-3.07-.61-6.11-8-5.06-12.29.18-.73.88-1,1.16-.39.82,1.86.92,4.3,1.69,6.26s2.08,3.37,2.75,5.36c.17.48-.12,1.14-.54,1.06Z" fill="#00b1bf"/><path d="M130.14,671.39c-.26,6.11,5.16,10.61,15.13,11.16,5.3.29,11.11,1.52,16-1.61,0,0-1.75-17.59-2.34-21.05-1.09-6.41-2.42-13.36-6.22-18a15.94,15.94,0,0,1-2-2.62c-1-1.9-1-4.26-1-6.43l.61-29.56c.07-3.55.12-7.26-1-10.7-1.25-3.77-3.83-6.84-4.7-10.74-1-4.63.59-9.25-.33-13.9s-4.15-8.21-6.75-11.9a23.47,23.47,0,0,1-2.88-5.52c-1.74-4.9-5.31-8.41-9.15-8.61-4.84-.25-9.52.38-13.48,3.26-6.37,4.63-9.33,17.53-3.79,25.7,1.33,2,3.11,3.69,3.51,6.16.49,3.07-1.47,5.71-.92,8.77.32,1.81,1.43,3.28,2.19,4.92,2.07,4.5,1.27,9.79.92,14.66s.34,11,3.76,13.63c1.43,1.09,3.11,1.32,4.47,2.58,3.06,2.81,2.8,8.7,1.67,12.88s-2.69,8.87-.95,13.21,6.26,6.38,7.65,11C132.23,664.31,130.14,671.39,130.14,671.39Z" fill="#fde9f8"/><path d="M111.73,577.07c.49,3.07-1.47,5.71-.92,8.77.32,1.81,1.43,3.28,2.19,4.92,2.07,4.5,1.27,9.79.92,14.66s.34,11,3.76,13.63c1.43,1.09,3.11,1.32,4.47,2.58a6.16,6.16,0,0,1,.93,1.1,1.45,1.45,0,0,0,2.56.15c2.67-4.08,6.76-6.75,10.52-9.28a28.3,28.3,0,0,0,8.67-8.44c1.21-2-.9-5.06-2.52-3.67a33.18,33.18,0,0,1-12.4,6.79c-1.86.54-3.2-3-1.66-4.35a64.26,64.26,0,0,0,4.84-4.79c1.36-1.48,0-4.68-1.79-4.22l-.17.05c-1.77.45-3.15-2.73-1.81-4.21a26.8,26.8,0,0,0,4.48-7c.73-1.63-.48-3.89-2-3.74a27.44,27.44,0,0,1-6.94-.23c-1.57-.25-2.39-2.87-1.32-4.2a32.55,32.55,0,0,0,5.59-10.86c.51-1.68-.67-3.73-2.06-3.52a62,62,0,0,1-19.88-.18c-1.1-.19-1.92,1-1.73,2.45a17.24,17.24,0,0,0,2.73,7.44C109.55,572.86,111.33,574.6,111.73,577.07Z" fill="#ffb4ee"/><path d="M131.9,648.76,137,645.3c1.15-.79.54-3.29-.83-3.38h-.22c-1.38-.1-2-2.58-.83-3.4a34.94,34.94,0,0,0,8.39-8.76c.8-1.17-.09-3.25-1.33-3.09l-16.6,2.17a1.3,1.3,0,0,0-1,1.32,22.68,22.68,0,0,1-.72,4.36c-1.13,4.18-2.69,8.87-.95,13.21s6.26,6.38,7.65,11c1.71,5.63-.38,12.71-.38,12.71-.26,6.11,5.16,10.61,15.13,11.16,5,.27,10.5,1.4,15.21-1.15a1.64,1.64,0,0,0,.65-1.65c-.16-1.64-.48-4.77-.84-8.09a1.9,1.9,0,0,0-1.37-1.78c-2-.26-4-.44-6-.53-1.39-.07-2-2.63-.85-3.38a34.25,34.25,0,0,0,6.29-5.16l.39-1.65a62.47,62.47,0,0,0-2.62-10.81,1.43,1.43,0,0,0-1.64-1.1c-7.44,2.49-14.73,7.16-22.06,4.84C131.23,651.7,130.87,649.47,131.9,648.76Z" fill="#ffb4ee"/><path d="M143.12,588.8c-1.5.27-2.85,1-4.31,1.42-1.78.5-1,4.44.76,3.9a8.58,8.58,0,0,0,4.63-2.62c.75-.92,0-2.9-1.08-2.7Z" fill="#ffb4ee"/><path d="M139.18,566.81c-1.15-.73-2.66-.18-3.65.43a6.85,6.85,0,0,0-2.69,3.51,2.12,2.12,0,0,0,1.11,2.8c3.07.78,5.8-1.34,6.78-5a2.3,2.3,0,0,0-.93-2.39c-3.44-1.56-6.6,1-7,5.5-.09.92.71,2.13,1.41,2.16,2.21.09,4.92-1,5.32-4.15.13-1-.72-2.53-1.55-1.88-1.18.92-2.22,2.29-3.75,2.27l1.41,2.15c.16-2.06,1.91-3.39,3.45-2.72l-.93-2.39c-.59,2.27-2.31,3.42-4.17,3l1.11,2.79a7.85,7.85,0,0,1,1.71-2.93c.77-.79,1.75-.92,2.55-1.57a1,1,0,0,0-.15-1.6Z" fill="#ffb4ee"/><path d="M107.43,564.3c.08,0,.09-.16,0-.18s-.09.17,0,.18Z" fill="#00b1bf"/><path d="M109.13,562.45c-1,.24-2.19-.86-2.78-2.21a7.73,7.73,0,0,1-.47-4.41,12.66,12.66,0,0,1,1.15-3.49,8.82,8.82,0,0,1,.77-1.5,8.3,8.3,0,0,1,.94-1.3,20.34,20.34,0,0,1,4.59-3.67,50.3,50.3,0,0,1,4.82-3,11.19,11.19,0,0,1,5.48-1.36c.48,0,1,0,1.45.07l1.48.24a8.38,8.38,0,0,1,3.09,1.34,8,8,0,0,1,2.74,3.4,8.27,8.27,0,0,1,.55,4.71,7.53,7.53,0,0,1-1.49,3.38,9.67,9.67,0,0,1-2.19,2l-.2-.26c.92-2,1.87-3.93,1.83-5.9a4.43,4.43,0,0,0-2.22-4.07,12.68,12.68,0,0,0-4.83-1.63,23.07,23.07,0,0,0-5.19-.08,8.88,8.88,0,0,0-4.83,2.11,16.59,16.59,0,0,0-3.38,4.8,36,36,0,0,0-2.6,5.25,5.54,5.54,0,0,0-.24,2.74,3.58,3.58,0,0,0,1.52,2.45Z" fill="#ffcfef"/><path d="M115.63,579.73a21.88,21.88,0,0,0,19.43-1.07c1-.58.36-3-.78-2.64-2.84.82-5.54,1.92-8.5,2.24-3.3.36-6.62-.31-10-.43-.76,0-1.1,1.48-.2,1.9Z" fill="#fde9f8"/><path d="M105.88,556.54c-.74,3-.22,7,1.78,9.5.59.73,1.6.15,1.14-.94a18.39,18.39,0,0,1-1.14-9.1c.13-1.23-1.28-1.57-1.57-.58-1.14,3.85-1.64,7.87.81,11.74,1,1.52,2.37.1,1.84-1.52-1.25-3.8-1-7.1-.43-10.74l-1.86-.69c-.2,4.19.17,8.16,2.62,11.64,1.11,1.57,2.53-.17,1.63-1.85a14.77,14.77,0,0,1-1.11-10.48l-2.08-1.15c-.72,2.55-1.3,5.5-.14,8.37s3.34,3.62,5.45,4.14c1.38.33,1.76-2.66.35-3.2a5.83,5.83,0,0,1-3.55-2.69,7.92,7.92,0,0,1,0-5.47c.46-1.4-1.43-2.82-2-1.47-1.67,4.2-.84,9.54,1.45,13.8L110.7,564a15.28,15.28,0,0,1-2.36-9.42c0-1.26-1.3-1.94-1.76-1-1.77,3.74-1.3,8.84.13,13.21l1.84-1.52c-1.67-2.65-1.48-6.2-.92-9l-1.54-.86a22.64,22.64,0,0,0,1.46,10.4l1.25-.72a25.52,25.52,0,0,1-1.39-8c0-1.18-1.27-1.62-1.53-.57Z" fill="#ffcfef"/><path d="M128,546.37a5.86,5.86,0,0,0-3.47-.84c-5.69-.48-12.32,3.59-15.15,8.64-1.4,2.48-1.66,5.68.92,7.68,3.35,2.59,7.25.9,10.26-.52C123.11,560.14,135.6,551.1,128,546.37Z" fill="#442a3b"/><path d="M122.12,579.56c1.91-.65,5.68-1.36,6-4.5.06-.49-.32-1.14-.71-.87a25.34,25.34,0,0,0-2.23,2.47,12,12,0,0,1-3.35,2.09c-.31.15-.09.92.24.81Z" fill="#fde9f8"/><path d="M119.92,580a6.65,6.65,0,0,0,5.5-1.61c1.19-1,3.18-2.73,3-4.94,0-.48-.36-.79-.68-.65-.68.3-.94,1-1.42,1.63a10.07,10.07,0,0,1-2,2.09,12.34,12.34,0,0,1-4.63,2c-.59.15-.52,1.36.14,1.49Z" fill="#fde9f8"/><path d="M119,579.75a8.71,8.71,0,0,0,5.48-2c1.25-1.14,3.22-2.71,3.43-4.89,0-.4-.31-.74-.57-.69-1.36.23-2.28,2.11-3.3,3.17a10.13,10.13,0,0,1-5.35,2.82c-.73.18-.44,1.65.31,1.58Z" fill="#fde9f8"/><path d="M120.12,574.64c1.06.2,1.07-2,0-2.18s-1.07,2,0,2.18Z" fill="#ffcfef"/><path d="M117.61,594.28c4.7,4.6,15.32,2.51,17.77-3.54.41-1-.26-2.52-1.23-2.36-2.76.44-5.06,2.68-7.84,3.32s-5.82-.22-8.49.6a1.23,1.23,0,0,0-.21,2Z" fill="#fde9f8"/><path d="M152.55,682.57l-.34-1.47-.05-.21c-.91-3.92-3.17-13.53-3.85-15.77l-.18-.59h0c0-.1-.07-.21-.1-.32-.18-.56-.35-1.12-.54-1.68,0-.13-.08-.27-.13-.4-.22-.68-.46-1.35-.7-2l0-.05c-1.3-3.53-2.92-6.83-5.35-9a11.47,11.47,0,0,1-1.93-1.83c-1-1.41-1.29-3.43-1.5-5.28q-1.4-12.65-2.78-25.28c-.34-3-.71-6.2-2-8.9-1.44-3-3.86-5.06-5-8.21-1.36-3.73-.55-8-1.81-11.76s-4.27-6.17-6.79-8.79a17.82,17.82,0,0,1-3-4.12,12.27,12.27,0,0,0-2.76-3.65,5.78,5.78,0,0,0-2.1-1.64,6.15,6.15,0,0,0-2.65-.53l-.63,0c.46.65,1,1.28,1.43,1.93a16.74,16.74,0,0,1,1,1.49,8.41,8.41,0,0,1,.72,1.62,6.55,6.55,0,0,1,.21.9,6.2,6.2,0,0,1,.08,1.13,21.35,21.35,0,0,1-.82,4.33,9.86,9.86,0,0,0-.28,2.18,6.32,6.32,0,0,0,.1,1.13h0a.29.29,0,0,0,0,.09,9,9,0,0,0,.91,2.43c.2.4.43.8.64,1.19s.43.8.62,1.21a18.34,18.34,0,0,1,1.36,8.13c0,1.25-.12,2.51-.22,3.75-.07.94-.15,1.86-.22,2.78-.28,4,.12,8.76,2.11,11.83a7.3,7.3,0,0,0,1.65,1.8,11.09,11.09,0,0,0,2.26,1.23,9.48,9.48,0,0,1,1.68.92,5.25,5.25,0,0,1,.53.43,5.13,5.13,0,0,1,.51.53,6,6,0,0,1,.42.57h0c1.3,1.93,1.65,4.66,1.48,7.33a.24.24,0,0,0,0,.08,22.68,22.68,0,0,1-.72,4.36c-.43,1.57-.91,3.21-1.26,4.87-.11.56-.21,1.12-.29,1.67a15.79,15.79,0,0,0-.14,3.36q0,.42.09.84a11,11,0,0,0,.65,2.47,15.69,15.69,0,0,0,3.4,4.81l.57.6c.57.61,1.13,1.22,1.65,1.86l.5.66a10.4,10.4,0,0,1,1.53,3,14.33,14.33,0,0,1,.47,2.16,18.14,18.14,0,0,1,.19,2.2c0,.36,0,.73,0,1.08,0,.71-.05,1.41-.12,2.07a30.06,30.06,0,0,1-.93,5.2,8.5,8.5,0,0,0,0,1.13,9.36,9.36,0,0,0,.15,1.08,8.49,8.49,0,0,0,1.87,3.86,11.21,11.21,0,0,0,2.71,2.3,22.24,22.24,0,0,0,10.38,2.79c.33,0,.65,0,1,.06l.32,0,.68.06.48,0,.86.07.59.05.45,0,.56,0,.46,0,.55,0,.46,0h.39l0,0C152.24,682.83,152.4,682.72,152.55,682.57Z" fill="#ffb4ee"/><path d="M120.54,681.1c.45,5.09,5.19,7.76,13.08,6.28,4.2-.78,8.89-.88,12.38-4.4,0,0-3.27-14.17-4.11-16.92-1.54-5.07-3.33-10.55-6.81-13.61a11.18,11.18,0,0,1-1.87-1.78c-1-1.36-1.25-3.32-1.45-5.11l-2.7-24.51c-.32-2.94-.68-6-2-8.62-1.38-2.87-3.74-4.91-4.84-8-1.31-3.62-.53-7.74-1.75-11.4s-4.14-6-6.58-8.52a16.79,16.79,0,0,1-2.86-4c-1.89-3.71-5.07-5.91-8.11-5.33-3.82.72-7.43,2.14-10.23,5.28-4.51,5-5.45,16.27-.22,21.93,1.25,1.35,2.84,2.45,3.42,4.41.72,2.43-.54,5,.22,7.41.44,1.43,1.48,2.43,2.25,3.64,2.11,3.31,2,7.83,2.3,11.91s1.45,9,4.42,10.53c1.24.62,2.58.49,3.78,1.26,2.71,1.73,3.14,6.64,2.7,10.3s-1.15,7.84.68,11.08,5.6,4.06,7.18,7.57C121.42,674.85,120.54,681.1,120.54,681.1Z" fill="#ffb4ee"/><path d="M95.94,606.84c.72,2.43-.54,5,.22,7.41.44,1.43,1.48,2.43,2.25,3.64,2.11,3.31,2,7.83,2.3,11.91s1.45,9,4.42,10.53c1.24.62,2.58.49,3.78,1.26a4,4,0,0,1,.85.73,1.15,1.15,0,0,0,2-.37c1.66-3.88,4.58-6.88,7.26-9.68a27.24,27.24,0,0,0,5.9-8.64c.74-1.87-1.25-4-2.37-2.54a30.47,30.47,0,0,1-9,8c-1.4.8-2.83-1.85-1.77-3.27s2.26-3.18,3.29-4.88c.9-1.49-.51-3.86-1.86-3.14l-.13.07c-1.34.72-2.77-1.64-1.88-3.12A25.66,25.66,0,0,0,114,608.1c.39-1.49-.8-3.12-1.95-2.71a21.76,21.76,0,0,1-5.47,1.15c-1.26.09-2.19-1.91-1.49-3.21a31.23,31.23,0,0,0,3.22-10c.22-1.48-.93-2.95-2-2.5a48.94,48.94,0,0,1-15.63,3.68c-.88.06-1.4,1.17-1.09,2.35a13.1,13.1,0,0,0,2.94,5.61C93.77,603.78,95.36,604.88,95.94,606.84Z" fill="#ffcfef"/><path d="M119.49,662.09l3.61-3.83c.82-.87.07-2.82-1-2.63l-.18,0c-1.08.18-1.81-1.75-1-2.64a33.78,33.78,0,0,0,5.65-8.84c.5-1.12-.43-2.67-1.38-2.29l-12.8,5a1.24,1.24,0,0,0-.65,1.29,20.88,20.88,0,0,1-.1,3.73c-.44,3.67-1.15,7.84.68,11.08s5.6,4.06,7.18,7.57c2,4.31,1.07,10.56,1.07,10.56.45,5.09,5.19,7.76,13.08,6.28,4-.74,8.4-.87,11.82-3.87a1.58,1.58,0,0,0,.34-1.49l-1.53-6.52c-.18-.73-.73-1.26-1.27-1.2-1.6.17-3.18.41-4.75.72-1.1.21-1.88-1.78-1-2.63a32.06,32.06,0,0,0,4.38-5.46c0-.52.09-.93.13-1.44a49.87,49.87,0,0,0-3.21-8.42,1,1,0,0,0-1.41-.58c-5.57,3.48-10.8,8.74-16.81,8.24C119.28,664.64,118.76,662.87,119.49,662.09Z" fill="#ffcfef"/><path d="M121.85,610.47c-1.15.51-2.13,1.38-3.23,2-1.35.75-.32,3.85,1,3.07a8,8,0,0,0,3.35-3.06c.49-.9-.29-2.4-1.14-2Z" fill="#ffcfef"/><path d="M116.39,593.08c-1-.38-2.11.37-2.81,1.06a6.57,6.57,0,0,0-1.74,3.42c-.2,1,.32,2.07,1.17,2.09,2.49.06,4.41-2.22,4.79-5.4a1.75,1.75,0,0,0-1-1.79c-2.87-.63-5.07,2.12-4.93,5.89,0,.77.79,1.61,1.34,1.5a4.43,4.43,0,0,0,3.73-4.44c0-.87-.83-1.95-1.42-1.26-.83,1-1.49,2.32-2.7,2.6l1.34,1.5c-.09-1.73,1.14-3.17,2.42-2.91l-1-1.79c-.21,2-1.44,3.27-2.95,3.27l1.17,2.09a7.67,7.67,0,0,1,1-2.75c.52-.8,1.27-1.1,1.83-1.79a.86.86,0,0,0-.29-1.29Z" fill="#ffcfef"/><path d="M91.19,597.14c.07,0,0-.16,0-.15s0,.15,0,.15Z" fill="#52cfd7"/><path d="M92.33,595.28c-.77.4-1.82-.29-2.42-1.29a6.35,6.35,0,0,1-.84-3.55,12,12,0,0,1,.52-3.1A8.91,8.91,0,0,1,90,586a8,8,0,0,1,.59-1.25,19.68,19.68,0,0,1,3.21-3.92,45.94,45.94,0,0,1,3.46-3.38,9.61,9.61,0,0,1,4.16-2.18c.38-.08.76-.17,1.15-.22l1.19-.1a6,6,0,0,1,2.57.52,5.63,5.63,0,0,1,2.52,2.27,6.89,6.89,0,0,1,.93,3.78,7.2,7.2,0,0,1-.8,3.08,9.57,9.57,0,0,1-1.51,2.1l-.18-.18a13.41,13.41,0,0,0,.81-5.22,3.29,3.29,0,0,0-2.19-2.93,9.12,9.12,0,0,0-4-.42,17.6,17.6,0,0,0-4.08,1,7.94,7.94,0,0,0-3.57,2.66,16.65,16.65,0,0,0-2.14,4.61A36.58,36.58,0,0,0,90.72,591a4.81,4.81,0,0,0,.11,2.3A2.6,2.6,0,0,0,92.28,595Z" fill="#ffcfef"/><path d="M99.29,608.28c5.09,1.18,11.31-1,15.14-4.63.7-.66,0-2.51-.89-2a44.7,44.7,0,0,1-6.44,3.49c-2.55.93-5.23,1-7.86,1.55-.6.13-.7,1.44.05,1.61Z" fill="#ffb4ee"/><path d="M89.14,591c-.26,2.6.58,5.83,2.42,7.49.54.5,1.27-.18.79-1a15.25,15.25,0,0,1-1.87-7.28c0-1-1.18-1-1.3-.18-.48,3.4-.44,6.81,1.9,9.53.92,1.07,1.87-.38,1.28-1.61-1.39-2.9-1.54-5.67-1.49-8.78L89.33,589c.3,3.49,1,6.7,3.31,9.09,1,1.09,2-.62,1.09-1.83a12.24,12.24,0,0,1-2-8.43L90,587.27c-.29,2.25-.43,4.79.79,6.94s3,2.34,4.73,2.36c1.12,0,1.09-2.53-.08-2.71a4,4,0,0,1-3.07-1.53,6.71,6.71,0,0,1-.61-4.5c.21-1.25-1.43-2.06-1.71-.84a14.22,14.22,0,0,0,2.62,11.1l1.09-1.83a12.11,12.11,0,0,1-2.87-7.32c-.09-1.05-1.23-1.35-1.49-.47-1,3.43-.07,7.55,1.53,10.87.43-.53.85-1.07,1.28-1.61-1.6-1.86-1.83-4.82-1.69-7.25l-1.31-.41a18.61,18.61,0,0,0,2.27,8.3l.9-.84a20.83,20.83,0,0,1-1.95-6.32c-.11-1-1.17-1.09-1.26-.18Z" fill="#ffcfef"/><path d="M105.45,578.37a4.33,4.33,0,0,0-2.82,0c-4.52.7-9.29,5.33-11,10-.83,2.32-.69,5,1.56,6.16,2.9,1.5,5.78-.65,8-2.41C103.06,590.68,111.89,580.81,105.45,578.37Z" fill="#442a3b"/><path d="M104.37,606.89c1.42-.9,4.31-2.22,4.26-4.88,0-.41-.37-.88-.65-.58a24.82,24.82,0,0,0-1.48,2.47,11.26,11.26,0,0,1-2.41,2.37c-.23.18,0,.77.28.62Z" fill="#ffb4ee"/><path d="M102.69,607.68a5.76,5.76,0,0,0,4.14-2.39c.83-1,2.21-2.87,1.86-4.66-.07-.39-.36-.59-.6-.41-.5.38-.63,1-.94,1.62a9.57,9.57,0,0,1-1.31,2.1,10.94,10.94,0,0,1-3.43,2.53c-.44.24-.25,1.23.28,1.21Z" fill="#ffb4ee"/><path d="M102,607.65a7.69,7.69,0,0,0,4.09-2.71c.86-1.18,2.24-2.85,2.17-4.69,0-.33-.33-.55-.52-.46-1,.45-1.57,2.18-2.25,3.25a9.39,9.39,0,0,1-3.9,3.36c-.55.29-.17,1.45.41,1.25Z" fill="#ffb4ee"/><path d="M102.27,603.22c.85,0,.62-1.84-.23-1.8s-.63,1.83.23,1.8Z" fill="#ffb4ee"/><path d="M102.41,619.9c4.18,2.89,12.3-.88,13.57-6.35.21-.92-.47-2-1.22-1.71-2.12.9-3.68,3.19-5.8,4.26s-4.59.94-6.6,2.13a1.07,1.07,0,0,0,0,1.67Z" fill="#ffb4ee"/><path d="M166.36,678.06c.61,3.69-2.3,5.9-8.22,5.33-3.15-.31-6.53-.09-9.67-2.41,0,0-.24-10.39-.14-12.41.18-3.75.47-7.8,2.4-10.21a6.79,6.79,0,0,0,1-1.39,7.33,7.33,0,0,0,.11-3.77q-1.26-8.9-2.53-17.79a18.27,18.27,0,0,1-.18-6.32c.47-2.15,1.79-3.76,2-6,.28-2.69-1-5.6-.82-8.31s1.88-4.55,3.16-6.53a9.92,9.92,0,0,0,1.32-3.05c.68-2.79,2.55-4.57,4.84-4.34A15.11,15.11,0,0,1,168,604c4.14,3.35,6.86,11.36,4.14,15.76-.64,1.05-1.58,1.93-1.64,3.37-.07,1.8,1.29,3.56,1.2,5.35a9.33,9.33,0,0,1-1,2.75c-.91,2.52,0,5.76.52,8.71s.61,6.59-1.25,7.84c-.77.52-1.76.51-2.48,1.14-1.62,1.41-1,5-.05,7.58s2.25,5.56,1.53,8-3.27,3.26-3.77,5.88C164.6,673.62,166.36,678.06,166.36,678.06Z" fill="#ffb4ee"/><path d="M170.45,623.14c-.07,1.8,1.29,3.56,1.2,5.35a9.33,9.33,0,0,1-1,2.75c-.91,2.52,0,5.76.52,8.71s.61,6.59-1.25,7.84c-.77.52-1.76.51-2.48,1.14a2.39,2.39,0,0,0-.47.58c-.35.59-1.08.49-1.52-.14a31.25,31.25,0,0,0-7-6.51,25.18,25.18,0,0,1-5.8-5.85c-.87-1.3.17-3,1.24-2a28.2,28.2,0,0,0,7.91,5.19c1.15.49,1.69-1.51.67-2.46s-2.2-2.15-3.25-3.31-.33-2.81.77-2.37l.1,0c1.09.43,1.68-1.35.78-2.36a23,23,0,0,1-3.2-4.61c-.55-1,0-2.29.91-2.07a16.17,16.17,0,0,0,4.12.49c.92,0,1.22-1.5.48-2.4a27.46,27.46,0,0,1-4.13-7c-.43-1.06.13-2.18,1-1.93A38.5,38.5,0,0,0,172,613.92c.64,0,1.22.76,1.21,1.63a8.19,8.19,0,0,1-1.09,4.22C171.45,620.82,170.51,621.7,170.45,623.14Z" fill="#ffcfef"/><path d="M163.65,664.33l-3.28-2.54c-.74-.57-.56-2,.25-1.95h.13c.81.07,1-1.37.25-2a31,31,0,0,1-5.66-6c-.56-.77-.18-1.94.57-1.73L166,652.94a1.12,1.12,0,0,1,.7.89,16.26,16.26,0,0,0,.75,2.68c1,2.61,2.25,5.56,1.53,8s-3.27,3.26-3.77,5.88c-.6,3.22,1.16,7.66,1.16,7.66.61,3.69-2.3,5.9-8.22,5.33-3-.29-6.17-.11-9.17-2.06a1.32,1.32,0,0,1-.51-1.05c0-1-.06-2.82-.09-4.78,0-.54.28-1,.69-.94,1.17,0,2.35.09,3.53.22.82.08,1-1.39.26-1.95a30.67,30.67,0,0,1-4.14-3.66l-.36-1a33,33,0,0,1,.77-6.25.65.65,0,0,1,.91-.51c4.62,2.17,9.32,5.63,13.54,4.89C164.27,666.15,164.32,664.84,163.65,664.33Z" fill="#ffcfef"/><path d="M152.56,627.35c.91.3,1.77.86,2.67,1.24,1.1.46.93,2.75-.17,2.27a7.19,7.19,0,0,1-2.95-2c-.52-.62-.23-1.74.45-1.52Z" fill="#ffcfef"/><path d="M153.29,614.51c.64-.33,1.58.14,2.22.59a6,6,0,0,1,1.86,2.35c.33.71.15,1.51-.45,1.58-1.78.19-3.57-1.33-4.42-3.59-.2-.52,0-1.22.38-1.35,1.94-.63,4,1.21,4.6,3.93.12.56-.27,1.21-.68,1.17a4,4,0,0,1-3.48-3c-.15-.62.24-1.45.79-1,.77.66,1.49,1.58,2.4,1.7-.22.39-.45.78-.68,1.16-.25-1.25-1.39-2.2-2.27-1.94l.39-1.35a2.88,2.88,0,0,0,2.71,2.17l-.46,1.58a6.75,6.75,0,0,0-1.24-1.92,19.08,19.08,0,0,0-1.64-1.17c-.29-.26-.34-.78,0-1Z" fill="#ffcfef"/><path d="M172.09,615.88c-.06,0-.07-.11,0-.11s.07.1,0,.11Z" fill="#52cfd7"/><path d="M170.93,614.61c.63.24,1.25-.32,1.5-1.07a4.47,4.47,0,0,0,0-2.61,10.56,10.56,0,0,0-.94-2.2,9,9,0,0,0-.57-1,8.28,8.28,0,0,0-.66-.87,19,19,0,0,0-3-2.62c-1-.77-2-1.53-3.1-2.21a8.45,8.45,0,0,0-3.37-1.32c-.29,0-.58-.07-.87-.08H159a3.91,3.91,0,0,0-1.75.53,3.22,3.22,0,0,0-1.39,1.79,4.7,4.7,0,0,0,0,2.78,6.14,6.14,0,0,0,1.13,2.16,8.89,8.89,0,0,0,1.47,1.42l.09-.14a11.12,11.12,0,0,1-1.52-3.7,2,2,0,0,1,1-2.25,6.1,6.1,0,0,1,2.77-.54,14.15,14.15,0,0,1,3.1.42,7.26,7.26,0,0,1,3,1.7,14.62,14.62,0,0,1,2.37,3.19,30.74,30.74,0,0,1,1.94,3.38,3.72,3.72,0,0,1,.34,1.66,1.54,1.54,0,0,1-.73,1.34Z" fill="#ffcfef"/><path d="M168.32,624.39c-3.43,1.16-8.28,0-11.7-2.4-.62-.43-.42-1.8.28-1.51a38,38,0,0,0,5.24,2.11,39.82,39.82,0,0,0,5.92.64c.45,0,.76,1,.26,1.16Z" fill="#ffb4ee"/><path d="M172.44,611.36c.66,1.85.64,4.23-.37,5.54-.3.38-.94-.06-.74-.67a10.53,10.53,0,0,0,0-5.35c-.17-.76.65-.83.9-.21,1,2.41,1.55,4.87.37,7-.46.82-1.41-.16-1.21-1.08a13.15,13.15,0,0,0-.53-6.4l1.06-.25c.42,2.53.49,4.88-.71,6.74-.55.85-1.53-.32-1.11-1.25a8.52,8.52,0,0,0-.11-6.18l1.16-.51c.62,1.6,1.18,3.42.7,5s-1.73,1.87-3,2c-.8.08-1.24-1.75-.44-2a2.35,2.35,0,0,0,1.92-1.29,4.87,4.87,0,0,0-.38-3.27c-.37-.89.65-1.57,1.07-.71a9.82,9.82,0,0,1,.15,8.14l-1.11-1.25a7.86,7.86,0,0,0,.72-5.44c-.13-.76.63-1.05,1-.42a11.71,11.71,0,0,1,.89,7.91l-1.22-1.08c.81-1.44.44-3.59-.1-5.32l.86-.38a12.84,12.84,0,0,1-.11,6.11l-.8-.55a13.94,13.94,0,0,0,.24-4.67c-.1-.7.64-.85.87-.2Z" fill="#ffcfef"/><path d="M158.45,603.26a3.08,3.08,0,0,1,2-.19c3.36.23,7.62,3.26,9.68,6.55,1,1.61,1.41,3.55,0,4.52-1.81,1.26-4.26-.11-6.17-1.24C162.41,612,154.28,605.41,158.45,603.26Z" fill="#442a3b"/><path d="M164.42,623.7c-1.18-.56-3.49-1.33-3.94-3.24-.07-.3.11-.66.36-.46.55.44,1,1.17,1.51,1.68a10.44,10.44,0,0,0,2.16,1.56c.19.11.12.56-.09.46Z" fill="#ffb4ee"/><path d="M165.77,624.16a5,5,0,0,1-3.4-1.46c-.78-.68-2.1-1.92-2.19-3.23,0-.29.16-.45.36-.33a3.62,3.62,0,0,1,1,1.1,9.14,9.14,0,0,0,1.32,1.44,10.11,10.11,0,0,0,2.92,1.6c.36.15.4.87,0,.88Z" fill="#ffb4ee"/><path d="M166.29,624.1a7,7,0,0,1-3.43-1.69c-.82-.8-2.12-1.92-2.41-3.25,0-.24.14-.41.3-.36.83.26,1.52,1.48,2.2,2.2a8.51,8.51,0,0,0,3.41,2.18c.44.17.38,1-.07.92Z" fill="#ffb4ee"/><path d="M165.26,620.93c-.62,0-.78-1.28-.17-1.3s.79,1.28.17,1.3Z" fill="#ffb4ee"/><path d="M168.2,632.94c-2.47,2.34-9,.12-10.88-3.73-.32-.65,0-1.49.56-1.31,1.69.52,3.22,2.07,4.93,2.7s3.46.4,5.12,1.13a.82.82,0,0,1,.27,1.21Z" fill="#ffb4ee"/><path d="M146.38,709c3.7,4.1,10,1.85,16.8-7.17,3.6-4.79,8.12-9.47,9.27-16,0,0-12.27-9.44-14.84-11.07-4.76-3-10-6.16-15.36-5.5a11,11,0,0,1-3,.24c-1.85-.24-3.35-1.73-4.69-3.14l-18.33-19.22c-2.2-2.3-4.51-4.69-7.42-5.78-3.19-1.21-6.8-.73-9.83-2.37-3.59-1.94-5.47-6.38-9-8.46s-7.87-1.28-11.87-1.16a15.72,15.72,0,0,1-5.36-.77,9.84,9.84,0,0,0-11.33,3.15c-3.27,4.39-5.88,9.18-6.61,14.71-1.17,8.9,5.09,19.82,13.83,19.76,2.09,0,4.34-.59,6.16.59,2.26,1.48,2.67,5,5,6.4,1.36.84,3,.72,4.53,1,4.18.9,7,5,9.87,8.38s7.2,6.64,11.06,5.06c1.6-.65,2.83-2.08,4.5-2.57,3.75-1.09,7.31,2.86,9.23,6.56s3.89,8.11,7.76,9.22,8.06-1.86,11.85-.27C143.24,702.6,146.38,709,146.38,709Z" fill="#fde9f8"/><path d="M74.83,666.82c2.26,1.48,2.67,5,5,6.4,1.36.84,3,.72,4.53,1,4.18.9,7,5,9.87,8.38s7.2,6.64,11.06,5.06c1.6-.65,2.83-2.08,4.5-2.57A4.91,4.91,0,0,1,111,685a1.88,1.88,0,0,0,1.74-2.3c-.87-5.08.07-10.61.89-15.73.7-4.33,1.11-9.13.24-13.46a2,2,0,0,0-3.94,0,51.21,51.21,0,0,1-3.69,15.92c-.86,2.09-3.94,1.12-3.82-1.19q.21-3.76.09-7.56c-.07-2.2-3-2.94-3.83-1l-.08.18c-.85,2-3.75,1.24-3.83-.95a30.8,30.8,0,0,0-1.55-8.63,2,2,0,0,0-3.64-.51A39.75,39.75,0,0,1,85,656.18a2.06,2.06,0,0,1-3.5-1.41,35,35,0,0,0-3.29-12.09,2,2,0,0,0-3.55-.29,90.87,90.87,0,0,1-12.9,18.55,2.16,2.16,0,0,0,.44,3.17,11,11,0,0,0,6.46,2.12C70.76,666.22,73,665.64,74.83,666.82Z" fill="#ffb4ee"/><path d="M133.19,693.1c.36-2.32.71-4.63,1.07-6.94a1.55,1.55,0,0,0-2.67-1.36l-.16.21c-.94,1.22-2.89.21-2.68-1.37a47.4,47.4,0,0,0-.14-13.4,1.53,1.53,0,0,0-2.82-.69l-9.3,16.94a1.58,1.58,0,0,0,.18,1.78,18.53,18.53,0,0,1,2.3,3.43c1.92,3.69,3.89,8.11,7.76,9.22s8.06-1.86,11.85-.27c4.66,2,7.8,8.37,7.8,8.37,3.7,4.1,10,1.85,16.8-7.17,3.41-4.54,7.64-9,9.06-15a1.65,1.65,0,0,0-.62-1.66c-1.15-.88-3.33-2.55-5.67-4.32a1.47,1.47,0,0,0-2,.17q-2.17,2.57-4.18,5.27a1.54,1.54,0,0,1-2.68-1.33,49.88,49.88,0,0,0,.78-9.15l-.79-1.42a40.91,40.91,0,0,0-8.53-4.36,1.4,1.4,0,0,0-1.75.85c-3.21,8.55-4.94,18.34-11.14,23.77A1.58,1.58,0,0,1,133.19,693.1Z" fill="#ffb4ee"/><path d="M102.45,644.76c-.79,1.57-1.19,3.31-1.87,4.94-.83,2,2.16,3.75,3,1.74a13.29,13.29,0,0,0,1.32-6c-.1-1.28-1.82-1.85-2.41-.68Z" fill="#ffb4ee"/><path d="M86,634.58c-1.21.63-1.83,2.39-2.08,3.7a8.52,8.52,0,0,0,.49,4.75,1.51,1.51,0,0,0,2.49.72,8.06,8.06,0,0,0,1.22-9.5,1.57,1.57,0,0,0-2.12-.63c-3.2,2.24-3.59,6.84-1,10.07a1.57,1.57,0,0,0,2.27,0c1.48-2,2.54-5.24.8-7.6-.56-.77-2.06-.93-2.19.26-.17,1.69,0,3.53-1,5l2.27,0a3.65,3.65,0,0,1,.5-5l-2.11-.62a4.89,4.89,0,0,1-.79,5.79l2.49.73a8.7,8.7,0,0,1-.76-3.46c0-1.22.54-2.22.64-3.39a.79.79,0,0,0-1.1-.87Z" fill="#ffb4ee"/><path d="M64,662.82c.07-.08,0-.19-.12-.12s0,.19.12.12Z" fill="#00b1bf"/><path d="M63.91,660.05a2.78,2.78,0,0,1-3.19,1.21,5.24,5.24,0,0,1-3.1-2.34,12.17,12.17,0,0,1-1.48-3.27A10,10,0,0,1,55.7,654a11.12,11.12,0,0,1-.22-1.71,30,30,0,0,1,.62-6.62c.34-2.14.7-4.26,1.22-6.4a17.51,17.51,0,0,1,2.66-6c.33-.44.64-.9,1-1.33l1.1-1.23a9.31,9.31,0,0,1,2.84-2.06,6,6,0,0,1,3.91-.43,5.58,5.58,0,0,1,3.33,2.46,7.66,7.66,0,0,1,1.19,3.52,13.27,13.27,0,0,1-.13,3.35h-.29c-.68-2.12-1.28-4.23-2.55-5.43a3.1,3.1,0,0,0-4-.48,14.94,14.94,0,0,0-4.14,3.5A33.31,33.31,0,0,0,58.83,640a13.92,13.92,0,0,0-1.78,5.86,20.52,20.52,0,0,0,.87,6.2,39.26,39.26,0,0,0,1.65,5.76,4.31,4.31,0,0,0,1.58,1.94,2.48,2.48,0,0,0,2.53.12Z" fill="#ffb4ee"/><path d="M79,664.85c5.72-3.93,10.43-11.92,11.83-18.93.25-1.27-1.65-2.19-2.17-.93a81,81,0,0,1-4.06,9.4c-1.89,3.33-4.45,6-6.67,9.06-.51.7.23,2,1.07,1.4Z" fill="#fde9f8"/><path d="M58.07,659.37c1.41,2.57,4.3,4.63,7.16,4.32a.85.85,0,0,0,.13-1.66,12.42,12.42,0,0,1-6.49-4.67c-.7-.9-1.81.21-1.38,1.11,1.71,3.5,3.93,6.51,8,6.65,1.58,0,1.59-2.17.22-2.69-3.21-1.23-5.13-3.55-7.08-6.37L57,657.37c2.53,2.82,5.28,5,9.05,4.88,1.71,0,1.53-2.48-.12-2.7-3.33-.45-5.64-2.64-7.34-5.56l-2.07,1.22c1.15,2.29,2.64,4.69,5.21,5.41s4.43-.85,6.12-2.51c1.1-1.08-.54-3.32-1.8-2.34-1.1.86-2.52,1.94-4,1.63s-2.83-1.95-3.48-3.41a1.2,1.2,0,0,0-2.21.91A11.8,11.8,0,0,0,66,662.25l-.12-2.7c-2.9.09-5.47-1.52-7.48-3.73a1,1,0,0,0-1.75,1c1.23,4,4.76,6.8,8.45,8.21.07-.9.15-1.8.22-2.69-2.76-.1-4.88-2.52-6.3-4.81l-1.54.9A15.1,15.1,0,0,0,65,663.66c.11-.54.23-1.09.34-1.63a16.63,16.63,0,0,1-5.94-3.73.87.87,0,0,0-1.35,1.07Z" fill="#ffcfef"/><path d="M65.89,632.15a7.47,7.47,0,0,0-2.76,2.74c-4,5-5.66,13.82-4.29,19.66.68,2.88,2.54,5.14,5.46,4,3.8-1.51,5.23-6.23,6.27-10C71.43,645.47,73.75,628,65.89,632.15Z" fill="#442a3b"/><path d="M83.09,658.64c.82-2.19,2.79-6.19,1-8.52-.27-.36-.93-.41-1,.13a32.13,32.13,0,0,0,.13,3.65,19,19,0,0,1-.83,4.45c-.11.39.52.67.66.29Z" fill="#fde9f8"/><path d="M82,661a10.19,10.19,0,0,0,2.52-6.17c.16-1.72.32-4.71-1.16-6a.5.5,0,0,0-.85.23,5.28,5.28,0,0,0,.12,2.36,13.38,13.38,0,0,1,.06,3.16,19.27,19.27,0,0,1-1.72,5.6c-.28.64.53,1.34,1,.8Z" fill="#fde9f8"/><path d="M81.22,661.67a13.59,13.59,0,0,0,2.27-6.41c.08-1.89.36-4.72-.89-6.3a.5.5,0,0,0-.81.1c-.73,1.42-.12,3.48-.11,5.09A15.45,15.45,0,0,1,80,661c-.35.8.77,1.46,1.2.71Z" fill="#fde9f8"/><path d="M78.69,657.42c.81-.86-.56-2.25-1.37-1.38s.56,2.24,1.37,1.38Z" fill="#ffcfef"/><path d="M89.5,672.16c5.94-1.51,11.46-12.8,9.2-18.91a1.26,1.26,0,0,0-2.29-.34c-1.49,2.87-1.56,6.44-2.94,9.46s-3.88,5.32-5.08,8.35a1,1,0,0,0,1.11,1.44Z" fill="#fde9f8"/><path d="M167.88,695l-1.15-.61-.17-.09c-3.06-1.61-10.6-5.56-12.46-6.33l-.49-.2h0l-.27-.1c-.47-.19-.93-.38-1.41-.56l-.33-.13c-.58-.22-1.16-.42-1.74-.62h-.05c-3.06-1-6.2-1.57-9.12-.63a9.59,9.59,0,0,1-2.4.65c-1.55.07-3-.95-4.3-1.92l-17.8-13.33c-2.14-1.6-4.38-3.25-6.93-3.73-2.79-.52-5.69.43-8.41-.48-3.23-1.08-5.41-4.52-8.61-5.72s-6.65.12-9.93.83a12.4,12.4,0,0,1-4.51.17,9,9,0,0,0-4.08.29,5.19,5.19,0,0,0-2.39.94,8,8,0,0,0-2,2.15l-.38.62c.71,0,1.43-.08,2.15-.12a11.73,11.73,0,0,1,1.57,0,4.75,4.75,0,0,1,2.2.71,5.23,5.23,0,0,1,.77.64,18.23,18.23,0,0,1,2.21,3.5A8,8,0,0,0,79,672.6a4.65,4.65,0,0,0,.77.62h0l.08,0a5.73,5.73,0,0,0,2.12.68l1.17.15a11.19,11.19,0,0,1,1.16.18,12,12,0,0,1,6,3.85c.78.81,1.52,1.69,2.24,2.57l1.61,2c2.32,2.76,5.63,5.42,8.85,5.47a5.49,5.49,0,0,0,2.21-.41,12.25,12.25,0,0,0,2.22-1.34,9.84,9.84,0,0,1,1.67-1,6.37,6.37,0,0,1,.61-.23,5.18,5.18,0,0,1,.66-.14c.22,0,.43,0,.64,0h0c2.06,0,4,1.4,5.59,3.25l0,.06a18.53,18.53,0,0,1,2.3,3.43c.72,1.39,1.44,2.87,2.28,4.25.27.46.56.9.87,1.33a11.55,11.55,0,0,0,2,2.25,6,6,0,0,0,.59.44,6.65,6.65,0,0,0,2,.95,11,11,0,0,0,5.22-.16l.75-.15c.75-.15,1.5-.3,2.24-.38l.74-.05a6.63,6.63,0,0,1,2.9.47,9.85,9.85,0,0,1,1.68.92,13.34,13.34,0,0,1,1.51,1.21l.69.67c.44.46.85.94,1.23,1.41a25.17,25.17,0,0,1,2.69,4.16,5.87,5.87,0,0,0,.73.69,5.81,5.81,0,0,0,.78.55,5.6,5.6,0,0,0,3.65.67,9.57,9.57,0,0,0,3.2-1.09c2.61-1.39,5.48-4,8.44-8l.67-.88.22-.28.47-.61.34-.42.59-.76.42-.53.31-.4c.13-.16.26-.33.38-.5l.32-.41.37-.5.31-.42.26-.36a.13.13,0,0,1,0-.06C167.84,695.49,167.88,695.27,167.88,695Z" fill="#ffb4ee"/><path d="M146.35,724.15c3.52,2.79,8.25,0,12.4-8.31,2.2-4.43,5.16-8.9,5.17-14.4,0,0-11.07-5.86-13.35-6.81-4.2-1.75-8.82-3.53-13-2.19a9.39,9.39,0,0,1-2.32.63c-1.51.08-2.91-.92-4.17-1.86l-17.26-12.92c-2.07-1.55-4.24-3.15-6.71-3.61-2.71-.51-5.52.42-8.15-.47-3.14-1.05-5.25-4.38-8.35-5.55s-6.45.13-9.63.81a12.07,12.07,0,0,1-4.37.17A8,8,0,0,0,68,673.88a26.78,26.78,0,0,0-3.24,12.94c.3,7.41,6.79,15.37,13.75,14,1.66-.32,3.37-1.12,5-.43,2,.86,2.82,3.65,4.84,4.47,1.19.48,2.49.14,3.75.18,3.45.11,6.27,3,9,5.35s6.65,4.34,9.51,2.49c1.19-.77,2-2.11,3.23-2.75,2.83-1.45,6.22,1.24,8.26,4s4.22,6,7.45,6.35,6.17-2.7,9.41-2C143,719.39,146.35,724.15,146.35,724.15Z" fill="#ffb4ee"/><path d="M83.51,700.42c2,.86,2.82,3.65,4.84,4.47,1.19.48,2.49.14,3.75.18,3.45.11,6.27,3,9,5.35s6.65,4.34,9.51,2.49c1.19-.77,2-2.11,3.23-2.75a3.54,3.54,0,0,1,1-.34,1.57,1.57,0,0,0,1.07-2.14c-1.39-4-1.41-8.63-1.46-12.92a32.66,32.66,0,0,0-1.67-11,1.6,1.6,0,0,0-3.13.63,43.2,43.2,0,0,1-.74,13.49c-.4,1.83-3,1.5-3.21-.4-.24-2.06-.56-4.12-1-6.16a1.63,1.63,0,0,0-3.19-.23,1,1,0,0,1,0,.17,1.63,1.63,0,0,1-3.18-.21,25.52,25.52,0,0,0-2.43-6.79,1.61,1.61,0,0,0-3,.12,32.48,32.48,0,0,1-2.79,5.86,1.65,1.65,0,0,1-3-.62,29,29,0,0,0-4.28-9.35,1.59,1.59,0,0,0-2.87.29,76.34,76.34,0,0,1-7.73,17,1.79,1.79,0,0,0,.79,2.51,8.69,8.69,0,0,0,5.45.78C80.19,700.53,81.9,699.73,83.51,700.42Z" fill="#ffcfef"/><path d="M133.64,713.15c0-1.93-.07-3.86-.1-5.8a1.25,1.25,0,0,0-2.32-.7l-.09.19a1.26,1.26,0,0,1-2.33-.72,39.8,39.8,0,0,0-2-10.88,1.23,1.23,0,0,0-2.34-.15q-2.53,7.59-5.08,15.16a1.3,1.3,0,0,0,.4,1.42,15.17,15.17,0,0,1,2.3,2.45c2,2.72,4.22,6,7.45,6.35s6.17-2.7,9.41-2c4,.89,7.37,5.65,7.37,5.65,3.52,2.79,8.25,0,12.4-8.31,2.08-4.2,4.85-8.43,5.15-13.54a1.35,1.35,0,0,0-.73-1.25l-5.11-2.68a1.16,1.16,0,0,0-1.57.44c-.92,1.6-1.79,3.24-2.61,4.9a1.24,1.24,0,0,1-2.32-.68,41.79,41.79,0,0,0-.64-7.56l-.83-1a32.32,32.32,0,0,0-7.39-2.28,1.14,1.14,0,0,0-1.28,1c-1.38,7.43-1.41,15.65-5.6,21A1.26,1.26,0,0,1,133.64,713.15Z" fill="#ffcfef"/><path d="M102.48,678.39c-.41,1.39-.49,2.87-.81,4.29-.39,1.74,2.24,2.73,2.6,1a11.13,11.13,0,0,0,.22-5.07,1,1,0,0,0-2-.2Z" fill="#ffb4ee"/><path d="M88,672.54c-.87.69-1.12,2.22-1.13,3.32a7.1,7.1,0,0,0,1,3.79,1.21,1.21,0,0,0,2.08.22,6.77,6.77,0,0,0-.34-7.91,1.25,1.25,0,0,0-1.77-.2,5.82,5.82,0,0,0,.56,8.34,1.25,1.25,0,0,0,1.81-.31c.9-1.85,1.3-4.63-.41-6.3-.56-.54-1.77-.45-1.71.54.09,1.4.51,2.86-.1,4.17l1.82-.31a3,3,0,0,1-.29-4.11l-1.77-.19a4.12,4.12,0,0,1,.17,4.83l2.08.22a7.37,7.37,0,0,1-1.08-2.7c-.17-1,.13-1.89,0-2.85a.65.65,0,0,0-1-.55Z" fill="#ffb4ee"/><path d="M74.32,698.76c0-.06-.07-.14-.11-.07s.06.14.11.07Z" fill="#52cfd7"/><path d="M73.88,696.52A2.24,2.24,0,0,1,71.5,698a4.14,4.14,0,0,1-2.79-1.45,9.81,9.81,0,0,1-1.63-2.44,8.77,8.77,0,0,1-.58-1.29,9.51,9.51,0,0,1-.41-1.35,25.61,25.61,0,0,1-.42-5.48c0-1.79,0-3.57.09-5.39a14.73,14.73,0,0,1,1.29-5.27c.2-.41.39-.83.61-1.23l.7-1.17a7.8,7.8,0,0,1,2-2.08,4.75,4.75,0,0,1,3.06-.94,4.45,4.45,0,0,1,3,1.51,6.44,6.44,0,0,1,1.44,2.69,11.92,11.92,0,0,1,.36,2.74l-.24.06c-.83-1.63-1.6-3.25-2.78-4a2.46,2.46,0,0,0-3.26.21,12.58,12.58,0,0,0-2.82,3.46,28.29,28.29,0,0,0-2,4.42,11.68,11.68,0,0,0-.61,5A16.91,16.91,0,0,0,68,690.88a32,32,0,0,0,2.11,4.44,3.44,3.44,0,0,0,1.53,1.34,2,2,0,0,0,2-.27Z" fill="#ffcfef"/><path d="M86.58,698.19c4-4,6.67-11.23,6.82-17.14,0-1.07-1.62-1.54-1.86-.44a67.29,67.29,0,0,1-1.94,8.25c-1,3-2.71,5.55-4.06,8.36-.31.64.45,1.57,1,1Z" fill="#ffb4ee"/><path d="M69.14,696.84c1.47,1.88,4.06,3.12,6.29,2.45a.7.7,0,0,0-.12-1.37,9.8,9.8,0,0,1-5.81-2.84c-.69-.62-1.42.44-1,1.11,1.84,2.59,4,4.71,7.25,4.23,1.27-.19,1-2-.19-2.22-2.73-.52-4.58-2.13-6.52-4.13-.37.43-.74.87-1.12,1.3,2.4,1.92,4.9,3.27,7.89,2.63,1.35-.29.87-2.24-.47-2.18-2.72.13-4.86-1.31-6.62-3.43l-1.48,1.3c1.23,1.69,2.75,3.42,4.9,3.62s3.41-1.34,4.53-2.94c.73-1-.89-2.62-1.76-1.64s-1.74,2-2.95,1.92a4.56,4.56,0,0,1-3.24-2.26c-.66-1-2.22,0-1.63,1.07A9.39,9.39,0,0,0,75.86,698c-.16-.72-.31-1.45-.47-2.18a7.85,7.85,0,0,1-6.48-1.92c-.72-.57-1.64.31-1.25,1.11,1.53,3.08,4.73,4.82,7.87,5.42-.07-.74-.13-1.48-.2-2.22-2.21.33-4.23-1.33-5.68-3l-1.1,1a12,12,0,0,0,6.71,3.11c0-.46,0-.92,0-1.38a13.19,13.19,0,0,1-5.25-2.16.71.71,0,0,0-.92,1.08Z" fill="#ffcfef"/><path d="M71.61,673.54a6.29,6.29,0,0,0-1.82,2.63c-2.47,4.69-2.61,12.09-.71,16.63.94,2.24,2.73,3.81,4.9,2.43,2.82-1.79,3.31-5.84,3.62-9C77.86,683.55,77.3,669,71.61,673.54Z" fill="#442a3b"/><path d="M89,692.54c.35-1.91,1.37-5.44-.35-7.08-.26-.25-.79-.2-.78.25a28.64,28.64,0,0,0,.61,2.95,15.68,15.68,0,0,1,0,3.75c0,.33.51.46.57.13Z" fill="#ffb4ee"/><path d="M88.39,694.61a8.66,8.66,0,0,0,1.15-5.39c-.11-1.42-.4-3.88-1.75-4.69a.41.41,0,0,0-.65.31,4.52,4.52,0,0,0,.42,1.91,10.65,10.65,0,0,1,.49,2.55,16.49,16.49,0,0,1-.6,4.81c-.14.57.61,1,.94.5Z" fill="#ffb4ee"/><path d="M87.9,695.28a11.53,11.53,0,0,0,.92-5.55c-.2-1.54-.37-3.89-1.58-5a.4.4,0,0,0-.63.2c-.38,1.27.38,2.85.62,4.16a13.25,13.25,0,0,1-.38,5.78c-.18.7.8,1.07,1.05.4Z" fill="#ffb4ee"/><path d="M85.29,692.2c.53-.82-.76-1.75-1.28-.92s.76,1.74,1.28.92Z" fill="#ffb4ee"/><path d="M95.94,702.59c4.53-2.11,7.36-12.11,4.72-16.75a1,1,0,0,0-1.87.07c-.79,2.56-.35,5.47-1,8.13s-2.35,4.9-2.9,7.54c-.13.64.47,1.3,1.09,1Z" fill="#ffb4ee"/><path d="M173.91,679.22c2.73,1.76,2.25,5.89-1.92,11.08-2.21,2.76-4.25,6.08-7.74,7.56,0,0-6.73-6.33-7.95-7.7-2.25-2.53-4.63-5.35-4.92-8.68a7.46,7.46,0,0,0-.23-1.83,5.34,5.34,0,0,0-2.32-2.48l-12.89-8.84a13,13,0,0,1-4.11-3.82c-1.06-1.8-1.23-4-2.51-5.7-1.52-1.95-4.21-2.56-5.79-4.46s-1.67-4.63-2.1-7.09a10.38,10.38,0,0,0-1.08-3.16,6.53,6.53,0,0,1,.36-7.27,17.56,17.56,0,0,1,7.34-5.79c4.79-1.78,11.61.72,12.65,6,.24,1.27.2,2.72,1.08,3.68,1.09,1.2,3.08,1,4.15,2.25a8.67,8.67,0,0,1,1.13,2.62c1,2.44,3.62,3.67,5.85,5s4.56,3.59,4.16,6.12c-.17,1.06-.8,2-.87,3-.15,2.41,2.48,4.1,4.76,4.82s5,1.4,6.06,3.62,0,5.12,1.3,7.24C170,678.08,173.91,679.22,173.91,679.22Z" fill="#ffb4ee"/><path d="M141.78,640.76c1.09,1.2,3.08,1,4.15,2.25a8.67,8.67,0,0,1,1.13,2.62c1,2.44,3.62,3.67,5.85,5s4.56,3.59,4.16,6.12c-.17,1.06-.8,2-.87,3a2.72,2.72,0,0,0,.06.81,1.11,1.11,0,0,1-1.07,1.34c-2.92.08-5.86,1.31-8.6,2.43a20.51,20.51,0,0,1-7.44,1.76,1.25,1.25,0,0,1-.45-2.41,27.2,27.2,0,0,0,8.37-4.15A1.26,1.26,0,0,0,146,657.4c-1.38.38-2.77.7-4.18,1a1.27,1.27,0,0,1-1-2.21l.09-.08a1.26,1.26,0,0,0-1-2.21,16.23,16.23,0,0,1-5,.09,1.28,1.28,0,0,1-.73-2.15,23.1,23.1,0,0,0,3-3.57,1.28,1.28,0,0,0-1.21-2,18.39,18.39,0,0,1-7.1-.55,1.27,1.27,0,0,1-.59-2.12,53.1,53.1,0,0,0,8.7-10.08,1.15,1.15,0,0,1,1.81-.11,7.17,7.17,0,0,1,2,3.67C140.94,638.35,140.9,639.8,141.78,640.76Z" fill="#ffcfef"/><path d="M163.48,673.11l-3.72,1.48a1,1,0,0,1-1.08-1.46l.1-.12a1,1,0,0,0-1.09-1.47,24.17,24.17,0,0,1-7.44,1.52,1,1,0,0,1-.73-1.63l8.25-7.69a.84.84,0,0,1,1-.1,10.29,10.29,0,0,0,2.18,1c2.28.73,5,1.4,6.06,3.62s0,5.12,1.3,7.24c1.65,2.6,5.59,3.74,5.59,3.74,2.73,1.76,2.25,5.89-1.92,11.08-2.1,2.62-4,5.73-7.2,7.31a.88.88,0,0,1-1-.18l-3.09-2.93a1,1,0,0,1-.15-1.24c.77-1.08,1.57-2.14,2.41-3.17a1,1,0,0,0-1.07-1.48,25.91,25.91,0,0,1-5,1.58l-.88-.31a25.54,25.54,0,0,1-3.46-4.67.9.9,0,0,1,.25-1.17c4.35-3,9.56-5.2,11.81-9.62A1,1,0,0,0,163.48,673.11Z" fill="#52cfd7"/><path d="M132.93,660.21c.77-.67,1.69-1.12,2.51-1.73,1-.75,2.34.86,1.32,1.59a7,7,0,0,1-3.16,1.52.82.82,0,0,1-.67-1.38Z" fill="#ffcfef"/><path d="M125.27,651.42a3,3,0,0,1,1.8-1.7,4.42,4.42,0,0,1,2.69-.28,1,1,0,0,1,.71,1.43,4.3,4.3,0,0,1-5.12,1.88,1,1,0,0,1-.61-1.21,3.73,3.73,0,0,1,5.45-1.84,1,1,0,0,1,.3,1.38c-.93,1.14-2.59,2.17-4.12,1.39-.49-.25-.76-1.14-.12-1.36a5.33,5.33,0,0,0,2.63-1.19c.1.46.19.92.29,1.38a1.93,1.93,0,0,0-2.68.9l-.61-1.21a2.6,2.6,0,0,0,3.11-1.18l.71,1.43a4.55,4.55,0,0,0-2,0,18.21,18.21,0,0,0-1.8.8.48.48,0,0,1-.62-.57Z" fill="#ffcfef"/><path d="M138.23,634.64c0,.05-.11,0-.08-.06s.11,0,.08.06Z" fill="#52cfd7"/><path d="M136.69,634.93a1.81,1.81,0,0,0,.28-2.09,3.15,3.15,0,0,0-1.68-1.6,6.64,6.64,0,0,0-2-.51,6.55,6.55,0,0,0-1-.07,6.24,6.24,0,0,0-1,.07,15.35,15.35,0,0,0-3.6,1.18c-1.14.46-2.27.93-3.39,1.51a9.45,9.45,0,0,0-3,2.34c-.21.25-.42.49-.62.75l-.55.82a6,6,0,0,0-.79,2,4,4,0,0,0,.24,2.44,3.39,3.39,0,0,0,1.77,1.73,4.11,4.11,0,0,0,2.1.3,7.32,7.32,0,0,0,1.84-.48l0-.18a7.09,7.09,0,0,1-3.33-.9,2.05,2.05,0,0,1-.75-2.38,9.61,9.61,0,0,1,1.43-2.94,19.37,19.37,0,0,1,2.26-2.64,7.51,7.51,0,0,1,3-1.78,10.62,10.62,0,0,1,3.55-.22,20.34,20.34,0,0,1,3.39.31,2.5,2.5,0,0,1,1.27.73,1.64,1.64,0,0,1,.37,1.52Z" fill="#ffcfef"/><path d="M141.2,643.54a18.54,18.54,0,0,1-9,9.47c-.67.31-1.42-.74-.78-1.21a44.45,44.45,0,0,0,4.72-3.59,56.14,56.14,0,0,0,4.2-5.15c.33-.39,1.12-.1.91.48Z" fill="#ffb4ee"/><path d="M135.6,631.46a4.87,4.87,0,0,1,3.27,3.83.48.48,0,0,1-.91.28,7.52,7.52,0,0,0-3.38-3.38c-.58-.32-.1-1.13.45-1,2.15.62,4.08,1.61,4.65,4,.23,1-1,1.22-1.46.45a9.08,9.08,0,0,0-4.39-3.54c.17-.38.35-.76.52-1.15,1.88,1.2,3.41,2.62,3.81,4.92.19,1-1.18,1.23-1.51.26a6.12,6.12,0,0,0-4-3.81c.14-.47.29-.93.43-1.4a5.36,5.36,0,0,1,3.63,2.52c.72,1.49.07,2.8-.64,4-.46.81-1.91.07-1.52-.81a3.51,3.51,0,0,0,.42-2.62,3.33,3.33,0,0,0-2.32-1.71c-.8-.2-.57-1.59.24-1.45a7.11,7.11,0,0,1,5.25,5l-1.51.26a6.28,6.28,0,0,0-3-4.11.65.65,0,0,1,.37-1.19c2.37.26,4.34,2.08,5.58,4.16l-1.47.45c-.39-1.66-2-2.66-3.43-3.25.1-.35.2-.7.31-1a9.24,9.24,0,0,1,3.79,4l-.86.4a10.33,10.33,0,0,0-2.79-3.16.53.53,0,0,1,.43-.95Z" fill="#ffcfef"/><path d="M121.47,639.48a4.64,4.64,0,0,1,1.18-2,13.9,13.9,0,0,1,10.37-5c1.68.06,3.16.92,2.87,2.84-.37,2.49-2.81,3.93-4.75,5C129.53,641.26,120.15,644.75,121.47,639.48Z" fill="#442a3b"/><path d="M138.25,646.77c-1.11.76-3.08,2.44-4.59,1.65-.23-.12-.35-.51,0-.63a16.87,16.87,0,0,1,2-.35,10,10,0,0,0,2.37-1c.2-.12.44.23.24.37Z" fill="#00b1bf"/><path d="M139.41,645.79a5.63,5.63,0,0,1-3.11,2.28c-.94.3-2.57.75-3.46,0a.32.32,0,0,1,0-.54,2.75,2.75,0,0,1,1.32-.21A7,7,0,0,0,136,647a10.34,10.34,0,0,0,2.89-1.72.4.4,0,0,1,.57.53Z" fill="#ffb4ee"/><path d="M139.7,645.27a7.46,7.46,0,0,1-3.27,2.15c-1,.27-2.58.78-3.6.21a.32.32,0,0,1-.05-.5c.7-.62,1.92-.5,2.81-.68a8.34,8.34,0,0,0,3.57-1.83c.4-.31.9.29.54.65Z" fill="#ffb4ee"/><path d="M137,644.23c-.38.6-1.32-.07-.94-.66s1.32.07.94.66Z" fill="#ffb4ee"/><path d="M146.53,649.05c-.11,3.79-5.69,8.5-9.36,7.86a.81.81,0,0,1-.47-1.35c1.42-1.26,3.39-1.72,4.89-2.93s2.47-3,4-4.09a.6.6,0,0,1,.94.51Z" fill="#ffb4ee"/><path d="M154.49,694.25c-4.15,3.49-3.84,11.5,1.78,21.49,3,5.32,5.67,11.7,10.63,14.5,0,0,10.44-12.48,12.35-15.17,3.53-5,7.27-10.52,8-17a20.08,20.08,0,0,1,.5-3.56,10.81,10.81,0,0,1,3.62-4.88l19.68-17.52c2.36-2.11,4.81-4.33,6.38-7.54,1.71-3.52,2.17-7.9,4.19-11.14,2.41-3.84,6.4-5.09,8.89-8.83s2.88-9.05,3.73-13.83a26,26,0,0,1,1.87-6.18c2.17-4.68,2.32-10.29.14-14.13-2.73-4.84-5.95-9-10.21-11.06-6.84-3.34-17,1.7-19,12.07-.48,2.48-.55,5.28-1.92,7.18-1.71,2.35-4.61,2.07-6.29,4.47-1,1.42-1.28,3.41-1.9,5.14-1.7,4.77-5.63,7.23-9,9.88s-7,7.08-6.65,12c.15,2,1,3.81,1,5.9,0,4.68-4,8-7.41,9.51s-7.4,2.84-9.2,7.18-.41,10-2.57,14.12C160.37,691.93,154.49,694.25,154.49,694.25Z" fill="#fde9f8"/><path d="M205.07,618.63c-1.71,2.35-4.61,2.07-6.29,4.47-1,1.42-1.28,3.41-1.9,5.14-1.7,4.77-5.63,7.23-9,9.88s-7,7.08-6.65,12c.15,2,1,3.81,1,5.9a7.5,7.5,0,0,1-.16,1.58c-.28,1.36.44,2.55,1.44,2.57,4.26.09,8.46,2.41,12.37,4.5,3.3,1.78,7,3.32,10.71,3.23,2,0,2.76-4,.88-4.69a33.79,33.79,0,0,1-11.86-7.85c-1.47-1.48,0-4.93,1.84-4.27a49.37,49.37,0,0,0,6,1.75c1.78.41,3.05-2.87,1.68-4.32l-.13-.14c-1.35-1.44-.11-4.71,1.66-4.33a17.79,17.79,0,0,0,7.27.05c1.5-.3,2.25-2.85,1.27-4.2a40.46,40.46,0,0,1-4-6.86c-.78-1.68.43-4.07,1.95-3.85a20.93,20.93,0,0,0,10.44-1.25,2.94,2.94,0,0,0,1.06-4.15,91.47,91.47,0,0,1-11.79-19.37c-.54-1.18-1.79-1.26-2.64-.16a16.75,16.75,0,0,0-3.22,7.19C206.51,613.93,206.44,616.73,205.07,618.63Z" fill="#ffb4ee"/><path d="M170.33,682.09l5.3,2.79c1.2.63,2.47-1.49,1.71-2.87l-.13-.23c-.76-1.39.51-3.48,1.73-2.88a26.91,26.91,0,0,0,10.75,2.76c1.24.06,2.06-2.08,1.21-3.19l-11.36-14.74a1,1,0,0,0-1.47-.17,14.87,14.87,0,0,1-3.28,2c-3.41,1.47-7.4,2.84-9.2,7.18s-.41,10-2.57,14.12c-2.65,5.1-8.53,7.42-8.53,7.42-4.15,3.49-3.84,11.5,1.78,21.49,2.83,5,5.38,11,9.86,14a1.1,1.1,0,0,0,1.47-.38c1-1.16,2.83-3.39,4.79-5.77a2.4,2.4,0,0,0,.34-2.42q-1.53-3.13-3.23-6.11c-.79-1.38.49-3.58,1.69-2.89a29.44,29.44,0,0,0,7.14,2.93l1.32-.63a56,56,0,0,0,5.49-9.16,2.07,2.07,0,0,0-.27-2.26c-6.08-5.68-13.5-9.88-16.38-18.41C168,683.24,169.25,681.52,170.33,682.09Z" fill="#ffb4ee"/><path d="M216.22,656.22c-1.08-1.29-2.37-2.14-3.51-3.31-1.39-1.41-3.51,1.75-2.1,3.14s2.73,2.6,4.49,2.87c1.05.16,1.92-1.75,1.12-2.7Z" fill="#ffb4ee"/><path d="M228.23,638.93a5.12,5.12,0,0,0-6.39-3.72,2.13,2.13,0,0,0-1.16,2.78c1.33,3.45,4.36,4.8,7.31,3.53a2.31,2.31,0,0,0,1-2.37c-1-4.29-4.62-5.76-7.8-3.44a2.53,2.53,0,0,0-.56,2.69c1.26,2.2,3.59,4.16,5.89,2.61.75-.5,1.23-2.24.3-2.65-1.31-.58-2.82-.75-3.73-2.25-.18.9-.37,1.79-.56,2.69,1.45-1.11,3.37-.23,3.85,1.67.34-.79.67-1.58,1-2.37-1.83.83-3.62-.13-4.45-2.2l-1.16,2.79a5.11,5.11,0,0,1,2.94-.14c1,.26,1.65,1.13,2.56,1.5.5.21,1.06-.35,1-1.12Z" fill="#ffb4ee"/><path d="M210.82,606.64c0,.09.17,0,.12-.12s-.16,0-.12.12Z" fill="#00b1bf"/><path d="M213.05,607.16c-.76-.84-.75-2.66-.22-4a6.09,6.09,0,0,1,2.61-3.16,7.84,7.84,0,0,1,3-1,5.9,5.9,0,0,1,1.44-.17,6.6,6.6,0,0,1,1.41.11,17.69,17.69,0,0,1,5.15,2.2,46.84,46.84,0,0,1,4.83,2.84,14.19,14.19,0,0,1,4.18,4.47c.27.49.57,1,.83,1.46l.73,1.57a13.45,13.45,0,0,1,1,3.82,10.48,10.48,0,0,1-.57,4.74,6.56,6.56,0,0,1-2.75,3.41,4.81,4.81,0,0,1-3.1.64,8,8,0,0,1-2.65-.88l.06-.36c1.86-.34,3.69-.59,4.95-1.83a5,5,0,0,0,1.33-4.65,20.23,20.23,0,0,0-1.83-5.68,33.69,33.69,0,0,0-3.07-5.07,9.69,9.69,0,0,0-4.27-3.39,11.54,11.54,0,0,0-5.16-.34,23.64,23.64,0,0,0-5,.7A3.89,3.89,0,0,0,214,604a4.11,4.11,0,0,0-.68,3Z" fill="#ffb4ee"/><path d="M205.66,624c1.79,7.65,7.08,15,12.35,18.17,1,.58,2.15-1.47,1.26-2.37A63.11,63.11,0,0,1,212.7,633c-2.21-3-3.76-6.59-5.67-9.9-.44-.75-1.63-.15-1.37,1Z" fill="#fde9f8"/><path d="M215,600.39a9.92,9.92,0,0,0-5.14,7.53c-.13,1,.86,1.65,1.3.53a14.74,14.74,0,0,1,5.25-6.67c.89-.64.26-2.21-.56-1.88-3.2,1.26-6.12,3.23-7.18,8-.42,1.87,1.36,2.36,2.1.85a16.21,16.21,0,0,1,6.75-7l-.66-2.23c-2.85,2.38-5.23,5.18-6,9.67-.37,2,1.62,2.35,2.18.45a11.68,11.68,0,0,1,6.18-7.49c-.16-.91-.33-1.82-.49-2.72-2.1.86-4.37,2.1-5.55,5s-.37,5.45.56,7.81c.61,1.55,2.79.08,2.3-1.62-.43-1.49-1-3.42-.37-5.08a5.73,5.73,0,0,1,3.55-3.38c1.19-.42,1-3.12-.21-2.81-3.75.95-6.74,5-8.15,9.85l2.18.45a13.62,13.62,0,0,1,4.75-8.06c.84-.72.48-2.45-.43-2.3-3.5.57-6.55,4.16-8.54,8.22l2.09.85a10,10,0,0,1,5.34-6.41c-.13-.68-.25-1.35-.37-2-2.63,1.86-4.32,4.38-5.92,7.78l1.23.77a21,21,0,0,1,4.38-6.23c.78-.72.3-2.22-.54-1.83Z" fill="#ffb4ee"/><path d="M234.9,615.62a9.32,9.32,0,0,0-1.54-3.88c-3.1-5.8-9.73-9.73-14.72-9.39-2.46.18-4.7,1.88-4.46,5.61.31,4.83,3.75,7.57,6.49,9.62C222.94,619.28,236.34,625.84,234.9,615.62Z" fill="#442a3b"/><path d="M209.67,630.22c1.56,1.45,4.29,4.66,6.56,3.1.36-.25.56-1,.14-1.22-.9-.46-2-.34-3-.64a11.9,11.9,0,0,1-3.37-2c-.28-.21-.65.47-.38.73Z" fill="#fde9f8"/><path d="M208.06,628.36a8,8,0,0,0,4.35,4.33c1.34.57,3.69,1.41,5.05-.07a.74.74,0,0,0,0-1c-.6-.47-1.19-.32-1.92-.38a7.74,7.74,0,0,1-2.54-.61A13.69,13.69,0,0,1,209,627.3c-.45-.47-1.2.34-.89,1.06Z" fill="#fde9f8"/><path d="M207.69,627.34c1.32,1.82,2.67,3.45,4.59,4.09,1.49.51,3.69,1.46,5.25.33a.79.79,0,0,0,.11-1c-1-1.18-2.76-.91-4-1.25a10.44,10.44,0,0,1-5.06-3.46c-.55-.59-1.34.59-.84,1.27Z" fill="#fde9f8"/><path d="M211.68,625.26c.5,1.15,1.93-.17,1.43-1.32s-1.93.17-1.43,1.32Z" fill="#ffcfef"/><path d="M197.35,634.86c-.19,7.38,7.54,16.39,13,15a1.8,1.8,0,0,0,.81-2.63c-2-2.41-4.79-3.27-6.87-5.57s-3.35-5.76-5.49-7.86c-.51-.51-1.38,0-1.41,1Z" fill="#fde9f8"/><path d="M160.62,722.81l.76-1.24.1-.17c2-3.29,6.94-11.36,8-13.39l.27-.54h0l.15-.3.78-1.55.18-.37q.47-.94.9-1.92l0-.05a25.47,25.47,0,0,0,2.65-10.68,17.57,17.57,0,0,1,0-3,10.36,10.36,0,0,1,2.55-4.68l14.85-18.19a24,24,0,0,0,4.61-7.4c1.07-3.21,1-6.85,2.36-9.88,1.63-3.59,4.89-5.42,6.6-9s1.47-7.92,1.67-12a22.24,22.24,0,0,1,.93-5.38,15.89,15.89,0,0,0,.73-4.91,8.75,8.75,0,0,0-.19-3,9.87,9.87,0,0,0-1.24-2.9l-.41-.58c-.15.85-.27,1.72-.41,2.57a18.19,18.19,0,0,1-.38,1.87,8.62,8.62,0,0,1-.63,1.7,4.86,4.86,0,0,1-1.15,1.52,13.52,13.52,0,0,1-3.31,1.85,7,7,0,0,0-1.6,1.07,5.21,5.21,0,0,0-.68.78h0a.56.56,0,0,1-.05.08,9.57,9.57,0,0,0-1,2.37l-.39,1.36c-.13.45-.26.9-.42,1.33a15.11,15.11,0,0,1-4.49,6.3c-.83.74-1.71,1.43-2.58,2.09-.66.5-1.31,1-1.95,1.49-2.75,2.15-5.66,5.48-6.46,9.29a9.8,9.8,0,0,0-.19,2.71,17.44,17.44,0,0,0,.55,2.93,14.48,14.48,0,0,1,.41,2.2c0,.25,0,.51,0,.77a7.38,7.38,0,0,1,0,.82c0,.26-.07.51-.12.76h0a10.4,10.4,0,0,1-3.91,5.92l-.06,0a14.87,14.87,0,0,1-3.28,2c-1.28.55-2.64,1.09-3.93,1.77a14.51,14.51,0,0,0-1.27.74,10.92,10.92,0,0,0-2.28,1.92,7.11,7.11,0,0,0-.49.6,9.73,9.73,0,0,0-1.23,2.15,19.51,19.51,0,0,0-1.1,6.23c0,.31,0,.62-.05.93-.06.92-.12,1.84-.23,2.73,0,.3-.08.6-.13.89a11.24,11.24,0,0,1-1.06,3.34,12,12,0,0,1-1.13,1.78,13.21,13.21,0,0,1-1.32,1.53c-.23.24-.47.46-.7.67-.48.43-1,.81-1.42,1.16a19.37,19.37,0,0,1-4,2.28,6,6,0,0,0-.72.71,5.43,5.43,0,0,0-.62.81,9.17,9.17,0,0,0-1.4,4.18,16.31,16.31,0,0,0,.12,4,35.1,35.1,0,0,0,4.4,11.76c.19.33.37.66.55,1l.17.32.38.69c.08.17.17.33.26.49s.31.59.47.88.21.4.32.6l.25.46c.1.19.2.38.31.57l.25.46c.11.18.21.37.31.55l.26.46c.08.13.15.26.23.38h.05C160.26,722.66,160.43,722.75,160.62,722.81Z" fill="#ffb4ee"/><path d="M142.4,690.9c-3.06,3.56-2,9.78,3.73,16.52,3,3.58,5.91,8.07,10.29,9.29,0,0,7.3-11.85,8.59-14.34,2.39-4.61,4.9-9.69,4.81-14.94a16.43,16.43,0,0,1,0-2.89,9.91,9.91,0,0,1,2.48-4.54l14.39-17.64a23.17,23.17,0,0,0,4.46-7.17c1-3.1,1-6.63,2.29-9.57,1.58-3.48,4.74-5.26,6.4-8.68s1.42-7.67,1.62-11.59a21.32,21.32,0,0,1,.9-5.22c1.29-4.1.82-8.53-1.38-11.13-2.76-3.25-5.86-5.88-9.58-6.67-6-1.27-13.89,4.69-14.45,13.23-.14,2,.1,4.25-.83,6-1.17,2.19-3.59,2.54-4.72,4.75-.67,1.31-.7,2.93-1,4.41-.91,4.08-3.89,6.79-6.41,9.53s-5,6.94-4.22,10.73c.34,1.58,1.22,2.8,1.44,4.44.49,3.68-2.46,7.1-5.11,8.92s-5.81,3.69-6.83,7.45.71,7.91-.64,11.6C147,687.92,142.4,690.9,142.4,690.9Z" fill="#ffb4ee"/><path d="M176.16,621.57c-1.17,2.19-3.59,2.54-4.72,4.75-.67,1.31-.7,2.93-1,4.41-.91,4.08-3.89,6.79-6.41,9.53s-5,6.94-4.22,10.73c.34,1.58,1.22,2.8,1.44,4.44a6,6,0,0,1,0,1.27c-.09,1.13.63,1.92,1.45,1.74,3.53-.78,7.24.22,10.68,1.1a18.76,18.76,0,0,0,9.18.43c1.66-.44,1.86-3.67.23-3.86a25.37,25.37,0,0,1-10.61-3.83c-1.37-.87-.49-3.88,1.07-3.72a40.33,40.33,0,0,0,5.16.19c1.51,0,2.21-2.86.93-3.72l-.12-.08c-1.27-.87-.59-3.69.91-3.73a16.23,16.23,0,0,0,6-1.39,2.38,2.38,0,0,0,.6-3.55,28.15,28.15,0,0,1-4-4.6c-.82-1.16-.06-3.28,1.21-3.4a19.7,19.7,0,0,0,8.48-3c1.1-.69,1.37-2.71.44-3.47a62.6,62.6,0,0,1-11.77-12.88c-.57-.82-1.61-.64-2.2.39a14.51,14.51,0,0,0-1.89,6.28C176.85,617.6,177.09,619.81,176.16,621.57Z" fill="#ffcfef"/><path d="M154.18,678.24l4.67,1.14c1.06.26,1.88-1.65,1.1-2.59l-.12-.15c-.77-.95,0-2.84,1.12-2.61a22.77,22.77,0,0,0,9.16.06,1.74,1.74,0,0,0,.66-2.74L159.85,662a.86.86,0,0,0-1.23.16,14.69,14.69,0,0,1-2.5,2.19c-2.66,1.83-5.81,3.69-6.83,7.45s.71,7.91-.64,11.6c-1.65,4.52-6.25,7.5-6.25,7.5-3.06,3.56-2,9.78,3.73,16.52,2.87,3.4,5.6,7.6,9.61,9.07a1,1,0,0,0,1.18-.58c.68-1.11,2-3.22,3.34-5.48a1.87,1.87,0,0,0,0-2c-1.06-1.44-2.17-2.83-3.31-4.16-.8-.93,0-2.91,1.1-2.61a23.1,23.1,0,0,0,6.19.9l1-.75a49.83,49.83,0,0,0,3.57-8.28,1.49,1.49,0,0,0-.46-1.72c-5.62-3.26-12.18-5.1-15.46-11.23C152.38,679.6,153.23,678,154.18,678.24Z" fill="#ffcfef"/><path d="M189.31,648.89c-1-.8-2.17-1.21-3.24-1.9-1.3-.84-2.71,2-1.39,2.87a6.54,6.54,0,0,0,4,1.37,1.45,1.45,0,0,0,.63-2.34Z" fill="#ffcfef"/><path d="M197.4,633a3.33,3.33,0,0,0-2.38-2.07,4.27,4.27,0,0,0-3.27.4,1.82,1.82,0,0,0-.67,2.42,4.23,4.23,0,0,0,6.4,1.33,2,2,0,0,0,.58-2c-1.31-3.17-4.43-3.62-6.8-1.17a2,2,0,0,0-.18,2.22c1.27,1.48,3.4,2.56,5.13.89.57-.54.78-2,0-2.14-1.14-.2-2.41,0-3.31-1l-.18,2.22a2,2,0,0,1,3.35.56c.2-.69.39-1.37.58-2.06a2.58,2.58,0,0,1-3.9-.85c-.23.8-.45,1.61-.67,2.41a4.74,4.74,0,0,1,2.41-.68c.84,0,1.48.56,2.27.67.44.07.84-.49.67-1.07Z" fill="#ffcfef"/><path d="M179.64,611c.05.06.13,0,.09-.12s-.13.05-.09.12Z" fill="#52cfd7"/><path d="M181.54,611c-.72-.51-.9-1.94-.61-3.14a5.64,5.64,0,0,1,1.81-3,7.76,7.76,0,0,1,2.34-1.4,5.44,5.44,0,0,1,1.17-.41,5.38,5.38,0,0,1,1.18-.19,14.2,14.2,0,0,1,4.48.71,37.37,37.37,0,0,1,4.28,1.28,9.87,9.87,0,0,1,3.92,2.69c.28.33.57.64.84,1l.77,1.09a9.64,9.64,0,0,1,1.2,2.81,8.07,8.07,0,0,1,0,3.83,6.13,6.13,0,0,1-1.91,3.22,4.52,4.52,0,0,1-2.49,1.11,6.62,6.62,0,0,1-2.28-.17v-.29c1.5-.63,3-1.19,3.89-2.42a4.08,4.08,0,0,0,.61-3.9,14,14,0,0,0-2.11-4.1,22.41,22.41,0,0,0-3.06-3.38,7.18,7.18,0,0,0-3.88-1.83,10.41,10.41,0,0,0-4.3.76,22.18,22.18,0,0,0-4,1.53,3.65,3.65,0,0,0-1.44,1.52,3.32,3.32,0,0,0-.25,2.47Z" fill="#ffcfef"/><path d="M177.22,625.7c2.28,5.65,7.41,10.36,12.1,11.83.85.27,1.62-1.58.79-2.11a45.18,45.18,0,0,1-6.14-4.09c-2.14-1.91-3.8-4.44-5.73-6.66-.44-.51-1.36.2-1,1Z" fill="#ffb4ee"/><path d="M182.4,605.3a9,9,0,0,0-3.44,6.93c0,.83.88,1.12,1.12.16a13.68,13.68,0,0,1,3.64-6.27c.66-.68,0-1.79-.66-1.37-2.51,1.62-4.72,3.74-5.09,7.68-.15,1.54,1.37,1.58,1.82.25a15.36,15.36,0,0,1,4.84-6.82c-.26-.54-.52-1.08-.79-1.62-2.1,2.43-3.76,5.09-4,8.78-.09,1.67,1.59,1.53,1.85-.07a10.85,10.85,0,0,1,4.31-7.11l-.69-2a8.74,8.74,0,0,0-4.06,5c-.67,2.53.27,4.35,1.29,6,.66,1.09,2.31-.48,1.72-1.73a6.26,6.26,0,0,1-.84-3.91,5.5,5.5,0,0,1,2.58-3.36c.94-.56.48-2.64-.48-2.16-3,1.49-5,5.28-5.68,9.34l1.85-.07a12.18,12.18,0,0,1,3.06-7.27c.63-.73.14-2-.59-1.72-2.83,1.14-5,4.55-6.18,8.14l1.82.25a9.21,9.21,0,0,1,3.72-6.08l-.51-1.52A17,17,0,0,0,179,612l1.09.36a19.85,19.85,0,0,1,3-5.76c.57-.71,0-1.8-.64-1.33Z" fill="#ffcfef"/><path d="M200.45,613.34a6.32,6.32,0,0,0-1.68-2.74c-3.16-4-9.05-5.73-13.13-4.48a4.31,4.31,0,0,0-3.09,5.28c.76,3.73,3.89,5.21,6.37,6.28C191,618.56,202.72,621.08,200.45,613.34Z" fill="#442a3b"/><path d="M181.17,629.77c1.45.83,4,2.81,5.75,1.14.26-.26.35-.9,0-1a16.19,16.19,0,0,0-2.5.08,9.1,9.1,0,0,1-3-.88c-.25-.11-.49.5-.24.65Z" fill="#ffb4ee"/><path d="M179.65,628.62a5.75,5.75,0,0,0,4,2.55c1.16.18,3.19.38,4.16-1,.2-.31.16-.71-.1-.83-.55-.25-1,0-1.62.08a6.81,6.81,0,0,1-2.16,0,9.92,9.92,0,0,1-3.71-1.77c-.42-.28-1,.5-.62,1Z" fill="#ffb4ee"/><path d="M179.24,627.9a7.25,7.25,0,0,0,4.21,2.31c1.29.1,3.21.41,4.37-.78a.62.62,0,0,0,0-.79c-.93-.74-2.37-.18-3.48-.18a7.92,7.92,0,0,1-4.53-1.72c-.52-.36-1.05.72-.56,1.16Z" fill="#ffb4ee"/><path d="M182.31,625.48c.54.8,1.57-.52,1-1.32s-1.57.52-1,1.32Z" fill="#ffb4ee"/><path d="M171.5,635.84c.62,5.83,7.95,11.38,12.28,9.26a1.49,1.49,0,0,0,.39-2.23c-1.86-1.5-4.3-1.62-6.26-3s-3.37-3.87-5.35-5.09c-.48-.3-1.15.26-1.06,1.07Z" fill="#ffb4ee"/><path d="M171.85,733.42c-2,2.85-5.24,1.39-8.41-4.7-1.69-3.23-3.86-6.37-4.23-10.83,0,0,6.65-6.6,8-7.75,2.55-2.12,5.37-4.33,8.11-3.93a4.51,4.51,0,0,0,1.51.13c1-.19,1.79-1.23,2.53-2.21l10.1-13.35c1.21-1.6,2.49-3.26,4-4,1.69-.86,3.53-.58,5.15-1.73,1.92-1.38,3-4.43,4.93-5.89s4.1-1,6.16-.94a6.51,6.51,0,0,0,2.78-.59,4.15,4.15,0,0,1,5.74,2,24,24,0,0,1,2.9,10c.29,6.07-3.31,13.61-7.81,13.67-1.07,0-2.22-.35-3.19.48-1.22,1-1.55,3.43-2.78,4.43a5.86,5.86,0,0,1-2.36.77c-2.19.66-3.79,3.48-5.38,5.84s-3.94,4.62-5.87,3.59c-.8-.43-1.39-1.39-2.23-1.7-1.89-.7-3.87,2-5,4.59s-2.28,5.59-4.32,6.39-4.09-1.17-6.1,0C173.69,729,171.85,733.42,171.85,733.42Z" fill="#ffb4ee"/><path d="M210.17,703.74c-1.22,1-1.55,3.43-2.78,4.43a5.86,5.86,0,0,1-2.36.77c-2.19.66-3.79,3.48-5.38,5.84s-3.94,4.62-5.87,3.59c-.8-.43-1.39-1.39-2.23-1.7a1.91,1.91,0,0,0-.66-.11c-.6,0-1-.74-.82-1.55a44.36,44.36,0,0,0,.08-10.74,35.07,35.07,0,0,1,.34-9.2c.33-1.64,2-1.65,2,0a43,43,0,0,0,1.35,10.84c.37,1.41,2,.71,2-.86s.09-3.44.22-5.17c.11-1.51,1.63-2,2-.71l0,.13c.37,1.32,1.88.8,2-.7a28.59,28.59,0,0,1,1.1-5.92c.35-1.17,1.5-1.4,1.89-.39a27,27,0,0,0,2.15,4.3c.56.89,1.72.26,1.86-1a31.52,31.52,0,0,1,2.11-8.31c.43-1.06,1.5-1.21,1.84-.24a60,60,0,0,0,6,12.53,1.82,1.82,0,0,1-.34,2.17,5.2,5.2,0,0,1-3.4,1.53C212.29,703.27,211.14,702.91,210.17,703.74Z" fill="#ffcfef"/><path d="M179.19,722.38c-.1-1.57-.21-3.15-.31-4.73-.07-1.07,1-1.78,1.42-.95a.83.83,0,0,1,.07.13c.45.83,1.49.12,1.43-1a42.91,42.91,0,0,1,.54-9.16c.17-1,1.16-1.37,1.47-.51q2.12,5.73,4.22,11.47a1.43,1.43,0,0,1-.16,1.22,14.36,14.36,0,0,0-1.3,2.37c-1.12,2.55-2.28,5.59-4.32,6.39s-4.09-1.17-6.1,0c-2.46,1.39-4.3,5.81-4.3,5.81-2,2.85-5.24,1.39-8.41-4.7-1.6-3.06-3.63-6-4.15-10.14a1.41,1.41,0,0,1,.37-1.14l3.07-3a.62.62,0,0,1,1,.09c.69,1.15,1.35,2.34,2,3.56.44.85,1.53.14,1.43-1a44.67,44.67,0,0,1-.09-6.24l.46-1a21.68,21.68,0,0,1,4.54-3.08c.39-.17.76.08.88.56,1.36,5.81,1.91,12.48,4.92,16.11C178.37,724.1,179.25,723.35,179.19,722.38Z" fill="#ffcfef"/><path d="M196.69,689c.36,1.07.5,2.25.8,3.35.36,1.35-1.24,2.59-1.59,1.23a11.2,11.2,0,0,1-.47-4.08c.1-.88,1-1.29,1.26-.5Z" fill="#ffcfef"/><path d="M205.52,681.83a3.73,3.73,0,0,1,.94,2.5,7.7,7.7,0,0,1-.41,3.25c-.27.75-.9,1.07-1.31.53-1.19-1.61-1.27-4.27-.3-6.48.22-.51.8-.76,1.11-.46,1.57,1.49,1.62,4.64.19,6.87a.68.68,0,0,1-1.17.05,5.67,5.67,0,0,1-.15-5.19c.32-.53,1.1-.66,1.12.16a8.45,8.45,0,0,0,.33,3.37l-1.17.05a3.05,3.05,0,0,0-.08-3.39l1.11-.45a4.11,4.11,0,0,0,.2,4l-1.3.53a8.44,8.44,0,0,0,.51-2.37c0-.84-.21-1.52-.22-2.31,0-.44.31-.81.6-.61Z" fill="#ffcfef"/><path d="M215.9,700.87s0-.13.06-.08,0,.13-.06.08Z" fill="#52cfd7"/><path d="M216,699a1.2,1.2,0,0,0,1.6.8,3.26,3.26,0,0,0,1.68-1.64,10.84,10.84,0,0,0,.87-2.26,10.56,10.56,0,0,0,.29-1.14,11.78,11.78,0,0,0,.17-1.17,26,26,0,0,0-.1-4.52c-.1-1.46-.21-2.9-.4-4.36a13.54,13.54,0,0,0-1.17-4.07c-.15-.3-.3-.6-.46-.89l-.52-.84a4.81,4.81,0,0,0-1.4-1.37,2.37,2.37,0,0,0-2-.25,3.51,3.51,0,0,0-1.8,1.73,6.82,6.82,0,0,0-.73,2.42,11.7,11.7,0,0,0-.05,2.28h.15a11.1,11.1,0,0,1,1.5-3.75,1.36,1.36,0,0,1,2.08-.37,7.93,7.93,0,0,1,2,2.34,21.89,21.89,0,0,1,1.57,3.26,11.37,11.37,0,0,1,.72,4,18.92,18.92,0,0,1-.66,4.25,34.33,34.33,0,0,1-1,4,3.21,3.21,0,0,1-.88,1.35,1,1,0,0,1-1.31.11Z" fill="#ffb4ee"/><path d="M208.08,702.43c-2.82-2.61-5-8-5.45-12.79-.09-.87.93-1.52,1.15-.66a60.79,60.79,0,0,0,1.77,6.37,61.65,61.65,0,0,0,3.13,6.12c.23.47-.19,1.35-.6,1Z" fill="#ffb4ee"/><path d="M219.06,698.44c-.82,1.78-2.38,3.22-3.84,3-.43-.05-.53-1,0-1.13a7.49,7.49,0,0,0,3.5-3.27c.4-.62.93.12.68.74-1,2.41-2.25,4.49-4.33,4.64-.82,0-.74-1.46,0-1.84,1.69-.87,2.77-2.49,3.86-4.43l.8.87c-1.4,2-2.89,3.47-4.83,3.45-.88,0-.7-1.68.15-1.85,1.74-.35,3-1.87,4-3.89l1,.81c-.67,1.58-1.52,3.24-2.87,3.76s-2.25-.53-3.07-1.64c-.53-.73.4-2.28,1-1.62s1.23,1.3,2,1.06,1.52-1.36,1.91-2.37,1.41-.33,1.1.6a7.31,7.31,0,0,1-5.23,5.14l.15-1.85c1.5,0,2.88-1.1,4-2.64.42-.58,1.06,0,.86.69a9.27,9.27,0,0,1-4.63,5.71l0-1.83c1.43-.1,2.6-1.78,3.42-3.37l.76.6a9.1,9.1,0,0,1-4.06,3.64l-.12-1.11a9.8,9.8,0,0,0,3.19-2.63c.41-.52.94.1.66.72Z" fill="#ffb4ee"/><path d="M216,679.93a4.19,4.19,0,0,1,1.32,1.84c1.87,3.39,2.44,9.38,1.54,13.39-.45,2-1.49,3.54-3,2.78-1.91-1-2.49-4.2-2.89-6.73C212.65,689.1,212.06,677.21,216,679.93Z" fill="#442a3b"/><path d="M206.19,698.24c-.34-1.49-1.22-4.2-.24-5.81.15-.25.49-.3.51.07,0,.8-.17,1.68-.19,2.5a16,16,0,0,0,.27,3c.05.26-.29.46-.35.2Z" fill="#ffb4ee"/><path d="M206.7,699.83a7.89,7.89,0,0,1-1.09-4.19c0-1.18,0-3.22.81-4.1.17-.19.38-.12.43.15a5,5,0,0,1-.15,1.61,13.13,13.13,0,0,0-.14,2.16,16,16,0,0,0,.7,3.8c.12.44-.32.93-.56.57Z" fill="#ffb4ee"/><path d="M207.05,700.29a11,11,0,0,1-1-4.36c0-1.28,0-3.22.68-4.32a.22.22,0,0,1,.41.06c.33,1-.05,2.38-.12,3.49a13.21,13.21,0,0,0,.62,4.63c.16.54-.44,1-.64.5Z" fill="#ffb4ee"/><path d="M208.5,697.35c-.39-.58.37-1.54.76-1s-.37,1.55-.76,1Z" fill="#ffb4ee"/><path d="M202.42,707.55c-3-.95-5.46-8.61-4.08-12.81.23-.72.95-.94,1.18-.26.68,1.95.59,4.38,1.2,6.43s1.81,3.59,2.33,5.65c.12.5-.21,1.13-.63,1Z" fill="#ffb4ee"/></g></g></g></svg>