<svg xmlns="http://www.w3.org/2000/svg" xmlns:xlink="http://www.w3.org/1999/xlink" viewBox="0 0 187.98 186.02"><defs><radialGradient id="a2db308b-ae60-4124-960a-2c495309f3a3" cx="2622.22" cy="-775.66" r="92.5" gradientTransform="matrix(-1, 0, 0, 1, 2714.72, 868.17)" gradientUnits="userSpaceOnUse"><stop offset="0" stop-color="#181d3b"/><stop offset="0.33" stop-color="#181f3d"/><stop offset="0.5" stop-color="#162742"/><stop offset="0.62" stop-color="#14344b"/><stop offset="0.73" stop-color="#114758"/><stop offset="0.83" stop-color="#0c5f69"/><stop offset="0.91" stop-color="#077c7e"/><stop offset="0.99" stop-color="#019f97"/><stop offset="1" stop-color="#00a49a"/></radialGradient><radialGradient id="a5bb4fb0-c18a-4dec-9ca6-584491bbf426" cx="2611.63" cy="-746.32" r="11.06" gradientTransform="matrix(-0.99, -0.16, -0.16, 0.99, 2561.45, 1276.87)" gradientUnits="userSpaceOnUse"><stop offset="0"/><stop offset="0.4" stop-color="#000201"/><stop offset="0.54" stop-color="#020906"/><stop offset="0.65" stop-color="#05140d"/><stop offset="0.73" stop-color="#092518"/><stop offset="0.8" stop-color="#0e3b26"/><stop offset="0.86" stop-color="#155738"/><stop offset="0.92" stop-color="#1d774c"/><stop offset="0.97" stop-color="#259b64"/><stop offset="1" stop-color="#2bb373"/></radialGradient><radialGradient id="f9af69b5-b70f-4dd9-9373-804c698777de" cx="2563.71" cy="-766.08" r="11.45" gradientTransform="matrix(-1, 0, 0, 1, 2714.72, 868.17)" xlink:href="#a5bb4fb0-c18a-4dec-9ca6-584491bbf426"/><radialGradient id="f77bb3c4-98d8-442b-b17e-d63c2e98859b" cx="2579.69" cy="-727.47" r="9.26" gradientTransform="matrix(-1, 0, 0, 1, 2714.72, 868.17)" xlink:href="#a5bb4fb0-c18a-4dec-9ca6-584491bbf426"/><radialGradient id="e7bd8bbe-bf39-49df-95fd-7cceeb3f1110" cx="2646.28" cy="-707.4" r="11.31" gradientTransform="matrix(-1, 0, 0, 1, 2714.72, 868.17)" xlink:href="#a5bb4fb0-c18a-4dec-9ca6-584491bbf426"/><radialGradient id="bc978b66-9edc-452b-b957-17bd0f5375ec" cx="2606.32" cy="-777.77" r="5.31" gradientTransform="matrix(-0.97, -0.23, -0.23, 0.97, 2466.3, 1446.17)" xlink:href="#a5bb4fb0-c18a-4dec-9ca6-584491bbf426"/><radialGradient id="be14623a-ccb3-4283-abc2-4eee75111af4" cx="2639.48" cy="-737.66" r="1.98" gradientTransform="matrix(-1, 0, 0, 1, 2714.72, 868.17)" xlink:href="#a5bb4fb0-c18a-4dec-9ca6-584491bbf426"/><radialGradient id="b7673684-61d7-4bb4-8647-730dc6e948e6" cx="2687.92" cy="-760.82" r="1.98" gradientTransform="matrix(-1, 0, 0, 1, 2714.72, 868.17)" xlink:href="#a5bb4fb0-c18a-4dec-9ca6-584491bbf426"/><radialGradient id="beca0154-b975-4380-905e-b93ba7baca3d" cx="2597.9" cy="-756.6" r="1.98" gradientTransform="matrix(-1, 0, 0, 1, 2714.72, 868.17)" xlink:href="#a5bb4fb0-c18a-4dec-9ca6-584491bbf426"/><radialGradient id="b86b80f8-f28c-4aba-bb80-14de73820fa6" cx="2570.43" cy="-800.6" r="1.98" gradientTransform="matrix(-1, 0, 0, 1, 2714.72, 868.17)" xlink:href="#a5bb4fb0-c18a-4dec-9ca6-584491bbf426"/><radialGradient id="aaf710e8-56c1-46bb-952a-379ac34eb5c2" cx="2572.15" cy="-749.12" r="1.98" gradientTransform="matrix(-1, 0, 0, 1, 2714.72, 868.17)" xlink:href="#a5bb4fb0-c18a-4dec-9ca6-584491bbf426"/><radialGradient id="b28f3ef2-2799-4ef7-bf19-48cab88855a4" cx="2540.02" cy="-769.75" r="1.98" gradientTransform="matrix(-1, 0, 0, 1, 2714.72, 868.17)" xlink:href="#a5bb4fb0-c18a-4dec-9ca6-584491bbf426"/><radialGradient id="b523d74e-2585-42e4-9f24-990d0f19285f" cx="2701.93" cy="-757.38" r="1.98" gradientTransform="matrix(-1, 0, 0, 1, 2714.72, 868.17)" xlink:href="#a5bb4fb0-c18a-4dec-9ca6-584491bbf426"/><radialGradient id="aa1fce31-8a46-4000-9788-39965412eb97" cx="2604.81" cy="-695.75" r="3.1" gradientTransform="matrix(-1, 0, 0, 1, 2714.72, 868.17)" xlink:href="#a5bb4fb0-c18a-4dec-9ca6-584491bbf426"/><radialGradient id="ae7f9d39-c338-4fbe-9e17-541b6e20f49e" cx="2593.55" cy="-709.15" r="3.1" gradientTransform="matrix(-1, 0, 0, 1, 2714.72, 868.17)" xlink:href="#a5bb4fb0-c18a-4dec-9ca6-584491bbf426"/><radialGradient id="adccc59a-2f33-4e10-b3c5-e9e42eceba45" cx="2652.71" cy="-713.21" r="5.31" gradientTransform="matrix(-0.71, -0.71, -0.71, 0.71, 1433.44, 2535.02)" xlink:href="#a5bb4fb0-c18a-4dec-9ca6-584491bbf426"/><radialGradient id="e765b0fa-88f2-4d71-951d-92d049e22e55" cx="2679.41" cy="-722.15" r="5.31" gradientTransform="matrix(-0.97, -0.23, -0.23, 0.97, 2477.13, 1464.45)" xlink:href="#a5bb4fb0-c18a-4dec-9ca6-584491bbf426"/><radialGradient id="b86ab568-3c87-48b6-99af-15019ed0f722" cx="2556.49" cy="-804.15" r="5.31" gradientTransform="matrix(-1, 0, 0, 1, 2714.72, 868.17)" xlink:href="#a5bb4fb0-c18a-4dec-9ca6-584491bbf426"/><radialGradient id="e45d3305-8e2b-41ea-92ba-df526b50bc13" cx="2682.6" cy="-825.21" r="5.31" gradientTransform="matrix(-0.38, -0.92, -0.92, 0.38, 296.31, 2837.15)" xlink:href="#a5bb4fb0-c18a-4dec-9ca6-584491bbf426"/><radialGradient id="a7ae710b-f1ca-440d-823d-7abab5604abe" cx="2561.81" cy="-741" r="5.31" gradientTransform="matrix(-0.97, -0.23, -0.23, 0.97, 2475.94, 1436.92)" xlink:href="#a5bb4fb0-c18a-4dec-9ca6-584491bbf426"/><radialGradient id="a7cff1ed-ce77-46c7-8438-893a643cb388" cx="2637.5" cy="-763.67" r="8.78" gradientTransform="matrix(-1, 0, 0, 1, 2714.72, 868.17)" xlink:href="#a5bb4fb0-c18a-4dec-9ca6-584491bbf426"/><radialGradient id="a5949d0b-b2c2-49b7-9b02-2592f7e4049d" cx="2661.49" cy="-836.18" r="8.78" gradientTransform="matrix(-0.38, -0.92, -0.92, 0.38, 299.21, 2810.88)" xlink:href="#a5bb4fb0-c18a-4dec-9ca6-584491bbf426"/><radialGradient id="a12e93d8-4b40-44bc-a4bd-445868c27ccd" cx="2605.73" cy="-723.37" r="2.88" gradientTransform="matrix(-1, 0, 0, 1, 2714.72, 868.17)" xlink:href="#a5bb4fb0-c18a-4dec-9ca6-584491bbf426"/><radialGradient id="f94a8e3b-7072-4845-87e4-2fdfe9be0b81" cx="2634.03" cy="-825.21" r="2.88" gradientTransform="matrix(-0.38, -0.92, -0.92, 0.38, 326.3, 2792.28)" xlink:href="#a5bb4fb0-c18a-4dec-9ca6-584491bbf426"/><radialGradient id="b5b87df9-4261-41cc-94ff-b12c66842969" cx="2645.63" cy="-850.48" r="2.88" gradientTransform="matrix(-1, 0, 0, 1, 2714.72, 868.17)" xlink:href="#a5bb4fb0-c18a-4dec-9ca6-584491bbf426"/><radialGradient id="b5a237a4-e1da-4ec0-ab9f-d41f9aa81761" cx="2625.83" cy="-771.72" r="2.88" gradientTransform="matrix(-1, 0, 0, 1, 2714.72, 868.17)" xlink:href="#a5bb4fb0-c18a-4dec-9ca6-584491bbf426"/><radialGradient id="ad77878a-8ae6-47cc-8b72-dab23ea05696" cx="2689.89" cy="-751.74" r="2.88" gradientTransform="matrix(-1, 0, 0, 1, 2714.72, 868.17)" xlink:href="#a5bb4fb0-c18a-4dec-9ca6-584491bbf426"/><radialGradient id="f446eb1c-ad60-48d2-89fc-87f0c13970fb" cx="2677.29" cy="-788.39" r="2.88" gradientTransform="matrix(-1, 0, 0, 1, 2714.72, 868.17)" xlink:href="#a5bb4fb0-c18a-4dec-9ca6-584491bbf426"/><radialGradient id="b2db4995-9080-4c48-ba88-316c6e8ed653" cx="2622.95" cy="-855.02" r="2.88" gradientTransform="matrix(-1, 0, 0, 1, 2714.72, 868.17)" xlink:href="#a5bb4fb0-c18a-4dec-9ca6-584491bbf426"/><radialGradient id="f0128aea-5fac-4f89-a738-00123e932d49" cx="2673.11" cy="-760.73" r="11.62" gradientTransform="matrix(-1, 0, 0, 1, 2714.72, 868.17)" xlink:href="#a5bb4fb0-c18a-4dec-9ca6-584491bbf426"/><radialGradient id="adfede6e-6d68-4d30-b285-3964868a1de2" cx="2566.37" cy="-728.02" r="11.62" gradientTransform="matrix(-1, 0, 0, 1, 2714.72, 868.17)" xlink:href="#a5bb4fb0-c18a-4dec-9ca6-584491bbf426"/><radialGradient id="ac1f7c69-60d2-4235-93fb-7eca1e28a031" cx="2563.71" cy="-777.53" r="6.82" gradientTransform="matrix(-0.38, -0.92, -0.92, 0.38, 413.76, 2756.75)" xlink:href="#a5bb4fb0-c18a-4dec-9ca6-584491bbf426"/><radialGradient id="bf74b93d-5fbb-4df0-81f8-b72dd987f2fd" cx="2693.33" cy="-775.66" r="6.82" gradientTransform="matrix(-1, 0, 0, 1, 2714.72, 868.17)" xlink:href="#a5bb4fb0-c18a-4dec-9ca6-584491bbf426"/><linearGradient id="aca71b0d-792b-46f6-9aac-9bb03b202f42" x1="2624.71" y1="-762.45" x2="2618.64" y2="-728.09" gradientTransform="matrix(-1, 0, 0, 1, 2714.72, 868.17)" gradientUnits="userSpaceOnUse"><stop offset="0" stop-color="#705abc"/><stop offset="1" stop-color="#27a7de"/></linearGradient><linearGradient id="e1606ee9-f4c4-4b82-91b2-22a1ba15d9d5" x1="2529.72" y1="-775.66" x2="2714.72" y2="-775.66" gradientTransform="matrix(-1, 0, 0, 1, 2714.72, 868.17)" gradientUnits="userSpaceOnUse"><stop offset="0" stop-color="#27a7de"/><stop offset="0.35" stop-color="#31abba"/><stop offset="1" stop-color="#45b36d"/></linearGradient><linearGradient id="bccc8d2f-d9fb-456d-b79a-e86da77e278d" x1="2600.88" y1="-758.35" x2="2553.9" y2="-722.01" gradientTransform="matrix(-1, 0, 0, 1, 2714.72, 868.17)" gradientUnits="userSpaceOnUse"><stop offset="0" stop-color="#27a7de"/><stop offset="1" stop-color="#6fffff"/></linearGradient><radialGradient id="b0907f79-d781-4537-b06c-4f7efab58316" cx="2609.89" cy="-763.25" r="75.6" gradientTransform="matrix(-1, 0, 0, 1, 2714.72, 868.17)" gradientUnits="userSpaceOnUse"><stop offset="0" stop-color="#fff"/><stop offset="1" stop-color="#e0ffff"/></radialGradient><linearGradient id="bf059ac6-d20d-4d59-89a7-a28504683fbb" x1="2653.69" y1="-847.44" x2="2619.34" y2="-760" gradientTransform="matrix(-1, 0, 0, 1, 2714.72, 868.17)" gradientUnits="userSpaceOnUse"><stop offset="0" stop-color="#5eb6ba"/><stop offset="1"/></linearGradient><radialGradient id="ffbfad91-0ef7-418a-9cd9-7552052201bd" cx="2660.87" cy="-816.39" r="35.74" gradientTransform="matrix(-0.71, -0.71, -0.71, 0.71, 1358.09, 2510.57)" gradientUnits="userSpaceOnUse"><stop offset="0" stop-color="#fff"/><stop offset="0.42" stop-color="#8d8d8d"/><stop offset="0.82" stop-color="#282828"/><stop offset="1"/></radialGradient><radialGradient id="ba8df8e9-6e1a-40ac-beac-55e4861d87ce" cx="2662.12" cy="-837.57" r="5.66" xlink:href="#b0907f79-d781-4537-b06c-4f7efab58316"/><radialGradient id="fcf459a4-10d6-453a-802f-dd39f0d367eb" cx="2672.12" cy="-825.31" r="8.69" xlink:href="#b0907f79-d781-4537-b06c-4f7efab58316"/><radialGradient id="faabb427-6fa4-4209-a9c5-30e57a6db11b" cx="2623.04" cy="-773.41" r="87.93" gradientTransform="matrix(-1, 0, 0, 1, 2714.72, 868.17)" gradientUnits="userSpaceOnUse"><stop offset="0" stop-color="#00a49a"/><stop offset="0.29" stop-color="#05a696"/><stop offset="0.63" stop-color="#13aa89"/><stop offset="0.98" stop-color="#2ab274"/><stop offset="1" stop-color="#2bb373"/></radialGradient><radialGradient id="b54c8ac9-ff44-4c9f-8181-c80c92939f2f" cx="2622.22" cy="-771.45" r="87.93" gradientTransform="matrix(-1, 0, 0, 1, 2714.72, 868.17)" gradientUnits="userSpaceOnUse"><stop offset="0"/><stop offset="0.4" stop-color="#010202"/><stop offset="0.54" stop-color="#040809"/><stop offset="0.64" stop-color="#0a1414"/><stop offset="0.72" stop-color="#132525"/><stop offset="0.8" stop-color="#1e3a3b"/><stop offset="0.86" stop-color="#2c5557"/><stop offset="0.91" stop-color="#3c7477"/><stop offset="0.96" stop-color="#4f989b"/><stop offset="1" stop-color="#5eb6ba"/></radialGradient></defs><title>资源 39</title><g style="isolation:isolate"><g id="a941201c-2eb6-448b-8cc9-f576ebb27eec" data-name="图层 2"><g id="e65cd2d8-5062-48fa-b102-e8ad188342c7" data-name="图层 1"><circle cx="92.5" cy="92.5" r="92.5" fill="url(#a2db308b-ae60-4124-960a-2c495309f3a3)"/><circle cx="103.09" cy="121.85" r="11.06" transform="translate(-18.19 18.09) rotate(-9.22)" opacity="0.8" fill="url(#a5bb4fb0-c18a-4dec-9ca6-584491bbf426)" style="mix-blend-mode:screen"/><circle cx="151.01" cy="102.09" r="11.45" opacity="0.5" fill="url(#f9af69b5-b70f-4dd9-9373-804c698777de)" style="mix-blend-mode:screen"/><circle cx="135.03" cy="140.7" r="9.26" opacity="0.8" fill="url(#f77bb3c4-98d8-442b-b17e-d63c2e98859b)" style="mix-blend-mode:screen"/><circle cx="68.44" cy="160.77" r="11.31" opacity="0.5" fill="url(#e7bd8bbe-bf39-49df-95fd-7cceeb3f1110)" style="mix-blend-mode:screen"/><circle cx="108.4" cy="90.4" r="5.31" transform="translate(-17.87 27.32) rotate(-13.28)" opacity="0.5" fill="url(#bc978b66-9edc-452b-b957-17bd0f5375ec)" style="mix-blend-mode:screen"/><path d="M73.27,130.5a2,2,0,1,0,2-2A2,2,0,0,0,73.27,130.5Z" opacity="0.8" fill="url(#be14623a-ccb3-4283-abc2-4eee75111af4)" style="mix-blend-mode:screen"/><circle cx="26.8" cy="107.34" r="1.98" opacity="0.8" fill="url(#b7673684-61d7-4bb4-8647-730dc6e948e6)" style="mix-blend-mode:screen"/><path d="M114.84,111.56a2,2,0,1,0,2-2A2,2,0,0,0,114.84,111.56Z" opacity="0.8" fill="url(#beca0154-b975-4380-905e-b93ba7baca3d)" style="mix-blend-mode:screen"/><circle cx="144.29" cy="67.56" r="1.98" opacity="0.8" fill="url(#b86b80f8-f28c-4aba-bb80-14de73820fa6)" style="mix-blend-mode:screen"/><path d="M140.6,119.05a2,2,0,1,0,2-2A2,2,0,0,0,140.6,119.05Z" opacity="0.8" fill="url(#aaf710e8-56c1-46bb-952a-379ac34eb5c2)" style="mix-blend-mode:screen"/><circle cx="174.7" cy="98.42" r="1.98" opacity="0.8" fill="url(#b28f3ef2-2799-4ef7-bf19-48cab88855a4)" style="mix-blend-mode:screen"/><path d="M10.81,110.79a2,2,0,1,0,2-2A2,2,0,0,0,10.81,110.79Z" opacity="0.8" fill="url(#b523d74e-2585-42e4-9f24-990d0f19285f)" style="mix-blend-mode:screen"/><circle cx="109.91" cy="172.42" r="3.1" opacity="0.8" fill="url(#aa1fce31-8a46-4000-9788-39965412eb97)" style="mix-blend-mode:screen"/><circle cx="121.17" cy="159.02" r="3.1" opacity="0.8" fill="url(#ae7f9d39-c338-4fbe-9e17-541b6e20f49e)" style="mix-blend-mode:screen"/><circle cx="62.01" cy="154.95" r="5.31" transform="translate(-91.41 89.23) rotate(-45)" opacity="0.5" fill="url(#adccc59a-2f33-4e10-b3c5-e9e42eceba45)" style="mix-blend-mode:screen"/><circle cx="35.31" cy="146.01" r="5.31" transform="translate(-32.6 12.02) rotate(-13.28)" opacity="0.5" fill="url(#e765b0fa-88f2-4d71-951d-92d049e22e55)" style="mix-blend-mode:screen"/><circle cx="158.23" cy="64.02" r="5.31" opacity="0.5" fill="url(#b86ab568-3c87-48b6-99af-15019ed0f722)" style="mix-blend-mode:screen"/><circle cx="32.12" cy="42.96" r="5.31" transform="translate(-19.86 56.19) rotate(-67.5)" opacity="0.8" fill="url(#e45d3305-8e2b-41ea-92ba-df526b50bc13)" style="mix-blend-mode:screen"/><circle cx="152.91" cy="127.16" r="5.31" transform="translate(-25.13 38.53) rotate(-13.28)" opacity="0.5" fill="url(#a7ae710b-f1ca-440d-823d-7abab5604abe)" style="mix-blend-mode:screen"/><circle cx="77.22" cy="104.5" r="8.78" opacity="0.5" fill="url(#a7cff1ed-ce77-46c7-8438-893a643cb388)" style="mix-blend-mode:screen"/><circle cx="53.23" cy="31.99" r="8.78" transform="translate(3.31 68.92) rotate(-67.5)" opacity="0.5" fill="url(#a5949d0b-b2c2-49b7-9b02-2592f7e4049d)" style="mix-blend-mode:screen"/><circle cx="108.99" cy="144.8" r="2.88" opacity="0.5" fill="url(#a12e93d8-4b40-44bc-a4bd-445868c27ccd)" style="mix-blend-mode:screen"/><circle cx="80.69" cy="42.96" r="2.88" transform="translate(10.13 101.07) rotate(-67.5)" opacity="0.5" fill="url(#f94a8e3b-7072-4845-87e4-2fdfe9be0b81)" style="mix-blend-mode:screen"/><circle cx="69.09" cy="17.69" r="2.88" opacity="0.5" fill="url(#b5b87df9-4261-41cc-94ff-b12c66842969)" style="mix-blend-mode:screen"/><circle cx="88.89" cy="96.44" r="2.88" opacity="0.5" fill="url(#b5a237a4-e1da-4ec0-ab9f-d41f9aa81761)" style="mix-blend-mode:screen"/><circle cx="24.83" cy="116.42" r="2.88" opacity="0.5" fill="url(#ad77878a-8ae6-47cc-8b72-dab23ea05696)" style="mix-blend-mode:screen"/><circle cx="37.43" cy="79.77" r="2.88" opacity="0.5" fill="url(#f446eb1c-ad60-48d2-89fc-87f0c13970fb)" style="mix-blend-mode:screen"/><circle cx="91.77" cy="13.15" r="2.88" opacity="0.5" fill="url(#b2db4995-9080-4c48-ba88-316c6e8ed653)" style="mix-blend-mode:screen"/><circle cx="41.61" cy="107.43" r="11.62" opacity="0.8" fill="url(#f0128aea-5fac-4f89-a738-00123e932d49)" style="mix-blend-mode:screen"/><circle cx="148.35" cy="140.14" r="11.62" opacity="0.8" fill="url(#adfede6e-6d68-4d30-b285-3964868a1de2)" style="mix-blend-mode:screen"/><circle cx="151.01" cy="90.64" r="6.82" transform="translate(9.48 195.46) rotate(-67.5)" opacity="0.8" fill="url(#ac1f7c69-60d2-4235-93fb-7eca1e28a031)" style="mix-blend-mode:screen"/><circle cx="21.39" cy="92.5" r="6.82" opacity="0.5" fill="url(#bf74b93d-5fbb-4df0-81f8-b72dd987f2fd)" style="mix-blend-mode:screen"/><path d="M17.37,115.92c0,32.84,33.31,59.46,74.39,59.46s74.39-26.62,74.39-59.46S135.89,49.07,94.8,49.07,17.37,83.09,17.37,115.92Z" opacity="0.8" fill="url(#aca71b0d-792b-46f6-9aac-9bb03b202f42)" style="mix-blend-mode:overlay"/><path d="M0,92.5A92.5,92.5,0,1,0,92.5,0,92.5,92.5,0,0,0,0,92.5Zm4.57,0A87.59,87.59,0,0,1,27,33.88c.24-.27.47-.54.72-.8s.23-.25.35-.38A89.2,89.2,0,0,1,44,19.2,87.91,87.91,0,1,1,4.57,92.5Z" fill="url(#e1606ee9-f4c4-4b82-91b2-22a1ba15d9d5)"/><path d="M12.79,139.47A92.51,92.51,0,1,0,160.4,29.68,92.51,92.51,0,0,1,12.79,139.47Z" opacity="0.8" fill="url(#bccc8d2f-d9fb-456d-b79a-e86da77e278d)" style="mix-blend-mode:lighten"/><path d="M29.23,153.51A87.83,87.83,0,1,0,153.42,29.32,87.83,87.83,0,0,1,29.23,153.51Z" fill="url(#b0907f79-d781-4537-b06c-4f7efab58316)"/><path d="M42.06,20.47c27.54-18.08,70.8-23.3,99.13,5.71C169,54.61,140,76.43,101,73.84,68.13,71.66,53.78,86.32,43.12,99.72s-33.27,14.85-35.63-10C5.34,67,19.9,35,42.06,20.47Z" opacity="0.8" fill="url(#bf059ac6-d20d-4d59-89a7-a28504683fbb)" style="mix-blend-mode:screen"/><circle cx="53.85" cy="51.77" r="35.74" transform="translate(-20.83 53.24) rotate(-45)" opacity="0.5" fill="url(#ffbfad91-0ef7-418a-9cd9-7552052201bd)" style="mix-blend-mode:screen"/><path d="M52.68,24.87s4.09,2.65,5.51,5.62a19.53,19.53,0,0,1-5.1,5.83S48.75,33.64,47,30.59C47,30.59,50.12,26.45,52.68,24.87Z" fill="url(#ba8df8e9-6e1a-40ac-beac-55e4861d87ce)"/><path d="M51,39.35a20.88,20.88,0,0,0-6.92-5.48A52.78,52.78,0,0,0,34.21,48a18.69,18.69,0,0,0,8.41,3.82A54.89,54.89,0,0,0,51,39.35Z" fill="url(#fcf459a4-10d6-453a-802f-dd39f0d367eb)"/><ellipse cx="92.69" cy="112.1" rx="85.86" ry="14.43" fill="#b7d6ff" opacity="0.89"/><path d="M42.63,89.13C42.44,83.72,38,76.24,30.38,76.06c-7.83-.19-12.8,7.5-12.86,13.07,0,2.82,1.2,4.94,3.21,8.3a40.39,40.39,0,0,0,9.34,10.68,33.14,33.14,0,0,0,9.13-9.75C41.14,95.19,42.74,92.56,42.63,89.13ZM30,93.11a4.77,4.77,0,1,1,4.77-4.77A4.77,4.77,0,0,1,30,93.11Z" fill="#d65241"/><path d="M41,90.3c-.18-5.41-4.63-12.89-12.24-13.07C21,77,16,84.74,15.94,90.3c0,2.83,1.19,4.94,3.21,8.3a40.28,40.28,0,0,0,9.34,10.69,33.4,33.4,0,0,0,9.13-9.75C39.55,96.37,41.16,93.74,41,90.3Zm-12.59,4a4.78,4.78,0,1,1,4.78-4.77A4.78,4.78,0,0,1,28.45,94.29Z" fill="#f3715b"/><g opacity="0.95"><path d="M92.32,126.53c-46.81,0-84.91-6.24-86.2-14,1.29,36.13,39.39,65.1,86.2,65.1s84.91-29,86.19-65.1C177.23,120.29,139.13,126.53,92.32,126.53Z" fill="#6c95c1"/><path d="M6.09,66.2a2.73,2.73,0,0,0,0,.41c0-.22,0-.45,0-.67A2.46,2.46,0,0,0,6.09,66.2Z" fill="#6c95c1"/><path d="M178.53,65.94c0,.22,0,.45,0,.67a1.84,1.84,0,0,0,0-.41A2.46,2.46,0,0,0,178.53,65.94Z" fill="#6c95c1"/></g><path d="M3.75,94.75A88.09,88.09,0,1,0,27.27,35l-.36.38c-.24.27-.48.53-.71.8A87.54,87.54,0,0,0,3.75,94.75Z" opacity="0.3" fill="url(#faabb427-6fa4-4209-a9c5-30e57a6db11b)" style="mix-blend-mode:screen"/><image width="167" height="92" transform="translate(20.98 37.02)" opacity="0.75" xlink:href="%E8%B5%84%E6%BA%90%20391.png" style="mix-blend-mode:screen"/><path d="M4.57,98.09A88,88,0,1,0,44,24.79h0s54.92-19,73.86-2.18c10.16,9-2.64,16.36-12.45,27s0,14.68,23.69,24.1c19.28,7.66,24.93,46.56,2.09,67.88s-95.32,10.65-102-7.62,45.91,3.15,42-9.13C65.7,107.47,28.85,96.2,24,78.54,18.64,59.19,22,45.48,27,39.46A87.61,87.61,0,0,0,4.57,98.09Z" opacity="0.8" fill="url(#b54c8ac9-ff44-4c9f-8181-c80c92939f2f)" style="mix-blend-mode:screen"/></g></g></g></svg>