<svg xmlns="http://www.w3.org/2000/svg" xmlns:xlink="http://www.w3.org/1999/xlink" viewBox="0 0 205.63 205.63"><defs><radialGradient id="a1c47593-8344-4ebe-a4fa-318b53ba17e4" cx="527.83" cy="950.78" r="102.81" gradientTransform="matrix(-1, 0, 0, 1, 630.64, -847.96)" gradientUnits="userSpaceOnUse"><stop offset="0.74" stop-color="#ee5a29"/><stop offset="0.74" stop-color="#ec5929"/><stop offset="0.78" stop-color="#af421e"/><stop offset="0.83" stop-color="#792e15"/><stop offset="0.87" stop-color="#4e1d0d"/><stop offset="0.9" stop-color="#2c1108"/><stop offset="0.94" stop-color="#140703"/><stop offset="0.97" stop-color="#050201"/><stop offset="1"/></radialGradient><radialGradient id="ec9ee997-05d8-4e28-bf83-138846960799" cx="-4032.42" cy="942.59" r="86.65" gradientTransform="matrix(-1, 0, 0, 1, -3933.51, -847.96)" gradientUnits="userSpaceOnUse"><stop offset="0" stop-color="#f7c6d0"/><stop offset="0.31" stop-color="#f5c4d1"/><stop offset="0.46" stop-color="#edbfd2"/><stop offset="0.58" stop-color="#e0b5d6"/><stop offset="0.67" stop-color="#cda7da"/><stop offset="0.76" stop-color="#b596e0"/><stop offset="0.84" stop-color="#9880e7"/><stop offset="0.92" stop-color="#7466f0"/><stop offset="0.98" stop-color="#4c49fa"/><stop offset="1" stop-color="#4241fc"/></radialGradient><radialGradient id="a406da31-0507-4f9d-8f9d-8152c5ddf075" cx="-3970.52" cy="982.05" r="4.17" gradientTransform="matrix(-1, 0, 0, 1, -3933.51, -847.96)" gradientUnits="userSpaceOnUse"><stop offset="0" stop-color="#8d80ef"/><stop offset="0.18" stop-color="#9282ef"/><stop offset="0.39" stop-color="#a08aee"/><stop offset="0.62" stop-color="#b796ed"/><stop offset="0.85" stop-color="#d7a6ec"/><stop offset="1" stop-color="#efb3eb"/></radialGradient><radialGradient id="b0cc8f68-c87a-44a7-bf44-0dce3a80e811" cx="-986.77" cy="5017.13" r="3.39" gradientTransform="matrix(0.73, 0.69, 0.69, -0.73, -2642.52, 4358.67)" xlink:href="#a406da31-0507-4f9d-8f9d-8152c5ddf075"/><radialGradient id="b9ba4ed9-0557-4173-9854-35e0de8d7154" cx="-4097.42" cy="923.29" r="1.93" xlink:href="#a406da31-0507-4f9d-8f9d-8152c5ddf075"/><radialGradient id="ff19aec4-e407-4150-b44c-5f82b53e3c00" cx="-3995.31" cy="1001.43" r="1.95" xlink:href="#a406da31-0507-4f9d-8f9d-8152c5ddf075"/><radialGradient id="b77e1c8f-be3b-48b4-a1c5-ed75164104da" cx="-4063.58" cy="881.49" r="4.28" xlink:href="#a406da31-0507-4f9d-8f9d-8152c5ddf075"/><radialGradient id="aff6c6c7-5af7-4e37-94f0-bbcd6245f567" cx="-4018.74" cy="874.82" r="5.86" xlink:href="#a406da31-0507-4f9d-8f9d-8152c5ddf075"/><radialGradient id="a6a5f157-8ca0-4433-8ce0-39d480de2fcf" cx="-4014.63" cy="1009.79" r="5.4" xlink:href="#a406da31-0507-4f9d-8f9d-8152c5ddf075"/><radialGradient id="a394a0dc-7e1c-43af-8a47-6b8286b83967" cx="-4102.11" cy="933.5" r="7.33" xlink:href="#a406da31-0507-4f9d-8f9d-8152c5ddf075"/><radialGradient id="fb29ab5f-4b70-4b5c-8898-48de707b97ac" cx="-3970.52" cy="956.49" r="8.33" xlink:href="#a406da31-0507-4f9d-8f9d-8152c5ddf075"/><radialGradient id="bf277fa4-2d7e-4f8d-abae-1f9f1849d6f1" cx="-4076.71" cy="990.52" r="5.02" xlink:href="#a406da31-0507-4f9d-8f9d-8152c5ddf075"/><radialGradient id="a4bd4017-9afa-4620-b509-b1551a916b95" cx="-4065.94" cy="896.32" r="4.51" xlink:href="#a406da31-0507-4f9d-8f9d-8152c5ddf075"/><radialGradient id="b78e8874-e55d-4e3e-926a-eebe7f8e441c" cx="-3972.2" cy="900.69" r="4.16" xlink:href="#a406da31-0507-4f9d-8f9d-8152c5ddf075"/><radialGradient id="ea12c803-1d76-40cd-a80f-fd2399305c71" cx="-4091.49" cy="975.43" r="8.33" xlink:href="#a406da31-0507-4f9d-8f9d-8152c5ddf075"/><radialGradient id="aa4301e7-c91a-464c-90b3-5728939bedb0" cx="1829.24" cy="-200.78" r="3.39" gradientTransform="matrix(0.69, -0.73, -0.73, -0.69, -1311.16, 1217.64)" xlink:href="#a406da31-0507-4f9d-8f9d-8152c5ddf075"/><radialGradient id="fa448e1b-8406-4549-9595-3deee10484d9" cx="2747.95" cy="6210.68" r="6.54" gradientTransform="matrix(0.96, 0.28, 0.28, -0.96, -4337.4, 5277.11)" xlink:href="#a406da31-0507-4f9d-8f9d-8152c5ddf075"/><radialGradient id="b298acaf-1df1-48f6-bd96-87ca8aeada9d" cx="-4051.93" cy="998.92" r="6.81" xlink:href="#a406da31-0507-4f9d-8f9d-8152c5ddf075"/><radialGradient id="f0c28fb5-a884-43cd-967d-bf8e5dc3f888" cx="-4061.3" cy="872.67" r="4.28" xlink:href="#a406da31-0507-4f9d-8f9d-8152c5ddf075"/><radialGradient id="ad50caa7-da3f-4dbf-b975-14d6aa6f526a" cx="-2350.28" cy="6662.29" r="5.86" gradientTransform="matrix(0.04, 1, 1, -0.04, -6462.46, 2634.5)" xlink:href="#a406da31-0507-4f9d-8f9d-8152c5ddf075"/><radialGradient id="fc73e9d7-9d93-42b7-9419-4c63914ee741" cx="-4049.13" cy="1009.68" r="3.69" xlink:href="#a406da31-0507-4f9d-8f9d-8152c5ddf075"/><radialGradient id="aaf1c3ce-2eb9-42df-8899-f94bf2e48001" cx="-4102.11" cy="950.84" r="7.33" xlink:href="#a406da31-0507-4f9d-8f9d-8152c5ddf075"/><radialGradient id="a156ba97-f12e-4301-b3cd-8ee4ff6547cb" cx="-3965.81" cy="964.09" r="7.83" xlink:href="#a406da31-0507-4f9d-8f9d-8152c5ddf075"/><radialGradient id="f26eb828-8b17-4c0d-9233-02180a6d1846" cx="-4074.85" cy="979.09" r="5.42" xlink:href="#a406da31-0507-4f9d-8f9d-8152c5ddf075"/><radialGradient id="b8e9b3da-53af-4c9b-b26a-1f190df1fe03" cx="-4084.5" cy="895.1" r="7.83" xlink:href="#a406da31-0507-4f9d-8f9d-8152c5ddf075"/><radialGradient id="bc45db63-6808-49f7-a0d2-98fb70ff3203" cx="-3978.14" cy="992.77" r="6.13" xlink:href="#a406da31-0507-4f9d-8f9d-8152c5ddf075"/><radialGradient id="b6190bcc-10e7-49ed-8be4-75ff75807599" cx="-4015.28" cy="918.94" r="40.62" gradientTransform="matrix(-1, 0, 0, 1, -3933.51, -847.96)" gradientUnits="userSpaceOnUse"><stop offset="0" stop-color="#fff"/><stop offset="0.86" stop-color="#fff"/><stop offset="1" stop-color="#fff"/></radialGradient><radialGradient id="f5b7223b-68bc-49d2-87a4-570728aa00d7" cx="-4006.27" cy="970.08" r="18.85" gradientTransform="matrix(-0.97, -0.24, -0.24, 0.97, -3590.99, -1766.84)" xlink:href="#b6190bcc-10e7-49ed-8be4-75ff75807599"/><radialGradient id="b9624f49-905a-4d4e-b67c-cc0ced38f091" cx="-4017.44" cy="995.94" r="22.9" gradientTransform="matrix(-0.98, -0.2, -0.2, 0.98, -3657.58, -1622)" xlink:href="#b6190bcc-10e7-49ed-8be4-75ff75807599"/><radialGradient id="b7085c93-fa9c-47c9-a567-a1e26aaed5c9" cx="-4065.94" cy="954.22" r="22.4" xlink:href="#b6190bcc-10e7-49ed-8be4-75ff75807599"/><linearGradient id="ee057e20-704e-4a3b-bd3e-be0f68da7267" x1="-4030.79" y1="963.98" x2="-4036.47" y2="996.16" gradientTransform="matrix(-1, 0, 0, 1, -3933.51, -847.96)" gradientUnits="userSpaceOnUse"><stop offset="0" stop-color="#244bbc"/><stop offset="1" stop-color="#81b6ff"/></linearGradient><radialGradient id="b75bd1b3-2ae1-4c78-9d69-dd2daa6b8370" cx="-4032.42" cy="942.59" r="82.37" gradientTransform="matrix(-1, 0, 0, 1, -3933.51, -847.96)" gradientUnits="userSpaceOnUse"><stop offset="0" stop-color="#8d80ef"/><stop offset="0.19" stop-color="#887cea"/><stop offset="0.4" stop-color="#7b71dc"/><stop offset="0.63" stop-color="#645ec5"/><stop offset="0.86" stop-color="#4443a5"/><stop offset="1" stop-color="#2e318f"/></radialGradient><linearGradient id="e33410a3-2e27-4827-bfec-45f75e2c2456" x1="-4076.45" y1="1020.99" x2="-3991.59" y2="869.86" gradientTransform="matrix(-1, 0, 0, 1, -3933.51, -847.96)" gradientUnits="userSpaceOnUse"><stop offset="0" stop-color="#d34c47"/><stop offset="0.22" stop-color="#cf5b6b"/><stop offset="0.71" stop-color="#c782c7"/><stop offset="1" stop-color="#c19aff"/></linearGradient><linearGradient id="ba61c049-a552-4b4d-8ddd-1bd087a44727" x1="-4090.88" y1="1001.52" x2="-4033.54" y2="943.75" gradientTransform="matrix(-1, 0, 0, 1, -3933.51, -847.96)" gradientUnits="userSpaceOnUse"><stop offset="0" stop-color="#eeb3bb"/><stop offset="1" stop-color="#8d80ef"/></linearGradient><linearGradient id="f50939a6-1f56-41a6-a345-464c15c01b39" x1="-4114.79" y1="954.22" x2="-3973.15" y2="954.22" gradientTransform="matrix(-1, 0, 0, 1, -3933.51, -847.96)" gradientUnits="userSpaceOnUse"><stop offset="0" stop-color="#fff6a2"/><stop offset="0.42" stop-color="#fffac6"/><stop offset="1" stop-color="#fff"/></linearGradient><linearGradient id="b6e04496-3b2a-436c-96d8-4036b2900f9b" x1="-4000.57" y1="875.36" x2="-4032.14" y2="955.72" gradientTransform="matrix(-1, 0, 0, 1, -3935.4, -828.9)" gradientUnits="userSpaceOnUse"><stop offset="0" stop-color="#efb3eb"/><stop offset="1"/></linearGradient><radialGradient id="bcf14893-0836-4f6c-af57-7d720567a227" cx="-3996.22" cy="904.43" r="33.48" gradientTransform="matrix(-1, 0, 0, 1, -3933.51, -847.96)" gradientUnits="userSpaceOnUse"><stop offset="0" stop-color="#fff"/><stop offset="0.42" stop-color="#8d8d8d"/><stop offset="0.82" stop-color="#282828"/><stop offset="1"/></radialGradient><radialGradient id="b106905a-c4fd-4cf3-b062-863f30cbe2e0" cx="-3999.04" cy="887.71" r="7.31" gradientTransform="matrix(-1, 0, 0, 1, -3933.51, -847.96)" gradientUnits="userSpaceOnUse"><stop offset="0" stop-color="#fff"/><stop offset="1" stop-color="#e0ffff"/></radialGradient><radialGradient id="b8839051-35f2-4583-9e54-7e00a71bedd7" cx="-3986.13" cy="903.55" r="11.22" xlink:href="#b106905a-c4fd-4cf3-b062-863f30cbe2e0"/><radialGradient id="f138e86c-210e-43ab-8596-dfbba9c5a3c8" cx="-4093.62" cy="995.94" r="25.52" gradientTransform="matrix(-1, 0, 0, 1, -3933.51, -847.96)" gradientUnits="userSpaceOnUse"><stop offset="0" stop-color="#fff"/><stop offset="0.03" stop-color="#e6e6e6"/><stop offset="0.1" stop-color="#b6b6b6"/><stop offset="0.17" stop-color="#8b8b8b"/><stop offset="0.24" stop-color="#656565"/><stop offset="0.33" stop-color="#464646"/><stop offset="0.41" stop-color="#2c2c2c"/><stop offset="0.51" stop-color="#181818"/><stop offset="0.62" stop-color="#0b0b0b"/><stop offset="0.76" stop-color="#020202"/><stop offset="1"/></radialGradient><radialGradient id="eddae252-f3ca-4f0a-9c82-59ac3170bb5d" cx="-4031.73" cy="944.77" r="82.37" gradientTransform="matrix(-1, 0, 0, 1, -3933.51, -847.96)" gradientUnits="userSpaceOnUse"><stop offset="0"/><stop offset="0.38" stop-color="#020001"/><stop offset="0.52" stop-color="#090205"/><stop offset="0.61" stop-color="#14040b"/><stop offset="0.69" stop-color="#250714"/><stop offset="0.76" stop-color="#3b0b1f"/><stop offset="0.82" stop-color="#570f2d"/><stop offset="0.87" stop-color="#77153e"/><stop offset="0.92" stop-color="#9d1c52"/><stop offset="0.97" stop-color="#c62368"/><stop offset="1" stop-color="#eb2a7b"/></radialGradient></defs><title>资源 22</title><g style="isolation:isolate"><g id="fb74d874-0030-449c-a71d-2f07220de58c" data-name="图层 2"><g id="bc0dfeeb-7037-4078-82e4-20a23cbf202e" data-name="图层 1"><circle cx="102.81" cy="102.81" r="102.81" fill="url(#a1c47593-8344-4ebe-a4fa-318b53ba17e4)" style="mix-blend-mode:screen"/><circle cx="98.91" cy="94.63" r="86.65" fill="url(#ec9ee997-05d8-4e28-bf83-138846960799)"/><g style="mix-blend-mode:screen"><polygon points="37.9 132.86 37.12 129.79 36.26 132.86 32.98 132.86 35.61 134.61 34.51 137.39 36.87 135.83 39.65 138.39 38.79 134.61 41.04 132.93 37.9 132.86" opacity="0.3" fill="url(#a406da31-0507-4f9d-8f9d-8152c5ddf075)" style="mix-blend-mode:screen"/><polygon points="79.44 31.11 78.19 33.37 80.41 32.03 82.35 33.86 81.77 31.35 83.98 30.32 81.71 29.93 81.49 26.86 79.89 29.57 77.62 29.32 79.44 31.11" opacity="0.3" fill="url(#b0cc8f68-c87a-44a7-bf44-0dce3a80e811)" style="mix-blend-mode:screen"/><polygon points="164.78 74.47 164.25 73.51 163.81 74.47 161.88 74.47 163.43 75.51 162.78 77.15 164.17 76.22 165.37 76.63 164.99 75.33 165.94 74.5 164.78 74.47" opacity="0.3" fill="url(#b9ba4ed9-0557-4173-9854-35e0de8d7154)" style="mix-blend-mode:screen"/><polygon points="62.5 152.45 62.24 151.42 61.39 152.45 59.96 152.45 60.95 153.64 60.21 155.52 61.8 154.46 63.49 155.33 63.11 153.64 63.65 152.48 62.5 152.45" opacity="0.3" fill="url(#ff19aec4-e407-4150-b44c-5f82b53e3c00)" style="mix-blend-mode:screen"/><polygon points="130.99 32.27 130.18 29.12 129.31 32.27 125.94 32.27 128.63 34.06 127.51 36.92 129.93 35.32 132.78 37.94 131.91 34.07 134.21 32.34 130.99 32.27" opacity="0.3" fill="url(#b77e1c8f-be3b-48b4-a1c5-ed75164104da)" style="mix-blend-mode:screen"/><polygon points="86.92 25.11 85.74 20.54 83.95 25.05 80.2 24.95 82.07 27.62 79.88 33.18 84.59 30.06 88.91 33.08 88.44 27.62 90.58 25.48 86.92 25.11" opacity="0.3" fill="url(#aff6c6c7-5af7-4e37-94f0-bbcd6245f567)" style="mix-blend-mode:screen"/><polygon points="82.76 159.45 81.94 156.27 80.56 159.98 75.89 160.76 79.73 163.32 78.13 167.39 81.58 165.1 85.21 166.93 84.1 162.23 86.35 159.59 82.76 159.45" opacity="0.3" fill="url(#a6a5f157-8ca0-4433-8ce0-39d480de2fcf)" style="mix-blend-mode:screen"/><polygon points="169.37 84.07 167.8 77.94 166.09 84.07 161.55 83.16 164.78 87.57 162.6 93.14 167.59 88.75 172.13 91.85 171.16 87.58 175.65 84.21 169.37 84.07" opacity="0.3" fill="url(#a394a0dc-7e1c-43af-8a47-6b8286b83967)" style="mix-blend-mode:screen"/><polygon points="38.79 106.07 37.22 99.93 35.51 106.07 28.95 106.07 34.2 109.57 32.02 115.13 36.72 112.01 42.29 117.12 40.58 109.57 45.07 106.21 38.79 106.07" opacity="0.3" fill="url(#fb29ab5f-4b70-4b5c-8898-48de707b97ac)" style="mix-blend-mode:screen"/><polygon points="145.07 140.91 144.33 137.64 143.41 140.94 138.08 140.94 142.35 143.79 141.82 147.49 144.49 144.88 147.79 146.62 146.47 142.98 148.32 140.27 145.07 140.91" opacity="0.3" fill="url(#bf277fa4-2d7e-4f8d-abae-1f9f1849d6f1)" style="mix-blend-mode:screen"/><polygon points="133.46 47.51 132.55 43.98 131.57 47.51 127.79 47.51 130.82 49.53 129.56 52.73 132.27 50.93 135.53 52.47 134.48 49.53 137.07 47.59 133.46 47.51" opacity="0.3" fill="url(#a4bd4017-9afa-4620-b509-b1551a916b95)" style="mix-blend-mode:screen"/><polygon points="39.38 50.84 37.93 48.45 37.25 50.82 34.66 50.82 36.62 53.78 35.32 56.78 38.37 54.07 42 57.01 40.4 53.24 42.72 50.92 39.38 50.84" opacity="0.3" fill="url(#b78e8874-e55d-4e3e-926a-eebe7f8e441c)" style="mix-blend-mode:screen"/></g><polygon points="159.76 125.01 158.19 118.88 156.48 125.01 149.92 125.01 155.17 128.51 152.98 134.08 157.69 130.95 163.25 136.06 161.54 128.51 166.03 125.15 159.76 125.01" opacity="0.3" fill="url(#ea12c803-1d76-40cd-a80f-fd2399305c71)" style="mix-blend-mode:screen"/><polygon points="90.67 26.45 92.92 27.7 91.58 25.48 93.42 23.54 90.91 24.11 89.88 21.91 89.48 24.18 86.42 24.4 89.13 26 88.87 28.27 90.67 26.45" opacity="0.3" fill="url(#aa4301e7-c91a-464c-90b3-5728939bedb0)" style="mix-blend-mode:screen"/><polygon points="28.37 79.91 29.17 83.55 31.52 80.83 37.82 82.66 33.75 77.83 37.41 73.09 32.01 74.78 28.49 72.32 28.5 76.93 24.63 78.73 28.37 79.91" opacity="0.3" fill="url(#fa448e1b-8406-4549-9595-3deee10484d9)" style="mix-blend-mode:screen"/><polygon points="119.56 149.09 118.19 143.76 116.28 149.09 112.03 149.09 114.97 152.59 112.78 158.16 117.49 155.03 122.47 157.59 121.34 152.59 124.82 149.21 119.56 149.09" opacity="0.3" fill="url(#b298acaf-1df1-48f6-bd96-87ca8aeada9d)" style="mix-blend-mode:screen"/><polygon points="128.71 23.45 127.9 20.3 127.02 23.45 123.66 23.45 126.35 25.24 125.23 28.1 127.65 26.5 130.5 29.12 129.62 25.24 131.93 23.52 128.71 23.45" opacity="0.3" fill="url(#f0c28fb5-a884-43cd-967d-bf8e5dc3f888)" style="mix-blend-mode:screen"/><polygon points="98.67 18 94.14 19.35 98.73 20.96 98.77 24.71 101.37 22.74 107.01 24.7 103.7 20.12 106.55 15.69 101.11 16.37 98.89 14.32 98.67 18" opacity="0.3" fill="url(#ad50caa7-da3f-4dbf-b975-14d6aa6f526a)" style="mix-blend-mode:screen"/><polygon points="116.74 160.09 116.18 157.92 115.24 160.46 112.05 160.99 114.67 162.74 113.58 165.52 115.94 163.96 118.42 165.21 117.66 162 119.2 160.19 116.74 160.09" opacity="0.3" fill="url(#fc73e9d7-9d93-42b7-9419-4c63914ee741)" style="mix-blend-mode:screen"/><polygon points="169.37 101.41 167.8 95.28 166.09 101.41 161.55 100.5 164.78 104.91 162.6 110.48 167.59 106.1 172.13 109.19 171.16 104.92 175.65 101.55 169.37 101.41" opacity="0.3" fill="url(#aaf1c3ce-2eb9-42df-8899-f94bf2e48001)" style="mix-blend-mode:screen"/><polygon points="34.09 114.66 32.52 108.53 30.81 114.66 24.25 114.66 29.5 118.16 27.31 123.73 32.02 120.6 36.14 123.21 35.87 118.17 40.36 114.8 34.09 114.66" opacity="0.3" fill="url(#a156ba97-f12e-4301-b3cd-8ee4ff6547cb)" style="mix-blend-mode:screen"/><polygon points="142.04 129.1 141.14 125.08 140.01 129.13 136.65 129.79 138.7 132.63 138.04 137.18 141.33 133.98 145.39 136.12 143.76 131.64 146.04 128.31 142.04 129.1" opacity="0.3" fill="url(#f26eb828-8b17-4c0d-9233-02180a6d1846)" style="mix-blend-mode:screen"/><polygon points="152.78 45.67 151.21 39.54 149.5 45.67 142.94 45.67 148.19 49.18 146 54.74 150.71 51.62 156.38 54.3 154.56 49.18 159.05 45.82 152.78 45.67" opacity="0.3" fill="url(#b8e9b3da-53af-4c9b-b26a-1f190df1fe03)" style="mix-blend-mode:screen"/><polygon points="45.65 142.03 43.51 138.5 42.51 142 38.69 142 41.58 146.35 39.66 150.78 44.15 146.78 49.5 151.12 47.15 145.56 50.57 142.14 45.65 142.03" opacity="0.3" fill="url(#bc45db63-6808-49f7-a0d2-98fb70ff3203)" style="mix-blend-mode:screen"/><circle cx="81.77" cy="70.98" r="40.62" opacity="0.1" fill="url(#b6190bcc-10e7-49ed-8be4-75ff75807599)" style="mix-blend-mode:screen"/><circle cx="72.76" cy="122.12" r="18.85" transform="translate(-26.79 20.64) rotate(-13.66)" opacity="0.3" fill="url(#f5b7223b-68bc-49d2-87a4-570728aa00d7)" style="mix-blend-mode:overlay"/><circle cx="83.93" cy="147.98" r="22.9" transform="translate(-27.58 19.5) rotate(-11.39)" opacity="0.1" fill="url(#b9624f49-905a-4d4e-b67c-cc0ced38f091)" style="mix-blend-mode:screen"/><circle cx="132.43" cy="106.26" r="22.4" opacity="0.1" fill="url(#b7085c93-fa9c-47c9-a567-a1e26aaed5c9)" style="mix-blend-mode:screen"/><path d="M29.23,125.58c0,30.76,31.2,55.69,69.69,55.69s69.68-24.93,69.68-55.69S140.25,63,101.76,63,29.23,94.82,29.23,125.58Z" opacity="0.8" fill="url(#ee057e20-704e-4a3b-bd3e-be0f68da7267)" style="mix-blend-mode:overlay"/><path d="M16.55,94.63a82.52,82.52,0,1,0,22-56l-.33.36c-.23.24-.45.49-.67.74A82.06,82.06,0,0,0,16.55,94.63Z" opacity="0.3" fill="url(#b75bd1b3-2ae1-4c78-9d69-dd2daa6b8370)" style="mix-blend-mode:screen"/><path d="M12.27,94.63A86.65,86.65,0,1,0,98.92,8,86.64,86.64,0,0,0,12.27,94.63Zm4.28,0a82.06,82.06,0,0,1,21-54.92c.22-.25.44-.5.67-.74l.33-.36A83,83,0,0,1,53.46,26,82.34,82.34,0,1,1,16.55,94.63Z" fill="url(#e33410a3-2e27-4827-bfec-45f75e2c2456)"/><path d="M24.25,138.62A86.66,86.66,0,1,0,162.52,35.78,86.66,86.66,0,0,1,24.25,138.62Z" opacity="0.8" fill="url(#ba61c049-a552-4b4d-8ddd-1bd087a44727)" style="mix-blend-mode:lighten"/><path d="M39.64,151.78A82.28,82.28,0,1,0,156,35.44,82.28,82.28,0,0,1,39.64,151.78Z" opacity="0.5" fill="url(#f50939a6-1f56-41a6-a345-464c15c01b39)" style="mix-blend-mode:screen"/><path d="M51.5,27.32c25.72-17,66.22-22.14,92.88,4.91,26.13,26.51-.85,47.07-37.44,44.82C76.15,75.16,62.77,89,52.85,101.55s-31.1,14.06-33.42-9.25C17.32,71.1,30.81,41,51.5,27.32Z" opacity="0.8" fill="url(#b6e04496-3b2a-436c-96d8-4036b2900f9b)" style="mix-blend-mode:screen"/><circle cx="62.71" cy="56.47" r="33.48" opacity="0.5" fill="url(#bcf14893-0836-4f6c-af57-7d720567a227)" style="mix-blend-mode:screen"/><path d="M65.63,32.37s5.28,3.42,7.13,7.25c0,0-2.8,5-6.59,7.52,0,0-5.6-3.46-7.86-7.39C58.31,39.75,62.33,34.4,65.63,32.37Z" fill="url(#b106905a-c4fd-4cf3-b062-863f30cbe2e0)"/><path d="M63.45,51.06A27.06,27.06,0,0,0,54.51,44,68.11,68.11,0,0,0,41.79,62.26s3.72,3.44,10.86,4.93A70.89,70.89,0,0,0,63.45,51.06Z" fill="url(#b8839051-35f2-4583-9e54-7e00a71bedd7)"/><circle cx="160.11" cy="147.98" r="25.52" fill="url(#f138e86c-210e-43ab-8596-dfbba9c5a3c8)" style="mix-blend-mode:screen"/><ellipse cx="98.43" cy="111.3" rx="79.83" ry="13.42" fill="#b7d6ff"/><path d="M98.09,124.72c-43.53,0-78.95-5.81-80.14-13,1.19,33.59,36.61,60.53,80.14,60.53s78.94-26.94,80.14-60.53C177,118.91,141.61,124.72,98.09,124.72Z" fill="#6c95c1"/><path d="M17.91,68.63A2.58,2.58,0,0,0,18,69c0-.21,0-.42,0-.63A2.11,2.11,0,0,0,17.91,68.63Z" fill="#6c95c1"/><path d="M178.24,68.38c0,.21,0,.42,0,.63a2.53,2.53,0,0,0,0-.38A2.11,2.11,0,0,0,178.24,68.38Z" fill="#6c95c1"/><path d="M53.32,89.58c-.18-5.48-4.7-13.06-12.4-13.24-7.94-.2-13,7.6-13,13.24,0,2.87,1.21,5,3.26,8.41a40.55,40.55,0,0,0,9.46,10.83,33.65,33.65,0,0,0,9.25-9.88C51.81,95.73,53.44,93.06,53.32,89.58Zm-12.76,4a4.84,4.84,0,1,1,4.84-4.83A4.83,4.83,0,0,1,40.56,93.62Z" fill="#d65241"/><path d="M51.72,90.77c-.19-5.48-4.7-13.06-12.41-13.24-7.94-.2-13,7.6-13,13.24,0,2.87,1.22,5,3.26,8.41A40.72,40.72,0,0,0,39,110a33.91,33.91,0,0,0,9.25-9.88C50.21,96.92,51.84,94.25,51.72,90.77ZM39,94.81A4.84,4.84,0,1,1,43.8,90,4.84,4.84,0,0,1,39,94.81Z" fill="#f3715b"/><path d="M15.85,98.1A82.43,82.43,0,1,0,52.76,29.44h0s51.44-17.78,69.19-2c9.51,8.44-2.48,15.32-11.67,25.27s0,13.75,22.19,22.57c18.06,7.18,23.36,43.61,2,63.58s-89.29,10-95.56-7.13,43,3,39.37-8.56C73.11,106.88,38.59,96.32,34,79.78c-5-18.12-1.88-31,2.85-36.6A82.06,82.06,0,0,0,15.85,98.1Z" opacity="0.8" fill="url(#eddae252-f3ca-4f0a-9c82-59ac3170bb5d)" style="mix-blend-mode:screen"/></g></g></g></svg>