<svg xmlns="http://www.w3.org/2000/svg" xmlns:xlink="http://www.w3.org/1999/xlink" viewBox="0 0 154.1 154.1"><defs><radialGradient id="a83d4b13-1042-48e9-8acf-5a91194ccf78" cx="79.24" cy="72.93" r="80.14" gradientUnits="userSpaceOnUse"><stop offset="0"/><stop offset="0.42" stop-color="#020202"/><stop offset="0.57" stop-color="#090909"/><stop offset="0.68" stop-color="#141414"/><stop offset="0.77" stop-color="#252525"/><stop offset="0.84" stop-color="#3b3b3b"/><stop offset="0.91" stop-color="#575757"/><stop offset="0.97" stop-color="#767676"/><stop offset="1" stop-color="#8a8a8a"/></radialGradient><linearGradient id="b64e7cd0-4e09-4509-b774-0ac90079f203" x1="-4375.32" y1="329.03" x2="-4375.32" y2="421.59" gradientTransform="translate(-4298.27 387.84) rotate(180)" gradientUnits="userSpaceOnUse"><stop offset="0"/><stop offset="0.01" stop-color="#010101"/><stop offset="0.69" stop-color="#636363"/><stop offset="1" stop-color="#8a8a8a"/></linearGradient><linearGradient id="b14d17d8-fca0-4d7f-b03b-84c76f4322c4" x1="514.41" y1="2872.55" x2="514.29" y2="2842.62" gradientTransform="translate(-437.21 -2772.08)" gradientUnits="userSpaceOnUse"><stop offset="0" stop-color="#b4c6cb"/><stop offset="0.31" stop-color="#cbd6da"/><stop offset="0.74" stop-color="#e6eaec"/><stop offset="1" stop-color="#f0f1f3"/></linearGradient><linearGradient id="b9655076-1f9c-458c-8caf-09b8721e765e" x1="-3684.5" y1="3983.37" x2="-3684.5" y2="3881.99" gradientTransform="translate(-3867.02 -3605.42) rotate(-90)" gradientUnits="userSpaceOnUse"><stop offset="0" stop-color="#b0f"/><stop offset="0.14" stop-color="blue"/><stop offset="0.28" stop-color="#0079fa"/><stop offset="0.38" stop-color="#00e9f6"/><stop offset="0.5" stop-color="#00f800"/><stop offset="0.64" stop-color="#a4f400"/><stop offset="0.74" stop-color="#ffde00"/><stop offset="0.8" stop-color="#ffad00"/><stop offset="0.86" stop-color="#f70"/><stop offset="0.91" stop-color="#ff4300"/><stop offset="0.97" stop-color="#ff1300"/><stop offset="1" stop-color="red"/></linearGradient><filter id="b954de7f-aac2-4294-8c26-cab1bd97bf92" filterUnits="userSpaceOnUse" color-interpolation-filters="sRGB"><feColorMatrix values="-1 0 0 0 1 0 -1 0 0 1 0 0 -1 0 1 0 0 0 1 0"/></filter><mask id="ffc58f5c-756a-4561-9dcc-fa3552922a00" x="11.1" y="70.91" width="132" height="16" maskUnits="userSpaceOnUse"><g filter="url(#b954de7f-aac2-4294-8c26-cab1bd97bf92)"><image width="132" height="16" transform="translate(11.1 70.91)" xlink:href="%E8%B5%84%E6%BA%90%20303.png"/></g></mask><linearGradient id="ad6a3291-fad1-4563-a166-9cca5f7f61ce" x1="-2041.29" y1="139.8" x2="-2025.44" y2="139.8" gradientTransform="translate(-1954.35 218.88) rotate(180)" gradientUnits="userSpaceOnUse"><stop offset="0" stop-color="#f0f1f3"/><stop offset="0.26" stop-color="#e6eaec"/><stop offset="0.69" stop-color="#cbd6da"/><stop offset="1" stop-color="#b4c6cb"/></linearGradient><linearGradient id="ba798eae-3af5-4fc2-a907-d15317753af7" x1="-2039.89" y1="139.8" x2="-2026.84" y2="139.8" gradientTransform="translate(-1954.35 218.88) rotate(180)" xlink:href="#b14d17d8-fca0-4d7f-b03b-84c76f4322c4"/></defs><title>资源 30</title><g style="isolation:isolate"><g id="bec55a8b-184a-4790-9b2b-655218e6cf12" data-name="图层 2"><g id="a2c5b428-473f-4923-be85-55f71b8dfa68" data-name="图层 1"><circle cx="77.05" cy="77.05" r="77.05" fill="url(#a83d4b13-1042-48e9-8acf-5a91194ccf78)" style="mix-blend-mode:screen"/><path d="M11.59,40a9.51,9.51,0,0,0,1.79-.65c-1.12,4.56-5.6,8.2-6.63,13,.39-.05.64-.24,1-.3C7.83,55.78,4.9,59.69,4,63.35S1.67,72.53,2.27,76.29C5.6,76.22,5,69.11,6,66.66c3,3.46-4.83,18.68.32,20.87C9,81.11,5.54,72.64,8.66,66.28c3.5,4,0,17,.29,22.79s1.26,21.5,6.67,24.64c.19-3.64-.89-7.46-.62-10.78,2.53,2,1.86,6.93,5.09,8.13,1.82-4-1.15-6.43-3-9.66s-3.43-7.47-3.21-11.18c.82.77,1.63,1.07,2.12,2.18.56-3.22-1.24-6.9-1.43-10.16a105,105,0,0,1,0-14.41C15.49,56.58,21,46.35,29.36,38.62a6.38,6.38,0,0,1-1.44,2.06c-7.13-7.1,8.93-13.39,10.91-18.12-3.62-.39-6.87,3-9.26,5-.82-4.06,4.76-7,6.64-9.9-4.78-.25-9.93,6.38-13,9.36C19.21,30.85,14,35,11.59,40Z" fill="#1a1a1a" style="mix-blend-mode:screen"/><path d="M31.38,131c3.24,3.57,6.43,7.49,10.23,9.28a11.84,11.84,0,0,1-2.34-2.91c2.78,1.21,4.75,4.32,7.45,5.86a36.08,36.08,0,0,0,11.18,3.67c-8.12-4.82-17.51-7.58-22.78-16-.45-.72-.89-2.39-1.49-2.93-.9-.81-1.77-.72-2.25-1.09A13.55,13.55,0,0,1,26.79,122c-.92-1.74-5.45-12.33-8.65-9-2.49,2.61,3.81,10.68,5.66,12,1-1.81-.33-3.53-1.27-5.17C26.72,120.46,28.72,128,31.38,131Z" fill="#333" style="mix-blend-mode:screen"/><path d="M68.05,142.23c-2.09-1-13.49-4.56-9.39,1.58,1.78,2.67,15.54,3.22,10.9,7.49,4,3.54,16.31-1.57,20.83-2.73,5.75-1.47,13-2.07,17-7-1.76-2.83-6.8,0-9.27-.16.71-2.91,5.82-3.6,3.15-6.36-1.85-1.91-8.26-.57-10.41-.11-4,.87-7.84,2.49-10.27,5.93-1.37,1.92-1.42,4.27-3.91,4.95C73.64,146.62,70.45,143.41,68.05,142.23Z" fill="#333" style="mix-blend-mode:screen"/><path d="M133.09,117.48c-2.33,2.32-4.56,4.83-7,7-1.76,1.57-6.11,3-7.15,5-3.3,6.51,6,1.91,7.83,1.18-1.31,4.6-7.57,6.06-11.73,6.88-5.38,1-7.85-2-3.71-6.29,3.33-3.5,7.3-6.07,10.53-9.71,3-3.4,11.15-10.84,15.66-11.16-.06,2.56-3.29,3.41-3.63,5.87a11.44,11.44,0,0,0,4.38-.27c.48,2.22-2.33,4.78-4.44,5.19-2.79.53-2.11-.35-2.23-2.62Z" fill="#333" style="mix-blend-mode:screen"/><path d="M132,109.85c1.89-2.75,4.68-4.71,6.28-7.61,3.46-6.24,6.37-15.31,6.06-22.52-.2-4.6-3-8.37-5.53-2.22-3.19,7.64-3.28,15.44-7.55,22.92-2.7,4.74-8.62,10.77-7.37,16.64C127.79,118,130.15,112.48,132,109.85Z" fill="#1a1a1a" style="mix-blend-mode:screen"/><path d="M141.68,77.48c-.55,3.34-1.4,6.63-1.11,10.09.27,3.21.8,6.43,1.12,9.71.77,8,3.89-.7,4.79-4.41,1.4-5.81.22-12.54.8-18.41.45-4.64,2.59-13.09-1.09-16.86-.11-.11-3.41,7.17-3.66,8C141.46,69.45,142.32,73.6,141.68,77.48Z" fill="#1a1a1a" style="mix-blend-mode:screen"/><path d="M138.3,43.56a4,4,0,0,0,.79,2.37c-.07-4-4.37-8.56-6.76-11.38-2.74-3.23-3.46-6.45-4.87-10.42,0,2.13.61,5-.71,6.65-4-2.46-6.26-8.12-9.69-11.53,1.4,5.52,4.83,10.21,8.24,14.65a34.58,34.58,0,0,1,6.63,13.15c1.25,4.28,3.36,5.09,6.4,7.84,4,3.62,2.65,7.72,3.09,12.67C151.23,66.22,138.67,47.37,138.3,43.56Z" fill="#1a1a1a" style="mix-blend-mode:screen"/><path d="M141.69,110.37c.52-3.9,3.72-5.89,3.31-10.41-4-1-5.3,5.48-6.59,8.18-1.69,3.55-4,6.89-8.25,7.43,1.11-6.93-4.29-1.12-6.06,1.44-1.34,1.93-9.15,9-8.91,10.94.75,6,10.21-5.46,11.54-5.27,3.54.49-2.73,8.36-2.94,10.07,5.38,1,11.81-10.84,14.92-14.53a55.2,55.2,0,0,0,7.84-12Z" fill="#333" style="mix-blend-mode:screen"/><path d="M92,10.14c3.62,2.34,8.14,9,13.05,8.19-1.16-3.31-3.91-4.14-6.37-5.92,3.87-5.31,9.43,5.22,14.2,4.42,1.91-.31-3.88-5.71-4.15-5.9-2.82-1.95-6-2.8-9.07-4.21C92.2,3.29,85.65.13,77.8,5.21,81.29,8.88,87.84,7.48,92,10.14Z" fill="#1a1a1a" style="mix-blend-mode:screen"/><path d="M70.27.81c-5.54.49-11.21,2.63-16.4,4.51-2.57.92-7.13,2-7.44,5.51-.39,4.51,6.36,0,8.82-1.32,3.76-2,6.21-2.87,10.48-2.66.28,1.5-.67,3-1.39,4,3,.41,5.87-.86,8.87-1.06,2.64-.18,4.86.54,7.44.77,3.68.33,7.27-.11,10.94.45,1.45.22,6.59,2.21,7.87.77,3.51-4-9-4.32-10.49-4.59S75.72,4.83,82.2,2.68C80.71.79,75,1.17,72.49,1.54c-1.74.26-3.6,1.34-5.48,1.54-2.67.27-5.33-.39-8,.35Z" fill="#1a1a1a" style="mix-blend-mode:screen"/><path d="M30.39,26.94c6.45.11,11.08-7.44,17-8.51C46.18,25.72,57.85,16.57,60.65,15S74.75,9.5,73.6,5.36,28.64,16.48,30.39,26.94Z" fill="#1a1a1a" style="mix-blend-mode:screen"/><path d="M33.51,129.18c3.05,4,8,8.71,13.28,9.64,5.73,1,5.16-3.09,1.23-5.53-4.19-2.61-8.78-3.07-11.2-7.43,2.18.42,11.82,5.82,13.74,2.59,1.49-2.49-11.47-7.32-13.13-8.34-5-3.06-8.39-7.52-12.26-11.87-2.61-2.95-5.86-7.81-10.41-7,1.78,2.92,4.56,5.22,5.15,8.84-1.69.08-3.44,0-5.14.1-1.21,0,3.21,3.76,3.27,3.8,1.71,1.19,2.88,1.49,4.5,3.14A128.1,128.1,0,0,1,33.51,129.18Z" fill="#333" style="mix-blend-mode:screen"/><path d="M74.28,146.74c4.12-2.91-.19-3.16-3.26-3.47s-6.23-.17-8.66-1.86c1.8-2.06,9.46-1.21,6.79-5.17-1.14-1.69-5.11-1.46-6.73-1.57a35.33,35.33,0,0,1-10.11-1.79c-3.27-1.13-6.94-5.93-10.41-6-4.95,0,.3,6.46,2,8.64C49.45,142.66,65.8,152.71,74.28,146.74Z" fill="#333" style="mix-blend-mode:screen"/><path d="M108,122.71c-6.63.65-14.45,6.64-20.52,9.45-5.43,2.52-7,5.05.29,5.52,6.36.41,15.83-1.27,21.22-4.89-2,.25-3.81,1.37-5.75,1.92,7.94-5.29,20.36-.16,23.79-11.94-3.42-.49-6.39,1.57-9.63,1.76.18-1.93,1.78-3.42,2.8-5.13-4.66-.28-8.14,4.91-12.95,4.44Z" fill="#333" style="mix-blend-mode:screen"/><g opacity="0.4" style="mix-blend-mode:screen"><g style="mix-blend-mode:screen"><path d="M80.54,150.13l3.43-.35,1.7-.18c.56-.08,1.12-.19,1.67-.29l3.31-.6c1.08-.26,2.14-.54,3.2-.81a68,68,0,0,0,11.71-4.29A65.51,65.51,0,0,0,115.3,138a62.45,62.45,0,0,0,7.53-6.25,42,42,0,0,0,8.35-11.3,18.57,18.57,0,0,0,.86-2,10.67,10.67,0,0,0,.41-1.62c.16-.91.06-1.49-.29-1.71s-.93-.09-1.71.35a11.33,11.33,0,0,0-1.31.89c-.48.37-1,.78-1.65,1.26-2.4,1.92-5.7,4.7-10.06,7.61-2.19,1.43-4.64,2.9-7.34,4.32a78.52,78.52,0,0,1-8.87,3.94,75.39,75.39,0,0,1-10.23,3l-2.71.6-2.79.43-1.4.22-1.43.13-2.88.28a81.36,81.36,0,0,1-22-1.87c-.83-.18-1.7-.34-2.47-.53s-1.48-.37-2.19-.63l-1.08-.34-1.05-.4c-.7-.25-1.38-.57-2-.85a62.81,62.81,0,0,1-7.42-3.94c-4.48-2.77-8-5.41-10.68-7.11s-4.33-2.51-5-2-.09,2.38,1.59,5.18a50.58,50.58,0,0,0,8.9,10.63,51.14,51.14,0,0,0,7.88,6c.79.46,1.57.95,2.43,1.38l1.28.66,1.35.61c.89.43,1.86.76,2.83,1.13s1.85.59,2.8.88A73,73,0,0,0,80.54,150.13Z" fill="#fff" opacity="0"/><path d="M80.53,150l3.34-.34,1.65-.17c.55-.07,1.09-.19,1.63-.28l3.22-.58c1-.22,2.09-.52,3.11-.77a67.46,67.46,0,0,0,11.43-4.1,64.32,64.32,0,0,0,9.53-5.4,55.72,55.72,0,0,0,7.41-6,40.93,40.93,0,0,0,8.38-10.8,15.37,15.37,0,0,0,1.32-3.53c.16-.9.07-1.47-.26-1.7s-.9-.1-1.65.32a21.55,21.55,0,0,0-2.94,2c-2.39,1.82-5.67,4.47-10,7.21a75.72,75.72,0,0,1-7.23,4.12,76.5,76.5,0,0,1-8.71,3.78,74,74,0,0,1-10,2.91c-.88.18-1.76.41-2.65.57l-2.72.42c-.46.07-.92.16-1.38.21l-1.4.13-2.81.27a81.49,81.49,0,0,1-21.48-1.74L55.86,136c-.42-.08-.74-.19-1.11-.28l-1.07-.29c-1.4-.44-2.78-.92-4.1-1.48a61.82,61.82,0,0,1-7.28-3.72c-2.21-1.3-4.2-2.58-5.94-3.75l-2.46-1.63c-.75-.52-1.47-1-2.11-1.38-2.58-1.64-4.26-2.39-4.86-1.85s-.07,2.33,1.61,5c.42.68.92,1.4,1.48,2.19s1.21,1.62,1.95,2.48a53.14,53.14,0,0,0,5.41,5.56,50.49,50.49,0,0,0,7.8,5.7,44.32,44.32,0,0,0,5,2.51l1.38.53c.45.17.94.37,1.38.49l2.71.83A72.52,72.52,0,0,0,80.53,150Z" fill="#fff" opacity="0.03"/><path d="M80.52,149.83a69.63,69.63,0,0,0,12.6-2.06c1-.27,2-.49,2.95-.81s1.91-.6,2.84-.94,1.83-.68,2.73-1l2.62-1.13A62.78,62.78,0,0,0,120.87,133a41.48,41.48,0,0,0,8.35-10.35,17.68,17.68,0,0,0,.91-1.9,10.42,10.42,0,0,0,.47-1.51c.19-.86.13-1.41-.19-1.64s-.88-.13-1.64.25a11.07,11.07,0,0,0-1.29.78c-.47.32-1,.68-1.63,1.12-2.37,1.72-5.64,4.22-9.89,6.85a83.3,83.3,0,0,1-15.66,7.52l-2.34.8-2.42.73c-.81.25-1.65.45-2.49.68s-1.69.37-2.54.57a74.44,74.44,0,0,1-10.71,1.54,81.76,81.76,0,0,1-21-1.62l-2.39-.5c-.38-.08-.8-.15-1.15-.24l-1-.28c-.7-.16-1.37-.43-2.05-.63s-1.32-.49-2-.72A58,58,0,0,1,43.06,131c-4.34-2.47-7.79-4.88-10.33-6.43s-4.18-2.27-4.76-1.73,0,2.27,1.64,4.89A49.26,49.26,0,0,0,46.08,143c.77.4,1.54.84,2.36,1.22s1.65.79,2.55,1.11l1.34.51c.45.17.86.28,1.3.42l2.64.81A72.18,72.18,0,0,0,80.52,149.83Z" fill="#fff" opacity="0.06"/><path d="M80.51,149.68l3.16-.32c1-.11,2.08-.19,3.1-.4,2-.37,4.06-.7,6-1.25A64,64,0,0,0,103.61,144a70.23,70.23,0,0,0,9.12-4.9,61.41,61.41,0,0,0,7.16-5.46,41.23,41.23,0,0,0,8.32-9.89,15.26,15.26,0,0,0,1.43-3.27c.19-.85.14-1.39-.17-1.63s-.84-.14-1.58.22a19.52,19.52,0,0,0-2.89,1.78c-2.37,1.61-5.58,4-9.79,6.48-2.1,1.24-4.45,2.5-7,3.74a89,89,0,0,1-8.38,3.41,68.33,68.33,0,0,1-9.57,2.66c-1.66.42-3.39.63-5.12.91-.87.17-1.76.22-2.65.31l-2.69.26a82.14,82.14,0,0,1-20.47-1.49L57,136.61c-.76-.16-1.57-.29-2.21-.49l-1-.26c-.34-.09-.66-.21-1-.31l-1-.31-1-.36a56.41,56.41,0,0,1-7-3.25c-2.14-1.16-4.05-2.31-5.74-3.37s-3.16-2-4.42-2.71c-2.49-1.49-4.1-2.16-4.66-1.62s0,2.2,1.67,4.74A39,39,0,0,0,34.08,133a48,48,0,0,0,5.32,5.11A45.59,45.59,0,0,0,47,143.25l1.13.59,1.19.55c.4.18.8.38,1.22.55l1.28.49c.88.36,1.67.56,2.52.84l2.57.78A71.65,71.65,0,0,0,80.51,149.68Z" fill="#fff" opacity="0.1"/><path d="M80.5,149.53l3.06-.31c1-.12,2-.18,3-.38,2-.38,4-.65,5.82-1.2l2.8-.74c.91-.27,1.8-.57,2.68-.86,1.76-.61,3.46-1.25,5.08-2a61.73,61.73,0,0,0,15.93-9.87,40.38,40.38,0,0,0,8.27-9.45,12.42,12.42,0,0,0,1.46-3.15q.33-1.2-.09-1.56c-.29-.23-.83-.17-1.57.15a25.55,25.55,0,0,0-2.85,1.67c-2.33,1.52-5.54,3.77-9.67,6.12a84.38,84.38,0,0,1-15.08,6.8A72,72,0,0,1,90,137.32c-1.62.41-3.31.58-5,.88-.84.16-1.71.19-2.58.28l-2.62.26a83.23,83.23,0,0,1-20-1.36c-1.52-.33-3-.64-4.48-.93l-2-.52c-.64-.22-1.28-.39-1.9-.62a52.13,52.13,0,0,1-6.89-3c-4.18-2.19-7.52-4.36-10-5.75a19.65,19.65,0,0,0-3-1.48c-.77-.26-1.3-.28-1.57,0s-.26.8,0,1.57a13.83,13.83,0,0,0,1.67,3,45.79,45.79,0,0,0,16.14,13.91c.72.38,1.5.71,2.28,1.07s1.61.64,2.45,1q2.37.75,4.91,1.52A71.47,71.47,0,0,0,80.5,149.53Z" fill="#fff" opacity="0.13"/><path d="M80.49,149.38l3-.3,1.48-.16.73-.08.72-.12,2.86-.52,1.41-.27,1.38-.35a65.55,65.55,0,0,0,10.28-3.41,63.31,63.31,0,0,0,8.67-4.46,58.53,58.53,0,0,0,6.9-4.92,41.87,41.87,0,0,0,8.22-9,14.92,14.92,0,0,0,1.49-3c.22-.78.2-1.3-.08-1.54-1.12-1-5.76,3-13.86,7.46-2,1.1-4.27,2.27-6.76,3.35a77.87,77.87,0,0,1-8,3.09,74.53,74.53,0,0,1-9.12,2.42l-1.19.27-1.22.18-2.47.39-.62.1-.63.06-1.26.11-2.56.25a83.41,83.41,0,0,1-19.46-1.23c-1.49-.32-2.94-.63-4.36-.91-.74-.13-1.34-.32-2-.47s-1.24-.38-1.85-.56a50.5,50.5,0,0,1-6.75-2.8c-1-.49-2-1-2.93-1.51s-1.79-1-2.6-1.46l-2.29-1.32-2-1.11c-2.4-1.32-3.94-1.91-4.45-1.39s0,2.09,1.71,4.43c.42.58.89,1.22,1.46,1.88s1.18,1.39,1.89,2.12,1.5,1.49,2.35,2.28,1.81,1.59,2.86,2.37a42.72,42.72,0,0,0,7.4,4.58c.73.32,1.45.7,2.24,1s1.59.64,2.35.85q2.31.74,4.77,1.47A71.06,71.06,0,0,0,80.49,149.38Z" fill="#fff" opacity="0.16"/><path d="M80.48,149.23a67.64,67.64,0,0,0,21.19-5,66.71,66.71,0,0,0,8.46-4.23c1.26-.78,2.48-1.53,3.59-2.33s2.17-1.59,3.15-2.37a39.23,39.23,0,0,0,8.13-8.59,11.93,11.93,0,0,0,1.53-2.89c.24-.75.24-1.25,0-1.48s-.77-.2-1.48.07a24.6,24.6,0,0,0-2.78,1.44c-2.27,1.34-5.38,3.35-9.38,5.44-1,.52-2,1.08-3.16,1.59s-2.26,1.05-3.46,1.59c-2.43,1-5,2.05-7.84,2.94A78.71,78.71,0,0,1,79.83,139a82.51,82.51,0,0,1-18.95-1.13c-1.45-.26-2.86-.59-4.24-.86-.69-.14-1.4-.26-2-.43s-1.23-.3-1.82-.5a49.31,49.31,0,0,1-6.6-2.57c-4-1.91-7.25-3.83-9.6-5.06s-3.85-1.8-4.34-1.28.1,2,1.74,4.28A42,42,0,0,0,49.8,144c.69.34,1.44.62,2.19.92s1.49.52,2.24.76c1.5.46,3,1,4.64,1.4A69.5,69.5,0,0,0,80.48,149.23Z" fill="#fff" opacity="0.19"/><path d="M80.47,149.08A66.9,66.9,0,0,0,101,144.36a61.6,61.6,0,0,0,14.82-8.48,40.65,40.65,0,0,0,8.05-8.15,14.29,14.29,0,0,0,1.55-2.78c.24-.72.25-1.21,0-1.45-1-1-5.59,2.48-13.39,6.49a90.61,90.61,0,0,1-14.13,5.78,78.69,78.69,0,0,1-18.09,3.42,80.38,80.38,0,0,1-18.43-1c-.36-.06-.72-.09-1.06-.16l-1-.22-2-.42-2-.39-1.78-.45a46.46,46.46,0,0,1-6.46-2.36c-3.95-1.73-7.09-3.58-9.4-4.72a18.47,18.47,0,0,0-2.8-1.21c-.72-.21-1.21-.21-1.44,0s-.2.75.1,1.44a12.45,12.45,0,0,0,1.67,2.68A32.08,32.08,0,0,0,38.47,136a41.3,41.3,0,0,0,5.1,4.19,39.6,39.6,0,0,0,7.16,4c.7.28,1.42.57,2.15.84l2.14.68,2.21.69,1.13.34c.38.12.77.19,1.16.28A67.63,67.63,0,0,0,80.47,149.08Z" fill="#fff" opacity="0.23"/><path d="M80.46,148.93a65.55,65.55,0,0,0,19.92-4.49,62.28,62.28,0,0,0,14.46-8,38.85,38.85,0,0,0,7.92-7.76,11.53,11.53,0,0,0,1.56-2.65c.27-.69.29-1.16.06-1.39s-.71-.23-1.4,0a22.69,22.69,0,0,0-2.68,1.23c-2.19,1.18-5.22,2.93-9,4.81a94,94,0,0,1-13.81,5.45,77.84,77.84,0,0,1-17.59,3.25l-4.69.14-4.58-.12L66.16,139c-.72,0-1.43-.2-2.13-.29l-2.1-.3c-1.38-.15-2.71-.48-4-.73L56,137.27c-.32-.06-.65-.11-.94-.18l-.86-.22a47.12,47.12,0,0,1-6.31-2.12c-3.84-1.63-6.94-3.32-9.19-4.4s-3.69-1.55-4.13-1,.15,1.9,1.78,4a37.46,37.46,0,0,0,8.29,7.45,38.14,38.14,0,0,0,7.06,3.72l1,.41c.34.13.67.22,1,.34l2.07.66a45,45,0,0,0,4.38,1.23l2.31.52c.78.15,1.57.38,2.38.47q2.44.36,5,.69c1.71.11,3.45.21,5.22.29S78.64,149,80.46,148.93Z" fill="#fff" opacity="0.26"/><path d="M80.45,148.78a64.16,64.16,0,0,0,19.28-4.27,60.71,60.71,0,0,0,14.07-7.6,40.42,40.42,0,0,0,7.82-7.35,14,14,0,0,0,1.57-2.52c.27-.67.29-1.13.07-1.37s-.68-.23-1.33,0a14.17,14.17,0,0,0-2.63,1.13c-2.18,1.06-5.13,2.73-8.89,4.48A92.35,92.35,0,0,1,97,136.4a76,76,0,0,1-17.09,3.09,80.57,80.57,0,0,1-17.4-.86l-2-.28L58.56,138l-3.68-.73a41.09,41.09,0,0,1-6.15-1.93c-3.77-1.45-6.79-3.05-9-4s-3.59-1.44-4-.95.18,1.85,1.8,3.82a35.71,35.71,0,0,0,8.2,7,36.19,36.19,0,0,0,6.91,3.45c1.29.46,2.59.86,3.95,1.29l2.07.64,2.18.51A66.36,66.36,0,0,0,80.45,148.78Z" fill="#fff" opacity="0.29"/><path d="M80.44,148.63a64.28,64.28,0,0,0,18.65-4,66.29,66.29,0,0,0,7.55-3.41c1.13-.64,2.23-1.23,3.24-1.87s2-1.25,2.88-1.91a37.87,37.87,0,0,0,7.68-7A11,11,0,0,0,122,128c.28-.63.32-1.07.11-1.3s-.65-.24-1.3-.07a20.27,20.27,0,0,0-2.57,1c-2.1,1-5,2.53-8.69,4.19-.9.44-1.89.81-2.88,1.25s-2.07.82-3.15,1.26c-2.21.78-4.55,1.63-7.08,2.32a77.36,77.36,0,0,1-16.59,2.93A81.78,81.78,0,0,1,63,138.87c-2.61-.29-5-.89-7.37-1.3-.6-.1-1.1-.25-1.63-.37l-.78-.18-.75-.23c-1-.27-2-.62-2.89-.93-3.66-1.35-6.62-2.81-8.78-3.72a17.08,17.08,0,0,0-2.6-.95c-.67-.15-1.11-.12-1.3.12s-.15.68.16,1.3A11.42,11.42,0,0,0,38.72,135a34.49,34.49,0,0,0,8.09,6.63A35.58,35.58,0,0,0,50,143.27l.85.41.9.37c.6.24,1.24.51,1.84.69A69.66,69.66,0,0,0,61.47,147,66.34,66.34,0,0,0,80.44,148.63Z" fill="#fff" opacity="0.32"/><path d="M80.43,148.48l4.84-.5c1.58-.24,3.12-.55,4.64-.84s3-.75,4.41-1.13c.72-.18,1.41-.42,2.1-.65s1.37-.44,2-.7a61.15,61.15,0,0,0,13.28-6.79,38.94,38.94,0,0,0,7.54-6.58,12.7,12.7,0,0,0,1.58-2.29c.27-.61.32-1,.13-1.27s-.63-.24-1.25-.08a14.18,14.18,0,0,0-2.51.94c-2.08.91-4.91,2.37-8.49,3.91A101.6,101.6,0,0,1,96,137c-.61.18-1.24.32-1.86.48s-1.26.34-1.91.46c-1.29.25-2.6.58-3.94.8s-2.72.43-4.12.62l-4.26.4a84.3,84.3,0,0,1-16.35-.68l-1.86-.26c-.62-.09-1.23-.14-1.82-.28l-3.46-.68c-.55-.11-1.13-.19-1.64-.31l-1.49-.36c-1-.28-1.92-.52-2.8-.84-3.58-1.2-6.48-2.54-8.57-3.38a15.44,15.44,0,0,0-2.54-.86c-.64-.14-1.06-.1-1.25.13s-.13.67.18,1.27a12,12,0,0,0,1.65,2.23,32.68,32.68,0,0,0,8,6.22c.94.56,2,1,3.07,1.56l1.72.7c.59.24,1.15.4,1.75.6L58.13,146c.63.22,1.3.34,2,.51l2,.47A66.75,66.75,0,0,0,80.43,148.48Z" fill="#fff" opacity="0.35"/><path d="M80.42,148.33c1.58-.15,3.13-.31,4.66-.48s3-.53,4.48-.8a68.35,68.35,0,0,0,8.24-2.33,60.46,60.46,0,0,0,12.87-6.4l1.24-.84,1.14-.85c.73-.55,1.42-1.07,2-1.62s1.18-1,1.68-1.51.92-1,1.3-1.39a9.88,9.88,0,0,0,1.57-2.18c.29-.58.35-1,.16-1.21-.77-.94-5,1.48-11.93,4.36a101.47,101.47,0,0,1-12.38,4.26C93.09,138,90.6,138.49,88,139c-1.31.18-2.63.42-4,.58l-4.13.39a87.46,87.46,0,0,1-15.82-.59l-3.57-.48-3.34-.65a48.71,48.71,0,0,1-5.82-1.33c-3.48-1.07-6.3-2.31-8.35-3.06s-3.31-1.08-3.67-.61.27,1.65,1.85,3.33A32,32,0,0,0,49,142.37,37.52,37.52,0,0,0,55.36,145c1.14.37,2.32.76,3.55,1.12l3.85.91A67.13,67.13,0,0,0,80.42,148.33Z" fill="#fff" opacity="0.39"/><path d="M80.41,148.18l4.49-.46c.74-.06,1.45-.24,2.17-.36l2.14-.39,1.05-.21c.35-.07.69-.17,1-.26l2-.54c.66-.19,1.32-.35,2-.55l1.88-.64a59,59,0,0,0,12.47-6,37.42,37.42,0,0,0,7.22-5.85,13,13,0,0,0,1.56-2.06c.28-.55.34-.95.17-1.17s-.57-.26-1.15-.13a12.74,12.74,0,0,0-2.39.77c-2,.76-4.66,2-8,3.35a99.7,99.7,0,0,1-12,4,85.2,85.2,0,0,1-15.06,2.46,90.52,90.52,0,0,1-15.29-.5l-3.44-.47-.84-.1-.81-.16-1.59-.31-3-.55c-.91-.23-1.8-.39-2.64-.65-3.39-.92-6.14-2-8.12-2.72a16.73,16.73,0,0,0-2.4-.68c-.6-.1-1,0-1.16.19s-.08.61.23,1.15a10,10,0,0,0,1.64,2,29.76,29.76,0,0,0,7.73,5.41c.9.48,1.9.86,2.94,1.3l3.16,1.06,1.68.55.86.27.89.22,3.72.87A68.13,68.13,0,0,0,80.41,148.18Z" fill="#fff" opacity="0.42"/><path d="M80.4,148a65.07,65.07,0,0,0,16.11-3.21,59.36,59.36,0,0,0,12-5.64,37.77,37.77,0,0,0,7-5.5,9.64,9.64,0,0,0,1.54-2c.29-.52.36-.9.2-1.11-.67-.91-4.71,1.12-11.25,3.63a101.83,101.83,0,0,1-11.64,3.68,85.54,85.54,0,0,1-14.54,2.32,97.21,97.21,0,0,1-14.76-.4l-3.32-.46-1.6-.2-1.53-.3c-2-.39-4-.67-5.56-1.07-3.28-.8-6-1.8-7.88-2.4s-3.13-.84-3.43-.4.33,1.52,1.87,3a28.73,28.73,0,0,0,7.6,5,54.5,54.5,0,0,0,5.86,2.16l1.61.52,1.7.42,3.58.83A69.11,69.11,0,0,0,80.4,148Z" fill="#fff" opacity="0.45"/><path d="M80.39,147.88a65.28,65.28,0,0,0,15.48-3,58.48,58.48,0,0,0,11.62-5.28c1.57-.92,2.9-1.89,4.06-2.73a29.48,29.48,0,0,0,2.8-2.43,11.6,11.6,0,0,0,1.53-1.84c.28-.5.36-.86.21-1.07s-.51-.26-1.07-.17a11.32,11.32,0,0,0-2.24.61c-.91.35-2,.72-3.29,1.24s-2.7,1.05-4.3,1.6a107.11,107.11,0,0,1-11.25,3.43,88.48,88.48,0,0,1-14,2.17,98.66,98.66,0,0,1-14.23-.33c-1.09-.12-2.15-.29-3.19-.42l-1.54-.2-.76-.09-.73-.14-2.82-.51c-.9-.17-1.82-.28-2.58-.47-3.18-.67-5.77-1.56-7.64-2.08s-3-.73-3.31-.29.35,1.46,1.88,2.84a27.55,27.55,0,0,0,7.44,4.58c.88.41,1.75.67,2.69,1l2.92,1,.77.25.8.2,1.63.4c1.11.26,2.25.55,3.44.78A68.79,68.79,0,0,0,80.39,147.88Z" fill="#fff" opacity="0.48"/><path d="M80.38,147.73a65.91,65.91,0,0,0,14.85-2.82,59,59,0,0,0,11.2-4.94c6-3.55,8.93-6.81,8.38-7.6s-4.4.83-10.52,3c-3.07,1-6.73,2.2-10.86,3.18a92.89,92.89,0,0,1-13.5,2c-2.42.05-4.79.22-7.08.09-2.29,0-4.49-.23-6.61-.37l-.79,0-.77-.11-1.52-.2-2.91-.36c-1.87-.35-3.62-.66-5.24-.91-3.1-.53-5.59-1.32-7.4-1.78a16.57,16.57,0,0,0-2.17-.42c-.54,0-.89,0-1,.25s0,.55.28,1a8.58,8.58,0,0,0,1.61,1.66,25.47,25.47,0,0,0,7.26,4.18c1.62.59,3.42,1.22,5.37,1.85l3.08.76,1.62.39.83.18.85.14a63.77,63.77,0,0,0,7.22.85A68,68,0,0,0,80.38,147.73Z" fill="#fff" opacity="0.52"/><path d="M80.37,147.58a65.46,65.46,0,0,0,14.22-2.64,55.72,55.72,0,0,0,10.76-4.61,34.24,34.24,0,0,0,6.46-4.51,10.61,10.61,0,0,0,1.47-1.62c.29-.45.37-.78.24-1s-.46-.26-1-.21a11.74,11.74,0,0,0-2.09.48c-1.72.53-4.13,1.4-7.09,2.38a105.25,105.25,0,0,1-10.45,2.93,95.16,95.16,0,0,1-13,1.89c-2.33,0-4.6.23-6.8.1l-1.63,0a14.35,14.35,0,0,1-1.61-.06l-3.11-.24-1.5-.1-1.45-.2-2.8-.35c-.91-.08-1.78-.27-2.61-.41L56,139c-.78-.11-1.52-.22-2.18-.37s-1.31-.24-1.9-.39c-1.2-.25-2.23-.54-3.12-.71-1.73-.41-2.82-.49-3.05-.08s.41,1.3,1.89,2.5a21.49,21.49,0,0,0,2.88,1.89c.59.34,1.24.65,1.95,1a22.34,22.34,0,0,0,2.22.9l2.45.87c.86.28,1.75.62,2.7.83l3,.73,1.55.37c.52.1,1.07.17,1.61.26l3.37.5c.57.1,1.16.12,1.75.17l1.79.11A66.68,66.68,0,0,0,80.37,147.58Z" fill="#fff" opacity="0.55"/><path d="M80.36,147.43l3.62-.37c.59-.08,1.19-.11,1.77-.22l1.72-.32,1.68-.33c.56-.11,1.11-.21,1.65-.37l3.14-.86a55.54,55.54,0,0,0,10.34-4.28c5.6-3.05,8.39-5.92,7.93-6.66s-4.07.58-9.76,2.36c-2.85.88-6.25,1.88-10,2.69l-2.92.59c-.49.11-1,.17-1.52.25l-1.54.22-1.58.24c-.52.09-1.07.1-1.61.16l-3.28.31-3.31.1c-.54,0-1.08.07-1.61.05l-1.6,0-3.1,0-3-.23c-1.95-.08-3.78-.39-5.52-.58s-3.34-.5-4.82-.72l-2.13-.31c-.67-.09-1.26-.23-1.84-.32l-3-.58c-1.68-.31-2.71-.39-2.92,0s.42,1.25,1.88,2.33a13.1,13.1,0,0,0,1.26.84c.47.27,1,.61,1.56.88s1.21.6,1.88.86,1.37.53,2.11.8a41.36,41.36,0,0,0,4.95,1.57,50.41,50.41,0,0,0,5.85,1.25l3.22.48c1.1.09,2.23.16,3.38.23l1.75.1c.58,0,1.18,0,1.77,0Z" fill="#fff" opacity="0.58"/><path d="M80.36,147.28l3.44-.36c.57-.06,1.13-.11,1.68-.19l1.64-.31c1.08-.2,2.15-.4,3.18-.62l3-.83a55.37,55.37,0,0,0,9.9-3.94,34.94,34.94,0,0,0,6-3.91c1.29-1.12,1.88-1.92,1.66-2.31s-1.21-.28-2.81.13-3.83,1.12-6.55,2-6,1.71-9.65,2.44l-2.79.56-2.93.43-1.51.22c-.51.06-1,.09-1.54.14L80,141l-3.16.1-1.55.06-1.52,0-3-.05c-1,0-1.92-.14-2.85-.19l-2.72-.19-2.56-.32-2.4-.26L58,139.74c-1.41-.23-2.73-.37-3.85-.54L52.61,139l-1.32-.22a15.79,15.79,0,0,0-1.93-.18c-.47,0-.76.11-.86.31s0,.48.34.85a7.09,7.09,0,0,0,1.54,1.3c.36.24.76.51,1.22.77s1,.51,1.52.78c1.11.51,2.38,1,3.8,1.5.71.25,1.46.53,2.25.78l2.49.65,2.69.66c.93.18,1.9.32,2.9.48s2,.33,3.06.43l3.23.22,1.66.09,1.7,0Z" fill="#fff" opacity="0.61"/><path d="M80.35,147.13l3.27-.34,1.6-.18c.53-.07,1-.18,1.56-.28l3-.59c1-.21,1.93-.51,2.86-.76a50.06,50.06,0,0,0,9.46-3.65c5.16-2.59,7.8-5.09,7.41-5.77s-3.71.36-9,1.82c-2.62.74-5.74,1.58-9.22,2.23-.88.16-1.76.37-2.67.51l-2.8.4-1.44.21-1.47.12-3,.29a97.43,97.43,0,0,1-11.51-.07l-2.59-.17a10.18,10.18,0,0,1-1.25-.12l-1.2-.14-2.29-.26-1.09-.1-1-.17c-1.35-.21-2.58-.37-3.67-.49s-2-.27-2.79-.33c-1.53-.2-2.48-.15-2.65.22s.48,1.07,1.87,2a17.83,17.83,0,0,0,2.64,1.35c1.06.44,2.27.91,3.62,1.4l1,.38,1.11.3,2.38.62,1.25.31a9.53,9.53,0,0,0,1.31.28l2.76.44A62.77,62.77,0,0,0,80.35,147.13Z" fill="#fff" opacity="0.65"/><path d="M80.34,147l3.1-.32a29.27,29.27,0,0,0,3-.42A49.71,49.71,0,0,0,92,145l2.55-.74c.81-.27,1.6-.56,2.35-.84s1.47-.59,2.16-.88,1.34-.58,2-.89c1.23-.61,2.32-1.18,3.24-1.76a20.2,20.2,0,0,0,2.31-1.58c1.21-1,1.77-1.66,1.59-2s-1.08-.3-2.54,0c-.73.17-1.61.38-2.62.65s-2.14.57-3.39.91c-.62.18-1.29.33-2,.51s-1.38.37-2.13.52l-2.28.53-2.42.45c-1.65.38-3.41.57-5.22.85-.89.16-1.83.22-2.77.3l-2.85.27a115.59,115.59,0,0,1-20-.81c-1.28-.19-2.44-.36-3.48-.47s-2-.15-2.69-.23a10.42,10.42,0,0,0-1.75,0c-.42,0-.68.14-.75.32s0,.44.35.76a8.22,8.22,0,0,0,1.49,1.06,19.53,19.53,0,0,0,2.52,1.19c1,.42,2.15.87,3.44,1.33s2.75.77,4.31,1.16c.39.1.79.21,1.2.29l1.25.22,2.61.42,1.37.2c.46,0,.93.08,1.41.12l2.91.19a27.59,27.59,0,0,0,3,0Z" fill="#fff" opacity="0.68"/><path d="M80.33,146.83a56.41,56.41,0,0,0,19.62-4.9c4.69-2.2,7.16-4.32,6.84-5s-3.36.18-8.13,1.36A106.5,106.5,0,0,1,80,141.44l-2.72.09-1.34.05-.66,0-.65,0-2.56,0c-.84,0-1.66,0-2.46-.07-1.6-.12-3.13-.19-4.56-.29s-2.76-.3-4-.41c-4.89-.58-8-.86-8.25-.18s2.55,2.33,7.47,3.92c1.24.36,2.61.73,4.08,1.1s3.11.55,4.8.82a24.66,24.66,0,0,0,2.63.26l2.75.19.71,0h.71l1.44,0Z" fill="#fff" opacity="0.71"/><path d="M80.32,146.68a54.31,54.31,0,0,0,18.53-4.49,30.79,30.79,0,0,0,2.94-1.48c.43-.24.82-.46,1.17-.68s.66-.45.94-.65c1.12-.81,1.65-1.41,1.5-1.74-.63-1.38-11.47,3.09-25.41,4-1.74,0-3.44.13-5.08.16l-4.76-.06c-1.51-.11-3-.2-4.31-.26-.69,0-1.33-.12-2-.18l-1.82-.17c-2.33-.14-4.2-.43-5.55-.45s-2.15.1-2.25.44.51.84,1.74,1.48a26.62,26.62,0,0,0,5.38,2.07l1.84.52c.65.16,1.31.37,2,.48,1.41.25,2.93.51,4.53.75s3.31.27,5.08.38S78.44,146.72,80.32,146.68Z" fill="#fff" opacity="0.74"/><path d="M80.31,146.53c1.75-.17,3.46-.35,5.11-.56s3.21-.62,4.69-.95,2.86-.82,4.15-1.22,2.45-.9,3.5-1.35c4.21-1.83,6.49-3.6,6.22-4.19s-3,0-7.27,1l-3.49.73c-1.26.22-2.6.46-4,.74s-2.9.38-4.44.61l-4.78.44c-1.64,0-3.24.11-4.79.17s-3,0-4.49,0-2.79-.17-4.07-.22c-.63,0-1.26,0-1.85-.1l-1.71-.16c-1.09-.09-2.09-.16-3-.19s-1.63-.14-2.27-.15c-1.26,0-2,.1-2.1.42s.5.8,1.65,1.39a19.15,19.15,0,0,0,2.15,1c.85.29,1.84.6,2.94.91l1.74.49c.6.17,1.25.25,1.91.38,1.33.23,2.75.51,4.26.69s3.11.24,4.77.34S78.55,146.58,80.31,146.53Z" fill="#fff" opacity="0.77"/><path d="M80.3,146.38c1.64-.16,3.24-.33,4.78-.52s3-.57,4.4-.86a53.59,53.59,0,0,0,7.19-2.32,26.5,26.5,0,0,0,4.52-2.33c1-.67,1.5-1.18,1.38-1.47-.52-1.24-10.21,2.26-22.56,3a127,127,0,0,1-15.89-.21c-1-.09-2-.15-2.78-.18s-1.55,0-2.14-.05c-1.18,0-1.88.1-2,.4s.48.75,1.57,1.31a13.35,13.35,0,0,0,2,.81c.81.27,1.73.56,2.77.85A54.13,54.13,0,0,0,80.3,146.38Z" fill="#fff" opacity="0.81"/><path d="M80.29,146.23c1.53-.15,3-.31,4.45-.48s2.8-.53,4.1-.79a17.81,17.81,0,0,0,1.88-.46l1.76-.53a31.6,31.6,0,0,0,3.09-1.07,28.67,28.67,0,0,0,4.26-2.09c1-.62,1.41-1.1,1.3-1.37-.44-1.1-9.58,1.85-21.11,2.6-5.77.37-11,0-14.86-.06a38.84,38.84,0,0,0-4.6-.18c-1.12.07-1.75.14-1.82.44s.44.74,1.48,1.16a38.19,38.19,0,0,0,4.5,1.52A55.58,55.58,0,0,0,80.29,146.23Z" fill="#fff" opacity="0.84"/><path d="M80.28,146.08a52.53,52.53,0,0,0,14.19-3q1.31-.53,2.31-1a15.3,15.3,0,0,0,1.67-.9c.89-.55,1.34-1,1.24-1.23s-.71-.31-1.73-.21c-.52.05-1.12.16-1.84.26s-1.51.24-2.38.41c-3.54.55-8.34,1.38-13.71,1.74-1.34,0-2.65.08-3.92.14l-.94,0-.93,0H72.45c-2.35.07-4.45-.14-6.24-.14-.45,0-.88,0-1.28,0l-1.14-.06c-.72,0-1.34,0-1.86,0-1,0-1.63.19-1.69.46s.44.61,1.4,1c.49.21,1.08.43,1.78.67l1.13.36c.4.12.83.2,1.29.3a43.15,43.15,0,0,0,6.44,1l1.88.15,1,.06c.33,0,.66,0,1,0C77.47,146.15,78.86,146.12,80.28,146.08Z" fill="#fff" opacity="0.87"/><path d="M80.27,145.93a54.53,54.53,0,0,0,7.31-1,40.06,40.06,0,0,0,5.79-1.63,17.93,17.93,0,0,0,2.14-.86q.93-.42,1.56-.78c.83-.51,1.24-.9,1.16-1.14s-.64-.29-1.58-.2c-.48,0-1.05.1-1.71.19s-1.39.23-2.22.33c-1.63.22-3.54.6-5.7.82s-4.51.45-7,.71c-9.92.56-18.07-.48-18.28.52,0,.24.41.57,1.31,1,.44.19,1,.4,1.64.62s1.41.35,2.24.52,1.76.36,2.75.54,2.07.22,3.2.33A55.71,55.71,0,0,0,80.27,145.93Z" fill="#fff" opacity="0.9"/><path d="M80.26,145.78c1.19-.11,2.36-.24,3.48-.38.56-.07,1.11-.12,1.65-.22l1.56-.32c1-.21,2-.43,2.87-.64s1.7-.54,2.44-.79,1.41-.5,2-.73,1.05-.5,1.44-.72c.77-.43,1.16-.78,1.09-1-.31-.91-7.61.87-16.72,1.5-1.14,0-2.26.07-3.33.12-.54,0-1.07.07-1.59.08H73.61c-1,0-1.94,0-2.83,0-.44,0-.87,0-1.28,0l-1.19,0c-1.51,0-2.76,0-3.63.09s-1.37.17-1.41.39.39.53,1.21.88a24.81,24.81,0,0,0,3.59,1l1.2.24a13,13,0,0,0,1.32.21c.91.1,1.89.19,2.92.28l1.59.12c.55,0,1.1,0,1.66,0C77.89,145.84,79.06,145.81,80.26,145.78Z" fill="#fff" opacity="0.94"/><path d="M80.25,145.63c1.08-.1,2.14-.22,3.16-.34l1.49-.19c.49-.06,1-.18,1.42-.27a36,36,0,0,0,4.84-1.24,24.56,24.56,0,0,0,3.13-1.26c.7-.39,1.06-.7,1-.9s-.52-.27-1.31-.22a28.27,28.27,0,0,0-3.29.31c-1.36.23-3,.33-4.78.58-.45.05-.91.13-1.38.16l-1.44.11c-1,.07-2,.17-3,.26s-2,.07-3,.12-1.92.12-2.83.09-1.76,0-2.57,0l-1.17,0c-.38,0-.74,0-1.08,0-2.75,0-4.52.15-4.58.54s1.6,1,4.39,1.58c.35.06.71.16,1.09.2l1.2.14c.83.09,1.72.18,2.66.25a23.68,23.68,0,0,0,3,.09Z" fill="#fff" opacity="0.97"/><path d="M80.24,145.48c1-.09,1.92-.2,2.84-.31l1.34-.16a10.35,10.35,0,0,0,1.28-.22c1.65-.35,3.14-.68,4.36-1,2.43-.83,3.85-1.52,3.75-1.88s-1.69-.33-4.14,0c-1.24.13-2.71.25-4.32.46-.41.06-.82.1-1.25.12l-1.3.09-2.73.24c-1.88,0-3.66.18-5.29.23s-3.1,0-4.35.1c-2.48,0-4.06.13-4.11.5s1.45.9,4,1.4c1.26.18,2.77.34,4.45.48S78.29,145.52,80.24,145.48Z" fill="#fff"/></g></g><path d="M40.87,22.71c0,11.13,16.2,20.16,36.18,20.16s36.18-9,36.18-20.16S97,2.55,77.05,2.55,40.87,11.57,40.87,22.71Z" fill="url(#b64e7cd0-4e09-4509-b774-0ac90079f203)" style="mix-blend-mode:screen"/><image width="41" height="50" transform="translate(54.1 2.91)" opacity="0.74" xlink:href="%E8%B5%84%E6%BA%90%20301.png" style="mix-blend-mode:screen"/><text transform="translate(66.61 33.63)" font-size="21.25" fill="#00dcf9" font-family="P22MuschampPro, P22 Muschamp Pro">pH</text><image width="144" height="27" transform="translate(5.1 66.91)" opacity="0.3" xlink:href="%E8%B5%84%E6%BA%90%20302.png" style="mix-blend-mode:multiply"/><path d="M11.68,79.08h0a7.11,7.11,0,0,0,7.11,7.11H135.44a7.11,7.11,0,0,0,7.11-7.11h0A7.11,7.11,0,0,0,135.44,72H18.79A7.11,7.11,0,0,0,11.68,79.08Z" fill="url(#b14d17d8-fca0-4d7f-b03b-84c76f4322c4)"/><path d="M13.36,79.08a5.43,5.43,0,0,0,5.43,5.43H135.44a5.43,5.43,0,1,0,0-10.86H18.79A5.44,5.44,0,0,0,13.36,79.08Z" fill="url(#b9655076-1f9c-458c-8caf-09b8721e765e)"/><g mask="url(#ffc58f5c-756a-4561-9dcc-fa3552922a00)"><g opacity="0.5"><path d="M13.36,79.08a5.43,5.43,0,0,0,5.43,5.43H135.44a5.43,5.43,0,1,0,0-10.86H18.79A5.44,5.44,0,0,0,13.36,79.08Z" fill="#1e0000"/></g></g><image width="29" height="23" transform="translate(64.1 68.91)" opacity="0.9" xlink:href="%E8%B5%84%E6%BA%90%20304.png" style="mix-blend-mode:multiply"/><rect x="71.08" y="74.21" width="15.85" height="9.74" rx="4.08" fill="url(#ad6a3291-fad1-4563-a166-9cca5f7f61ce)"/><rect x="72.48" y="75.61" width="13.05" height="6.94" rx="1.79" fill="url(#ba798eae-3af5-4fc2-a907-d15317753af7)"/><line x1="19.78" y1="65.71" x2="133.98" y2="65.71" fill="#fff" stroke="#fff" stroke-miterlimit="10" stroke-width="0.75"/><line x1="133.98" y1="63.04" x2="133.98" y2="68.37" fill="#fff" stroke="#fff" stroke-linecap="round" stroke-linejoin="round" stroke-width="0.75"/><line x1="128.54" y1="63.3" x2="128.54" y2="68.12" fill="#fff" stroke="#fff" stroke-linecap="round" stroke-linejoin="round" stroke-width="0.75"/><line x1="123.11" y1="63.55" x2="123.11" y2="67.86" fill="#fff" stroke="#fff" stroke-linecap="round" stroke-linejoin="round" stroke-width="0.75"/><line x1="117.67" y1="63.8" x2="117.67" y2="67.61" fill="#fff" stroke="#fff" stroke-linecap="round" stroke-linejoin="round" stroke-width="0.75"/><line x1="112.23" y1="64.06" x2="112.23" y2="67.36" fill="#fff" stroke="#fff" stroke-linecap="round" stroke-linejoin="round" stroke-width="0.75"/><line x1="106.79" y1="64.31" x2="106.79" y2="67.1" fill="#fff" stroke="#fff" stroke-linecap="round" stroke-linejoin="round" stroke-width="0.75"/><line x1="101.35" y1="64.57" x2="101.35" y2="66.85" fill="#fff" stroke="#fff" stroke-linecap="round" stroke-linejoin="round" stroke-width="0.75"/><line x1="95.91" y1="64.82" x2="95.91" y2="66.59" fill="#fff" stroke="#fff" stroke-linecap="round" stroke-linejoin="round" stroke-width="0.75"/><line x1="90.48" y1="65.07" x2="90.48" y2="66.34" fill="#fff" stroke="#fff" stroke-linecap="round" stroke-linejoin="round" stroke-width="0.75"/><line x1="85.04" y1="65.33" x2="85.04" y2="66.09" fill="#fff" stroke="#fff" stroke-linecap="round" stroke-linejoin="round" stroke-width="0.75"/><line x1="79.6" y1="65.58" x2="79.6" y2="65.83" fill="#fff" stroke="#fff" stroke-linecap="round" stroke-linejoin="round" stroke-width="0.75"/><line x1="74.16" y1="65.83" x2="74.16" y2="65.58" fill="#fff" stroke="#fff" stroke-linecap="round" stroke-linejoin="round" stroke-width="0.75"/><line x1="68.72" y1="66.09" x2="68.72" y2="65.33" fill="#fff" stroke="#fff" stroke-linecap="round" stroke-linejoin="round" stroke-width="0.75"/><line x1="63.29" y1="66.34" x2="63.29" y2="65.07" fill="#fff" stroke="#fff" stroke-linecap="round" stroke-linejoin="round" stroke-width="0.75"/><line x1="57.85" y1="66.59" x2="57.85" y2="64.82" fill="#fff" stroke="#fff" stroke-linecap="round" stroke-linejoin="round" stroke-width="0.75"/><line x1="52.41" y1="66.85" x2="52.41" y2="64.57" fill="#fff" stroke="#fff" stroke-linecap="round" stroke-linejoin="round" stroke-width="0.75"/><line x1="46.97" y1="67.1" x2="46.97" y2="64.31" fill="#fff" stroke="#fff" stroke-linecap="round" stroke-linejoin="round" stroke-width="0.75"/><line x1="41.53" y1="67.36" x2="41.53" y2="64.06" fill="#fff" stroke="#fff" stroke-linecap="round" stroke-linejoin="round" stroke-width="0.75"/><line x1="36.09" y1="67.61" x2="36.09" y2="63.8" fill="#fff" stroke="#fff" stroke-linecap="round" stroke-linejoin="round" stroke-width="0.75"/><line x1="30.66" y1="67.86" x2="30.66" y2="63.55" fill="#fff" stroke="#fff" stroke-linecap="round" stroke-linejoin="round" stroke-width="0.75"/><line x1="25.22" y1="68.12" x2="25.22" y2="63.3" fill="#fff" stroke="#fff" stroke-linecap="round" stroke-linejoin="round" stroke-width="0.75"/><line x1="19.78" y1="63.04" x2="19.78" y2="68.37" fill="#fff" stroke="#fff" stroke-linecap="round" stroke-linejoin="round" stroke-width="0.75"/><text transform="translate(17.37 58.39)" font-size="8.07" fill="#fff" font-family="ArialMT, Arial">0 1 2 3 4 5 6 7 8 9 10 <tspan x="78.51" y="0" letter-spacing="-0.07em">1</tspan><tspan x="82.4" y="0">1 12 13 14</tspan></text><text transform="translate(10.21 94.89)" font-size="6.94" fill="#c1272d" font-family="ArialMT, Arial">Acidic</text><text transform="translate(68.81 94.89)" font-size="6.94" fill="#8cc63f" font-family="ArialMT, Arial">Neutral</text><text transform="translate(119.6 94.89)" font-size="6.94" fill="#b0f" font-family="ArialMT, Arial">Alkaline</text></g></g></g></svg>