<svg xmlns="http://www.w3.org/2000/svg" xmlns:xlink="http://www.w3.org/1999/xlink" viewBox="0 0 154.57 154.57"><defs><style>.a0db792e-7bf8-4435-b5f3-757c5027ce81{isolation:isolate;}.af7a41eb-7965-4038-af4b-c0c97e994e2a{opacity:0.3;}.af7a41eb-7965-4038-af4b-c0c97e994e2a,.b96a9db7-0db0-4783-a0e8-784a41495ac6{mix-blend-mode:multiply;}.bd5cdf56-7437-42d6-8071-98a2379c596f{fill:url(#b36d0ae4-cc14-4ec6-bf4f-2f6bff0b02b4);}.f1c78598-2c38-457c-9bc6-ae6e061ef8de{fill:url(#e660fa41-a83e-499c-a457-23e2a419f05f);}.f644a2d0-5ca9-4e8a-b2ad-47d6fe0a8fe1{mask:url(#f98dc035-27d3-46ea-a86e-c848214444fb);}.ef4e17ce-ae0a-4f4a-aea7-743716a286d9{opacity:0.5;}.b9343f9f-645f-4904-a42b-dae45a890674{fill:#1e0000;}.b96a9db7-0db0-4783-a0e8-784a41495ac6{opacity:0.9;}.f0e1025c-6926-4789-8275-eaba949a0569{fill:url(#ad9b4404-68bc-4e69-8299-c217ad54e8fc);}.f49494ef-df4e-4a44-95cd-6b03f1c6791d{fill:url(#b26b7c01-e8af-4315-905e-02342a6b0705);}.a827e247-a11c-4e32-8230-9de6b2280b78,.a998e4ee-d744-482d-a00a-446c5843cc75,.abbe13f7-43aa-450b-a0a3-f1836d169145,.baccaead-82c5-41a5-880b-cedfce02642e,.ed415c00-9fa5-42cf-987d-c1f0291e875a{fill:#fff;}.a998e4ee-d744-482d-a00a-446c5843cc75,.baccaead-82c5-41a5-880b-cedfce02642e{stroke:#fff;stroke-width:0.75px;}.a998e4ee-d744-482d-a00a-446c5843cc75{stroke-miterlimit:10;}.baccaead-82c5-41a5-880b-cedfce02642e{stroke-linecap:round;stroke-linejoin:round;}.abbe13f7-43aa-450b-a0a3-f1836d169145{font-size:8.07px;}.a67f5a7f-e6d3-40f2-ad99-387cbe3aef64,.a983a553-0f3c-40ee-a15a-591268198adc,.abbe13f7-43aa-450b-a0a3-f1836d169145,.e8195ccf-dcc4-4540-b765-ce74afeca17d{font-family:ArialMT, Arial;}.b1ea064e-29a0-4bb6-83ba-c2a24c872641{letter-spacing:-0.07em;}.a67f5a7f-e6d3-40f2-ad99-387cbe3aef64,.a983a553-0f3c-40ee-a15a-591268198adc,.e8195ccf-dcc4-4540-b765-ce74afeca17d{font-size:6.94px;}.a67f5a7f-e6d3-40f2-ad99-387cbe3aef64{fill:#c1272d;}.e8195ccf-dcc4-4540-b765-ce74afeca17d{fill:#8cc63f;}.a983a553-0f3c-40ee-a15a-591268198adc{fill:#b0f;}.a827e247-a11c-4e32-8230-9de6b2280b78,.fa1d95cb-8666-4021-bcec-c68af4cefbcd{opacity:0.58;}.ed415c00-9fa5-42cf-987d-c1f0291e875a{opacity:0.8;}.eeebbebf-59b8-4d20-98a4-dadd8072cb9c{filter:url(#a7f02d8a-8db7-4a03-97c8-feb81cfec3f2);}</style><linearGradient id="b36d0ae4-cc14-4ec6-bf4f-2f6bff0b02b4" x1="514.37" y1="2872.65" x2="514.25" y2="2842.71" gradientTransform="translate(-437.21 -2772.08)" gradientUnits="userSpaceOnUse"><stop offset="0" stop-color="#b4c6cb"/><stop offset="0.31" stop-color="#cbd6da"/><stop offset="0.74" stop-color="#e6eaec"/><stop offset="1" stop-color="#f0f1f3"/></linearGradient><linearGradient id="e660fa41-a83e-499c-a457-23e2a419f05f" x1="-3684.54" y1="3983.47" x2="-3684.54" y2="3882.08" gradientTransform="translate(-3867.15 -3605.36) rotate(-90)" gradientUnits="userSpaceOnUse"><stop offset="0" stop-color="#b0f"/><stop offset="0.14" stop-color="blue"/><stop offset="0.28" stop-color="#0079fa"/><stop offset="0.38" stop-color="#00e9f6"/><stop offset="0.5" stop-color="#00f800"/><stop offset="0.64" stop-color="#a4f400"/><stop offset="0.74" stop-color="#ffde00"/><stop offset="0.8" stop-color="#ffad00"/><stop offset="0.86" stop-color="#f70"/><stop offset="0.91" stop-color="#ff4300"/><stop offset="0.97" stop-color="#ff1300"/><stop offset="1" stop-color="red"/></linearGradient><filter id="a7f02d8a-8db7-4a03-97c8-feb81cfec3f2" filterUnits="userSpaceOnUse" color-interpolation-filters="sRGB"><feColorMatrix values="-1 0 0 0 1 0 -1 0 0 1 0 0 -1 0 1 0 0 0 1 0"/></filter><mask id="f98dc035-27d3-46ea-a86e-c848214444fb" x="11.06" y="71" width="132" height="16" maskUnits="userSpaceOnUse"><g class="eeebbebf-59b8-4d20-98a4-dadd8072cb9c"><image width="132" height="16" transform="translate(11.06 71)" xlink:href="%E8%B5%84%E6%BA%90%20532.png"/></g></mask><linearGradient id="ad9b4404-68bc-4e69-8299-c217ad54e8fc" x1="-2041.33" y1="139.89" x2="-2025.47" y2="139.89" gradientTransform="translate(-1954.43 219.07) rotate(180)" gradientUnits="userSpaceOnUse"><stop offset="0" stop-color="#f0f1f3"/><stop offset="0.26" stop-color="#e6eaec"/><stop offset="0.69" stop-color="#cbd6da"/><stop offset="1" stop-color="#b4c6cb"/></linearGradient><linearGradient id="b26b7c01-e8af-4315-905e-02342a6b0705" x1="-2039.93" y1="139.89" x2="-2026.87" y2="139.89" gradientTransform="translate(-1954.43 219.07) rotate(180)" xlink:href="#b36d0ae4-cc14-4ec6-bf4f-2f6bff0b02b4"/></defs><title>资源 53</title><g class="a0db792e-7bf8-4435-b5f3-757c5027ce81"><g id="af520690-2799-4667-9612-f3e844a60853" data-name="图层 2"><g id="eb644485-f584-42a3-8e02-2afd98d41dab" data-name="图层 1"><image class="af7a41eb-7965-4038-af4b-c0c97e994e2a" width="144" height="27" transform="translate(5.06 67)" xlink:href="%E8%B5%84%E6%BA%90%20531.png"/><path class="bd5cdf56-7437-42d6-8071-98a2379c596f" d="M11.64,79.18h0a7.11,7.11,0,0,0,7.11,7.11H135.4a7.11,7.11,0,0,0,7.11-7.11h0a7.11,7.11,0,0,0-7.11-7.12H18.75A7.11,7.11,0,0,0,11.64,79.18Z"/><path class="f1c78598-2c38-457c-9bc6-ae6e061ef8de" d="M13.32,79.18a5.43,5.43,0,0,0,5.43,5.42H135.4a5.43,5.43,0,1,0,0-10.85H18.75A5.43,5.43,0,0,0,13.32,79.18Z"/><g class="f644a2d0-5ca9-4e8a-b2ad-47d6fe0a8fe1"><g class="ef4e17ce-ae0a-4f4a-aea7-743716a286d9"><path class="b9343f9f-645f-4904-a42b-dae45a890674" d="M13.32,79.18a5.43,5.43,0,0,0,5.43,5.42H135.4a5.43,5.43,0,1,0,0-10.85H18.75A5.43,5.43,0,0,0,13.32,79.18Z"/></g></g><image class="b96a9db7-0db0-4783-a0e8-784a41495ac6" width="29" height="23" transform="translate(64.06 69)" xlink:href="%E8%B5%84%E6%BA%90%20533.png"/><rect class="f0e1025c-6926-4789-8275-eaba949a0569" x="71.05" y="74.31" width="15.85" height="9.74" rx="4.08"/><rect class="f49494ef-df4e-4a44-95cd-6b03f1c6791d" x="72.44" y="75.71" width="13.05" height="6.94" rx="1.79"/><line class="a998e4ee-d744-482d-a00a-446c5843cc75" x1="19.74" y1="65.8" x2="133.94" y2="65.8"/><line class="baccaead-82c5-41a5-880b-cedfce02642e" x1="133.94" y1="63.14" x2="133.94" y2="68.46"/><line class="baccaead-82c5-41a5-880b-cedfce02642e" x1="128.51" y1="63.39" x2="128.51" y2="68.21"/><line class="baccaead-82c5-41a5-880b-cedfce02642e" x1="123.07" y1="63.64" x2="123.07" y2="67.96"/><line class="baccaead-82c5-41a5-880b-cedfce02642e" x1="117.63" y1="63.9" x2="117.63" y2="67.7"/><line class="baccaead-82c5-41a5-880b-cedfce02642e" x1="112.19" y1="64.15" x2="112.19" y2="67.45"/><line class="baccaead-82c5-41a5-880b-cedfce02642e" x1="106.75" y1="64.41" x2="106.75" y2="67.2"/><line class="baccaead-82c5-41a5-880b-cedfce02642e" x1="101.31" y1="64.66" x2="101.31" y2="66.94"/><line class="baccaead-82c5-41a5-880b-cedfce02642e" x1="95.88" y1="64.91" x2="95.88" y2="66.69"/><line class="baccaead-82c5-41a5-880b-cedfce02642e" x1="90.44" y1="65.17" x2="90.44" y2="66.43"/><line class="baccaead-82c5-41a5-880b-cedfce02642e" x1="85" y1="65.42" x2="85" y2="66.18"/><line class="baccaead-82c5-41a5-880b-cedfce02642e" x1="79.56" y1="65.67" x2="79.56" y2="65.93"/><line class="baccaead-82c5-41a5-880b-cedfce02642e" x1="74.12" y1="65.93" x2="74.12" y2="65.67"/><line class="baccaead-82c5-41a5-880b-cedfce02642e" x1="68.68" y1="66.18" x2="68.68" y2="65.42"/><line class="baccaead-82c5-41a5-880b-cedfce02642e" x1="63.25" y1="66.43" x2="63.25" y2="65.17"/><line class="baccaead-82c5-41a5-880b-cedfce02642e" x1="57.81" y1="66.69" x2="57.81" y2="64.91"/><line class="baccaead-82c5-41a5-880b-cedfce02642e" x1="52.37" y1="66.94" x2="52.37" y2="64.66"/><line class="baccaead-82c5-41a5-880b-cedfce02642e" x1="46.93" y1="67.2" x2="46.93" y2="64.41"/><line class="baccaead-82c5-41a5-880b-cedfce02642e" x1="41.49" y1="67.45" x2="41.49" y2="64.15"/><line class="baccaead-82c5-41a5-880b-cedfce02642e" x1="36.06" y1="67.7" x2="36.06" y2="63.9"/><line class="baccaead-82c5-41a5-880b-cedfce02642e" x1="30.62" y1="67.96" x2="30.62" y2="63.64"/><line class="baccaead-82c5-41a5-880b-cedfce02642e" x1="25.18" y1="68.21" x2="25.18" y2="63.39"/><line class="baccaead-82c5-41a5-880b-cedfce02642e" x1="19.74" y1="63.14" x2="19.74" y2="68.46"/><text class="abbe13f7-43aa-450b-a0a3-f1836d169145" transform="translate(17.33 58.48)">0 1 2 3 4 5 6 7 8 9 10 <tspan class="b1ea064e-29a0-4bb6-83ba-c2a24c872641" x="78.51" y="0">1</tspan><tspan x="82.4" y="0">1 12 13 14</tspan></text><text class="a67f5a7f-e6d3-40f2-ad99-387cbe3aef64" transform="translate(10.17 94.98)">Acidic</text><text class="e8195ccf-dcc4-4540-b765-ce74afeca17d" transform="translate(68.77 94.98)">Neutral</text><text class="a983a553-0f3c-40ee-a15a-591268198adc" transform="translate(119.56 94.98)">Alkaline</text><image class="fa1d95cb-8666-4021-bcec-c68af4cefbcd" width="156" height="155" transform="translate(-0.94)" xlink:href="%E8%B5%84%E6%BA%90%20534.png"/><path class="ed415c00-9fa5-42cf-987d-c1f0291e875a" d="M43.87,136.64c-13.48-7.91-23.39-19.21-28.81-31.42,3.14,13,12.48,25.66,26.48,33.88,12.37,7.26,26,9.65,37.87,7.63A71.38,71.38,0,0,1,43.87,136.64Z"/><circle class="a827e247-a11c-4e32-8230-9de6b2280b78" cx="111.07" cy="26.5" r="3.11"/><circle class="a827e247-a11c-4e32-8230-9de6b2280b78" cx="121.82" cy="38.92" r="6.21"/></g></g></g></svg>