<svg xmlns="http://www.w3.org/2000/svg" xmlns:xlink="http://www.w3.org/1999/xlink" viewBox="0 0 165.84 165.84"><defs><radialGradient id="eec5874c-17e4-4c35-8868-ac925b0d10ac" cx="-892.11" cy="-785.24" r="82.92" gradientTransform="matrix(-1, 0, 0, 1, -809.19, 868.17)" gradientUnits="userSpaceOnUse"><stop offset="0" stop-color="#7600ff"/><stop offset="0.37" stop-color="#7502ff"/><stop offset="0.55" stop-color="#730aff"/><stop offset="0.69" stop-color="#7017ff"/><stop offset="0.81" stop-color="#6b29ff"/><stop offset="0.91" stop-color="#6541ff"/><stop offset="1" stop-color="#5e5dff"/></radialGradient><radialGradient id="bed21d68-4548-44f5-9d64-5470b8e7fd18" cx="-889.15" cy="-778.74" r="54.98" gradientTransform="matrix(-1, 0, 0, 1, -809.19, 868.17)" gradientUnits="userSpaceOnUse"><stop offset="0" stop-color="#ee5a29"/><stop offset="0.11" stop-color="#c64b22"/><stop offset="0.29" stop-color="#8a3418"/><stop offset="0.46" stop-color="#59220f"/><stop offset="0.62" stop-color="#321309"/><stop offset="0.77" stop-color="#170904"/><stop offset="0.9" stop-color="#060201"/><stop offset="1"/></radialGradient><radialGradient id="b8008a7c-1435-4643-b6d9-ed21c3b08df1" cx="-889.15" cy="-778.74" r="31.69" gradientTransform="matrix(-1, 0, 0, 1, -809.19, 868.17)" gradientUnits="userSpaceOnUse"><stop offset="0" stop-color="#f6ea32"/><stop offset="0.02" stop-color="#e6db2f"/><stop offset="0.09" stop-color="#b6ad25"/><stop offset="0.16" stop-color="#8b841c"/><stop offset="0.24" stop-color="#656015"/><stop offset="0.32" stop-color="#46420e"/><stop offset="0.41" stop-color="#2c2a09"/><stop offset="0.5" stop-color="#181705"/><stop offset="0.62" stop-color="#0b0a02"/><stop offset="0.76" stop-color="#020200"/><stop offset="1"/></radialGradient><radialGradient id="f554fa96-0cdd-4a42-be3c-945d8f14f429" cx="-913.74" cy="-745.91" r="18.2" xlink:href="#b8008a7c-1435-4643-b6d9-ed21c3b08df1"/><radialGradient id="b0e70f6a-d111-4a25-ad92-98a965c41b31" cx="-882.57" cy="-762.06" r="18.2" xlink:href="#b8008a7c-1435-4643-b6d9-ed21c3b08df1"/><radialGradient id="a2f92e54-c10a-4218-a8d2-398a03317779" cx="-858.84" cy="-746.14" r="11.04" gradientTransform="matrix(-0.38, -0.92, -0.92, 0.38, -968.35, -385.91)" xlink:href="#b8008a7c-1435-4643-b6d9-ed21c3b08df1"/><radialGradient id="b38f1c84-f665-413b-8b69-7039f50aa38a" cx="-897.84" cy="-775.38" r="11.04" gradientTransform="matrix(-0.97, -0.23, -0.23, 0.97, -963.32, 641.14)" xlink:href="#b8008a7c-1435-4643-b6d9-ed21c3b08df1"/><radialGradient id="bf4bda81-c85e-46b9-a9cb-756b9983e6ed" cx="-911.52" cy="-830.69" r="11.04" gradientTransform="matrix(-0.97, -0.23, -0.23, 0.97, -975.66, 636.52)" xlink:href="#b8008a7c-1435-4643-b6d9-ed21c3b08df1"/><radialGradient id="be7637cb-5891-4045-9b5b-e01005ccfd61" cx="-937.29" cy="-750.02" r="11.04" xlink:href="#b8008a7c-1435-4643-b6d9-ed21c3b08df1"/><radialGradient id="ea5b692c-7b14-40d9-a3a6-1dff18e49029" cx="-873.28" cy="-720.8" r="11.04" xlink:href="#b8008a7c-1435-4643-b6d9-ed21c3b08df1"/><radialGradient id="efe4bd6b-ebc8-4293-9f3f-88363c4bbce8" cx="-923.2" cy="-830.69" r="11.04" xlink:href="#b8008a7c-1435-4643-b6d9-ed21c3b08df1"/><radialGradient id="e26a68bc-1a82-4dd7-b6e9-e62575cd45f9" cx="-871.53" cy="-851.68" r="11.04" xlink:href="#b8008a7c-1435-4643-b6d9-ed21c3b08df1"/><radialGradient id="bc97d7e3-1baa-4514-82d2-79f4aa0d1e4c" cx="-916.04" cy="-757.18" r="18.2" xlink:href="#b8008a7c-1435-4643-b6d9-ed21c3b08df1"/><radialGradient id="aeb3b0df-3b61-4ac7-ba15-ccd82efc53ca" cx="-913.74" cy="-780.26" r="18.2" xlink:href="#b8008a7c-1435-4643-b6d9-ed21c3b08df1"/><radialGradient id="f660a895-1536-4463-9853-2bc1e5d99ccd" cx="-895.54" cy="-807.92" r="18.2" xlink:href="#b8008a7c-1435-4643-b6d9-ed21c3b08df1"/><radialGradient id="e02ddaf2-efe9-4c22-83b3-c6144432236d" cx="-934.52" cy="-798.46" r="18.2" xlink:href="#b8008a7c-1435-4643-b6d9-ed21c3b08df1"/><radialGradient id="f4dfe681-bd1f-4d49-a8a6-ea6d5e9436c2" cx="-924.71" cy="-774.11" r="18.2" xlink:href="#b8008a7c-1435-4643-b6d9-ed21c3b08df1"/><radialGradient id="ed97ea48-8cc9-488d-a92a-6ee8213f4db2" cx="-916.04" cy="-798.46" r="26.73" gradientTransform="matrix(-0.97, -0.23, -0.23, 0.97, -968.13, 636.34)" xlink:href="#b8008a7c-1435-4643-b6d9-ed21c3b08df1"/><radialGradient id="b07a67bf-aca7-4e6b-895b-daf904d45efd" cx="-858.17" cy="-777.14" r="18.2" gradientTransform="matrix(-0.99, -0.16, -0.16, 0.99, -922.59, 720.67)" xlink:href="#b8008a7c-1435-4643-b6d9-ed21c3b08df1"/><linearGradient id="fe9e278e-8cf9-41bb-ae53-f7664cc4033a" x1="-4050.14" y1="2645.62" x2="-4055.58" y2="2676.42" gradientTransform="matrix(0, 1, 1, 0, -2570.48, 4140.45)" gradientUnits="userSpaceOnUse"><stop offset="0" stop-color="#808082"/><stop offset="1" stop-color="#ec4136"/></linearGradient><linearGradient id="bc1f9e1d-b06e-4d55-bf08-f0cd43c037e1" x1="-975.03" y1="-785.25" x2="-809.19" y2="-785.25" gradientTransform="matrix(-1, 0, 0, 1, -809.19, 868.17)" gradientUnits="userSpaceOnUse"><stop offset="0" stop-color="#648eff"/><stop offset="1" stop-color="#829aff"/></linearGradient><linearGradient id="b97d6b84-8d79-4941-8991-e1e16795ecc7" x1="-948.91" y1="-737.23" x2="-914.27" y2="-766.25" gradientTransform="matrix(-1, 0, 0, 1, -809.19, 868.17)" gradientUnits="userSpaceOnUse"><stop offset="0" stop-color="#ec4136"/><stop offset="1"/></linearGradient><radialGradient id="b01e84cf-8f7a-42b1-a41c-1f2d727eb445" cx="-903.16" cy="-774.11" r="67.77" gradientTransform="matrix(-1, 0, 0, 1, -809.19, 868.17)" gradientUnits="userSpaceOnUse"><stop offset="0" stop-color="#fff"/><stop offset="1" stop-color="#e0ffff"/></radialGradient><linearGradient id="b5779cab-38ea-452b-ace1-fbc8136df951" x1="-863.9" y1="-849.58" x2="-887.56" y2="-789.35" gradientTransform="matrix(-1, 0, 0, 1, -809.19, 868.17)" gradientUnits="userSpaceOnUse"><stop offset="0" stop-color="#f6ea32"/><stop offset="1"/></linearGradient><radialGradient id="ff0068ce-f338-41fe-83f6-5aa9c35ffbad" cx="-857.46" cy="-821.76" r="32.04" gradientTransform="matrix(-0.97, -0.23, -0.23, 0.97, -975.05, 649.18)" gradientUnits="userSpaceOnUse"><stop offset="0" stop-color="#fff"/><stop offset="0.42" stop-color="#8d8d8d"/><stop offset="0.82" stop-color="#282828"/><stop offset="1"/></radialGradient><radialGradient id="e842ae52-04b7-4861-8e42-3de955e3a215" cx="-860.16" cy="-837.76" r="6.99" xlink:href="#b01e84cf-8f7a-42b1-a41c-1f2d727eb445"/><radialGradient id="faa5f9be-7ef5-446c-b8a0-7ea233895c54" cx="-847.81" cy="-822.6" r="10.74" xlink:href="#b01e84cf-8f7a-42b1-a41c-1f2d727eb445"/><radialGradient id="ece95d8a-65f7-43e4-9231-28f8545fd7cc" cx="-890.25" cy="-789.26" r="78.83" gradientTransform="matrix(-1, 0, 0, 1, -809.19, 868.17)" gradientUnits="userSpaceOnUse"><stop offset="0"/><stop offset="0.4" stop-color="#010202"/><stop offset="0.54" stop-color="#040809"/><stop offset="0.64" stop-color="#0a1414"/><stop offset="0.72" stop-color="#132525"/><stop offset="0.8" stop-color="#1e3a3b"/><stop offset="0.86" stop-color="#2c5557"/><stop offset="0.91" stop-color="#3c7477"/><stop offset="0.96" stop-color="#4f989b"/><stop offset="1" stop-color="#5eb6ba"/></radialGradient><radialGradient id="b5aaea87-2f20-40bc-834e-b1e52bbbd531" cx="-892.11" cy="-785.25" r="78.83" gradientTransform="matrix(-1, 0, 0, 1, -809.19, 868.17)" gradientUnits="userSpaceOnUse"><stop offset="0" stop-color="#662d8e"/><stop offset="0.21" stop-color="#613291"/><stop offset="0.46" stop-color="#533f99"/><stop offset="0.72" stop-color="#3c55a6"/><stop offset="0.99" stop-color="#1c74b8"/><stop offset="1" stop-color="#1b75b9"/></radialGradient></defs><title>资源 43</title><g style="isolation:isolate"><g id="e4fc0b74-6485-4ab0-b033-c77a1b1d9bc0" data-name="图层 2"><g id="b013a127-730a-408f-8da0-7b1cd096779d" data-name="图层 1"><circle cx="82.92" cy="82.92" r="82.92" fill="url(#eec5874c-17e4-4c35-8868-ac925b0d10ac)"/><circle cx="79.96" cy="89.43" r="54.98" fill="url(#bed21d68-4548-44f5-9d64-5470b8e7fd18)" style="mix-blend-mode:screen"/><circle cx="79.96" cy="89.43" r="31.69" fill="url(#b8008a7c-1435-4643-b6d9-ed21c3b08df1)" style="mix-blend-mode:screen"/><circle cx="104.56" cy="122.26" r="18.2" fill="url(#f554fa96-0cdd-4a42-be3c-945d8f14f429)" style="mix-blend-mode:screen"/><circle cx="73.38" cy="106.11" r="18.2" fill="url(#b0e70f6a-d111-4a25-ad92-98a965c41b31)" style="mix-blend-mode:screen"/><circle cx="49.66" cy="122.02" r="11.04" transform="translate(-82.08 121.2) rotate(-67.5)" fill="url(#a2f92e54-c10a-4218-a8d2-398a03317779)" style="mix-blend-mode:screen"/><circle cx="88.65" cy="92.78" r="11.04" transform="translate(-18.95 22.85) rotate(-13.28)" fill="url(#b38f1c84-f665-413b-8b69-7039f50aa38a)" style="mix-blend-mode:screen"/><circle cx="102.33" cy="37.48" r="11.04" transform="translate(-5.87 24.51) rotate(-13.28)" fill="url(#bf4bda81-c85e-46b9-a9cb-756b9983e6ed)" style="mix-blend-mode:screen"/><circle cx="128.1" cy="118.15" r="11.04" fill="url(#be7637cb-5891-4045-9b5b-e01005ccfd61)" style="mix-blend-mode:screen"/><circle cx="64.09" cy="147.36" r="11.04" fill="url(#ea5b692c-7b14-40d9-a3a6-1dff18e49029)" style="mix-blend-mode:screen"/><circle cx="114.02" cy="37.48" r="11.04" fill="url(#efe4bd6b-ebc8-4293-9f3f-88363c4bbce8)" style="mix-blend-mode:screen"/><circle cx="62.34" cy="16.48" r="11.04" fill="url(#e26a68bc-1a82-4dd7-b6e9-e62575cd45f9)" style="mix-blend-mode:screen"/><circle cx="106.85" cy="110.98" r="18.2" fill="url(#bc97d7e3-1baa-4514-82d2-79f4aa0d1e4c)" style="mix-blend-mode:screen"/><circle cx="104.56" cy="87.91" r="18.2" fill="url(#aeb3b0df-3b61-4ac7-ba15-ccd82efc53ca)" style="mix-blend-mode:screen"/><circle cx="86.35" cy="60.25" r="18.2" fill="url(#f660a895-1536-4463-9853-2bc1e5d99ccd)" style="mix-blend-mode:screen"/><circle cx="125.33" cy="69.71" r="18.2" fill="url(#e02ddaf2-efe9-4c22-83b3-c6144432236d)" style="mix-blend-mode:screen"/><circle cx="115.53" cy="94.05" r="18.2" fill="url(#f4dfe681-bd1f-4d49-a8a6-ea6d5e9436c2)" style="mix-blend-mode:screen"/><circle cx="106.85" cy="69.71" r="26.73" transform="translate(-13.16 26.41) rotate(-13.28)" fill="url(#ed97ea48-8cc9-488d-a92a-6ee8213f4db2)" style="mix-blend-mode:screen"/><circle cx="48.98" cy="91.03" r="18.2" transform="translate(-13.95 9.02) rotate(-9.22)" fill="url(#b07a67bf-aca7-4e6b-895b-daf904d45efd)" style="mix-blend-mode:screen"/><path d="M84.29,155.42c29.44,0,53.3-29.85,53.3-66.68s-23.86-66.69-53.3-66.69S24.36,49.19,24.36,86,54.85,155.42,84.29,155.42Z" opacity="0.8" fill="url(#fe9e278e-8cf9-41bb-ae53-f7664cc4033a)" style="mix-blend-mode:overlay"/><path d="M0,82.92A82.92,82.92,0,1,0,82.92,0,82.91,82.91,0,0,0,0,82.92Zm4.1,0A78.48,78.48,0,0,1,24.22,30.37l.64-.71c.11-.12.22-.23.32-.35A79.25,79.25,0,0,1,39.42,17.22,78.81,78.81,0,1,1,4.1,82.92Z" fill="url(#bc1f9e1d-b06e-4d55-bf08-f0cd43c037e1)"/><path d="M11.46,125A82.93,82.93,0,1,0,143.79,26.61,82.93,82.93,0,0,1,11.46,125Z" opacity="0.8" fill="url(#b97d6b84-8d79-4941-8991-e1e16795ecc7)" style="mix-blend-mode:screen"/><path d="M26.2,137.61A78.74,78.74,0,1,0,137.53,26.28,78.74,78.74,0,0,1,26.2,137.61Z" fill="url(#b01e84cf-8f7a-42b1-a41c-1f2d727eb445)"/><path d="M37.7,18.35c24.69-16.2,63.47-20.89,88.86,5.12,24.89,25.48-1,45-36,42.72-29.45-2-42.32,11.19-51.87,23.21s-29.83,13.3-31.94-9C4.79,60.09,17.84,31.38,37.7,18.35Z" opacity="0.8" fill="url(#b5779cab-38ea-452b-ace1-fbc8136df951)" style="mix-blend-mode:screen"/><circle cx="48.28" cy="46.41" r="32.04" transform="translate(-9.37 12.33) rotate(-13.28)" opacity="0.5" fill="url(#ff0068ce-f338-41fe-83f6-5aa9c35ffbad)" style="mix-blend-mode:screen"/><path d="M51.07,23.34s5,3.28,6.82,6.94c0,0-2.68,4.79-6.3,7.2,0,0-5.37-3.31-7.53-7.08C44.06,30.4,47.91,25.29,51.07,23.34Z" fill="url(#e842ae52-04b7-4861-8e42-3de955e3a215)"/><path d="M49,41.23a25.87,25.87,0,0,0-8.56-6.78A65.44,65.44,0,0,0,28.25,51.94a23.24,23.24,0,0,0,10.39,4.73A67.94,67.94,0,0,0,49,41.23Z" fill="url(#faa5f9be-7ef5-446c-b8a0-7ea233895c54)"/><ellipse cx="82.06" cy="95.62" rx="81.17" ry="14.79" fill="#b7d6ff" opacity="0.85"/><path d="M82.26,110.4C38.31,110.4,2.54,104,1.33,96c1.21,37,37,66.71,80.93,66.71S162,133,163.19,96C162,104,126.21,110.4,82.26,110.4Z" fill="#6c95c1" opacity="0.85"/><path d="M39.17,76.88C39,72.12,35.09,65.53,28.39,65.36,21.49,65.2,17.12,72,17.06,76.88c0,2.49,1.06,4.35,2.83,7.31a35.64,35.64,0,0,0,8.23,9.41,29.29,29.29,0,0,0,8-8.59C37.86,82.22,39.28,79.9,39.17,76.88ZM28.08,80.39a4.21,4.21,0,1,1,4.21-4.2A4.2,4.2,0,0,1,28.08,80.39Z" fill="#d65241"/><path d="M37.78,77.91C37.62,73.15,33.7,66.56,27,66.4,20.1,66.23,15.72,73,15.66,77.91c0,2.49,1.06,4.35,2.84,7.31a35.53,35.53,0,0,0,8.22,9.42,29.42,29.42,0,0,0,8-8.59C36.47,83.25,37.88,80.94,37.78,77.91ZM26.69,81.42a4.2,4.2,0,1,1,4.2-4.2A4.2,4.2,0,0,1,26.69,81.42Z" fill="#f3715b"/><image width="142" height="88" transform="translate(15.41 29.86)" opacity="0.75" xlink:href="%E8%B5%84%E6%BA%90%20431.png" style="mix-blend-mode:screen"/><path d="M2.24,80.13a78.88,78.88,0,1,0,35.32-65.7h0s49.23-17,66.21-1.95c9.11,8.09-2.37,14.67-11.17,24.19s0,13.16,21.24,21.6c17.28,6.87,22.35,41.74,1.88,60.85s-85.45,9.55-91.45-6.83S65.43,115.11,62,104.1C57,88.54,24,78.44,19.63,62.61c-4.78-17.35-1.79-29.64,2.73-35A78.55,78.55,0,0,0,2.24,80.13Z" opacity="0.8" fill="url(#ece95d8a-65f7-43e4-9231-28f8545fd7cc)" style="mix-blend-mode:screen"/><path d="M4.1,82.92A78.92,78.92,0,1,0,25.18,29.31c-.1.12-.21.23-.32.35l-.64.71A78.48,78.48,0,0,0,4.1,82.92Z" opacity="0.3" fill="url(#b5aaea87-2f20-40bc-834e-b1e52bbbd531)" style="mix-blend-mode:screen"/></g></g></g></svg>